#VRML V2.0 utf8
# 3D model generated by easyeda2kicad.py (https://github.com/uPesy/easyeda2kicad.py)

Shape{
    appearance Appearance {
        material  Material 	{
            diffuseColor 0.11372549019607843 0.11372549019607843 0.11372549019607843
            specularColor 0.058823529411764705 0.058823529411764705 0.058823529411764705
            ambientIntensity 0.1137
            transparency 0.0
            shininess 0.5
        }
    }
    geometry IndexedFaceSet {
        ccw TRUE
        solid FALSE
        coord DEF co Coordinate {
            point [
                1.9598 0.1939 0.1577, 1.9598 -0.5321 0.0039, 1.9598 1.4774 0.1577, 1.9598 2.6132 0.0039, 1.9598 1.4774 0.2205, 1.9598 2.6132 0.2205, 1.9598 0.1939 0.2205, 1.9598 -1.4715 0.2205, 1.9598 -1.4715 0.0039, 1.8384 1.4774 0.9094, 1.8384 2.4917 0.9094, 1.7584 1.4774 0.9094, -1.8163 2.4917 0.9094, -1.7364 1.4774 0.9094, -1.8163 1.4774 0.9094, -1.8163 0.1939 0.9094, -1.8163 -1.35 0.9094, -1.7364 0.1939 0.9094, 1.8384 -1.35 0.9094, -0.4972 0.3604 0.9094, -0.5391 0.5709 0.9094, 1.8384 0.1939 0.9094, 1.7584 0.1939 0.9094, 0.2215 0.0626 0.9094, 0.4 0.1819 0.9094, 0.5192 0.3604 0.9094, -0.4972 0.7814 0.9094, -0.378 0.9598 0.9094, 0.2215 1.0791 0.9094, 0.011 1.121 0.9094, -0.1995 1.0791 0.9094, 0.011 0.0208 0.9094, -0.1995 0.0626 0.9094, -0.378 0.1819 0.9094, 0.4 0.9598 0.9094, 0.5192 0.7814 0.9094, 0.5611 0.5709 0.9094, -1.9378 1.4774 0.2205, -1.9378 2.6132 0.2205, 0.2305 -0.532 0.0039, 0.2311 -0.5321 0.0039, 0.13 -0.5296 0.0039, -0.2991 -0.3327 0.0039, -0.3899 -0.5296 0.0039, -1.9378 -0.5321 0.0039, -0.3707 -0.5296 0.0039, 0.0012 -0.5321 0.0039, -0.0774 -0.5296 0.0039, -0.0164 -0.5296 0.0039, -0.0164 -0.3327 0.0039, -1.8512 1.4754 0.0039, -1.8512 0.1919 0.0039, -0.2032 -0.5296 0.0039, -0.1383 -0.5158 0.0039, -0.0987 -0.5285 0.0039, -1.6634 2.6132 0.0039, -1.6634 1.4754 0.0039, -1.9181 2.6132 0.0039, -1.9378 2.6132 0.0039, -0.2225 -0.5296 0.0039, -0.2524 -0.4665 0.0039, -0.3416 -0.4665 0.0039, -0.1541 -0.3637 0.0039, -0.1742 -0.4027 0.0039, -0.2966 -0.3327 0.0039, -0.1779 -0.4336 0.0039, -0.1668 -0.4832 0.0039, -1.6622 0.1919 0.0039, -1.6622 0.0738 0.0039, 0.0012 0.0738 0.0039, -0.1186 -0.3398 0.0039, -0.0562 -0.3327 0.0039, -0.0877 -0.3339 0.0039, 0.0012 -0.9596 0.0039, -1.3276 -0.9596 0.0039, -1.8 -1.4715 0.0039, -1.9378 -1.4715 0.0039, -1.8 -0.9596 0.0039, -1.485 -0.9596 0.0039, -1.485 -1.4715 0.0039, -1.3276 -1.4715 0.0039, 1.822 -0.9596 0.0039, 1.822 -1.4715 0.0039, 0.256 -0.5346 0.0039, 0.27 -0.5321 0.0039, 0.13 -0.3327 0.0039, 0.0189 -0.3327 0.0039, 0.0189 -0.3529 0.0039, 1.6842 0.0738 0.0039, 1.6842 0.1919 0.0039, 0.0189 -0.4337 0.0039, 0.1123 -0.4337 0.0039, 0.1123 -0.5094 0.0039, 1.8732 0.1919 0.0039, 1.8732 1.4754 0.0039, 1.9402 2.6132 0.0039, 1.6854 1.4754 0.0039, 1.6854 2.6132 0.0039, 0.0189 -0.5094 0.0039, 0.0189 -0.5296 0.0039, 0.4782 -0.5296 0.0039, 0.3848 -0.5296 0.0039, 0.3006 -0.5266 0.0039, 0.3197 -0.5162 0.0039, 0.0189 -0.4135 0.0039, 0.1123 -0.4135 0.0039, 0.1123 -0.3529 0.0039, 0.4606 -0.3327 0.0039, 0.4782 -0.3327 0.0039, 0.2461 -0.5343 0.0039, 0.301 -0.3587 0.0039, 0.3315 -0.3862 0.0039, 0.2573 -0.3479 0.0039, 0.3442 -0.4234 0.0039, 0.3445 -0.4314 0.0039, 0.3343 -0.4719 0.0039, 0.3071 -0.5004 0.0039, 0.2685 -0.5138 0.0039, 0.3309 -0.5068 0.0039, 0.3372 -0.5002 0.0039, 0.3848 -0.5094 0.0039, 0.3561 -0.4674 0.0039, 0.4606 -0.5094 0.0039, 0.3621 -0.43 0.0039, 0.1703 -0.4933 0.0039, 0.1703 -0.3689 0.0039, 0.1858 -0.4816 0.0039, 0.1858 -0.3807 0.0039, 0.2172 -0.5061 0.0039, 0.2177 -0.356 0.0039, 0.2561 -0.5144 0.0039, 0.2363 -0.35 0.0039, 0.2492 -0.3482 0.0039, 0.2562 -0.3277 0.0039, 0.2082 -0.3378 0.0039, 0.188 -0.3503 0.0039, 0.3495 -0.3797 0.0039, 0.3158 -0.3442 0.0039, 0.2649 -0.328 0.0039, 0.1765 -0.3611 0.0039, 0.2081 -0.5244 0.0039, -1.0126 -1.2352 0.0039, -0.8551 -1.2352 0.0039, -1.0126 -1.4715 0.0039, -0.8551 -1.4715 0.0039, -0.5402 -1.2352 0.0039, -0.3827 -1.2352 0.0039, -0.5402 -1.4715 0.0039, -0.3827 -1.4715 0.0039, -0.0677 -1.2352 0.0039, 0.0898 -1.2352 0.0039, -0.0677 -1.4715 0.0039, 0.0898 -1.4715 0.0039, 0.4047 -1.2352 0.0039, 0.5622 -1.2352 0.0039, 0.4047 -1.4715 0.0039, 0.5622 -1.4715 0.0039, 0.8772 -1.2352 0.0039, 1.0346 -1.2352 0.0039, 0.8772 -1.4715 0.0039, 1.0346 -1.4715 0.0039, -1.9181 2.6132 0.2008, 1.9402 2.6132 0.2008, -1.9378 1.4774 0.1577, -1.9378 -1.4715 0.2205, -1.9378 0.1939 0.1577, -1.9378 0.1939 0.2205, -1.8 -1.4715 0.2008, -1.485 -1.4715 0.2008, -1.0126 -1.4715 0.2008, 0.4047 -1.4715 0.2008, 0.5622 -1.4715 0.2008, 0.8772 -1.4715 0.2008, -0.8551 -1.4715 0.2008, -0.5402 -1.4715 0.2008, -1.3276 -1.4715 0.2008, 1.3496 -1.4715 0.2008, 1.0346 -1.4715 0.2008, 1.822 -1.4715 0.2008, 1.5071 -1.4715 0.2008, 1.5071 -1.4715 0.0039, 1.3496 -1.4715 0.0039, -0.3827 -1.4715 0.2008, -0.0677 -1.4715 0.2008, 0.0898 -1.4715 0.2008, 1.5071 -1.2352 0.0039, 1.3496 -1.2352 0.0039, 0.5611 0.5709 0.752, 0.5192 0.7814 0.752, 0.4 0.9598 0.752, 0.2215 1.0791 0.752, 0.011 1.121 0.752, -0.1995 1.0791 0.752, -0.378 0.9598 0.752, -0.4972 0.7814 0.752, -0.5391 0.5709 0.752, -0.4972 0.3604 0.752, -0.378 0.1819 0.752, -0.1995 0.0626 0.752, 0.011 0.0208 0.752, 0.2215 0.0626 0.752, 0.4 0.1819 0.752, 0.5192 0.3604 0.752, 0.011 0.5709 0.752
            ]
        }
        coordIndex [
            0,1,2,-1,2,1,3,-1,2,3,4,-1,4,3,5,-1,0,6,1,-1,1,6,7,-1,1,7,8,-1,9,10,11,-1,11,10,12,-1,11,12,13,-1,13,12,14,-1,15,16,17,-1,17,16,18,-1,17,19,20,-1,18,21,22,-1,23,18,24,-1,24,18,22,-1,24,22,25,-1,17,20,13,-1,13,20,26,-1,13,26,27,-1,28,11,29,-1,29,11,13,-1,29,13,30,-1,30,13,27,-1,23,31,18,-1,18,31,32,-1,18,32,17,-1,17,32,33,-1,17,33,19,-1,28,34,11,-1,11,34,35,-1,11,35,22,-1,22,35,36,-1,22,36,25,-1,18,7,21,-1,21,7,6,-1,5,10,4,-1,4,10,9,-1,14,12,37,-1,37,12,38,-1,39,40,41,-1,42,43,44,-1,43,45,46,-1,47,48,46,-1,46,48,49,-1,50,51,44,-1,52,53,54,-1,55,56,57,-1,57,56,50,-1,57,50,58,-1,58,50,44,-1,54,47,52,-1,52,47,46,-1,52,46,59,-1,59,46,45,-1,59,45,60,-1,60,45,61,-1,62,63,64,-1,64,63,65,-1,64,65,52,-1,52,65,66,-1,52,66,53,-1,51,67,44,-1,44,67,68,-1,44,68,42,-1,42,68,69,-1,42,69,64,-1,64,69,70,-1,64,70,62,-1,49,71,69,-1,69,71,72,-1,69,72,70,-1,43,46,44,-1,44,46,73,-1,44,73,74,-1,75,76,77,-1,77,76,44,-1,77,44,78,-1,78,44,74,-1,78,74,79,-1,79,74,80,-1,1,8,81,-1,81,8,82,-1,73,83,84,-1,85,86,69,-1,49,69,46,-1,46,69,86,-1,46,86,87,-1,1,88,89,-1,90,91,92,-1,89,93,1,-1,1,93,94,-1,1,94,3,-1,3,94,95,-1,95,94,96,-1,95,96,97,-1,98,99,46,-1,100,84,101,-1,101,84,102,-1,101,102,103,-1,92,98,90,-1,90,98,46,-1,90,46,104,-1,104,46,87,-1,104,87,105,-1,105,87,106,-1,107,69,108,-1,108,69,88,-1,108,88,100,-1,100,88,1,-1,100,1,84,-1,84,1,81,-1,84,81,73,-1,99,41,46,-1,46,41,40,-1,46,40,73,-1,73,40,109,-1,73,109,83,-1,110,111,112,-1,112,111,113,-1,112,113,114,-1,114,115,112,-1,112,115,116,-1,112,116,117,-1,103,118,101,-1,101,118,119,-1,101,119,120,-1,120,119,121,-1,120,121,122,-1,122,121,123,-1,122,123,107,-1,124,125,126,-1,126,125,127,-1,126,127,128,-1,128,127,129,-1,128,129,130,-1,130,129,131,-1,130,131,117,-1,117,131,132,-1,117,132,112,-1,133,134,69,-1,69,134,135,-1,123,136,107,-1,107,136,137,-1,107,137,69,-1,69,137,138,-1,69,138,133,-1,135,139,69,-1,69,139,125,-1,69,125,85,-1,85,125,124,-1,85,124,41,-1,41,124,140,-1,41,140,39,-1,141,142,143,-1,143,142,144,-1,145,146,147,-1,147,146,148,-1,149,150,151,-1,151,150,152,-1,153,154,155,-1,155,154,156,-1,157,158,159,-1,159,158,160,-1,57,58,161,-1,161,58,38,-1,161,38,162,-1,162,38,5,-1,162,5,95,-1,95,5,3,-1,163,37,38,-1,44,76,164,-1,38,58,163,-1,163,58,44,-1,163,44,165,-1,165,44,164,-1,165,164,166,-1,164,76,75,-1,75,167,164,-1,164,167,168,-1,164,168,7,-1,169,143,144,-1,170,155,156,-1,171,172,7,-1,7,173,174,-1,79,80,168,-1,168,80,175,-1,168,175,7,-1,7,175,169,-1,7,169,173,-1,173,169,144,-1,176,7,177,-1,177,7,172,-1,177,172,160,-1,160,172,159,-1,82,8,178,-1,178,8,7,-1,178,7,179,-1,179,7,176,-1,179,176,180,-1,180,176,181,-1,147,148,174,-1,174,148,182,-1,174,182,7,-1,7,182,183,-1,156,171,170,-1,170,171,7,-1,170,7,184,-1,184,7,183,-1,184,183,152,-1,152,183,151,-1,180,181,185,-1,185,181,186,-1,187,36,188,-1,188,36,35,-1,188,35,189,-1,189,35,34,-1,189,34,190,-1,190,34,28,-1,190,28,191,-1,191,28,29,-1,191,29,192,-1,192,29,30,-1,192,30,193,-1,193,30,27,-1,193,27,194,-1,194,27,26,-1,194,26,195,-1,195,26,20,-1,195,20,196,-1,196,20,19,-1,196,19,197,-1,197,19,33,-1,197,33,198,-1,198,33,32,-1,198,32,199,-1,199,32,31,-1,199,31,200,-1,200,31,23,-1,200,23,201,-1,201,23,24,-1,201,24,202,-1,202,24,25,-1,202,25,187,-1,187,25,36,-1,187,188,203,-1,200,201,203,-1,203,201,202,-1,203,202,187,-1,197,198,203,-1,203,198,199,-1,203,199,200,-1,194,195,203,-1,203,195,196,-1,203,196,197,-1,191,192,203,-1,203,192,193,-1,203,193,194,-1,188,189,203,-1,203,189,190,-1,203,190,191,-1,
        ]
    }
}
Shape{
    appearance Appearance {
        material  Material 	{
            diffuseColor 0.7529411764705882 0.7529411764705882 0.7529411764705882
            specularColor 0.3764705882352941 0.3764705882352941 0.3764705882352941
            ambientIntensity 0.7529
            transparency 0.0
            shininess 0.5
        }
    }
    geometry IndexedFaceSet {
        ccw TRUE
        solid FALSE
        coord DEF co Coordinate {
            point [
                -1.8 -1.4715 0.2008, -1.8 -1.7077 0.2008, -1.485 -1.4715 0.2008, -1.485 -1.7077 0.2008, -1.485 -0.9596 0.0, -1.485 -0.9596 0.0039, -1.485 -1.4715 0.0039, -1.485 -1.7077 0.0, -1.8 -0.9596 0.0, -1.8 -0.9596 0.0039, -1.8 -1.4715 0.0039, -1.8 -1.7077 0.0, -1.3276 -1.7077 0.2008, -1.0126 -1.7077 0.2008, -1.3276 -1.4715 0.2008, -1.0126 -1.4715 0.2008, -0.8551 -1.7077 0.2008, -0.5402 -1.7077 0.2008, -0.8551 -1.4715 0.2008, -0.5402 -1.4715 0.2008, -0.3827 -1.7077 0.2008, -0.0677 -1.7077 0.2008, -0.3827 -1.4715 0.2008, -0.0677 -1.4715 0.2008, 0.0898 -1.7077 0.2008, 0.4047 -1.7077 0.2008, 0.0898 -1.4715 0.2008, 0.4047 -1.4715 0.2008, 0.5622 -1.7077 0.2008, 0.8772 -1.7077 0.2008, 0.5622 -1.4715 0.2008, 0.8772 -1.4715 0.2008, 1.0346 -1.7077 0.2008, 1.3496 -1.7077 0.2008, 1.0346 -1.4715 0.2008, 1.3496 -1.4715 0.2008, 1.5071 -1.7077 0.2008, 1.822 -1.7077 0.2008, 1.5071 -1.4715 0.2008, 1.822 -1.4715 0.2008, 1.3496 -1.2352 0.0, 1.5071 -1.2352 0.0, 1.3496 -1.2352 0.0039, 1.5071 -1.2352 0.0039, 1.5071 -1.4715 0.0039, 1.5071 -1.7077 0.0, 1.822 -0.9596 0.0, 1.822 -0.9596 0.0039, 1.822 -1.4715 0.0039, 1.822 -1.7077 0.0, 0.0012 -0.9596 0.0039, -1.3276 -0.9596 0.0, -1.3276 -0.9596 0.0039, -1.3276 -1.4715 0.0039, -1.3276 -1.7077 0.0, -1.0126 -1.2352 0.0, -1.0126 -1.2352 0.0039, -1.0126 -1.4715 0.0039, -1.0126 -1.7077 0.0, -0.8551 -1.2352 0.0, -0.8551 -1.2352 0.0039, -0.8551 -1.4715 0.0039, -0.8551 -1.7077 0.0, -0.5402 -1.2352 0.0, -0.5402 -1.2352 0.0039, -0.5402 -1.4715 0.0039, -0.5402 -1.7077 0.0, -0.3827 -1.2352 0.0, -0.3827 -1.2352 0.0039, -0.3827 -1.4715 0.0039, -0.3827 -1.7077 0.0, -0.0677 -1.2352 0.0, -0.0677 -1.2352 0.0039, -0.0677 -1.4715 0.0039, -0.0677 -1.7077 0.0, 0.0898 -1.2352 0.0, 0.0898 -1.2352 0.0039, 0.0898 -1.4715 0.0039, 0.0898 -1.7077 0.0, 0.4047 -1.2352 0.0, 0.4047 -1.2352 0.0039, 0.4047 -1.4715 0.0039, 0.4047 -1.7077 0.0, 0.5622 -1.2352 0.0, 0.5622 -1.2352 0.0039, 0.5622 -1.4715 0.0039, 0.5622 -1.7077 0.0, 0.8772 -1.2352 0.0, 0.8772 -1.2352 0.0039, 0.8772 -1.4715 0.0039, 0.8772 -1.7077 0.0, 1.0346 -1.2352 0.0, 1.0346 -1.2352 0.0039, 1.0346 -1.4715 0.0039, 1.0346 -1.7077 0.0, 1.3496 -1.4715 0.0039, 1.3496 -1.7077 0.0, -1.9181 2.6132 0.0, -1.6634 2.6132 0.0, -1.9181 2.6132 0.0039, -1.6634 2.6132 0.0039, -1.6634 1.4754 0.0, -1.8512 1.4754 0.0, -1.6634 1.4754 0.0039, -1.8512 1.4754 0.0039, -1.8512 0.1919 0.0039, -1.8512 0.1919 0.0, -1.6622 0.0738 0.0039, -1.6622 0.0738 0.0, 0.0012 0.0738 0.0039, 1.6842 0.0738 0.0, 1.6842 0.0738 0.0039, 1.8732 1.4754 0.0, 1.8732 1.4754 0.0039, 1.8732 0.1919 0.0, 1.8732 0.1919 0.0039, 1.6854 1.4754 0.0, 1.6854 1.4754 0.0039, 1.6854 2.6132 0.0, 1.9402 2.6132 0.0, 1.6854 2.6132 0.0039, 1.9402 2.6132 0.0039, 1.9402 2.6132 0.2008, 1.9402 2.8888 0.2008, 1.4677 2.8888 0.2008, 1.4677 2.7753 0.2008, 0.2472 2.7753 0.2008, -1.9181 2.6132 0.2008, -1.4457 2.8888 0.2008, -1.9181 2.8888 0.2008, -1.4457 2.7753 0.2008, -0.2252 2.7753 0.2008, -0.2252 2.8888 0.2008, 0.2472 2.8888 0.2008, 0.2472 2.8888 0.0, 0.2472 2.7753 0.0, -0.2252 2.8888 0.0, -0.2252 2.7753 0.0, -1.4457 2.7753 0.0, -1.4457 2.8888 0.0, -1.9181 2.8888 0.0, 1.9402 2.8888 0.0, 1.4677 2.8888 0.0, 1.4677 2.7753 0.0, 1.4874 2.6132 0.0, -1.4654 2.6132 0.0, 1.4874 1.1142 0.0, 1.6934 1.1142 0.0, 1.6934 0.6373 0.0, 1.4874 0.6373 0.0, 1.6842 0.1919 0.0, 1.4874 0.2707 0.0, -1.4654 0.2707 0.0, -1.4654 0.6373 0.0, -1.6622 0.1919 0.0, -1.6714 0.6373 0.0, -1.6714 1.1142 0.0, -1.4654 1.1142 0.0, -1.6622 0.1919 0.0039, 1.6842 0.1919 0.0039, 1.4874 1.1142 0.0394, 1.4874 2.6132 0.0394, -1.4654 2.6132 0.0394, -1.4654 1.1142 0.0394, -1.6714 1.1142 0.0394, -1.6714 0.6373 0.0394, -1.4654 0.6373 0.0394, -1.4654 0.2707 0.0394, 1.4874 0.2707 0.0394, 1.4874 0.6373 0.0394, 1.6934 0.6373 0.0394, 1.6934 1.1142 0.0394, -0.2966 -0.3327 0.0433, -0.2991 -0.3327 0.0433, -0.2966 -0.3327 0.0039, -0.2991 -0.3327 0.0039, -0.3899 -0.5296 0.0433, -0.3899 -0.5296 0.0039, -0.3707 -0.5296 0.0433, -0.3707 -0.5296 0.0039, -0.3416 -0.4665 0.0433, -0.3416 -0.4665 0.0039, -0.2524 -0.4665 0.0433, -0.2524 -0.4665 0.0039, -0.2225 -0.5296 0.0433, -0.2225 -0.5296 0.0039, -0.2032 -0.5296 0.0433, -0.2032 -0.5296 0.0039, -0.3323 -0.4463 0.0433, -0.262 -0.4463 0.0433, -0.2976 -0.3711 0.0433, -0.3323 -0.4463 0.0039, -0.2976 -0.3711 0.0039, -0.262 -0.4463 0.0039, -0.0774 -0.5296 0.0433, -0.0164 -0.5296 0.0433, -0.0774 -0.5296 0.0039, -0.0164 -0.5296 0.0039, -0.0164 -0.3327 0.0433, -0.0164 -0.3327 0.0039, -0.0562 -0.3327 0.0433, -0.0562 -0.3327 0.0039, -0.1186 -0.3398 0.0433, -0.1186 -0.3398 0.0039, -0.0877 -0.3339 0.0039, -0.0877 -0.3339 0.0433, -0.1779 -0.4336 0.0433, -0.1779 -0.4336 0.0039, -0.1742 -0.4027 0.0039, -0.1742 -0.4027 0.0433, -0.1541 -0.3637 0.0039, -0.1541 -0.3637 0.0433, -0.0987 -0.5285 0.0039, -0.0987 -0.5285 0.0433, -0.1383 -0.5158 0.0039, -0.1383 -0.5158 0.0433, -0.1668 -0.4832 0.0039, -0.1668 -0.4832 0.0433, -0.1572 -0.4581 0.0433, -0.1411 -0.4869 0.0433, -0.113 -0.5044 0.0433, -0.085 -0.5086 0.0433, -0.0567 -0.5094 0.0433, -0.0341 -0.5094 0.0433, -0.0341 -0.3529 0.0433, -0.0479 -0.3529 0.0433, -0.0784 -0.3538 0.0433, -0.1084 -0.3584 0.0433, -0.1302 -0.3689 0.0433, -0.1517 -0.3943 0.0433, -0.1603 -0.4336 0.0433, -0.0341 -0.3529 0.0039, -0.0341 -0.5094 0.0039, -0.0479 -0.3529 0.0039, -0.0784 -0.3538 0.0039, -0.1084 -0.3584 0.0039, -0.1302 -0.3689 0.0039, -0.1517 -0.3943 0.0039, -0.1603 -0.4336 0.0039, -0.1572 -0.4581 0.0039, -0.1411 -0.4869 0.0039, -0.113 -0.5044 0.0039, -0.085 -0.5086 0.0039, -0.0567 -0.5094 0.0039, 0.13 -0.5296 0.0433, 0.13 -0.3327 0.0433, 0.13 -0.5296 0.0039, 0.13 -0.3327 0.0039, 0.0189 -0.3327 0.0433, 0.0189 -0.3327 0.0039, 0.0189 -0.3529 0.0433, 0.0189 -0.3529 0.0039, 0.1123 -0.3529 0.0433, 0.1123 -0.3529 0.0039, 0.1123 -0.4135 0.0433, 0.1123 -0.4135 0.0039, 0.0189 -0.4135 0.0433, 0.0189 -0.4135 0.0039, 0.0189 -0.4337 0.0433, 0.0189 -0.4337 0.0039, 0.1123 -0.4337 0.0433, 0.1123 -0.4337 0.0039, 0.1123 -0.5094 0.0433, 0.1123 -0.5094 0.0039, 0.0189 -0.5094 0.0433, 0.0189 -0.5094 0.0039, 0.0189 -0.5296 0.0433, 0.0189 -0.5296 0.0039, 0.1703 -0.3689 0.0433, 0.1703 -0.3689 0.0039, 0.1765 -0.3611 0.0039, 0.1765 -0.3611 0.0433, 0.188 -0.3503 0.0039, 0.188 -0.3503 0.0433, 0.2082 -0.3378 0.0039, 0.2082 -0.3378 0.0433, 0.2562 -0.3277 0.0039, 0.2562 -0.3277 0.0433, 0.1858 -0.3807 0.0433, 0.1858 -0.3807 0.0039, 0.2573 -0.3479 0.0433, 0.2573 -0.3479 0.0039, 0.2492 -0.3482 0.0039, 0.2492 -0.3482 0.0433, 0.2363 -0.35 0.0039, 0.2363 -0.35 0.0433, 0.2177 -0.356 0.0039, 0.2177 -0.356 0.0433, 0.3445 -0.4314 0.0433, 0.3445 -0.4314 0.0039, 0.3442 -0.4234 0.0039, 0.3442 -0.4234 0.0433, 0.3315 -0.3862 0.0039, 0.3315 -0.3862 0.0433, 0.301 -0.3587 0.0039, 0.301 -0.3587 0.0433, 0.2561 -0.5144 0.0433, 0.2561 -0.5144 0.0039, 0.2685 -0.5138 0.0039, 0.2685 -0.5138 0.0433, 0.3071 -0.5004 0.0039, 0.3071 -0.5004 0.0433, 0.3343 -0.4719 0.0039, 0.3343 -0.4719 0.0433, 0.1858 -0.4816 0.0433, 0.1858 -0.4816 0.0039, 0.2172 -0.5061 0.0039, 0.2172 -0.5061 0.0433, 0.1703 -0.4933 0.0433, 0.1703 -0.4933 0.0039, 0.256 -0.5346 0.0433, 0.256 -0.5346 0.0039, 0.2461 -0.5343 0.0039, 0.2461 -0.5343 0.0433, 0.2311 -0.5321 0.0039, 0.2305 -0.532 0.0433, 0.2305 -0.532 0.0039, 0.2081 -0.5244 0.0039, 0.2081 -0.5244 0.0433, 0.27 -0.5321 0.0039, 0.3006 -0.5266 0.0433, 0.3006 -0.5266 0.0039, 0.3197 -0.5162 0.0433, 0.3197 -0.5162 0.0039, 0.3309 -0.5068 0.0433, 0.3309 -0.5068 0.0039, 0.3372 -0.5002 0.0433, 0.3372 -0.5002 0.0039, 0.3621 -0.43 0.0433, 0.3621 -0.43 0.0039, 0.3561 -0.4674 0.0039, 0.3561 -0.4674 0.0433, 0.2649 -0.328 0.0039, 0.2649 -0.328 0.0433, 0.3158 -0.3442 0.0039, 0.3158 -0.3442 0.0433, 0.3495 -0.3797 0.0039, 0.3495 -0.3797 0.0433, 0.4782 -0.5296 0.0433, 0.4782 -0.3327 0.0433, 0.4782 -0.5296 0.0039, 0.4782 -0.3327 0.0039, 0.4606 -0.3327 0.0433, 0.4606 -0.3327 0.0039, 0.4606 -0.5094 0.0433, 0.4606 -0.5094 0.0039, 0.3848 -0.5094 0.0433, 0.3848 -0.5094 0.0039, 0.3848 -0.5296 0.0433, 0.3848 -0.5296 0.0039
            ]
        }
        coordIndex [
            0,1,2,-1,2,1,3,-1,4,5,6,-1,2,3,6,-1,6,3,7,-1,6,7,4,-1,4,8,5,-1,5,8,9,-1,9,8,10,-1,10,8,11,-1,10,11,0,-1,0,11,1,-1,7,3,11,-1,11,3,1,-1,11,8,7,-1,7,8,4,-1,12,13,14,-1,14,13,15,-1,16,17,18,-1,18,17,19,-1,20,21,22,-1,22,21,23,-1,24,25,26,-1,26,25,27,-1,28,29,30,-1,30,29,31,-1,32,33,34,-1,34,33,35,-1,36,37,38,-1,38,37,39,-1,40,41,42,-1,42,41,43,-1,43,41,44,-1,44,41,45,-1,44,45,38,-1,38,45,36,-1,46,47,48,-1,39,37,48,-1,48,37,49,-1,48,49,46,-1,47,46,50,-1,50,46,51,-1,50,51,52,-1,52,51,53,-1,53,51,54,-1,53,54,14,-1,14,54,12,-1,55,56,57,-1,15,13,57,-1,57,13,58,-1,57,58,55,-1,55,59,56,-1,56,59,60,-1,60,59,61,-1,61,59,62,-1,61,62,18,-1,18,62,16,-1,63,64,65,-1,19,17,65,-1,65,17,66,-1,65,66,63,-1,63,67,64,-1,64,67,68,-1,68,67,69,-1,69,67,70,-1,69,70,22,-1,22,70,20,-1,71,72,73,-1,23,21,73,-1,73,21,74,-1,73,74,71,-1,71,75,72,-1,72,75,76,-1,76,75,77,-1,77,75,78,-1,77,78,26,-1,26,78,24,-1,79,80,81,-1,27,25,81,-1,81,25,82,-1,81,82,79,-1,79,83,80,-1,80,83,84,-1,84,83,85,-1,85,83,86,-1,85,86,30,-1,30,86,28,-1,87,88,89,-1,31,29,89,-1,89,29,90,-1,89,90,87,-1,87,91,88,-1,88,91,92,-1,92,91,93,-1,93,91,94,-1,93,94,34,-1,34,94,32,-1,40,42,95,-1,35,33,95,-1,95,33,96,-1,95,96,40,-1,49,37,45,-1,45,37,36,-1,58,13,54,-1,54,13,12,-1,66,17,62,-1,62,17,16,-1,74,21,70,-1,70,21,20,-1,82,25,78,-1,78,25,24,-1,90,29,86,-1,86,29,28,-1,96,33,94,-1,94,33,32,-1,46,49,45,-1,45,41,46,-1,46,41,40,-1,46,40,51,-1,83,79,51,-1,87,90,86,-1,86,83,87,-1,87,83,51,-1,87,51,91,-1,91,51,40,-1,91,40,94,-1,94,40,96,-1,67,63,51,-1,71,74,70,-1,70,67,71,-1,71,67,51,-1,71,51,75,-1,75,51,79,-1,75,79,78,-1,78,79,82,-1,58,54,55,-1,55,54,51,-1,55,51,59,-1,59,51,63,-1,59,63,62,-1,62,63,66,-1,97,98,99,-1,99,98,100,-1,101,102,103,-1,103,102,104,-1,104,102,105,-1,105,102,106,-1,107,108,109,-1,109,108,110,-1,109,110,111,-1,112,113,114,-1,114,113,115,-1,112,116,113,-1,113,116,117,-1,118,119,120,-1,120,119,121,-1,98,101,100,-1,100,101,103,-1,116,118,117,-1,117,118,120,-1,122,123,124,-1,124,125,122,-1,122,125,126,-1,122,126,127,-1,128,129,130,-1,130,129,127,-1,130,127,131,-1,131,127,126,-1,131,126,132,-1,132,126,133,-1,134,133,135,-1,135,133,126,-1,136,132,134,-1,134,132,133,-1,137,131,136,-1,136,131,132,-1,138,130,137,-1,137,130,131,-1,139,128,138,-1,138,128,130,-1,140,129,139,-1,139,129,128,-1,127,129,99,-1,99,129,140,-1,99,140,97,-1,119,141,121,-1,121,141,123,-1,121,123,122,-1,142,124,141,-1,141,124,123,-1,143,125,142,-1,142,125,124,-1,135,126,143,-1,143,126,125,-1,136,134,137,-1,137,134,135,-1,143,142,118,-1,118,142,141,-1,118,141,119,-1,135,144,137,-1,137,144,145,-1,137,145,138,-1,138,145,140,-1,138,140,139,-1,135,143,144,-1,144,143,118,-1,144,118,146,-1,146,118,116,-1,146,116,147,-1,147,116,112,-1,147,112,148,-1,148,112,114,-1,148,114,149,-1,149,114,150,-1,149,150,151,-1,151,150,110,-1,151,110,152,-1,152,110,108,-1,152,108,153,-1,153,108,154,-1,153,154,155,-1,155,154,106,-1,155,106,156,-1,156,106,102,-1,156,102,157,-1,157,102,101,-1,157,101,145,-1,145,101,98,-1,145,98,140,-1,140,98,97,-1,107,158,108,-1,108,158,154,-1,158,105,154,-1,154,105,106,-1,115,159,114,-1,114,159,150,-1,159,111,150,-1,150,111,110,-1,160,161,146,-1,146,161,144,-1,161,162,144,-1,144,162,145,-1,162,163,145,-1,145,163,157,-1,163,164,157,-1,157,164,156,-1,164,165,156,-1,156,165,155,-1,165,166,155,-1,155,166,153,-1,166,167,153,-1,153,167,152,-1,167,168,152,-1,152,168,151,-1,168,169,151,-1,151,169,149,-1,169,170,149,-1,149,170,148,-1,170,171,148,-1,148,171,147,-1,171,160,147,-1,147,160,146,-1,171,170,160,-1,160,170,169,-1,168,167,169,-1,169,167,166,-1,165,164,166,-1,166,164,163,-1,166,163,169,-1,169,163,162,-1,169,162,160,-1,160,162,161,-1,172,173,174,-1,174,173,175,-1,173,176,175,-1,175,176,177,-1,176,178,177,-1,177,178,179,-1,178,180,179,-1,179,180,181,-1,180,182,181,-1,181,182,183,-1,182,184,183,-1,183,184,185,-1,184,186,185,-1,185,186,187,-1,186,172,187,-1,187,172,174,-1,188,176,173,-1,172,189,173,-1,173,189,190,-1,173,190,188,-1,186,184,182,-1,178,176,180,-1,180,176,188,-1,180,188,182,-1,182,188,189,-1,182,189,186,-1,186,189,172,-1,188,190,191,-1,191,190,192,-1,189,188,193,-1,193,188,191,-1,190,189,192,-1,192,189,193,-1,194,195,196,-1,196,195,197,-1,195,198,197,-1,197,198,199,-1,198,200,199,-1,199,200,201,-1,202,203,204,-1,202,204,205,-1,205,204,201,-1,205,201,200,-1,206,207,208,-1,206,208,209,-1,209,208,210,-1,209,210,211,-1,211,210,203,-1,211,203,202,-1,194,196,212,-1,194,212,213,-1,213,212,214,-1,213,214,215,-1,215,214,216,-1,215,216,217,-1,217,216,207,-1,217,207,206,-1,218,219,215,-1,215,219,220,-1,215,220,213,-1,213,220,221,-1,213,221,194,-1,194,221,222,-1,194,222,195,-1,195,222,223,-1,195,223,198,-1,198,223,224,-1,198,224,200,-1,200,224,225,-1,200,225,205,-1,205,225,226,-1,205,226,202,-1,202,226,227,-1,202,227,211,-1,211,227,228,-1,211,228,209,-1,209,228,229,-1,209,229,206,-1,206,229,230,-1,206,230,217,-1,217,230,218,-1,217,218,215,-1,224,223,231,-1,231,223,232,-1,225,224,233,-1,233,224,231,-1,225,233,234,-1,225,234,226,-1,226,234,235,-1,226,235,227,-1,227,235,236,-1,227,236,228,-1,228,236,237,-1,228,237,229,-1,229,237,238,-1,229,238,230,-1,230,238,239,-1,230,239,218,-1,218,239,240,-1,218,240,219,-1,219,240,241,-1,219,241,220,-1,220,241,242,-1,220,242,221,-1,221,242,243,-1,221,243,222,-1,223,222,232,-1,232,222,243,-1,244,245,246,-1,246,245,247,-1,245,248,247,-1,247,248,249,-1,248,250,249,-1,249,250,251,-1,250,252,251,-1,251,252,253,-1,252,254,253,-1,253,254,255,-1,254,256,255,-1,255,256,257,-1,256,258,257,-1,257,258,259,-1,258,260,259,-1,259,260,261,-1,260,262,261,-1,261,262,263,-1,262,264,263,-1,263,264,265,-1,264,266,265,-1,265,266,267,-1,266,244,267,-1,267,244,246,-1,244,266,264,-1,264,262,244,-1,244,262,260,-1,244,260,245,-1,250,248,252,-1,252,248,245,-1,252,245,254,-1,254,245,260,-1,254,260,256,-1,256,260,258,-1,268,269,270,-1,268,270,271,-1,271,270,272,-1,271,272,273,-1,273,272,274,-1,273,274,275,-1,275,274,276,-1,275,276,277,-1,268,278,269,-1,269,278,279,-1,280,281,282,-1,280,282,283,-1,283,282,284,-1,283,284,285,-1,285,284,286,-1,285,286,287,-1,287,286,279,-1,287,279,278,-1,288,289,290,-1,288,290,291,-1,291,290,292,-1,291,292,293,-1,293,292,294,-1,293,294,295,-1,295,294,281,-1,295,281,280,-1,296,297,298,-1,296,298,299,-1,299,298,300,-1,299,300,301,-1,301,300,302,-1,301,302,303,-1,303,302,289,-1,303,289,288,-1,304,305,306,-1,304,306,307,-1,307,306,297,-1,307,297,296,-1,304,308,305,-1,305,308,309,-1,310,311,312,-1,310,312,313,-1,313,312,314,-1,313,314,315,-1,314,316,315,-1,315,316,317,-1,315,317,318,-1,318,317,309,-1,318,309,308,-1,311,310,319,-1,319,310,320,-1,319,320,321,-1,321,320,322,-1,321,322,323,-1,323,322,324,-1,323,324,325,-1,325,324,326,-1,325,326,327,-1,328,329,330,-1,328,330,331,-1,331,330,327,-1,331,327,326,-1,277,276,332,-1,277,332,333,-1,333,332,334,-1,333,334,335,-1,335,334,336,-1,335,336,337,-1,337,336,329,-1,337,329,328,-1,308,304,318,-1,318,304,307,-1,328,331,303,-1,303,331,301,-1,301,331,326,-1,301,326,324,-1,278,268,271,-1,278,271,287,-1,287,271,273,-1,287,273,275,-1,324,322,301,-1,301,322,320,-1,301,320,299,-1,299,320,310,-1,299,310,296,-1,296,310,313,-1,296,313,307,-1,307,313,315,-1,307,315,318,-1,303,288,328,-1,328,288,291,-1,328,291,337,-1,337,291,293,-1,337,293,335,-1,335,293,295,-1,335,295,333,-1,333,295,280,-1,333,280,277,-1,277,280,283,-1,277,283,275,-1,275,283,285,-1,275,285,287,-1,338,339,340,-1,340,339,341,-1,339,342,341,-1,341,342,343,-1,342,344,343,-1,343,344,345,-1,344,346,345,-1,345,346,347,-1,346,348,347,-1,347,348,349,-1,348,338,349,-1,349,338,340,-1,342,339,344,-1,344,339,338,-1,344,338,346,-1,346,338,348,-1,
        ]
    }
}
Shape{
    appearance Appearance {
        material  Material 	{
            diffuseColor 0.11372549019607843 0.11372549019607843 0.11372549019607843
            specularColor 0.058823529411764705 0.058823529411764705 0.058823529411764705
            ambientIntensity 0.1137
            transparency 0.0
            shininess 0.5
        }
    }
    geometry IndexedFaceSet {
        ccw TRUE
        solid FALSE
        coord DEF co Coordinate {
            point [
                -0.2976 -0.3711 0.0039, -0.262 -0.4463 0.0039, -0.3323 -0.4463 0.0039, -0.0341 -0.3529 0.0039, -0.0341 -0.5094 0.0039, -0.0479 -0.3529 0.0039, -0.0567 -0.5094 0.0039, -0.0784 -0.3538 0.0039, -0.085 -0.5086 0.0039, -0.1084 -0.3584 0.0039, -0.113 -0.5044 0.0039, -0.1411 -0.4869 0.0039, -0.1572 -0.4581 0.0039, -0.1603 -0.4336 0.0039, -0.1517 -0.3943 0.0039, -0.1302 -0.3689 0.0039, -1.9378 0.1939 0.2205, -1.9378 -1.4715 0.2205, -1.8163 0.1939 0.9094, -1.8163 -1.35 0.9094, 1.9598 -1.4715 0.2205, 1.8384 -1.35 0.9094, -1.8163 2.4917 0.9094, 1.8384 2.4917 0.9094, -1.9378 2.6132 0.2205, 1.9598 2.6132 0.2205, -1.871 1.4774 0.1459, -1.9378 1.4774 0.1577, -1.871 0.1939 0.1459, -1.9378 0.1939 0.1577, -1.7364 1.4774 0.9094, -1.8163 1.4774 0.9094, -1.9378 1.4774 0.2205, -1.7364 0.1939 0.9094, 1.893 1.4774 0.1459, 1.893 0.1939 0.1459, 1.9598 1.4774 0.1577, 1.9598 0.1939 0.1577, 1.7584 0.1939 0.9094, 1.8384 0.1939 0.9094, 1.9598 0.1939 0.2205, 1.8384 1.4774 0.9094, 1.7584 1.4774 0.9094, 1.9598 1.4774 0.2205
            ]
        }
        coordIndex [
            0,1,2,-1,3,4,5,-1,5,4,6,-1,5,6,7,-1,7,6,8,-1,7,8,9,-1,10,11,8,-1,8,11,12,-1,8,12,13,-1,13,14,8,-1,8,14,15,-1,8,15,9,-1,16,17,18,-1,18,17,19,-1,17,20,19,-1,19,20,21,-1,22,23,24,-1,24,23,25,-1,26,27,28,-1,28,27,29,-1,30,31,26,-1,26,31,32,-1,26,32,27,-1,18,33,16,-1,16,33,28,-1,16,28,29,-1,28,33,26,-1,26,33,30,-1,34,35,36,-1,36,35,37,-1,38,39,35,-1,35,39,40,-1,35,40,37,-1,41,42,43,-1,43,42,34,-1,43,34,36,-1,34,42,35,-1,35,42,38,-1,
        ]
    }
}