#VRML V2.0 utf8
# 3D model generated by easyeda2kicad.py (https://github.com/uPesy/easyeda2kicad.py)

Shape{
    appearance Appearance {
        material  Material 	{
            diffuseColor 0.7529411764705882 0.7529411764705882 0.7529411764705882
            specularColor 0.3764705882352941 0.3764705882352941 0.3764705882352941
            ambientIntensity 0.7529
            transparency 0.0
            shininess 0.5
        }
    }
    geometry IndexedFaceSet {
        ccw TRUE
        solid FALSE
        coord DEF co Coordinate {
            point [
                -1.4587 0.6299 0.0, -1.9705 0.6299 0.0, -1.4587 0.6299 0.0394, -1.9705 0.6299 0.0394, -1.4587 -0.6299 0.0, -1.4587 -0.6299 0.0394, -1.9705 -0.6299 0.0, -1.9705 -0.6299 0.0394, 1.9665 -0.6299 0.0, 1.9665 0.6299 0.0, 1.9665 -0.6299 0.0394, 1.9665 0.6299 0.0394, 1.4547 -0.6299 0.0, 1.4547 -0.6299 0.0394, 1.4547 0.6299 0.0, 1.4547 0.6299 0.0394
            ]
        }
        coordIndex [
            0,1,2,-1,2,1,3,-1,4,0,5,-1,5,0,2,-1,6,4,7,-1,7,4,5,-1,1,6,3,-1,3,6,7,-1,4,6,0,-1,0,6,1,-1,7,5,3,-1,3,5,2,-1,8,9,10,-1,10,9,11,-1,12,8,13,-1,13,8,10,-1,14,12,15,-1,15,12,13,-1,9,14,11,-1,11,14,15,-1,12,14,8,-1,8,14,9,-1,15,13,11,-1,11,13,10,-1,
        ]
    }
}
Shape{
    appearance Appearance {
        material  Material 	{
            diffuseColor 0.25098039215686274 0.25098039215686274 0.25098039215686274
            specularColor 0.12549019607843137 0.12549019607843137 0.12549019607843137
            ambientIntensity 0.251
            transparency 0.0
            shininess 0.5
        }
    }
    geometry IndexedFaceSet {
        ccw TRUE
        solid FALSE
        coord DEF co Coordinate {
            point [
                1.9665 0.2343 0.3881, 1.9665 0.2334 0.388, 1.9665 0.2553 0.388, 1.9665 0.1637 0.6303, 1.9665 0.1707 0.6312, 1.9665 0.1336 0.6312, 1.9665 0.1877 0.5367, 1.9665 0.1817 0.5362, 1.9665 0.2126 0.5362, 1.9665 -0.0429 0.5575, 1.9665 -0.0249 0.5423, 1.9665 0.0381 0.6312, 1.9665 0.0381 0.5362, 1.9665 -0.1282 0.6391, 1.9665 -0.1166 0.6312, 1.9665 -0.1018 0.6209, 1.9665 -0.0791 0.5944, 1.9665 -0.0659 0.5684, 1.9665 -0.0627 0.5673, 1.9665 -0.2534 0.6407, 1.9665 -0.2226 0.652, 1.9665 -0.6197 1.4961, 1.9665 0.0381 1.4961, 1.9665 -0.1921 0.6554, 1.9665 -0.1612 0.6517, 1.9665 -0.2692 0.6312, 1.9665 -0.6197 0.6312, 1.9665 -0.2718 0.6295, 1.9665 -0.6197 0.5362, 1.9665 -0.4145 0.5362, 1.9665 -0.4087 0.5493, 1.9665 -0.3927 0.5698, 1.9665 -0.3425 0.5984, 1.9665 -0.3163 0.6016, 1.9665 -0.2874 0.6162, 1.9665 -0.3087 0.6012, 1.9665 -0.3011 0.6003, 1.9665 -0.3882 0.574, 1.9665 -0.3671 0.5889, 1.9665 -0.3753 0.404, 1.9665 -0.396 0.4216, 1.9665 -0.6197 0.388, 1.9665 -0.3513 0.3923, 1.9665 -0.4112 0.4433, 1.9665 -0.4207 0.468, 1.9665 -0.6197 0.5088, 1.9665 -0.4239 0.494, 1.9665 -0.4237 0.5004, 1.9665 -0.4222 0.5088, 1.9665 -0.4193 0.5254, 1.9665 -0.3429 0.3898, 1.9665 -0.3421 0.388, 1.9665 -0.3362 0.3755, 1.9665 -0.6197 0.351, 1.9665 -0.3264 0.3633, 1.9665 -0.3134 0.3535, 1.9665 -0.6197 0.0394, 1.9665 -0.298 0.3471, 1.9665 -0.3073 0.351, 1.9665 -0.2523 0.351, 1.9665 -0.2637 0.3466, 1.9665 0.0381 0.0394, 1.9665 -0.2798 0.3446, 1.9665 -0.2824 0.3447, 1.9665 -0.2176 0.388, 1.9665 -0.2176 0.3877, 1.9665 0.0381 0.351, 1.9665 -0.2255 0.3729, 1.9665 -0.2357 0.3615, 1.9665 -0.2489 0.3523, 1.9665 -0.0032 0.5031, 1.9665 -0.0002 0.4814, 1.9665 0.0381 0.5088, 1.9665 -0.1328 0.4272, 1.9665 -0.1282 0.429, 1.9665 -0.1204 0.4668, 1.9665 -0.0248 0.4183, 1.9665 -0.0428 0.403, 1.9665 0.0381 0.388, 1.9665 -0.23 0.4555, 1.9665 -0.141 0.502, 1.9665 -0.2416 0.4661, 1.9665 -0.2557 0.4736, 1.9665 -0.1368 0.4243, 1.9665 -0.0116 0.4367, 1.9665 -0.0417 0.4866, 1.9665 -0.0448 0.4993, 1.9665 -0.0499 0.5088, 1.9665 -0.3804 0.5088, 1.9665 -0.0032 0.4577, 1.9665 -0.1231 0.4296, 1.9665 -0.1224 0.4296, 1.9665 -0.1204 0.4291, 1.9665 -0.3765 0.4689, 1.9665 -0.3686 0.4554, 1.9665 -0.3349 0.4485, 1.9665 -0.3567 0.4432, 1.9665 -0.3422 0.4343, 1.9665 -0.3103 0.4705, 1.9665 -0.3239 0.4611, 1.9665 -0.3821 0.4954, 1.9665 -0.3813 0.4851, 1.9665 -0.2957 0.4761, 1.9665 -0.2798 0.4781, 1.9665 -0.2717 0.4776, 1.9665 -0.1436 0.409, 1.9665 -0.1435 0.4117, 1.9665 -0.2134 0.4177, 1.9665 -0.1421 0.4167, 1.9665 -0.1396 0.4212, 1.9665 -0.0548 0.4456, 1.9665 -0.0475 0.456, 1.9665 -0.043 0.4678, 1.9665 -0.0414 0.4808, 1.9665 -0.1281 0.389, 1.9665 -0.1325 0.3908, 1.9665 -0.1368 0.3938, 1.9665 -0.1384 0.3954, 1.9665 -0.1413 0.3996, 1.9665 -0.143 0.4041, 1.9665 -0.2137 0.4041, 1.9665 -0.2134 0.411, 1.9665 -0.0631 0.3931, 1.9665 -0.0852 0.3884, 1.9665 -0.1244 0.3884, 1.9665 -0.1191 0.429, 1.9665 -0.0892 0.429, 1.9665 -0.0773 0.4312, 1.9665 -0.0655 0.4367, 1.9665 -0.0557 0.4447, 1.9665 -0.0985 0.5326, 1.9665 -0.3744 0.5263, 1.9665 -0.3801 0.5115, 1.9665 -0.0932 0.5326, 1.9665 -0.051 0.5108, 1.9665 -0.0586 0.5193, 1.9665 -0.0689 0.5265, 1.9665 -0.0805 0.531, 1.9665 -0.1128 0.5725, 1.9665 -0.1278 0.5904, 1.9665 -0.2805 0.5518, 1.9665 -0.1295 0.5919, 1.9665 -0.1481 0.6048, 1.9665 -0.2703 0.5728, 1.9665 -0.3675 0.5362, 1.9665 -0.2852 0.5544, 1.9665 -0.0993 0.5362, 1.9665 -0.1025 0.5511, 1.9665 -0.3001 0.5599, 1.9665 -0.3157 0.5618, 1.9665 -0.3226 0.5614, 1.9665 -0.2554 0.5906, 1.9665 -0.1689 0.6128, 1.9665 -0.2376 0.6036, 1.9665 -0.1915 0.6156, 1.9665 -0.2159 0.6124, 1.9665 -0.339 0.5575, 1.9665 -0.3538 0.5497, 1.9665 -0.3652 0.5395, 1.9665 -0.0205 0.5362, 1.9665 -0.0113 0.5234, 1.9665 -0.0055 0.5088, 1.9665 0.4284 0.5625, 1.9665 0.3941 0.5625, 1.9665 0.4379 0.537, 1.9665 0.3941 0.5362, 1.9665 0.4512 0.537, 1.9665 0.8154 0.5362, 1.9665 0.8154 0.6312, 1.9665 0.4156 0.6304, 1.9665 0.3941 0.6312, 1.9665 0.3895 0.5625, 1.9665 0.3805 0.537, 1.9665 0.3646 0.5362, 1.9665 0.3672 0.537, 1.9665 0.3646 0.6312, 1.9665 0.3941 0.6076, 1.9665 0.4027 0.6304, 1.9665 0.2553 0.579, 1.9665 0.2301 0.579, 1.9665 0.2553 0.5476, 1.9665 0.2301 0.5476, 1.9665 0.2771 0.6312, 1.9665 0.2553 0.6312, 1.9665 0.2662 0.6304, 1.9665 0.2553 0.6304, 1.9665 0.2662 0.6196, 1.9665 0.2683 0.5476, 1.9665 0.2771 0.5362, 1.9665 0.2683 0.537, 1.9665 0.2553 0.5362, 1.9665 0.2635 0.579, 1.9665 0.2635 0.5897, 1.9665 0.2553 0.5897, 1.9665 0.2553 0.6196, 1.9665 0.2301 0.6196, 1.9665 0.2301 0.5897, 1.9665 0.218 0.6304, 1.9665 0.2126 0.6312, 1.9665 0.218 0.537, 1.9665 0.1993 0.6281, 1.9665 0.1894 0.631, 1.9665 0.1872 0.6312, 1.9665 0.2553 0.537, 1.9665 0.1993 0.6155, 1.9665 0.1978 0.54, 1.9665 0.1773 0.6211, 1.9665 0.173 0.6209, 1.9665 0.1669 0.547, 1.9665 0.1752 0.5461, 1.9665 0.1796 0.5463, 1.9665 0.1983 0.6161, 1.9665 0.1901 0.5483, 1.9665 0.1993 0.5524, 1.9665 0.1993 0.5408, 1.9665 0.1888 0.6197, 1.9665 0.165 0.6192, 1.9665 0.1577 0.6156, 1.9665 0.1519 0.6107, 1.9665 0.1538 0.5535, 1.9665 0.1422 0.5785, 1.9665 0.1512 0.556, 1.9665 0.1438 0.5693, 1.9665 0.1469 0.5619, 1.9665 0.1512 0.61, 1.9665 0.1467 0.6035, 1.9665 0.1436 0.5954, 1.9665 0.1421 0.5826, 1.9665 0.1601 0.5494, 1.9665 0.1772 0.6319, 1.9665 0.1336 1.4961, 1.9665 0.2126 1.4961, 1.9665 0.1361 0.6093, 1.9665 0.1429 0.6182, 1.9665 0.1452 0.6204, 1.9665 0.154 0.6265, 1.9665 0.1336 0.5607, 1.9665 0.1312 0.5667, 1.9665 0.128 0.5362, 1.9665 0.1294 0.5819, 1.9665 0.1296 0.5868, 1.9665 0.128 0.6312, 1.9665 0.1317 0.599, 1.9665 0.1336 0.6034, 1.9665 0.1336 0.5362, 1.9665 0.1563 0.5382, 1.9665 0.1477 0.5427, 1.9665 0.1414 0.5481, 1.9665 0.1406 0.549, 1.9665 0.135 0.557, 1.9665 0.1648 0.5362, 1.9665 0.1336 0.5088, 1.9665 0.1662 0.5358, 1.9665 0.1735 0.5354, 1.9665 0.2126 0.5088, 1.9665 0.3594 0.568, 1.9665 0.3548 0.5583, 1.9665 0.3287 0.6312, 1.9665 0.3287 0.6281, 1.9665 0.3381 0.6247, 1.9665 0.3287 0.5394, 1.9665 0.3287 0.5362, 1.9665 0.3381 0.543, 1.9665 0.3479 0.55, 1.9665 0.3479 0.618, 1.9665 0.3512 0.6148, 1.9665 0.357 0.6066, 1.9665 0.3604 0.5977, 1.9665 0.362 0.5849, 1.9665 0.3617 0.5789, 1.9665 0.3126 0.6304, 1.9665 0.3268 0.6288, 1.9665 0.3274 0.5389, 1.9665 0.3116 0.537, 1.9665 0.2859 0.537, 1.9665 0.2859 0.6304, 1.9665 0.1697 0.3896, 1.9665 0.1653 0.388, 1.9665 0.1797 0.3888, 1.9665 0.1426 0.4207, 1.9665 0.1443 0.4394, 1.9665 0.1402 0.4174, 1.9665 0.1386 0.4133, 1.9665 0.1738 0.3923, 1.9665 0.1519 0.388, 1.9665 0.1474 0.3897, 1.9665 0.1336 0.388, 1.9665 0.1398 0.3973, 1.9665 0.1383 0.4013, 1.9665 0.1443 0.4508, 1.9665 0.1467 0.4522, 1.9665 0.1793 0.4548, 1.9665 0.2092 0.4454, 1.9665 0.2113 0.4486, 1.9665 0.1462 0.4238, 1.9665 0.1513 0.4263, 1.9665 0.1513 0.444, 1.9665 0.1599 0.4284, 1.9665 0.1701 0.4471, 1.9665 0.1662 0.4475, 1.9665 0.1586 0.4466, 1.9665 0.1435 0.3924, 1.9665 0.1422 0.3938, 1.9665 0.1797 0.3991, 1.9665 0.1794 0.3991, 1.9665 0.1775 0.3962, 1.9665 0.1554 0.4556, 1.9665 0.1673 0.457, 1.9665 0.1744 0.4564, 1.9665 0.1378 0.4066, 1.9665 0.1378 0.4083, 1.9665 0.1832 0.4526, 1.9665 0.1863 0.4496, 1.9665 0.2078 0.4417, 1.9665 0.1887 0.4458, 1.9665 0.1905 0.4404, 1.9665 0.1797 0.4312, 1.9665 0.1793 0.4363, 1.9665 0.1781 0.4405, 1.9665 0.1767 0.4429, 1.9665 0.2125 0.4249, 1.9665 0.2072 0.4032, 1.9665 0.2126 0.4249, 1.9665 0.2118 0.4003, 1.9665 0.2126 0.4, 1.9665 0.2106 0.4269, 1.9665 0.2091 0.4294, 1.9665 0.1914 0.4317, 1.9665 0.2078 0.4329, 1.9665 0.2073 0.4375, 1.9665 0.1749 0.4448, 1.9665 0.1728 0.4461, 1.9665 0.165 0.3879, 1.9665 0.2126 0.351, 1.9665 0.1336 0.351, 1.9665 0.1589 0.3872, 1.9665 0.1521 0.388, 1.9665 0.2072 0.3911, 1.9665 0.1914 0.3888, 1.9665 0.2126 0.3891, 1.9665 0.2126 0.388, 1.9665 0.2145 0.3884, 1.9665 0.2185 0.388, 1.9665 0.2253 0.3872, 1.9665 0.2491 0.454, 1.9665 0.2491 0.4427, 1.9665 0.2148 0.4517, 1.9665 0.2185 0.4539, 1.9665 0.2517 0.4022, 1.9665 0.2503 0.3985, 1.9665 0.2481 0.3954, 1.9665 0.2126 0.4498, 1.9665 0.225 0.4561, 1.9665 0.2333 0.457, 1.9665 0.2553 0.5088, 1.9665 0.2414 0.4563, 1.9665 0.2484 0.4179, 1.9665 0.2506 0.4147, 1.9665 0.2518 0.4113, 1.9665 0.2523 0.4069, 1.9665 0.2448 0.3925, 1.9665 0.2408 0.3902, 1.9665 0.2321 0.4475, 1.9665 0.2287 0.4472, 1.9665 0.2194 0.4385, 1.9665 0.2255 0.4464, 1.9665 0.2229 0.445, 1.9665 0.2195 0.437, 1.9665 0.2199 0.4352, 1.9665 0.2208 0.4336, 1.9665 0.2219 0.4323, 1.9665 0.226 0.4297, 1.9665 0.2397 0.4467, 1.9665 0.2333 0.4266, 1.9665 0.2463 0.4443, 1.9665 0.2378 0.4248, 1.9665 0.2456 0.4204, 1.9665 0.2211 0.4435, 1.9665 0.2201 0.442, 1.9665 0.2196 0.4404, 1.9665 0.2192 0.3976, 1.9665 0.225 0.4181, 1.9665 0.218 0.4213, 1.9665 0.2265 0.3967, 1.9665 0.227 0.3967, 1.9665 0.2327 0.4149, 1.9665 0.233 0.3974, 1.9665 0.2403 0.4058, 1.9665 0.2402 0.4072, 1.9665 0.236 0.3985, 1.9665 0.2371 0.3992, 1.9665 0.2384 0.4004, 1.9665 0.2394 0.4019, 1.9665 0.24 0.4035, 1.9665 0.2396 0.409, 1.9665 0.2387 0.4106, 1.9665 0.2373 0.4121, 1.9665 0.3103 0.4555, 1.9665 0.3224 0.4555, 1.9665 0.3287 0.5088, 1.9665 0.2889 0.4053, 1.9665 0.2903 0.3998, 1.9665 0.2906 0.3998, 1.9665 0.2771 0.5088, 1.9665 0.2771 0.4392, 1.9665 0.2921 0.4052, 1.9665 0.2912 0.4021, 1.9665 0.2771 0.388, 1.9665 0.2771 0.4078, 1.9665 0.2584 0.4555, 1.9665 0.2715 0.4555, 1.9665 0.2845 0.3889, 1.9665 0.2841 0.388, 1.9665 0.2794 0.3768, 1.9665 0.2553 0.351, 1.9665 0.2608 0.3583, 1.9665 0.2608 0.3687, 1.9665 0.2749 0.3701, 1.9665 0.2771 0.3725, 1.9665 0.2771 0.3726, 1.9665 0.2632 0.3679, 1.9665 0.2674 0.3674, 1.9665 0.2771 0.3594, 1.9665 0.2731 0.3579, 1.9665 0.2771 0.351, 1.9665 0.2683 0.3573, 1.9665 0.2657 0.3574, 1.9665 0.2703 0.3677, 1.9665 0.2729 0.3687, 1.9665 0.2921 0.3787, 1.9665 0.2868 0.3684, 1.9665 0.3287 0.351, 1.9665 0.2958 0.388, 1.9665 0.2826 0.3632, 1.9665 0.2818 0.3625, 1.9665 0.2777 0.3596, 1.9665 0.3646 0.4308, 1.9665 0.3471 0.4308, 1.9665 0.3646 0.3994, 1.9665 0.3471 0.3994, 1.9665 0.3831 0.4822, 1.9665 0.3831 0.4714, 1.9665 0.3941 0.5088, 1.9665 0.3853 0.3994, 1.9665 0.3941 0.388, 1.9665 0.3853 0.3888, 1.9665 0.3646 0.388, 1.9665 0.3805 0.4308, 1.9665 0.3805 0.4415, 1.9665 0.3646 0.4415, 1.9665 0.3646 0.4714, 1.9665 0.3471 0.4714, 1.9665 0.3471 0.4415, 1.9665 0.3646 0.3888, 1.9665 0.335 0.3888, 1.9665 0.3287 0.388, 1.9665 0.335 0.4822, 1.9665 0.3646 0.4822, 1.9665 0.3646 0.5088, 1.9665 0.2553 1.4961, 1.9665 0.2771 1.4961, 1.9665 0.3287 1.4961, 1.9665 0.3646 1.4961, 1.9665 0.3941 1.4961, 1.9665 0.8154 1.4961, 1.9665 0.128 1.4961, 1.9665 0.1256 0.5476, 1.9665 0.1256 0.537, 1.9665 0.0763 0.537, 1.9665 0.0763 0.6304, 1.9665 0.0884 0.6304, 1.9665 0.0884 0.5476, 1.9665 0.128 0.5088, 1.9665 0.4975 0.3888, 1.9665 0.4841 0.3888, 1.9665 0.5549 0.3888, 1.9665 0.5453 0.4143, 1.9665 0.5065 0.4143, 1.9665 0.5682 0.3888, 1.9665 0.8154 0.388, 1.9665 0.5326 0.4822, 1.9665 0.8154 0.5088, 1.9665 0.4764 0.4198, 1.9665 0.4787 0.4307, 1.9665 0.5197 0.4822, 1.9665 0.479 0.4367, 1.9665 0.4774 0.4495, 1.9665 0.4718 0.4101, 1.9665 0.4649 0.4019, 1.9665 0.4551 0.3948, 1.9665 0.4029 0.4822, 1.9665 0.4029 0.3888, 1.9665 0.4286 0.3888, 1.9665 0.4444 0.3907, 1.9665 0.4649 0.4698, 1.9665 0.4682 0.4666, 1.9665 0.474 0.4584, 1.9665 0.4296 0.4822, 1.9665 0.4438 0.4806, 1.9665 0.4551 0.4765, 1.9665 0.128 0.388, 1.9665 0.0763 0.3888, 1.9665 0.1266 0.3888, 1.9665 0.1266 0.3994, 1.9665 0.1244 0.4714, 1.9665 0.0763 0.4822, 1.9665 0.1244 0.4822, 1.9665 0.0884 0.4308, 1.9665 0.0884 0.3994, 1.9665 0.1218 0.4308, 1.9665 0.1218 0.4415, 1.9665 0.0884 0.4415, 1.9665 0.0884 0.4714, 1.9665 0.3646 0.351, 1.9665 0.3941 0.351, 1.9665 0.8154 0.351, 1.9665 0.128 0.351, 1.9665 0.128 0.0394, 1.9665 0.1336 0.0394, 1.9665 0.2126 0.0394, 1.9665 0.2553 0.0394, 1.9665 0.2771 0.0394, 1.9665 0.3287 0.0394, 1.9665 0.3646 0.0394, 1.9665 0.3941 0.0394, 1.9665 0.8154 0.0394, 1.9665 -0.8154 1.4961, 1.9665 -0.8154 0.6312, 1.9665 -0.8154 0.5362, 1.9665 -0.8154 0.5088, 1.9665 -0.8154 0.388, 1.9665 -0.8154 0.351, 1.9665 -0.8154 0.0394, 0.8134 -1.9685 0.0394, 0.8134 -1.9685 1.4961, -0.8174 -1.9685 0.0394, -0.8174 -1.9685 1.4961, -1.9705 -0.8154 0.0394, -1.9705 -0.8154 1.4961, -1.9705 0.8154 0.0394, -1.9705 0.8154 1.4961, -0.8174 1.9685 0.0394, -0.8174 1.9685 1.4961, 0.8134 1.9685 0.0394, 0.8134 1.9685 1.4961, 0.7214 1.253 0.0394, 0.54 1.3415 0.0394, 0.348 -1.4039 0.0394, 0.54 -1.3415 0.0394, 1.3576 -0.4949 0.0394, 1.2755 -0.6793 0.0394, 1.1685 -0.8505 0.0394, 0.348 1.4039 0.0394, 0.1492 1.4389 0.0394, -0.0525 1.4459 0.0394, -0.2533 1.4248 0.0394, -0.4491 1.376 0.0394, -0.6363 1.3004 0.0394, -1.4348 -0.2014 0.0394, -1.3928 -0.3988 0.0394, -1.3238 -0.5885 0.0394, 1.4132 -0.3008 0.0394, 1.4413 -0.1009 0.0394, 1.4413 0.1009 0.0394, 1.4132 0.3008 0.0394, 1.3576 0.4948 0.0394, 1.2755 0.6792 0.0394, -1.4348 0.2013 0.0394, -1.4489 -0.0 0.0394, 1.1685 0.8504 0.0394, 1.0388 1.005 0.0394, 0.8888 1.1401 0.0394, -1.229 -0.7667 0.0394, -1.1104 -0.93 0.0394, -0.9702 -1.0752 0.0394, -0.8111 -1.1995 0.0394, -0.6363 -1.3004 0.0394, -0.4491 -1.3761 0.0394, 0.7214 -1.253 0.0394, 0.8888 -1.1402 0.0394, 1.0388 -1.0051 0.0394, -1.229 0.7667 0.0394, -1.3238 0.5885 0.0394, -1.3928 0.3988 0.0394, -0.8111 1.1995 0.0394, -0.9702 1.0752 0.0394, -1.1104 0.93 0.0394, -0.2533 -1.4249 0.0394, -0.0525 -1.446 0.0394, 0.1492 -1.4389 0.0394, 1.4744 -0.0 1.4961, 1.46 -0.2055 1.4961, 1.4172 -0.407 1.4961, 1.3467 -0.6005 1.4961, -0.3592 -1.4325 1.4961, -0.5551 -1.3689 1.4961, -1.3894 -0.505 1.4961, -1.3056 -0.6931 1.4961, -1.1964 -0.8678 1.4961, -1.4461 0.3069 1.4961, -1.3894 0.5049 1.4961, -1.3056 0.6931 1.4961, 0.4542 1.4041 1.4961, 0.6452 1.3269 1.4961, 1.25 -0.7824 1.4961, 1.129 -0.949 1.4961, 0.9859 -1.0972 1.4961, -1.4461 -0.307 1.4961, -1.4748 -0.103 1.4961, -1.4748 0.103 1.4961, -0.7402 1.2786 1.4961, -0.5551 1.3689 1.4961, -0.7402 -1.2786 1.4961, -0.911 -1.1634 1.4961, -1.064 -1.0256 1.4961, -1.1964 0.8678 1.4961, -1.064 1.0256 1.4961, -0.911 1.1634 1.4961, 1.25 0.7823 1.4961, 1.3467 0.6005 1.4961, 0.8236 -1.224 1.4961, 0.6452 -1.327 1.4961, 0.4542 -1.4041 1.4961, 1.4172 0.4069 1.4961, 1.46 0.2055 1.4961, 0.2544 -1.454 1.4961, 0.0495 -1.4755 1.4961, -0.1563 -1.4683 1.4961, 0.2544 1.4539 1.4961, 0.8236 1.224 1.4961, 0.9859 1.0971 1.4961, 1.129 0.949 1.4961, -0.3592 1.4325 1.4961, -0.1563 1.4683 1.4961, 0.0495 1.4755 1.4961, 1.4744 -0.0 1.2598, 1.46 0.2055 1.2598, 1.4172 0.4069 1.2598, 1.3467 0.6005 1.2598, 1.25 0.7823 1.2598, 1.129 0.949 1.2598, 0.9859 1.0971 1.2598, 0.8236 1.224 1.2598, 0.6452 1.3269 1.2598, 0.4542 1.4041 1.2598, 0.2544 1.4539 1.2598, 0.0495 1.4755 1.2598, -0.1563 1.4683 1.2598, -0.3592 1.4325 1.2598, -0.5551 1.3689 1.2598, -0.7402 1.2786 1.2598, -0.911 1.1634 1.2598, -1.064 1.0256 1.2598, -1.1964 0.8678 1.2598, -1.3056 0.6931 1.2598, -1.3894 0.5049 1.2598, -1.4461 0.3069 1.2598, -1.4748 0.103 1.2598, -1.4748 -0.103 1.2598, -1.4461 -0.307 1.2598, -1.3894 -0.505 1.2598, -1.3056 -0.6931 1.2598, -1.1964 -0.8678 1.2598, -1.064 -1.0256 1.2598, -0.911 -1.1634 1.2598, -0.7402 -1.2786 1.2598, -0.5551 -1.3689 1.2598, -0.3592 -1.4325 1.2598, -0.1563 -1.4683 1.2598, 0.0495 -1.4755 1.2598, 0.2544 -1.454 1.2598, 0.4542 -1.4041 1.2598, 0.6452 -1.327 1.2598, 0.8236 -1.224 1.2598, 0.9859 -1.0972 1.2598, 1.129 -0.949 1.2598, 1.25 -0.7824 1.2598, 1.3467 -0.6005 1.2598, 1.4172 -0.407 1.2598, 1.46 -0.2055 1.2598, 1.3793 0.3961 1.2598, 1.3108 0.5845 1.2598, 1.2166 0.7615 1.2598, 1.0988 0.9237 1.2598, 0.9595 1.0679 1.2598, 0.8015 1.1913 1.2598, 0.6279 1.2916 1.2598, 0.442 1.3667 1.2598, 0.2475 1.4152 1.2598, 0.0481 1.4361 1.2598, -0.1522 1.4291 1.2598, -0.3497 1.3943 1.2598, -0.5403 1.3324 1.2598, -0.7205 1.2445 1.2598, -0.8867 1.1324 1.2598, -1.0357 0.9982 1.2598, -1.1646 0.8446 1.2598, -1.2708 0.6746 1.2598, -1.3524 0.4915 1.2598, -1.4076 0.2988 1.2598, -1.4355 0.1002 1.2598, -1.4355 -0.1003 1.2598, -1.4076 -0.2988 1.2598, -1.3524 -0.4915 1.2598, -1.2708 -0.6747 1.2598, -1.1646 -0.8447 1.2598, -1.0357 -0.9982 1.2598, -0.8867 -1.1324 1.2598, -0.7205 -1.2445 1.2598, -0.5403 -1.3324 1.2598, -0.3497 -1.3943 1.2598, -0.1522 -1.4292 1.2598, 0.0481 -1.4362 1.2598, 0.2475 -1.4152 1.2598, 0.442 -1.3667 1.2598, 0.6279 -1.2916 1.2598, 0.8015 -1.1914 1.2598, 0.9595 -1.0679 1.2598, 1.0988 -0.9237 1.2598, 1.2166 -0.7615 1.2598, 1.3108 -0.5845 1.2598, 1.3793 -0.3961 1.2598, 1.421 -0.2 1.2598, 1.435 -0.0 1.2598, 1.421 0.2 1.2598, 1.435 -0.0 1.4961, 1.421 0.2 1.4961, 1.3793 0.3961 1.4961, 1.3108 0.5845 1.4961, 1.2166 0.7615 1.4961, 1.0988 0.9237 1.4961, 0.9595 1.0679 1.4961, 0.8015 1.1913 1.4961, 0.6279 1.2916 1.4961, 0.442 1.3667 1.4961, 0.2475 1.4152 1.4961, 0.0481 1.4361 1.4961, -0.1522 1.4291 1.4961, -0.3497 1.3943 1.4961, -0.5403 1.3324 1.4961, -0.7205 1.2445 1.4961, -0.8867 1.1324 1.4961, -1.0357 0.9982 1.4961, -1.1646 0.8446 1.4961, -1.2708 0.6746 1.4961, -1.3524 0.4915 1.4961, -1.4076 0.2988 1.4961, -1.4355 0.1002 1.4961, -1.4355 -0.1003 1.4961, -1.4076 -0.2988 1.4961, -1.3524 -0.4915 1.4961, -1.2708 -0.6747 1.4961, -1.1646 -0.8447 1.4961, -1.0357 -0.9982 1.4961, -0.8867 -1.1324 1.4961, -0.7205 -1.2445 1.4961, -0.5403 -1.3324 1.4961, -0.3497 -1.3943 1.4961, -0.1522 -1.4292 1.4961, 0.0481 -1.4362 1.4961, 0.2475 -1.4152 1.4961, 0.442 -1.3667 1.4961, 0.6279 -1.2916 1.4961, 0.8015 -1.1914 1.4961, 0.9595 -1.0679 1.4961, 1.0988 -0.9237 1.4961, 1.2166 -0.7615 1.4961, 1.3108 -0.5845 1.4961, 1.3793 -0.3961 1.4961, 1.421 -0.2 1.4961, -0.002 -0.0 1.4961, -1.4489 -0.0 0.2362, -1.4348 0.2013 0.2362, -1.3928 0.3988 0.2362, -1.3238 0.5885 0.2362, -1.229 0.7667 0.2362, -1.1104 0.93 0.2362, -0.9702 1.0752 0.2362, -0.8111 1.1995 0.2362, -0.6363 1.3004 0.2362, -0.4491 1.376 0.2362, -0.2533 1.4248 0.2362, -0.0525 1.4459 0.2362, 0.1492 1.4389 0.2362, 0.348 1.4039 0.2362, 0.54 1.3415 0.2362, 0.7214 1.253 0.2362, 0.8888 1.1401 0.2362, 1.0388 1.005 0.2362, 1.1685 0.8504 0.2362, 1.2755 0.6792 0.2362, 1.3576 0.4948 0.2362, 1.4132 0.3008 0.2362, 1.4413 0.1009 0.2362, 1.4413 -0.1009 0.2362, 1.4132 -0.3008 0.2362, 1.3576 -0.4949 0.2362, 1.2755 -0.6793 0.2362, 1.1685 -0.8505 0.2362, 1.0388 -1.0051 0.2362, 0.8888 -1.1402 0.2362, 0.7214 -1.253 0.2362, 0.54 -1.3415 0.2362, 0.348 -1.4039 0.2362, 0.1492 -1.4389 0.2362, -0.0525 -1.446 0.2362, -0.2533 -1.4249 0.2362, -0.4491 -1.3761 0.2362, -0.6363 -1.3004 0.2362, -0.8111 -1.1995 0.2362, -0.9702 -1.0752 0.2362, -1.1104 -0.93 0.2362, -1.229 -0.7667 0.2362, -1.3238 -0.5885 0.2362, -1.3928 -0.3988 0.2362, -1.4348 -0.2014 0.2362, -0.2481 1.3958 0.2362, -0.0515 1.4164 0.2362, 0.1461 1.4095 0.2362, 0.3409 1.3752 0.2362, 0.5289 1.3141 0.2362, 0.7066 1.2274 0.2362, 0.8706 1.1168 0.2362, 1.0175 0.9845 0.2362, 1.1446 0.8331 0.2362, 1.2494 0.6654 0.2362, 1.3298 0.4847 0.2362, 1.3843 0.2947 0.2362, 1.4119 0.0988 0.2362, 1.4119 -0.0989 0.2362, 1.3843 -0.2947 0.2362, 1.3298 -0.4848 0.2362, 1.2494 -0.6654 0.2362, 1.1446 -0.8331 0.2362, 1.0175 -0.9846 0.2362, 0.8706 -1.1169 0.2362, 0.7066 -1.2275 0.2362, 0.5289 -1.3141 0.2362, 0.3409 -1.3752 0.2362, 0.1461 -1.4096 0.2362, -0.0515 -1.4165 0.2362, -0.2481 -1.3958 0.2362, -0.44 -1.348 0.2362, -0.6233 -1.2739 0.2362, -0.7946 -1.175 0.2362, -0.9504 -1.0533 0.2362, -1.0878 -0.9111 0.2362, -1.204 -0.7511 0.2362, -1.2968 -0.5765 0.2362, -1.3644 -0.3907 0.2362, -1.4055 -0.1973 0.2362, -1.4193 -0.0 0.2362, -1.4055 0.1972 0.2362, -1.3644 0.3906 0.2362, -1.2968 0.5765 0.2362, -1.204 0.751 0.2362, -1.0878 0.911 0.2362, -0.9504 1.0533 0.2362, -0.7946 1.175 0.2362, -0.6233 1.2739 0.2362, -0.44 1.3479 0.2362, -1.4193 -0.0 0.0, -1.4055 0.1972 0.0, -1.3644 0.3906 0.0, -1.2968 0.5765 0.0, -1.204 0.751 0.0, -1.0878 0.911 0.0, -0.9504 1.0533 0.0, -0.7946 1.175 0.0, -0.6233 1.2739 0.0, -0.44 1.3479 0.0, -0.2481 1.3958 0.0, -0.0515 1.4164 0.0, 0.1461 1.4095 0.0, 0.3409 1.3752 0.0, 0.5289 1.3141 0.0, 0.7066 1.2274 0.0, 0.8706 1.1168 0.0, 1.0175 0.9845 0.0, 1.1446 0.8331 0.0, 1.2494 0.6654 0.0, 1.3298 0.4847 0.0, 1.3843 0.2947 0.0, 1.4119 0.0988 0.0, 1.4119 -0.0989 0.0, 1.3843 -0.2947 0.0, 1.3298 -0.4848 0.0, 1.2494 -0.6654 0.0, 1.1446 -0.8331 0.0, 1.0175 -0.9846 0.0, 0.8706 -1.1169 0.0, 0.7066 -1.2275 0.0, 0.5289 -1.3141 0.0, 0.3409 -1.3752 0.0, 0.1461 -1.4096 0.0, -0.0515 -1.4165 0.0, -0.2481 -1.3958 0.0, -0.44 -1.348 0.0, -0.6233 -1.2739 0.0, -0.7946 -1.175 0.0, -0.9504 -1.0533 0.0, -1.0878 -0.9111 0.0, -1.204 -0.7511 0.0, -1.2968 -0.5765 0.0, -1.3644 -0.3907 0.0, -1.4055 -0.1973 0.0, -0.002 -0.0 0.0
            ]
        }
        coordIndex [
            0,1,2,-1,3,4,5,-1,6,7,8,-1,9,10,11,-1,11,10,12,-1,13,14,11,-1,11,14,15,-1,11,15,16,-1,16,17,11,-1,11,17,18,-1,11,18,9,-1,19,20,21,-1,21,20,22,-1,22,20,23,-1,22,23,24,-1,19,21,25,-1,25,21,26,-1,25,26,27,-1,28,29,26,-1,26,29,30,-1,26,30,31,-1,26,32,27,-1,27,32,33,-1,27,33,34,-1,34,33,35,-1,34,35,36,-1,31,37,26,-1,26,37,38,-1,26,38,32,-1,39,40,41,-1,39,41,42,-1,40,43,41,-1,41,43,44,-1,41,44,45,-1,45,44,46,-1,46,47,45,-1,45,47,48,-1,45,48,28,-1,28,48,49,-1,28,49,29,-1,50,42,51,-1,51,42,41,-1,51,41,52,-1,52,41,53,-1,52,53,54,-1,54,53,55,-1,56,57,53,-1,53,57,58,-1,53,58,55,-1,59,60,61,-1,61,60,62,-1,61,62,56,-1,56,62,63,-1,56,63,57,-1,64,65,66,-1,66,65,67,-1,67,68,66,-1,66,68,69,-1,66,69,59,-1,70,71,72,-1,73,74,75,-1,76,77,78,-1,79,80,81,-1,81,80,82,-1,73,75,83,-1,76,78,84,-1,85,86,80,-1,80,86,87,-1,80,87,88,-1,72,71,78,-1,78,71,89,-1,78,89,84,-1,74,90,75,-1,75,90,91,-1,75,91,92,-1,93,94,95,-1,95,94,96,-1,95,96,97,-1,98,88,99,-1,99,88,100,-1,99,100,95,-1,95,100,101,-1,95,101,93,-1,98,102,88,-1,88,102,103,-1,88,103,80,-1,80,103,104,-1,80,104,82,-1,105,106,107,-1,107,106,108,-1,107,108,75,-1,75,108,109,-1,75,109,83,-1,110,111,75,-1,75,111,112,-1,75,112,80,-1,80,112,113,-1,80,113,85,-1,114,115,64,-1,64,115,116,-1,64,116,117,-1,117,118,64,-1,64,118,119,-1,64,119,120,-1,120,119,105,-1,120,105,121,-1,121,105,107,-1,77,122,78,-1,78,122,123,-1,78,123,64,-1,64,123,124,-1,64,124,114,-1,92,125,75,-1,75,125,126,-1,75,126,127,-1,127,128,75,-1,75,128,129,-1,75,129,110,-1,130,131,132,-1,132,88,130,-1,130,88,87,-1,130,87,133,-1,133,87,134,-1,134,135,133,-1,133,135,136,-1,133,136,137,-1,138,139,140,-1,139,141,140,-1,140,141,142,-1,140,142,143,-1,144,140,145,-1,131,130,144,-1,144,130,146,-1,144,146,140,-1,140,146,147,-1,140,147,138,-1,145,148,144,-1,144,148,149,-1,144,149,150,-1,143,142,151,-1,151,142,152,-1,151,152,153,-1,153,152,154,-1,153,154,155,-1,156,157,150,-1,150,157,158,-1,150,158,144,-1,10,159,12,-1,12,159,160,-1,12,160,72,-1,72,160,161,-1,72,161,70,-1,162,163,164,-1,164,163,165,-1,164,165,166,-1,167,168,169,-1,169,168,170,-1,163,171,165,-1,165,171,172,-1,165,172,173,-1,173,172,174,-1,173,174,175,-1,175,174,176,-1,175,176,170,-1,170,176,177,-1,170,177,169,-1,178,179,180,-1,180,179,181,-1,182,183,184,-1,184,183,185,-1,184,186,182,-1,182,186,187,-1,182,187,188,-1,188,187,189,-1,188,189,190,-1,178,180,191,-1,191,180,187,-1,191,187,192,-1,192,187,186,-1,192,186,193,-1,186,194,193,-1,193,194,195,-1,193,195,196,-1,185,183,197,-1,197,183,198,-1,197,198,199,-1,200,198,201,-1,201,198,202,-1,189,203,190,-1,190,203,199,-1,190,199,8,-1,8,199,198,-1,8,198,204,-1,204,198,200,-1,6,8,205,-1,206,207,208,-1,209,210,211,-1,211,210,212,-1,211,212,204,-1,204,212,213,-1,204,213,8,-1,8,213,214,-1,8,214,205,-1,209,211,208,-1,208,211,215,-1,208,215,206,-1,207,216,208,-1,208,216,217,-1,208,217,218,-1,219,220,221,-1,221,220,222,-1,221,222,223,-1,218,224,208,-1,208,224,225,-1,208,225,226,-1,226,227,208,-1,208,227,220,-1,208,220,228,-1,228,220,219,-1,229,202,230,-1,230,202,231,-1,5,232,233,-1,233,234,5,-1,5,234,235,-1,5,235,3,-1,236,237,238,-1,238,237,239,-1,239,240,241,-1,241,240,242,-1,241,242,5,-1,5,242,243,-1,5,243,232,-1,244,245,246,-1,246,247,244,-1,244,247,248,-1,244,248,249,-1,245,244,250,-1,250,244,251,-1,250,251,252,-1,252,251,253,-1,253,251,254,-1,253,254,7,-1,255,256,173,-1,257,258,175,-1,175,258,259,-1,260,261,262,-1,262,261,173,-1,262,173,263,-1,263,173,256,-1,259,264,175,-1,175,264,265,-1,175,265,266,-1,266,267,175,-1,175,267,268,-1,175,268,173,-1,173,268,269,-1,173,269,255,-1,182,270,257,-1,257,270,271,-1,257,271,258,-1,260,272,261,-1,261,272,273,-1,261,273,188,-1,188,273,274,-1,188,274,182,-1,182,274,275,-1,182,275,270,-1,276,277,278,-1,279,280,281,-1,281,280,282,-1,276,278,283,-1,284,285,286,-1,286,287,288,-1,251,289,290,-1,291,292,293,-1,279,294,280,-1,280,294,295,-1,280,295,296,-1,296,295,297,-1,298,299,297,-1,297,299,300,-1,297,300,296,-1,285,301,286,-1,286,301,302,-1,286,302,287,-1,303,304,278,-1,278,304,305,-1,278,305,283,-1,290,306,251,-1,251,306,307,-1,251,307,308,-1,288,309,286,-1,286,309,310,-1,286,310,251,-1,251,310,282,-1,251,282,289,-1,289,282,280,-1,291,311,292,-1,292,311,312,-1,292,312,313,-1,313,312,314,-1,313,314,315,-1,316,317,297,-1,297,317,318,-1,297,318,319,-1,320,321,322,-1,322,321,323,-1,322,323,324,-1,325,326,327,-1,327,326,328,-1,327,328,315,-1,315,328,329,-1,315,329,313,-1,319,330,297,-1,297,330,331,-1,297,331,298,-1,277,332,333,-1,333,332,334,-1,334,332,335,-1,334,335,336,-1,320,325,321,-1,321,325,327,-1,321,327,337,-1,337,327,338,-1,337,338,339,-1,339,338,340,-1,339,340,341,-1,341,340,342,-1,343,342,333,-1,333,342,340,-1,333,340,277,-1,277,340,338,-1,277,338,278,-1,344,345,2,-1,346,347,254,-1,348,349,2,-1,2,349,350,-1,308,291,251,-1,251,291,293,-1,251,293,254,-1,254,293,351,-1,254,351,346,-1,347,352,254,-1,254,352,353,-1,254,353,354,-1,354,353,355,-1,354,355,344,-1,356,357,345,-1,345,357,358,-1,345,358,2,-1,2,358,359,-1,2,359,348,-1,350,360,2,-1,2,360,361,-1,2,361,0,-1,362,363,364,-1,364,363,365,-1,364,365,366,-1,364,367,362,-1,362,367,368,-1,362,368,369,-1,369,370,362,-1,362,370,371,-1,362,371,372,-1,372,371,373,-1,372,373,374,-1,374,373,375,-1,374,375,345,-1,345,375,376,-1,345,376,356,-1,377,378,366,-1,366,378,379,-1,366,379,364,-1,380,381,324,-1,324,381,382,-1,324,382,322,-1,380,383,381,-1,381,383,384,-1,381,384,385,-1,385,384,386,-1,385,387,388,-1,386,389,385,-1,385,389,390,-1,385,390,391,-1,391,392,385,-1,385,392,393,-1,385,393,387,-1,388,394,385,-1,385,394,395,-1,385,395,396,-1,397,398,399,-1,400,401,402,-1,399,403,397,-1,397,403,404,-1,397,404,405,-1,405,404,400,-1,405,400,406,-1,406,400,402,-1,407,408,2,-1,2,408,409,-1,344,2,354,-1,354,2,409,-1,354,409,403,-1,403,409,410,-1,403,410,404,-1,411,408,412,-1,412,408,407,-1,412,407,413,-1,414,415,416,-1,417,418,407,-1,407,418,419,-1,407,419,413,-1,343,333,1,-1,1,333,414,-1,1,414,2,-1,2,414,416,-1,2,416,407,-1,407,416,420,-1,407,420,421,-1,422,423,424,-1,424,423,425,-1,424,425,414,-1,414,425,426,-1,414,426,415,-1,421,427,407,-1,407,427,428,-1,407,428,417,-1,429,430,431,-1,429,431,432,-1,430,433,431,-1,431,433,434,-1,431,434,424,-1,424,434,435,-1,424,435,422,-1,436,437,438,-1,438,437,439,-1,440,441,442,-1,442,441,443,-1,442,443,444,-1,444,443,445,-1,444,445,446,-1,436,438,447,-1,447,438,443,-1,447,443,448,-1,448,443,441,-1,448,441,449,-1,441,450,449,-1,449,450,451,-1,449,451,452,-1,445,453,446,-1,446,453,454,-1,446,454,455,-1,455,454,456,-1,440,442,457,-1,457,442,458,-1,457,458,456,-1,456,458,399,-1,456,399,455,-1,455,399,398,-1,455,398,432,-1,202,198,231,-1,231,198,183,-1,231,183,459,-1,459,183,182,-1,459,182,460,-1,460,182,257,-1,460,257,461,-1,461,257,175,-1,461,175,462,-1,462,175,170,-1,462,170,463,-1,463,170,168,-1,463,168,464,-1,22,241,465,-1,465,241,5,-1,465,5,230,-1,230,5,4,-1,230,4,229,-1,239,241,238,-1,238,241,466,-1,238,466,467,-1,12,468,11,-1,11,468,469,-1,11,469,470,-1,471,466,470,-1,470,466,241,-1,470,241,11,-1,11,241,22,-1,11,22,13,-1,13,22,24,-1,7,254,8,-1,8,254,354,-1,8,354,190,-1,190,354,403,-1,190,403,188,-1,188,403,399,-1,188,399,261,-1,261,399,458,-1,261,458,173,-1,173,458,442,-1,173,442,165,-1,467,468,238,-1,238,468,12,-1,238,12,472,-1,472,12,72,-1,473,474,444,-1,475,476,477,-1,477,473,475,-1,475,473,444,-1,475,444,478,-1,478,444,479,-1,478,479,480,-1,480,479,481,-1,482,474,483,-1,483,474,484,-1,483,484,485,-1,485,484,486,-1,482,487,474,-1,474,487,488,-1,474,488,489,-1,490,442,491,-1,491,442,444,-1,491,444,492,-1,492,444,474,-1,492,474,493,-1,493,474,489,-1,169,166,167,-1,167,166,165,-1,167,165,481,-1,481,165,442,-1,481,442,480,-1,480,442,484,-1,494,495,484,-1,484,495,496,-1,484,496,486,-1,490,497,442,-1,442,497,498,-1,442,498,484,-1,484,498,499,-1,484,499,494,-1,249,236,244,-1,244,236,238,-1,244,238,251,-1,251,238,472,-1,251,472,286,-1,286,472,500,-1,78,500,501,-1,501,500,502,-1,502,500,503,-1,503,500,472,-1,503,472,504,-1,78,501,72,-1,72,501,505,-1,72,505,472,-1,472,505,506,-1,472,506,504,-1,507,508,509,-1,509,508,503,-1,509,503,510,-1,510,503,504,-1,510,504,511,-1,511,504,512,-1,432,431,455,-1,455,431,513,-1,455,513,446,-1,446,513,514,-1,446,514,444,-1,444,514,515,-1,444,515,479,-1,64,66,78,-1,78,66,516,-1,78,516,500,-1,500,516,334,-1,500,334,286,-1,286,334,336,-1,286,336,284,-1,59,61,66,-1,66,61,517,-1,66,517,516,-1,516,517,518,-1,516,518,334,-1,334,518,519,-1,334,519,333,-1,333,519,520,-1,333,520,414,-1,414,520,521,-1,414,521,424,-1,424,521,522,-1,424,522,431,-1,431,522,523,-1,431,523,513,-1,513,523,524,-1,513,524,514,-1,514,524,525,-1,514,525,515,-1,21,526,26,-1,26,526,527,-1,26,527,28,-1,28,527,528,-1,28,528,45,-1,45,528,529,-1,45,529,41,-1,41,529,530,-1,41,530,53,-1,53,530,531,-1,53,531,56,-1,56,531,532,-1,533,532,534,-1,534,532,526,-1,535,533,536,-1,536,533,534,-1,537,535,538,-1,538,535,536,-1,539,537,540,-1,540,537,538,-1,541,539,542,-1,542,539,540,-1,543,541,544,-1,544,541,542,-1,525,543,464,-1,464,543,544,-1,543,545,546,-1,547,548,533,-1,549,532,550,-1,550,532,551,-1,546,552,543,-1,543,552,553,-1,543,553,541,-1,541,553,554,-1,554,555,541,-1,541,555,556,-1,541,556,557,-1,558,559,537,-1,537,559,560,-1,549,561,532,-1,532,561,562,-1,532,562,525,-1,525,562,563,-1,563,564,525,-1,525,564,565,-1,525,565,566,-1,539,567,537,-1,537,567,568,-1,537,568,558,-1,566,569,525,-1,525,569,570,-1,525,570,543,-1,543,570,571,-1,543,571,545,-1,560,572,537,-1,537,572,573,-1,537,573,535,-1,535,573,574,-1,574,575,535,-1,535,575,576,-1,535,576,577,-1,548,578,533,-1,533,578,579,-1,533,579,532,-1,532,579,580,-1,532,580,551,-1,581,582,539,-1,539,582,583,-1,539,583,567,-1,557,584,541,-1,541,584,585,-1,541,585,539,-1,539,585,586,-1,539,586,581,-1,577,587,535,-1,535,587,588,-1,535,588,533,-1,533,588,589,-1,533,589,547,-1,526,464,590,-1,590,591,526,-1,526,591,592,-1,526,592,593,-1,594,595,536,-1,596,538,597,-1,597,538,598,-1,599,600,540,-1,540,600,601,-1,602,603,544,-1,593,604,526,-1,526,604,605,-1,526,605,534,-1,534,605,606,-1,596,607,538,-1,538,607,608,-1,538,608,540,-1,540,608,609,-1,540,609,599,-1,610,611,542,-1,595,612,536,-1,536,612,613,-1,536,613,538,-1,538,613,614,-1,538,614,598,-1,601,615,540,-1,540,615,616,-1,540,616,542,-1,542,616,617,-1,542,617,610,-1,464,618,619,-1,606,620,534,-1,534,620,621,-1,534,621,622,-1,619,623,464,-1,464,623,624,-1,464,624,590,-1,622,625,534,-1,534,625,626,-1,534,626,536,-1,536,626,627,-1,536,627,594,-1,602,544,628,-1,603,629,544,-1,544,629,630,-1,544,630,464,-1,464,630,631,-1,464,631,618,-1,611,632,542,-1,542,632,633,-1,542,633,544,-1,544,633,634,-1,544,634,628,-1,635,590,636,-1,636,590,624,-1,636,624,637,-1,637,624,623,-1,637,623,638,-1,638,623,619,-1,638,619,639,-1,639,619,618,-1,639,618,640,-1,640,618,631,-1,640,631,641,-1,641,631,630,-1,641,630,642,-1,642,630,629,-1,642,629,643,-1,643,629,603,-1,643,603,644,-1,644,603,602,-1,644,602,645,-1,645,602,628,-1,645,628,646,-1,646,628,634,-1,646,634,647,-1,647,634,633,-1,647,633,648,-1,648,633,632,-1,648,632,649,-1,649,632,611,-1,649,611,650,-1,650,611,610,-1,650,610,651,-1,651,610,617,-1,651,617,652,-1,652,617,616,-1,652,616,653,-1,653,616,615,-1,653,615,654,-1,654,615,601,-1,654,601,655,-1,655,601,600,-1,655,600,656,-1,656,600,599,-1,656,599,657,-1,657,599,609,-1,657,609,658,-1,658,609,608,-1,658,608,659,-1,659,608,607,-1,659,607,660,-1,660,607,596,-1,660,596,661,-1,661,596,597,-1,661,597,662,-1,662,597,598,-1,662,598,663,-1,663,598,614,-1,663,614,664,-1,664,614,613,-1,664,613,665,-1,665,613,612,-1,665,612,666,-1,666,612,595,-1,666,595,667,-1,667,595,594,-1,667,594,668,-1,668,594,627,-1,668,627,669,-1,669,627,626,-1,669,626,670,-1,670,626,625,-1,670,625,671,-1,671,625,622,-1,671,622,672,-1,672,622,621,-1,672,621,673,-1,673,621,620,-1,673,620,674,-1,674,620,606,-1,674,606,675,-1,675,606,605,-1,675,605,676,-1,676,605,604,-1,676,604,677,-1,677,604,593,-1,677,593,678,-1,678,593,592,-1,678,592,679,-1,679,592,591,-1,679,591,635,-1,635,591,590,-1,680,637,681,-1,681,637,638,-1,681,638,682,-1,682,638,639,-1,682,639,683,-1,683,639,640,-1,683,640,684,-1,684,640,641,-1,684,641,685,-1,685,641,642,-1,685,642,686,-1,686,642,643,-1,686,643,687,-1,687,643,644,-1,687,644,688,-1,688,644,645,-1,688,645,689,-1,689,645,646,-1,689,646,690,-1,690,646,647,-1,690,647,691,-1,691,647,648,-1,691,648,692,-1,692,648,649,-1,692,649,693,-1,693,649,650,-1,693,650,694,-1,694,650,651,-1,694,651,695,-1,695,651,652,-1,695,652,696,-1,696,652,653,-1,696,653,697,-1,697,653,654,-1,697,654,698,-1,698,654,655,-1,698,655,699,-1,699,655,656,-1,699,656,700,-1,700,656,657,-1,700,657,701,-1,701,657,658,-1,701,658,702,-1,702,658,659,-1,702,659,703,-1,703,659,660,-1,703,660,704,-1,704,660,661,-1,704,661,705,-1,705,661,662,-1,705,662,706,-1,706,662,663,-1,706,663,707,-1,707,663,664,-1,707,664,708,-1,708,664,665,-1,708,665,709,-1,709,665,666,-1,709,666,710,-1,710,666,667,-1,710,667,711,-1,711,667,668,-1,711,668,712,-1,712,668,669,-1,712,669,713,-1,713,669,670,-1,713,670,714,-1,714,670,671,-1,714,671,715,-1,715,671,672,-1,715,672,716,-1,716,672,673,-1,716,673,717,-1,717,673,674,-1,717,674,718,-1,718,674,675,-1,718,675,719,-1,719,675,676,-1,719,676,720,-1,720,676,677,-1,720,677,721,-1,721,677,678,-1,721,678,722,-1,722,678,679,-1,722,679,723,-1,723,679,635,-1,723,635,724,-1,724,635,636,-1,724,636,680,-1,680,636,637,-1,725,724,726,-1,726,724,680,-1,726,680,727,-1,727,680,681,-1,727,681,728,-1,728,681,682,-1,728,682,729,-1,729,682,683,-1,729,683,730,-1,730,683,684,-1,730,684,731,-1,731,684,685,-1,731,685,732,-1,732,685,686,-1,732,686,733,-1,733,686,687,-1,733,687,734,-1,734,687,688,-1,734,688,735,-1,735,688,689,-1,735,689,736,-1,736,689,690,-1,736,690,737,-1,737,690,691,-1,737,691,738,-1,738,691,692,-1,738,692,739,-1,739,692,693,-1,739,693,740,-1,740,693,694,-1,740,694,741,-1,741,694,695,-1,741,695,742,-1,742,695,696,-1,742,696,743,-1,743,696,697,-1,743,697,744,-1,744,697,698,-1,744,698,745,-1,745,698,699,-1,745,699,746,-1,746,699,700,-1,746,700,747,-1,747,700,701,-1,747,701,748,-1,748,701,702,-1,748,702,749,-1,749,702,703,-1,749,703,750,-1,750,703,704,-1,750,704,751,-1,751,704,705,-1,751,705,752,-1,752,705,706,-1,752,706,753,-1,753,706,707,-1,753,707,754,-1,754,707,708,-1,754,708,755,-1,755,708,709,-1,755,709,756,-1,756,709,710,-1,756,710,757,-1,757,710,711,-1,757,711,758,-1,758,711,712,-1,758,712,759,-1,759,712,713,-1,759,713,760,-1,760,713,714,-1,760,714,761,-1,761,714,715,-1,761,715,762,-1,762,715,716,-1,762,716,763,-1,763,716,717,-1,763,717,764,-1,764,717,718,-1,764,718,765,-1,765,718,719,-1,765,719,766,-1,766,719,720,-1,766,720,767,-1,767,720,721,-1,767,721,768,-1,768,721,722,-1,768,722,769,-1,769,722,723,-1,769,723,725,-1,725,723,724,-1,768,769,770,-1,770,769,725,-1,770,725,726,-1,765,766,770,-1,770,766,767,-1,770,767,768,-1,762,763,770,-1,770,763,764,-1,770,764,765,-1,759,760,770,-1,770,760,761,-1,770,761,762,-1,756,757,770,-1,770,757,758,-1,770,758,759,-1,753,754,770,-1,770,754,755,-1,770,755,756,-1,750,751,770,-1,770,751,752,-1,770,752,753,-1,747,748,770,-1,770,748,749,-1,770,749,750,-1,744,745,770,-1,770,745,746,-1,770,746,747,-1,741,742,770,-1,770,742,743,-1,770,743,744,-1,738,739,770,-1,770,739,740,-1,770,740,741,-1,735,736,770,-1,770,736,737,-1,770,737,738,-1,732,733,770,-1,770,733,734,-1,770,734,735,-1,729,730,770,-1,770,730,731,-1,770,731,732,-1,726,727,770,-1,770,727,728,-1,770,728,729,-1,771,568,772,-1,772,568,567,-1,772,567,773,-1,773,567,583,-1,773,583,774,-1,774,583,582,-1,774,582,775,-1,775,582,581,-1,775,581,776,-1,776,581,586,-1,776,586,777,-1,777,586,585,-1,777,585,778,-1,778,585,584,-1,778,584,779,-1,779,584,557,-1,779,557,780,-1,780,557,556,-1,780,556,781,-1,781,556,555,-1,781,555,782,-1,782,555,554,-1,782,554,783,-1,783,554,553,-1,783,553,784,-1,784,553,552,-1,784,552,785,-1,785,552,546,-1,785,546,786,-1,786,546,545,-1,786,545,787,-1,787,545,571,-1,787,571,788,-1,788,571,570,-1,788,570,789,-1,789,570,569,-1,789,569,790,-1,790,569,566,-1,790,566,791,-1,791,566,565,-1,791,565,792,-1,792,565,564,-1,792,564,793,-1,793,564,563,-1,793,563,794,-1,794,563,562,-1,794,562,795,-1,795,562,561,-1,795,561,796,-1,796,561,549,-1,796,549,797,-1,797,549,550,-1,797,550,798,-1,798,550,551,-1,798,551,799,-1,799,551,580,-1,799,580,800,-1,800,580,579,-1,800,579,801,-1,801,579,578,-1,801,578,802,-1,802,578,548,-1,802,548,803,-1,803,548,547,-1,803,547,804,-1,804,547,589,-1,804,589,805,-1,805,589,588,-1,805,588,806,-1,806,588,587,-1,806,587,807,-1,807,587,577,-1,807,577,808,-1,808,577,576,-1,808,576,809,-1,809,576,575,-1,809,575,810,-1,810,575,574,-1,810,574,811,-1,811,574,573,-1,811,573,812,-1,812,573,572,-1,812,572,813,-1,813,572,560,-1,813,560,814,-1,814,560,559,-1,814,559,815,-1,815,559,558,-1,815,558,771,-1,771,558,568,-1,816,781,817,-1,817,781,782,-1,817,782,818,-1,818,782,783,-1,818,783,819,-1,819,783,784,-1,819,784,820,-1,820,784,785,-1,820,785,821,-1,821,785,786,-1,821,786,822,-1,822,786,787,-1,822,787,823,-1,823,787,788,-1,823,788,824,-1,824,788,789,-1,824,789,825,-1,825,789,790,-1,825,790,826,-1,826,790,791,-1,826,791,827,-1,827,791,792,-1,827,792,828,-1,828,792,793,-1,828,793,829,-1,829,793,794,-1,829,794,830,-1,830,794,795,-1,830,795,831,-1,831,795,796,-1,831,796,832,-1,832,796,797,-1,832,797,833,-1,833,797,798,-1,833,798,834,-1,834,798,799,-1,834,799,835,-1,835,799,800,-1,835,800,836,-1,836,800,801,-1,836,801,837,-1,837,801,802,-1,837,802,838,-1,838,802,803,-1,838,803,839,-1,839,803,804,-1,839,804,840,-1,840,804,805,-1,840,805,841,-1,841,805,806,-1,841,806,842,-1,842,806,807,-1,842,807,843,-1,843,807,808,-1,843,808,844,-1,844,808,809,-1,844,809,845,-1,845,809,810,-1,845,810,846,-1,846,810,811,-1,846,811,847,-1,847,811,812,-1,847,812,848,-1,848,812,813,-1,848,813,849,-1,849,813,814,-1,849,814,850,-1,850,814,815,-1,850,815,851,-1,851,815,771,-1,851,771,852,-1,852,771,772,-1,852,772,853,-1,853,772,773,-1,853,773,854,-1,854,773,774,-1,854,774,855,-1,855,774,775,-1,855,775,856,-1,856,775,776,-1,856,776,857,-1,857,776,777,-1,857,777,858,-1,858,777,778,-1,858,778,859,-1,859,778,779,-1,859,779,860,-1,860,779,780,-1,860,780,816,-1,816,780,781,-1,861,852,862,-1,862,852,853,-1,862,853,863,-1,863,853,854,-1,863,854,864,-1,864,854,855,-1,864,855,865,-1,865,855,856,-1,865,856,866,-1,866,856,857,-1,866,857,867,-1,867,857,858,-1,867,858,868,-1,868,858,859,-1,868,859,869,-1,869,859,860,-1,869,860,870,-1,870,860,816,-1,870,816,871,-1,871,816,817,-1,871,817,872,-1,872,817,818,-1,872,818,873,-1,873,818,819,-1,873,819,874,-1,874,819,820,-1,874,820,875,-1,875,820,821,-1,875,821,876,-1,876,821,822,-1,876,822,877,-1,877,822,823,-1,877,823,878,-1,878,823,824,-1,878,824,879,-1,879,824,825,-1,879,825,880,-1,880,825,826,-1,880,826,881,-1,881,826,827,-1,881,827,882,-1,882,827,828,-1,882,828,883,-1,883,828,829,-1,883,829,884,-1,884,829,830,-1,884,830,885,-1,885,830,831,-1,885,831,886,-1,886,831,832,-1,886,832,887,-1,887,832,833,-1,887,833,888,-1,888,833,834,-1,888,834,889,-1,889,834,835,-1,889,835,890,-1,890,835,836,-1,890,836,891,-1,891,836,837,-1,891,837,892,-1,892,837,838,-1,892,838,893,-1,893,838,839,-1,893,839,894,-1,894,839,840,-1,894,840,895,-1,895,840,841,-1,895,841,896,-1,896,841,842,-1,896,842,897,-1,897,842,843,-1,897,843,898,-1,898,843,844,-1,898,844,899,-1,899,844,845,-1,899,845,900,-1,900,845,846,-1,900,846,901,-1,901,846,847,-1,901,847,902,-1,902,847,848,-1,902,848,903,-1,903,848,849,-1,903,849,904,-1,904,849,850,-1,904,850,905,-1,905,850,851,-1,905,851,861,-1,861,851,852,-1,904,905,906,-1,906,905,861,-1,906,861,862,-1,901,902,906,-1,906,902,903,-1,906,903,904,-1,898,899,906,-1,906,899,900,-1,906,900,901,-1,895,896,906,-1,906,896,897,-1,906,897,898,-1,892,893,906,-1,906,893,894,-1,906,894,895,-1,889,890,906,-1,906,890,891,-1,906,891,892,-1,886,887,906,-1,906,887,888,-1,906,888,889,-1,883,884,906,-1,906,884,885,-1,906,885,886,-1,880,881,906,-1,906,881,882,-1,906,882,883,-1,877,878,906,-1,906,878,879,-1,906,879,880,-1,874,875,906,-1,906,875,876,-1,906,876,877,-1,871,872,906,-1,906,872,873,-1,906,873,874,-1,868,869,906,-1,906,869,870,-1,906,870,871,-1,865,866,906,-1,906,866,867,-1,906,867,868,-1,862,863,906,-1,906,863,864,-1,906,864,865,-1,
        ]
    }
}
Shape{
    appearance Appearance {
        material  Material 	{
            diffuseColor 0.7529411764705882 0.7529411764705882 0.7529411764705882
            specularColor 0.3764705882352941 0.3764705882352941 0.3764705882352941
            ambientIntensity 0.7529
            transparency 0.0
            shininess 0.5
        }
    }
    geometry IndexedFaceSet {
        ccw TRUE
        solid FALSE
        coord DEF co Coordinate {
            point [
                1.9704 0.1256 0.5476, 1.9704 0.1256 0.537, 1.9665 0.1256 0.5476, 1.9665 0.1256 0.537, 1.9704 0.0884 0.5476, 1.9665 0.0884 0.5476, 1.9704 0.0884 0.6304, 1.9665 0.0884 0.6304, 1.9704 0.0763 0.6304, 1.9665 0.0763 0.6304, 1.9704 0.0763 0.537, 1.9665 0.0763 0.537, 1.9704 0.1735 0.5354, 1.9665 0.1735 0.5354, 1.9704 0.1877 0.5367, 1.9665 0.1817 0.5362, 1.9665 0.1877 0.5367, 1.9665 0.1978 0.54, 1.9704 0.1978 0.54, 1.9665 0.1993 0.5408, 1.9704 0.1993 0.5408, 1.9704 0.1993 0.5524, 1.9665 0.1993 0.5524, 1.9665 0.1901 0.5483, 1.9704 0.1901 0.5483, 1.9665 0.1796 0.5463, 1.9704 0.1796 0.5463, 1.9665 0.1752 0.5461, 1.9704 0.1752 0.5461, 1.9665 0.1669 0.547, 1.9704 0.1669 0.547, 1.9665 0.1601 0.5494, 1.9704 0.1601 0.5494, 1.9665 0.1538 0.5535, 1.9704 0.1538 0.5535, 1.9665 0.1512 0.556, 1.9704 0.1512 0.556, 1.9665 0.1469 0.5619, 1.9704 0.1469 0.5619, 1.9665 0.1438 0.5693, 1.9704 0.1438 0.5693, 1.9665 0.1422 0.5785, 1.9704 0.1422 0.5785, 1.9665 0.1421 0.5826, 1.9704 0.1421 0.5826, 1.9665 0.1436 0.5954, 1.9704 0.1436 0.5954, 1.9665 0.1467 0.6035, 1.9704 0.1467 0.6035, 1.9665 0.1512 0.61, 1.9704 0.1512 0.61, 1.9665 0.1519 0.6107, 1.9704 0.1519 0.6107, 1.9665 0.1577 0.6156, 1.9704 0.1577 0.6156, 1.9665 0.165 0.6192, 1.9704 0.165 0.6192, 1.9665 0.173 0.6209, 1.9704 0.173 0.6209, 1.9665 0.1773 0.6211, 1.9704 0.1773 0.6211, 1.9665 0.1888 0.6197, 1.9704 0.1888 0.6197, 1.9665 0.1983 0.6161, 1.9704 0.1983 0.6161, 1.9665 0.1993 0.6155, 1.9704 0.1993 0.6155, 1.9704 0.1993 0.6281, 1.9665 0.1993 0.6281, 1.9665 0.1772 0.6319, 1.9704 0.1772 0.6319, 1.9665 0.1872 0.6312, 1.9704 0.1894 0.631, 1.9665 0.1894 0.631, 1.9665 0.1707 0.6312, 1.9704 0.1637 0.6303, 1.9665 0.1637 0.6303, 1.9665 0.154 0.6265, 1.9704 0.154 0.6265, 1.9665 0.1452 0.6204, 1.9704 0.1452 0.6204, 1.9665 0.1429 0.6182, 1.9704 0.1429 0.6182, 1.9665 0.1361 0.6093, 1.9665 0.1336 0.6034, 1.9704 0.1317 0.599, 1.9704 0.1361 0.6093, 1.9665 0.1317 0.599, 1.9665 0.1296 0.5868, 1.9704 0.1296 0.5868, 1.9665 0.1294 0.5819, 1.9704 0.1294 0.5819, 1.9665 0.1312 0.5667, 1.9665 0.1336 0.5607, 1.9704 0.135 0.557, 1.9704 0.1312 0.5667, 1.9665 0.135 0.557, 1.9665 0.1406 0.549, 1.9704 0.1406 0.549, 1.9665 0.1414 0.5481, 1.9704 0.1414 0.5481, 1.9704 0.1662 0.5358, 1.9665 0.1477 0.5427, 1.9704 0.1477 0.5427, 1.9665 0.1563 0.5382, 1.9704 0.1563 0.5382, 1.9665 0.1648 0.5362, 1.9665 0.1662 0.5358, 1.9704 0.2683 0.5476, 1.9704 0.2683 0.537, 1.9665 0.2683 0.5476, 1.9665 0.2683 0.537, 1.9665 0.2301 0.5476, 1.9704 0.2301 0.5476, 1.9665 0.2553 0.5476, 1.9704 0.2301 0.579, 1.9665 0.2301 0.579, 1.9704 0.2635 0.579, 1.9665 0.2553 0.579, 1.9665 0.2635 0.579, 1.9704 0.2635 0.5897, 1.9665 0.2635 0.5897, 1.9665 0.2301 0.5897, 1.9704 0.2301 0.5897, 1.9665 0.2553 0.5897, 1.9704 0.2301 0.6196, 1.9665 0.2301 0.6196, 1.9704 0.2662 0.6196, 1.9665 0.2553 0.6196, 1.9665 0.2662 0.6196, 1.9704 0.2662 0.6304, 1.9665 0.2662 0.6304, 1.9665 0.218 0.6304, 1.9704 0.218 0.6304, 1.9665 0.2553 0.6304, 1.9704 0.218 0.537, 1.9665 0.218 0.537, 1.9665 0.2553 0.537, 1.9704 0.3479 0.55, 1.9704 0.3382 0.5563, 1.9704 0.3381 0.543, 1.9704 0.3322 0.5521, 1.9704 0.3274 0.5389, 1.9704 0.3245 0.5491, 1.9704 0.3116 0.537, 1.9704 0.3116 0.5476, 1.9704 0.2859 0.537, 1.9704 0.298 0.5476, 1.9704 0.2859 0.6304, 1.9704 0.298 0.6196, 1.9704 0.3126 0.6304, 1.9704 0.3121 0.6196, 1.9704 0.3129 0.6196, 1.9704 0.3268 0.6288, 1.9704 0.3249 0.6181, 1.9704 0.3381 0.6247, 1.9704 0.3328 0.6151, 1.9704 0.3479 0.618, 1.9704 0.3391 0.6108, 1.9704 0.3512 0.6148, 1.9704 0.3417 0.6082, 1.9704 0.357 0.6066, 1.9704 0.3453 0.603, 1.9704 0.3604 0.5977, 1.9704 0.3479 0.5962, 1.9704 0.362 0.5849, 1.9704 0.3493 0.5845, 1.9704 0.3617 0.5789, 1.9704 0.349 0.5783, 1.9704 0.3594 0.568, 1.9704 0.3471 0.5698, 1.9704 0.3548 0.5583, 1.9704 0.3438 0.5629, 1.9704 0.3393 0.5574, 1.9665 0.3116 0.537, 1.9665 0.2859 0.537, 1.9665 0.3479 0.55, 1.9665 0.3274 0.5389, 1.9665 0.3287 0.5394, 1.9665 0.3381 0.543, 1.9665 0.3548 0.5583, 1.9665 0.3594 0.568, 1.9665 0.3617 0.5789, 1.9665 0.362 0.5849, 1.9665 0.3604 0.5977, 1.9665 0.357 0.6066, 1.9665 0.3512 0.6148, 1.9665 0.3479 0.618, 1.9665 0.3126 0.6304, 1.9665 0.3381 0.6247, 1.9665 0.3287 0.6281, 1.9665 0.3268 0.6288, 1.9665 0.2859 0.6304, 1.9665 0.3121 0.6196, 1.9665 0.298 0.6196, 1.9665 0.298 0.5476, 1.9665 0.3116 0.5476, 1.9665 0.3393 0.5574, 1.9665 0.3382 0.5563, 1.9665 0.3322 0.5521, 1.9665 0.3245 0.5491, 1.9665 0.3493 0.5845, 1.9665 0.349 0.5783, 1.9665 0.3471 0.5698, 1.9665 0.3438 0.5629, 1.9665 0.3391 0.6108, 1.9665 0.3417 0.6082, 1.9665 0.3453 0.603, 1.9665 0.3479 0.5962, 1.9665 0.3129 0.6196, 1.9665 0.3249 0.6181, 1.9665 0.3328 0.6151
            ]
        }
        coordIndex [
            0,1,2,-1,2,1,3,-1,4,0,5,-1,5,0,2,-1,6,4,7,-1,7,4,5,-1,8,6,9,-1,9,6,7,-1,10,8,11,-1,11,8,9,-1,1,10,3,-1,3,10,11,-1,6,8,4,-1,4,8,10,-1,4,10,0,-1,0,10,1,-1,12,13,14,-1,14,13,15,-1,15,16,14,-1,14,16,17,-1,14,17,18,-1,18,17,19,-1,18,19,20,-1,21,20,22,-1,22,20,19,-1,21,22,23,-1,21,23,24,-1,24,23,25,-1,24,25,26,-1,26,25,27,-1,26,27,28,-1,28,27,29,-1,28,29,30,-1,30,29,31,-1,30,31,32,-1,32,31,33,-1,32,33,34,-1,34,33,35,-1,34,35,36,-1,36,35,37,-1,36,37,38,-1,38,37,39,-1,38,39,40,-1,40,39,41,-1,40,41,42,-1,42,41,43,-1,42,43,44,-1,44,43,45,-1,44,45,46,-1,46,45,47,-1,46,47,48,-1,48,47,49,-1,48,49,50,-1,50,49,51,-1,50,51,52,-1,52,51,53,-1,52,53,54,-1,54,53,55,-1,54,55,56,-1,56,55,57,-1,56,57,58,-1,58,57,59,-1,58,59,60,-1,60,59,61,-1,60,61,62,-1,62,61,63,-1,62,63,64,-1,64,63,65,-1,64,65,66,-1,67,66,68,-1,68,66,65,-1,69,70,71,-1,71,70,72,-1,71,72,73,-1,73,72,67,-1,73,67,68,-1,70,69,74,-1,70,74,75,-1,74,76,75,-1,75,76,77,-1,75,77,78,-1,78,77,79,-1,78,79,80,-1,80,79,81,-1,80,81,82,-1,82,81,83,-1,84,85,83,-1,83,85,86,-1,83,86,82,-1,84,87,85,-1,85,87,88,-1,85,88,89,-1,89,88,90,-1,89,90,91,-1,91,90,92,-1,93,94,92,-1,92,94,95,-1,92,95,91,-1,93,96,94,-1,94,96,97,-1,94,97,98,-1,98,97,99,-1,98,99,100,-1,13,12,101,-1,100,99,102,-1,100,102,103,-1,103,102,104,-1,103,104,105,-1,105,104,106,-1,105,106,101,-1,101,106,107,-1,101,107,13,-1,46,48,86,-1,86,48,82,-1,91,44,89,-1,89,44,46,-1,89,46,85,-1,85,46,86,-1,48,50,82,-1,82,50,52,-1,82,52,80,-1,80,52,54,-1,80,54,78,-1,78,54,75,-1,75,54,56,-1,75,56,70,-1,20,21,18,-1,18,21,24,-1,18,24,14,-1,14,24,26,-1,14,26,12,-1,12,26,28,-1,12,28,101,-1,101,28,30,-1,101,30,105,-1,105,30,32,-1,105,32,103,-1,103,32,34,-1,103,34,100,-1,100,34,36,-1,100,36,98,-1,98,36,38,-1,98,38,94,-1,94,38,95,-1,95,38,40,-1,95,40,91,-1,91,40,42,-1,91,42,44,-1,56,58,70,-1,70,58,60,-1,70,60,72,-1,72,60,62,-1,72,62,67,-1,67,62,64,-1,67,64,66,-1,108,109,110,-1,110,109,111,-1,112,113,114,-1,114,113,108,-1,114,108,110,-1,115,113,116,-1,116,113,112,-1,115,116,117,-1,117,116,118,-1,117,118,119,-1,120,117,121,-1,121,117,119,-1,122,123,124,-1,124,123,120,-1,124,120,121,-1,125,123,126,-1,126,123,122,-1,125,126,127,-1,127,126,128,-1,127,128,129,-1,130,127,131,-1,131,127,129,-1,132,133,134,-1,134,133,130,-1,134,130,131,-1,135,133,136,-1,136,133,132,-1,111,109,137,-1,137,109,135,-1,137,135,136,-1,135,109,108,-1,108,113,135,-1,135,113,115,-1,135,115,133,-1,127,130,125,-1,125,130,133,-1,125,133,123,-1,123,133,115,-1,123,115,120,-1,120,115,117,-1,138,139,140,-1,140,139,141,-1,140,141,142,-1,142,141,143,-1,142,143,144,-1,144,143,145,-1,144,145,146,-1,146,145,147,-1,146,147,148,-1,148,147,149,-1,148,149,150,-1,149,151,150,-1,150,151,152,-1,150,152,153,-1,153,152,154,-1,153,154,155,-1,155,154,156,-1,155,156,157,-1,157,156,158,-1,157,158,159,-1,159,158,160,-1,159,160,161,-1,161,160,162,-1,161,162,163,-1,163,162,164,-1,163,164,165,-1,165,164,166,-1,165,166,167,-1,167,166,168,-1,167,168,169,-1,169,168,170,-1,169,170,171,-1,171,170,172,-1,171,172,138,-1,138,172,173,-1,138,173,139,-1,144,146,174,-1,174,146,175,-1,176,138,140,-1,144,174,177,-1,144,177,142,-1,142,177,178,-1,142,178,140,-1,140,178,179,-1,140,179,176,-1,138,176,180,-1,138,180,171,-1,171,180,181,-1,171,181,169,-1,169,181,182,-1,169,182,167,-1,167,182,183,-1,167,183,165,-1,165,183,184,-1,165,184,163,-1,163,184,185,-1,163,185,161,-1,161,185,186,-1,161,186,159,-1,159,186,187,-1,159,187,157,-1,188,150,153,-1,157,187,189,-1,157,189,155,-1,155,189,190,-1,155,190,153,-1,153,190,191,-1,153,191,188,-1,148,150,192,-1,192,150,188,-1,146,148,175,-1,175,148,192,-1,151,149,193,-1,193,149,194,-1,149,147,194,-1,194,147,195,-1,147,145,195,-1,195,145,196,-1,173,197,198,-1,173,198,139,-1,139,198,199,-1,139,199,141,-1,141,199,200,-1,141,200,143,-1,143,200,196,-1,143,196,145,-1,166,201,202,-1,166,202,168,-1,168,202,203,-1,168,203,170,-1,170,203,204,-1,170,204,172,-1,172,204,197,-1,172,197,173,-1,158,205,206,-1,158,206,160,-1,160,206,207,-1,160,207,162,-1,162,207,208,-1,162,208,164,-1,164,208,201,-1,164,201,166,-1,151,193,209,-1,151,209,152,-1,152,209,210,-1,152,210,154,-1,154,210,211,-1,154,211,156,-1,156,211,205,-1,156,205,158,-1,
        ]
    }
}
Shape{
    appearance Appearance {
        material  Material 	{
            diffuseColor 0.25098039215686274 0.25098039215686274 0.25098039215686274
            specularColor 0.12549019607843137 0.12549019607843137 0.12549019607843137
            ambientIntensity 0.251
            transparency 0.0
            shininess 0.5
        }
    }
    geometry IndexedFaceSet {
        ccw TRUE
        solid FALSE
        coord DEF co Coordinate {
            point [
                1.9665 0.3322 0.5521, 1.9665 0.3382 0.5563, 1.9665 0.3129 0.6196, 1.9665 0.298 0.6196, 1.9665 0.298 0.5476, 1.9665 0.3121 0.6196, 1.9665 0.3116 0.5476, 1.9665 0.3245 0.5491, 1.9665 0.3393 0.5574, 1.9665 0.3438 0.5629, 1.9665 0.3471 0.5698, 1.9665 0.3493 0.5845, 1.9665 0.3391 0.6108, 1.9665 0.3328 0.6151, 1.9665 0.3479 0.5962, 1.9665 0.3453 0.603, 1.9665 0.3417 0.6082, 1.9665 0.349 0.5783, 1.9665 0.3249 0.6181
            ]
        }
        coordIndex [
            0,1,2,-1,3,4,5,-1,5,4,6,-1,5,6,2,-1,2,6,7,-1,2,7,0,-1,1,8,2,-1,2,8,9,-1,2,9,10,-1,11,12,13,-1,14,15,11,-1,11,15,16,-1,11,16,12,-1,10,17,2,-1,2,17,11,-1,2,11,18,-1,18,11,13,-1,
        ]
    }
}
Shape{
    appearance Appearance {
        material  Material 	{
            diffuseColor 0.7529411764705882 0.7529411764705882 0.7529411764705882
            specularColor 0.3764705882352941 0.3764705882352941 0.3764705882352941
            ambientIntensity 0.7529
            transparency 0.0
            shininess 0.5
        }
    }
    geometry IndexedFaceSet {
        ccw TRUE
        solid FALSE
        coord DEF co Coordinate {
            point [
                1.9704 0.3933 0.5731, 1.9704 0.3895 0.5625, 1.9704 0.4246 0.5731, 1.9704 0.4284 0.5625, 1.9704 0.4073 0.6119, 1.9704 0.4027 0.6304, 1.9704 0.3672 0.537, 1.9704 0.3805 0.537, 1.9704 0.4081 0.6147, 1.9704 0.4088 0.6184, 1.9704 0.4156 0.6304, 1.9704 0.4091 0.6184, 1.9704 0.4098 0.6145, 1.9704 0.4105 0.6119, 1.9704 0.4512 0.537, 1.9704 0.4379 0.537, 1.9665 0.4156 0.6304, 1.9665 0.4512 0.537, 1.9665 0.4027 0.6304, 1.9665 0.3672 0.537, 1.9665 0.3941 0.6076, 1.9665 0.3805 0.537, 1.9665 0.3895 0.5625, 1.9665 0.4284 0.5625, 1.9665 0.3941 0.5625, 1.9665 0.4379 0.537, 1.9665 0.3933 0.5731, 1.9665 0.4246 0.5731, 1.9665 0.4105 0.6119, 1.9665 0.4091 0.6184, 1.9665 0.4098 0.6145, 1.9665 0.4088 0.6184, 1.9665 0.4073 0.6119, 1.9665 0.4081 0.6147
            ]
        }
        coordIndex [
            0,1,2,-1,2,1,3,-1,4,5,0,-1,0,5,6,-1,0,6,1,-1,1,6,7,-1,4,8,5,-1,5,8,9,-1,5,9,10,-1,10,9,11,-1,10,11,12,-1,12,13,10,-1,10,13,2,-1,10,2,14,-1,14,2,3,-1,14,3,15,-1,10,14,16,-1,16,14,17,-1,5,10,18,-1,18,10,16,-1,19,6,20,-1,20,6,5,-1,20,5,18,-1,7,6,21,-1,21,6,19,-1,1,7,22,-1,22,7,21,-1,23,3,24,-1,24,3,1,-1,24,1,22,-1,15,3,25,-1,25,3,23,-1,14,15,17,-1,17,15,25,-1,0,2,26,-1,26,2,27,-1,2,13,27,-1,27,13,28,-1,11,29,30,-1,11,30,12,-1,12,30,28,-1,12,28,13,-1,11,9,29,-1,29,9,31,-1,4,32,33,-1,4,33,8,-1,8,33,31,-1,8,31,9,-1,4,0,32,-1,32,0,26,-1,
        ]
    }
}
Shape{
    appearance Appearance {
        material  Material 	{
            diffuseColor 0.25098039215686274 0.25098039215686274 0.25098039215686274
            specularColor 0.12549019607843137 0.12549019607843137 0.12549019607843137
            ambientIntensity 0.251
            transparency 0.0
            shininess 0.5
        }
    }
    geometry IndexedFaceSet {
        ccw TRUE
        solid FALSE
        coord DEF co Coordinate {
            point [
                1.9665 0.4091 0.6184, 1.9665 0.4088 0.6184, 1.9665 0.4098 0.6145, 1.9665 0.4081 0.6147, 1.9665 0.4105 0.6119, 1.9665 0.4073 0.6119, 1.9665 0.4246 0.5731, 1.9665 0.3933 0.5731
            ]
        }
        coordIndex [
            0,1,2,-1,2,1,3,-1,2,3,4,-1,4,3,5,-1,4,5,6,-1,6,5,7,-1,
        ]
    }
}
Shape{
    appearance Appearance {
        material  Material 	{
            diffuseColor 0.7529411764705882 0.7529411764705882 0.7529411764705882
            specularColor 0.3764705882352941 0.3764705882352941 0.3764705882352941
            ambientIntensity 0.7529
            transparency 0.0
            shininess 0.5
        }
    }
    geometry IndexedFaceSet {
        ccw TRUE
        solid FALSE
        coord DEF co Coordinate {
            point [
                1.9704 0.1266 0.3994, 1.9704 0.1266 0.3888, 1.9665 0.1266 0.3994, 1.9665 0.1266 0.3888, 1.9704 0.0884 0.3994, 1.9665 0.0884 0.3994, 1.9704 0.0884 0.4308, 1.9665 0.0884 0.4308, 1.9704 0.1218 0.4308, 1.9665 0.1218 0.4308, 1.9704 0.1218 0.4415, 1.9665 0.1218 0.4415, 1.9704 0.0884 0.4415, 1.9665 0.0884 0.4415, 1.9704 0.0884 0.4714, 1.9665 0.0884 0.4714, 1.9704 0.1244 0.4714, 1.9665 0.1244 0.4714, 1.9704 0.1244 0.4822, 1.9665 0.1244 0.4822, 1.9704 0.0763 0.4822, 1.9665 0.0763 0.4822, 1.9704 0.0763 0.3888, 1.9665 0.0763 0.3888, 1.9704 0.1794 0.3991, 1.9704 0.1797 0.3991, 1.9704 0.1789 0.4098, 1.9704 0.1797 0.4151, 1.9704 0.1914 0.4317, 1.9704 0.1797 0.4158, 1.9704 0.1797 0.4222, 1.9704 0.1797 0.3888, 1.9704 0.1914 0.3888, 1.9704 0.1497 0.4094, 1.9704 0.1503 0.4121, 1.9704 0.1402 0.4174, 1.9704 0.1772 0.4057, 1.9704 0.1747 0.4022, 1.9704 0.1775 0.3962, 1.9704 0.1732 0.4008, 1.9704 0.1738 0.3923, 1.9704 0.1699 0.3986, 1.9704 0.1697 0.3896, 1.9704 0.1663 0.3973, 1.9704 0.165 0.3879, 1.9704 0.1619 0.3968, 1.9704 0.1589 0.3872, 1.9704 0.158 0.3972, 1.9704 0.1519 0.388, 1.9704 0.1554 0.3982, 1.9704 0.1474 0.3897, 1.9704 0.153 0.3998, 1.9704 0.1435 0.3924, 1.9704 0.152 0.4008, 1.9704 0.1426 0.4207, 1.9704 0.1513 0.4143, 1.9704 0.1462 0.4238, 1.9704 0.1527 0.416, 1.9704 0.1513 0.4263, 1.9704 0.1542 0.4171, 1.9704 0.1569 0.4185, 1.9704 0.1599 0.4284, 1.9704 0.1641 0.4201, 1.9704 0.1797 0.4312, 1.9704 0.1386 0.4133, 1.9704 0.1378 0.4083, 1.9704 0.1496 0.4076, 1.9704 0.1378 0.4066, 1.9704 0.1499 0.4049, 1.9704 0.1383 0.4013, 1.9704 0.1507 0.4028, 1.9704 0.1398 0.3973, 1.9704 0.1422 0.3938, 1.9704 0.1443 0.4508, 1.9704 0.1443 0.4394, 1.9704 0.1467 0.4522, 1.9704 0.1513 0.444, 1.9704 0.1554 0.4556, 1.9704 0.1586 0.4466, 1.9704 0.1673 0.457, 1.9704 0.1662 0.4475, 1.9704 0.1744 0.4564, 1.9704 0.1701 0.4471, 1.9704 0.1793 0.4548, 1.9704 0.1728 0.4461, 1.9704 0.1832 0.4526, 1.9704 0.1749 0.4448, 1.9704 0.1863 0.4496, 1.9704 0.1767 0.4429, 1.9704 0.1887 0.4458, 1.9704 0.1781 0.4405, 1.9704 0.1905 0.4404, 1.9704 0.1793 0.4363, 1.9665 0.1673 0.457, 1.9665 0.1554 0.4556, 1.9665 0.1467 0.4522, 1.9665 0.1443 0.4508, 1.9665 0.1443 0.4394, 1.9665 0.1513 0.444, 1.9665 0.1586 0.4466, 1.9665 0.1662 0.4475, 1.9665 0.1701 0.4471, 1.9665 0.1728 0.4461, 1.9665 0.1749 0.4448, 1.9665 0.1767 0.4429, 1.9665 0.1781 0.4405, 1.9665 0.1793 0.4363, 1.9665 0.1797 0.4312, 1.9665 0.1599 0.4284, 1.9665 0.1513 0.4263, 1.9665 0.1462 0.4238, 1.9665 0.1426 0.4207, 1.9665 0.1402 0.4174, 1.9665 0.1386 0.4133, 1.9665 0.1378 0.4083, 1.9665 0.1378 0.4066, 1.9665 0.1383 0.4013, 1.9665 0.1398 0.3973, 1.9665 0.1422 0.3938, 1.9665 0.1435 0.3924, 1.9665 0.1589 0.3872, 1.9665 0.1521 0.388, 1.9665 0.1519 0.388, 1.9665 0.1474 0.3897, 1.9665 0.165 0.3879, 1.9665 0.1653 0.388, 1.9665 0.1697 0.3896, 1.9665 0.1738 0.3923, 1.9665 0.1775 0.3962, 1.9665 0.1794 0.3991, 1.9665 0.1797 0.3991, 1.9665 0.1797 0.3888, 1.9665 0.1914 0.3888, 1.9665 0.1914 0.4317, 1.9665 0.1905 0.4404, 1.9665 0.1887 0.4458, 1.9665 0.1863 0.4496, 1.9665 0.1832 0.4526, 1.9665 0.1793 0.4548, 1.9665 0.1744 0.4564, 1.9665 0.1527 0.416, 1.9665 0.1542 0.4171, 1.9665 0.1569 0.4185, 1.9665 0.1641 0.4201, 1.9665 0.1496 0.4076, 1.9665 0.1497 0.4094, 1.9665 0.1503 0.4121, 1.9665 0.1513 0.4143, 1.9665 0.153 0.3998, 1.9665 0.152 0.4008, 1.9665 0.1507 0.4028, 1.9665 0.1499 0.4049, 1.9665 0.1619 0.3968, 1.9665 0.158 0.3972, 1.9665 0.1554 0.3982, 1.9665 0.1747 0.4022, 1.9665 0.1732 0.4008, 1.9665 0.1699 0.3986, 1.9665 0.1663 0.3973, 1.9665 0.1797 0.4158, 1.9665 0.1797 0.4151, 1.9665 0.1789 0.4098, 1.9665 0.1772 0.4057, 1.9665 0.1797 0.4222
            ]
        }
        coordIndex [
            0,1,2,-1,2,1,3,-1,4,0,5,-1,5,0,2,-1,6,4,7,-1,7,4,5,-1,8,6,9,-1,9,6,7,-1,10,8,11,-1,11,8,9,-1,12,10,13,-1,13,10,11,-1,14,12,15,-1,15,12,13,-1,16,14,17,-1,17,14,15,-1,18,16,19,-1,19,16,17,-1,20,18,21,-1,21,18,19,-1,22,20,23,-1,23,20,21,-1,1,22,3,-1,3,22,23,-1,16,18,14,-1,14,18,20,-1,14,20,12,-1,1,0,22,-1,22,0,4,-1,22,4,6,-1,8,10,6,-1,6,10,12,-1,6,12,22,-1,22,12,20,-1,24,25,26,-1,27,28,29,-1,29,28,30,-1,31,32,25,-1,25,32,28,-1,25,28,26,-1,26,28,27,-1,33,34,35,-1,26,36,24,-1,24,36,37,-1,24,37,38,-1,38,37,39,-1,38,39,40,-1,40,39,41,-1,40,41,42,-1,42,41,43,-1,42,43,44,-1,44,43,45,-1,44,45,46,-1,46,45,47,-1,46,47,48,-1,48,47,49,-1,48,49,50,-1,50,49,51,-1,50,51,52,-1,52,51,53,-1,35,34,54,-1,54,34,55,-1,54,55,56,-1,56,55,57,-1,56,57,58,-1,57,59,58,-1,58,59,60,-1,58,60,61,-1,61,60,62,-1,61,62,63,-1,35,64,33,-1,33,64,65,-1,33,65,66,-1,66,65,67,-1,66,67,68,-1,68,67,69,-1,68,69,70,-1,70,69,71,-1,70,71,53,-1,53,71,72,-1,53,72,52,-1,73,74,75,-1,75,74,76,-1,75,76,77,-1,77,76,78,-1,77,78,79,-1,79,78,80,-1,79,80,81,-1,81,80,82,-1,81,82,83,-1,83,82,84,-1,83,84,85,-1,85,84,86,-1,85,86,87,-1,87,86,88,-1,87,88,89,-1,89,88,90,-1,89,90,91,-1,91,90,92,-1,91,92,28,-1,28,92,63,-1,28,63,30,-1,30,63,62,-1,79,93,94,-1,79,94,77,-1,77,94,95,-1,77,95,75,-1,75,95,96,-1,75,96,73,-1,74,73,97,-1,97,73,96,-1,74,97,98,-1,74,98,76,-1,76,98,99,-1,76,99,78,-1,78,99,100,-1,78,100,80,-1,80,100,101,-1,80,101,82,-1,82,101,102,-1,82,102,84,-1,84,102,103,-1,84,103,86,-1,86,103,104,-1,86,104,88,-1,88,104,105,-1,88,105,90,-1,90,105,106,-1,90,106,92,-1,92,106,107,-1,92,107,63,-1,61,63,108,-1,108,63,107,-1,61,108,109,-1,61,109,58,-1,58,109,110,-1,58,110,56,-1,56,110,111,-1,56,111,54,-1,54,111,112,-1,54,112,35,-1,35,112,113,-1,35,113,64,-1,64,113,114,-1,64,114,65,-1,65,114,115,-1,65,115,67,-1,67,115,116,-1,67,116,69,-1,69,116,117,-1,69,117,71,-1,71,117,118,-1,71,118,72,-1,72,118,119,-1,72,119,52,-1,120,46,121,-1,121,46,48,-1,121,48,122,-1,122,48,50,-1,122,50,123,-1,123,50,52,-1,123,52,119,-1,46,120,124,-1,46,124,44,-1,44,124,125,-1,44,125,42,-1,125,126,42,-1,42,126,127,-1,42,127,40,-1,40,127,128,-1,40,128,38,-1,38,128,129,-1,38,129,24,-1,25,24,130,-1,130,24,129,-1,31,25,131,-1,131,25,130,-1,32,31,132,-1,132,31,131,-1,28,32,133,-1,133,32,132,-1,28,133,134,-1,28,134,91,-1,91,134,135,-1,91,135,89,-1,89,135,136,-1,89,136,87,-1,87,136,137,-1,87,137,85,-1,85,137,138,-1,85,138,83,-1,83,138,139,-1,83,139,81,-1,81,139,93,-1,81,93,79,-1,57,140,141,-1,57,141,59,-1,59,141,142,-1,59,142,60,-1,60,142,143,-1,60,143,62,-1,66,144,145,-1,66,145,33,-1,33,145,146,-1,33,146,34,-1,34,146,147,-1,34,147,55,-1,55,147,140,-1,55,140,57,-1,51,148,149,-1,51,149,53,-1,53,149,150,-1,53,150,70,-1,70,150,151,-1,70,151,68,-1,68,151,144,-1,68,144,66,-1,45,152,153,-1,45,153,47,-1,47,153,154,-1,47,154,49,-1,49,154,148,-1,49,148,51,-1,37,155,156,-1,37,156,39,-1,39,156,157,-1,39,157,41,-1,41,157,158,-1,41,158,43,-1,43,158,152,-1,43,152,45,-1,29,159,160,-1,29,160,27,-1,27,160,161,-1,27,161,26,-1,26,161,162,-1,26,162,36,-1,36,162,155,-1,36,155,37,-1,29,30,159,-1,159,30,163,-1,30,62,163,-1,163,62,143,-1,
        ]
    }
}
Shape{
    appearance Appearance {
        material  Material 	{
            diffuseColor 0.25098039215686274 0.25098039215686274 0.25098039215686274
            specularColor 0.12549019607843137 0.12549019607843137 0.12549019607843137
            ambientIntensity 0.251
            transparency 0.0
            shininess 0.5
        }
    }
    geometry IndexedFaceSet {
        ccw TRUE
        solid FALSE
        coord DEF co Coordinate {
            point [
                1.9665 0.1797 0.4151, 1.9665 0.1797 0.4158, 1.9665 0.1527 0.416, 1.9665 0.1797 0.4222, 1.9665 0.1641 0.4201, 1.9665 0.1569 0.4185, 1.9665 0.1542 0.4171, 1.9665 0.1789 0.4098, 1.9665 0.1513 0.4143, 1.9665 0.1772 0.4057, 1.9665 0.152 0.4008, 1.9665 0.153 0.3998, 1.9665 0.1732 0.4008, 1.9665 0.1507 0.4028, 1.9665 0.1699 0.3986, 1.9665 0.1663 0.3973, 1.9665 0.1619 0.3968, 1.9665 0.1503 0.4121, 1.9665 0.1497 0.4094, 1.9665 0.1747 0.4022, 1.9665 0.1496 0.4076, 1.9665 0.1499 0.4049, 1.9665 0.1554 0.3982, 1.9665 0.158 0.3972
            ]
        }
        coordIndex [
            0,1,2,-1,1,3,4,-1,4,5,1,-1,1,5,6,-1,1,6,2,-1,0,2,7,-1,7,2,8,-1,7,8,9,-1,10,11,12,-1,10,12,13,-1,14,12,15,-1,15,12,16,-1,8,17,9,-1,9,17,18,-1,9,18,19,-1,19,18,20,-1,19,20,12,-1,12,20,21,-1,12,21,13,-1,11,22,12,-1,12,22,23,-1,12,23,16,-1,
        ]
    }
}
Shape{
    appearance Appearance {
        material  Material 	{
            diffuseColor 0.7529411764705882 0.7529411764705882 0.7529411764705882
            specularColor 0.3764705882352941 0.3764705882352941 0.3764705882352941
            ambientIntensity 0.7529
            transparency 0.0
            shininess 0.5
        }
    }
    geometry IndexedFaceSet {
        ccw TRUE
        solid FALSE
        coord DEF co Coordinate {
            point [
                1.9665 0.2072 0.4032, 1.9704 0.2072 0.4032, 1.9704 0.2118 0.4003, 1.9704 0.2265 0.3967, 1.9665 0.2265 0.3967, 1.9665 0.2192 0.3976, 1.9704 0.2192 0.3976, 1.9665 0.2126 0.4, 1.9665 0.2118 0.4003, 1.9704 0.2072 0.3911, 1.9665 0.2072 0.3911, 1.9665 0.2126 0.3891, 1.9704 0.2145 0.3884, 1.9665 0.2253 0.3872, 1.9704 0.2253 0.3872, 1.9665 0.2185 0.388, 1.9665 0.2145 0.3884, 1.9665 0.2334 0.388, 1.9704 0.2343 0.3881, 1.9665 0.2343 0.3881, 1.9665 0.2408 0.3902, 1.9704 0.2408 0.3902, 1.9665 0.2448 0.3925, 1.9704 0.2448 0.3925, 1.9665 0.2481 0.3954, 1.9704 0.2481 0.3954, 1.9665 0.2503 0.3985, 1.9704 0.2503 0.3985, 1.9665 0.2517 0.4022, 1.9704 0.2517 0.4022, 1.9665 0.2523 0.4069, 1.9704 0.2523 0.4069, 1.9665 0.2518 0.4113, 1.9704 0.2518 0.4113, 1.9665 0.2506 0.4147, 1.9704 0.2506 0.4147, 1.9665 0.2484 0.4179, 1.9704 0.2484 0.4179, 1.9665 0.2456 0.4204, 1.9704 0.2456 0.4204, 1.9665 0.2378 0.4248, 1.9704 0.2378 0.4248, 1.9665 0.2333 0.4266, 1.9704 0.2333 0.4266, 1.9665 0.226 0.4297, 1.9704 0.226 0.4297, 1.9665 0.2219 0.4323, 1.9704 0.2219 0.4323, 1.9665 0.2208 0.4336, 1.9704 0.2208 0.4336, 1.9665 0.2199 0.4352, 1.9704 0.2199 0.4352, 1.9665 0.2195 0.437, 1.9704 0.2195 0.437, 1.9665 0.2194 0.4385, 1.9704 0.2194 0.4385, 1.9665 0.2196 0.4404, 1.9704 0.2196 0.4404, 1.9665 0.2201 0.442, 1.9704 0.2201 0.442, 1.9665 0.2211 0.4435, 1.9704 0.2211 0.4435, 1.9665 0.2229 0.445, 1.9704 0.2229 0.445, 1.9665 0.2255 0.4464, 1.9704 0.2255 0.4464, 1.9665 0.2287 0.4472, 1.9704 0.2287 0.4472, 1.9665 0.2321 0.4475, 1.9704 0.2321 0.4475, 1.9665 0.2397 0.4467, 1.9704 0.2397 0.4467, 1.9665 0.2463 0.4443, 1.9704 0.2463 0.4443, 1.9665 0.2491 0.4427, 1.9704 0.2491 0.4427, 1.9704 0.2491 0.454, 1.9665 0.2491 0.454, 1.9665 0.2414 0.4563, 1.9704 0.2414 0.4563, 1.9665 0.2333 0.457, 1.9704 0.2333 0.457, 1.9665 0.225 0.4561, 1.9704 0.225 0.4561, 1.9665 0.2185 0.4539, 1.9704 0.2185 0.4539, 1.9665 0.2148 0.4517, 1.9704 0.2148 0.4517, 1.9665 0.2126 0.4498, 1.9704 0.2113 0.4486, 1.9665 0.2113 0.4486, 1.9665 0.2092 0.4454, 1.9704 0.2092 0.4454, 1.9665 0.2078 0.4417, 1.9704 0.2078 0.4417, 1.9665 0.2073 0.4375, 1.9704 0.2073 0.4375, 1.9665 0.2078 0.4329, 1.9704 0.2078 0.4329, 1.9665 0.2091 0.4294, 1.9704 0.2091 0.4294, 1.9665 0.2106 0.4269, 1.9704 0.2106 0.4269, 1.9665 0.225 0.4181, 1.9704 0.225 0.4181, 1.9704 0.218 0.4213, 1.9665 0.2125 0.4249, 1.9704 0.2125 0.4249, 1.9665 0.2126 0.4249, 1.9665 0.218 0.4213, 1.9665 0.2327 0.4149, 1.9704 0.2327 0.4149, 1.9665 0.2373 0.4121, 1.9704 0.2373 0.4121, 1.9665 0.2387 0.4106, 1.9704 0.2387 0.4106, 1.9665 0.2396 0.409, 1.9704 0.2396 0.409, 1.9665 0.2402 0.4072, 1.9704 0.2402 0.4072, 1.9665 0.2403 0.4058, 1.9704 0.2403 0.4058, 1.9665 0.24 0.4035, 1.9704 0.24 0.4035, 1.9665 0.2394 0.4019, 1.9704 0.2394 0.4019, 1.9665 0.2384 0.4004, 1.9704 0.2384 0.4004, 1.9665 0.2371 0.3992, 1.9704 0.2371 0.3992, 1.9665 0.236 0.3985, 1.9704 0.236 0.3985, 1.9665 0.233 0.3974, 1.9704 0.233 0.3974, 1.9665 0.227 0.3967, 1.9704 0.227 0.3967, 1.9704 0.3103 0.4555, 1.9704 0.3224 0.4555, 1.9665 0.3103 0.4555, 1.9665 0.3224 0.4555, 1.9704 0.2921 0.4052, 1.9665 0.2921 0.4052, 1.9665 0.2912 0.4021, 1.9704 0.2912 0.4021, 1.9665 0.2906 0.3998, 1.9704 0.2906 0.3998, 1.9704 0.2903 0.3998, 1.9665 0.2903 0.3998, 1.9704 0.2889 0.4053, 1.9665 0.2889 0.4053, 1.9665 0.2715 0.4555, 1.9704 0.2715 0.4555, 1.9665 0.2771 0.4392, 1.9704 0.2584 0.4555, 1.9665 0.2584 0.4555, 1.9665 0.2845 0.3889, 1.9704 0.2845 0.3889, 1.9665 0.2771 0.4078, 1.9665 0.2794 0.3768, 1.9704 0.2794 0.3768, 1.9665 0.2841 0.388, 1.9665 0.2771 0.3726, 1.9704 0.2771 0.3725, 1.9665 0.2771 0.3725, 1.9665 0.2749 0.3701, 1.9704 0.2749 0.3701, 1.9665 0.2729 0.3687, 1.9704 0.2729 0.3687, 1.9665 0.2703 0.3677, 1.9704 0.2703 0.3677, 1.9665 0.2674 0.3674, 1.9704 0.2674 0.3674, 1.9665 0.2632 0.3679, 1.9704 0.2632 0.3679, 1.9665 0.2608 0.3687, 1.9704 0.2608 0.3687, 1.9704 0.2608 0.3583, 1.9665 0.2608 0.3583, 1.9665 0.2657 0.3574, 1.9704 0.2657 0.3574, 1.9665 0.2683 0.3573, 1.9704 0.2683 0.3573, 1.9665 0.2731 0.3579, 1.9704 0.2731 0.3579, 1.9665 0.2771 0.3594, 1.9704 0.2777 0.3596, 1.9665 0.2777 0.3596, 1.9665 0.2818 0.3625, 1.9704 0.2818 0.3625, 1.9665 0.2826 0.3632, 1.9704 0.2826 0.3632, 1.9665 0.2868 0.3684, 1.9704 0.2868 0.3684, 1.9665 0.2921 0.3787, 1.9704 0.2921 0.3787, 1.9665 0.2958 0.388, 1.9704 0.3853 0.3994, 1.9704 0.3853 0.3888, 1.9665 0.3853 0.3994, 1.9665 0.3853 0.3888, 1.9665 0.3471 0.3994, 1.9704 0.3471 0.3994, 1.9665 0.3646 0.3994, 1.9704 0.3471 0.4308, 1.9665 0.3471 0.4308, 1.9665 0.3805 0.4308, 1.9704 0.3805 0.4308, 1.9665 0.3646 0.4308, 1.9704 0.3805 0.4415, 1.9665 0.3805 0.4415, 1.9665 0.3471 0.4415, 1.9704 0.3471 0.4415, 1.9665 0.3646 0.4415, 1.9704 0.3471 0.4714, 1.9665 0.3471 0.4714, 1.9665 0.3831 0.4714, 1.9704 0.3831 0.4714, 1.9665 0.3646 0.4714, 1.9704 0.3831 0.4822, 1.9665 0.3831 0.4822, 1.9665 0.335 0.4822, 1.9704 0.335 0.4822, 1.9665 0.3646 0.4822, 1.9704 0.335 0.3888, 1.9665 0.335 0.3888, 1.9665 0.3646 0.3888, 1.9704 0.4649 0.4019, 1.9704 0.4552 0.4081, 1.9704 0.4551 0.3948, 1.9704 0.4492 0.4039, 1.9704 0.4444 0.3907, 1.9704 0.4414 0.401, 1.9704 0.4286 0.3888, 1.9704 0.4285 0.3994, 1.9704 0.4029 0.3888, 1.9704 0.415 0.3994, 1.9704 0.4029 0.4822, 1.9704 0.415 0.4714, 1.9704 0.4296 0.4822, 1.9704 0.4291 0.4714, 1.9704 0.4298 0.4714, 1.9704 0.4438 0.4806, 1.9704 0.4419 0.4699, 1.9704 0.4551 0.4765, 1.9704 0.4498 0.4669, 1.9704 0.4649 0.4698, 1.9704 0.456 0.4626, 1.9704 0.4682 0.4666, 1.9704 0.4587 0.4601, 1.9704 0.474 0.4584, 1.9704 0.4623 0.4548, 1.9704 0.4774 0.4495, 1.9704 0.4649 0.448, 1.9704 0.479 0.4367, 1.9704 0.4663 0.4363, 1.9704 0.4787 0.4307, 1.9704 0.4659 0.4301, 1.9704 0.4764 0.4198, 1.9704 0.4641 0.4216, 1.9704 0.4718 0.4101, 1.9704 0.4608 0.4147, 1.9704 0.4563 0.4092, 1.9665 0.4286 0.3888, 1.9665 0.4029 0.3888, 1.9665 0.4444 0.3907, 1.9665 0.4551 0.3948, 1.9665 0.4649 0.4019, 1.9665 0.4718 0.4101, 1.9665 0.4764 0.4198, 1.9665 0.4787 0.4307, 1.9665 0.479 0.4367, 1.9665 0.4774 0.4495, 1.9665 0.474 0.4584, 1.9665 0.4682 0.4666, 1.9665 0.4649 0.4698, 1.9665 0.4551 0.4765, 1.9665 0.4438 0.4806, 1.9665 0.4296 0.4822, 1.9665 0.4029 0.4822, 1.9665 0.4291 0.4714, 1.9665 0.415 0.4714, 1.9665 0.415 0.3994, 1.9665 0.4285 0.3994, 1.9665 0.4563 0.4092, 1.9665 0.4552 0.4081, 1.9665 0.4492 0.4039, 1.9665 0.4414 0.401, 1.9665 0.4663 0.4363, 1.9665 0.4659 0.4301, 1.9665 0.4641 0.4216, 1.9665 0.4608 0.4147, 1.9665 0.456 0.4626, 1.9665 0.4587 0.4601, 1.9665 0.4623 0.4548, 1.9665 0.4649 0.448, 1.9665 0.4298 0.4714, 1.9665 0.4419 0.4699, 1.9665 0.4498 0.4669
            ]
        }
        coordIndex [
            0,1,2,-1,3,4,5,-1,3,5,6,-1,6,5,7,-1,6,7,2,-1,2,7,8,-1,2,8,0,-1,9,1,10,-1,10,1,0,-1,10,11,9,-1,9,11,12,-1,13,14,15,-1,15,14,12,-1,15,12,16,-1,16,12,11,-1,13,17,14,-1,14,17,18,-1,17,19,18,-1,18,19,20,-1,18,20,21,-1,21,20,22,-1,21,22,23,-1,23,22,24,-1,23,24,25,-1,25,24,26,-1,25,26,27,-1,27,26,28,-1,27,28,29,-1,29,28,30,-1,29,30,31,-1,31,30,32,-1,31,32,33,-1,33,32,34,-1,33,34,35,-1,35,34,36,-1,35,36,37,-1,37,36,38,-1,37,38,39,-1,39,38,40,-1,39,40,41,-1,41,40,42,-1,41,42,43,-1,43,42,44,-1,43,44,45,-1,45,44,46,-1,45,46,47,-1,47,46,48,-1,47,48,49,-1,49,48,50,-1,49,50,51,-1,51,50,52,-1,51,52,53,-1,53,52,54,-1,53,54,55,-1,55,54,56,-1,55,56,57,-1,57,56,58,-1,57,58,59,-1,59,58,60,-1,59,60,61,-1,61,60,62,-1,61,62,63,-1,63,62,64,-1,63,64,65,-1,65,64,66,-1,65,66,67,-1,67,66,68,-1,67,68,69,-1,69,68,70,-1,69,70,71,-1,71,70,72,-1,71,72,73,-1,73,72,74,-1,73,74,75,-1,76,75,77,-1,77,75,74,-1,76,77,78,-1,76,78,79,-1,79,78,80,-1,79,80,81,-1,81,80,82,-1,81,82,83,-1,83,82,84,-1,83,84,85,-1,85,84,86,-1,85,86,87,-1,86,88,87,-1,87,88,89,-1,88,90,89,-1,89,90,91,-1,89,91,92,-1,92,91,93,-1,92,93,94,-1,94,93,95,-1,94,95,96,-1,96,95,97,-1,96,97,98,-1,98,97,99,-1,98,99,100,-1,100,99,101,-1,100,101,102,-1,103,104,105,-1,102,101,106,-1,102,106,107,-1,107,106,108,-1,107,108,105,-1,105,108,109,-1,105,109,103,-1,104,103,110,-1,104,110,111,-1,111,110,112,-1,111,112,113,-1,113,112,114,-1,113,114,115,-1,115,114,116,-1,115,116,117,-1,117,116,118,-1,117,118,119,-1,119,118,120,-1,119,120,121,-1,121,120,122,-1,121,122,123,-1,123,122,124,-1,123,124,125,-1,125,124,126,-1,125,126,127,-1,127,126,128,-1,127,128,129,-1,129,128,130,-1,129,130,131,-1,131,130,132,-1,131,132,133,-1,133,132,134,-1,133,134,135,-1,135,134,4,-1,135,4,3,-1,61,63,85,-1,85,63,83,-1,45,104,43,-1,43,104,111,-1,43,111,41,-1,14,3,12,-1,12,3,6,-1,12,6,9,-1,9,6,2,-1,9,2,1,-1,63,65,83,-1,83,65,67,-1,83,67,81,-1,81,67,69,-1,81,69,79,-1,79,69,71,-1,79,71,76,-1,76,71,73,-1,76,73,75,-1,41,111,39,-1,39,111,113,-1,39,113,37,-1,37,113,115,-1,37,115,35,-1,35,115,117,-1,35,117,33,-1,33,117,119,-1,33,119,31,-1,31,119,121,-1,31,121,29,-1,29,121,123,-1,29,123,27,-1,27,123,125,-1,27,125,25,-1,25,125,127,-1,25,127,23,-1,23,127,129,-1,23,129,21,-1,21,129,131,-1,21,131,18,-1,18,131,133,-1,18,133,14,-1,14,133,135,-1,14,135,3,-1,85,87,61,-1,61,87,89,-1,61,89,59,-1,59,89,92,-1,59,92,57,-1,57,92,94,-1,57,94,55,-1,55,94,96,-1,55,96,53,-1,53,96,98,-1,53,98,51,-1,51,98,100,-1,51,100,49,-1,49,100,102,-1,49,102,47,-1,47,102,107,-1,47,107,45,-1,45,107,105,-1,45,105,104,-1,136,137,138,-1,138,137,139,-1,140,136,141,-1,141,136,138,-1,140,141,142,-1,140,142,143,-1,143,142,144,-1,143,144,145,-1,146,145,147,-1,147,145,144,-1,148,146,149,-1,149,146,147,-1,150,151,152,-1,152,151,148,-1,152,148,149,-1,153,151,154,-1,154,151,150,-1,155,156,157,-1,157,156,153,-1,157,153,154,-1,158,159,160,-1,160,159,156,-1,160,156,155,-1,158,161,159,-1,159,161,162,-1,161,163,162,-1,162,163,164,-1,162,164,165,-1,165,164,166,-1,165,166,167,-1,167,166,168,-1,167,168,169,-1,169,168,170,-1,169,170,171,-1,171,170,172,-1,171,172,173,-1,173,172,174,-1,173,174,175,-1,176,175,177,-1,177,175,174,-1,176,177,178,-1,176,178,179,-1,179,178,180,-1,179,180,181,-1,181,180,182,-1,181,182,183,-1,183,182,184,-1,183,184,185,-1,184,186,185,-1,185,186,187,-1,185,187,188,-1,188,187,189,-1,188,189,190,-1,190,189,191,-1,190,191,192,-1,192,191,193,-1,192,193,194,-1,139,137,195,-1,195,137,194,-1,195,194,193,-1,143,145,194,-1,137,136,194,-1,194,136,140,-1,194,140,143,-1,151,153,148,-1,148,153,156,-1,148,156,146,-1,175,176,173,-1,173,176,179,-1,173,179,171,-1,171,179,181,-1,171,181,169,-1,169,181,183,-1,169,183,167,-1,167,183,185,-1,167,185,165,-1,145,146,194,-1,194,146,156,-1,194,156,192,-1,156,159,192,-1,192,159,162,-1,192,162,190,-1,190,162,165,-1,190,165,188,-1,188,165,185,-1,196,197,198,-1,198,197,199,-1,200,201,202,-1,202,201,196,-1,202,196,198,-1,203,201,204,-1,204,201,200,-1,205,206,207,-1,207,206,203,-1,207,203,204,-1,208,206,209,-1,209,206,205,-1,210,211,212,-1,212,211,208,-1,212,208,209,-1,213,211,214,-1,214,211,210,-1,215,216,217,-1,217,216,213,-1,217,213,214,-1,218,216,219,-1,219,216,215,-1,220,221,222,-1,222,221,218,-1,222,218,219,-1,223,221,224,-1,224,221,220,-1,199,197,225,-1,225,197,223,-1,225,223,224,-1,223,197,196,-1,196,201,223,-1,223,201,203,-1,223,203,221,-1,216,218,213,-1,213,218,221,-1,213,221,211,-1,211,221,203,-1,211,203,208,-1,208,203,206,-1,226,227,228,-1,228,227,229,-1,228,229,230,-1,230,229,231,-1,230,231,232,-1,232,231,233,-1,232,233,234,-1,234,233,235,-1,234,235,236,-1,236,235,237,-1,236,237,238,-1,237,239,238,-1,238,239,240,-1,238,240,241,-1,241,240,242,-1,241,242,243,-1,243,242,244,-1,243,244,245,-1,245,244,246,-1,245,246,247,-1,247,246,248,-1,247,248,249,-1,249,248,250,-1,249,250,251,-1,251,250,252,-1,251,252,253,-1,253,252,254,-1,253,254,255,-1,255,254,256,-1,255,256,257,-1,257,256,258,-1,257,258,259,-1,259,258,260,-1,259,260,226,-1,226,260,261,-1,226,261,227,-1,232,234,262,-1,262,234,263,-1,232,262,264,-1,232,264,230,-1,230,264,265,-1,230,265,228,-1,228,265,266,-1,228,266,226,-1,226,266,267,-1,226,267,259,-1,259,267,268,-1,259,268,257,-1,257,268,269,-1,257,269,255,-1,255,269,270,-1,255,270,253,-1,253,270,271,-1,253,271,251,-1,251,271,272,-1,251,272,249,-1,249,272,273,-1,249,273,247,-1,247,273,274,-1,247,274,245,-1,245,274,275,-1,245,275,243,-1,243,275,276,-1,243,276,241,-1,241,276,277,-1,241,277,238,-1,236,238,278,-1,278,238,277,-1,234,236,263,-1,263,236,278,-1,239,237,279,-1,279,237,280,-1,237,235,280,-1,280,235,281,-1,235,233,281,-1,281,233,282,-1,261,283,284,-1,261,284,227,-1,227,284,285,-1,227,285,229,-1,229,285,286,-1,229,286,231,-1,231,286,282,-1,231,282,233,-1,254,287,288,-1,254,288,256,-1,256,288,289,-1,256,289,258,-1,258,289,290,-1,258,290,260,-1,260,290,283,-1,260,283,261,-1,246,291,292,-1,246,292,248,-1,248,292,293,-1,248,293,250,-1,250,293,294,-1,250,294,252,-1,252,294,287,-1,252,287,254,-1,239,279,295,-1,239,295,240,-1,240,295,296,-1,240,296,242,-1,242,296,297,-1,242,297,244,-1,244,297,291,-1,244,291,246,-1,
        ]
    }
}
Shape{
    appearance Appearance {
        material  Material 	{
            diffuseColor 0.25098039215686274 0.25098039215686274 0.25098039215686274
            specularColor 0.12549019607843137 0.12549019607843137 0.12549019607843137
            ambientIntensity 0.251
            transparency 0.0
            shininess 0.5
        }
    }
    geometry IndexedFaceSet {
        ccw TRUE
        solid FALSE
        coord DEF co Coordinate {
            point [
                1.9665 0.4492 0.4039, 1.9665 0.4552 0.4081, 1.9665 0.4298 0.4714, 1.9665 0.415 0.4714, 1.9665 0.415 0.3994, 1.9665 0.4291 0.4714, 1.9665 0.4285 0.3994, 1.9665 0.4414 0.401, 1.9665 0.4563 0.4092, 1.9665 0.4608 0.4147, 1.9665 0.4641 0.4216, 1.9665 0.4663 0.4363, 1.9665 0.456 0.4626, 1.9665 0.4498 0.4669, 1.9665 0.4649 0.448, 1.9665 0.4623 0.4548, 1.9665 0.4587 0.4601, 1.9665 0.4659 0.4301, 1.9665 0.4419 0.4699
            ]
        }
        coordIndex [
            0,1,2,-1,3,4,5,-1,5,4,6,-1,5,6,2,-1,2,6,7,-1,2,7,0,-1,1,8,2,-1,2,8,9,-1,2,9,10,-1,11,12,13,-1,14,15,11,-1,11,15,16,-1,11,16,12,-1,10,17,2,-1,2,17,11,-1,2,11,18,-1,18,11,13,-1,
        ]
    }
}
Shape{
    appearance Appearance {
        material  Material 	{
            diffuseColor 0.7529411764705882 0.7529411764705882 0.7529411764705882
            specularColor 0.3764705882352941 0.3764705882352941 0.3764705882352941
            ambientIntensity 0.7529
            transparency 0.0
            shininess 0.5
        }
    }
    geometry IndexedFaceSet {
        ccw TRUE
        solid FALSE
        coord DEF co Coordinate {
            point [
                1.9704 0.5103 0.4249, 1.9704 0.5065 0.4143, 1.9704 0.5416 0.4249, 1.9704 0.5453 0.4143, 1.9704 0.5242 0.4637, 1.9704 0.5197 0.4822, 1.9704 0.4841 0.3888, 1.9704 0.4975 0.3888, 1.9704 0.525 0.4665, 1.9704 0.5258 0.4702, 1.9704 0.5326 0.4822, 1.9704 0.5261 0.4702, 1.9704 0.5268 0.4663, 1.9704 0.5275 0.4637, 1.9704 0.5682 0.3888, 1.9704 0.5549 0.3888, 1.9665 0.5326 0.4822, 1.9665 0.5682 0.3888, 1.9665 0.5197 0.4822, 1.9665 0.4841 0.3888, 1.9665 0.4975 0.3888, 1.9665 0.5065 0.4143, 1.9665 0.5453 0.4143, 1.9665 0.5549 0.3888, 1.9665 0.5103 0.4249, 1.9665 0.5416 0.4249, 1.9665 0.5275 0.4637, 1.9665 0.5261 0.4702, 1.9665 0.5268 0.4663, 1.9665 0.5258 0.4702, 1.9665 0.5242 0.4637, 1.9665 0.525 0.4665
            ]
        }
        coordIndex [
            0,1,2,-1,2,1,3,-1,4,5,0,-1,0,5,6,-1,0,6,1,-1,1,6,7,-1,4,8,5,-1,5,8,9,-1,5,9,10,-1,10,9,11,-1,10,11,12,-1,12,13,10,-1,10,13,2,-1,10,2,14,-1,14,2,3,-1,14,3,15,-1,10,14,16,-1,16,14,17,-1,5,10,18,-1,18,10,16,-1,6,5,19,-1,19,5,18,-1,7,6,20,-1,20,6,19,-1,1,7,21,-1,21,7,20,-1,3,1,22,-1,22,1,21,-1,15,3,23,-1,23,3,22,-1,14,15,17,-1,17,15,23,-1,0,2,24,-1,24,2,25,-1,2,13,25,-1,25,13,26,-1,11,27,28,-1,11,28,12,-1,12,28,26,-1,12,26,13,-1,11,9,27,-1,27,9,29,-1,4,30,31,-1,4,31,8,-1,8,31,29,-1,8,29,9,-1,4,0,30,-1,30,0,24,-1,
        ]
    }
}
Shape{
    appearance Appearance {
        material  Material 	{
            diffuseColor 0.25098039215686274 0.25098039215686274 0.25098039215686274
            specularColor 0.12549019607843137 0.12549019607843137 0.12549019607843137
            ambientIntensity 0.251
            transparency 0.0
            shininess 0.5
        }
    }
    geometry IndexedFaceSet {
        ccw TRUE
        solid FALSE
        coord DEF co Coordinate {
            point [
                1.9665 0.5261 0.4702, 1.9665 0.5258 0.4702, 1.9665 0.5268 0.4663, 1.9665 0.525 0.4665, 1.9665 0.5275 0.4637, 1.9665 0.5242 0.4637, 1.9665 0.5416 0.4249, 1.9665 0.5103 0.4249
            ]
        }
        coordIndex [
            0,1,2,-1,2,1,3,-1,2,3,4,-1,4,3,5,-1,4,5,6,-1,6,5,7,-1,
        ]
    }
}
Shape{
    appearance Appearance {
        material  Material 	{
            diffuseColor 0.7529411764705882 0.7529411764705882 0.7529411764705882
            specularColor 0.3764705882352941 0.3764705882352941 0.3764705882352941
            ambientIntensity 0.7529
            transparency 0.0
            shininess 0.5
        }
    }
    geometry IndexedFaceSet {
        ccw TRUE
        solid FALSE
        coord DEF co Coordinate {
            point [
                1.9704 -0.3538 0.5497, 1.9704 -0.339 0.5575, 1.9704 -0.3425 0.5984, 1.9704 -0.2255 0.3729, 1.9704 -0.2176 0.3877, 1.9704 -0.2137 0.4041, 1.9704 -0.3011 0.6003, 1.9704 -0.2805 0.5518, 1.9704 -0.2703 0.5728, 1.9704 -0.305 0.4019, 1.9704 -0.3063 0.4081, 1.9704 -0.3422 0.4343, 1.9704 -0.3429 0.3898, 1.9704 -0.3513 0.3923, 1.9704 -0.3567 0.4432, 1.9704 -0.3163 0.6016, 1.9704 -0.1204 0.4668, 1.9704 -0.141 0.502, 1.9704 -0.2134 0.4177, 1.9704 -0.23 0.4555, 1.9704 -0.2134 0.411, 1.9704 -0.2489 0.3523, 1.9704 -0.2357 0.3615, 1.9704 -0.2566 0.4205, 1.9704 -0.2549 0.4145, 1.9704 -0.2547 0.408, 1.9704 -0.2561 0.4016, 1.9704 -0.259 0.3958, 1.9704 -0.3023 0.3964, 1.9704 -0.3264 0.3633, 1.9704 -0.3362 0.3755, 1.9704 -0.0985 0.5326, 1.9704 -0.0932 0.5326, 1.9704 -0.0659 0.5684, 1.9704 -0.0805 0.531, 1.9704 -0.0627 0.5673, 1.9704 -0.0689 0.5265, 1.9704 -0.0429 0.5575, 1.9704 -0.0249 0.5423, 1.9704 -0.2874 0.6162, 1.9704 -0.2554 0.5906, 1.9704 -0.2718 0.6295, 1.9704 -0.2376 0.6036, 1.9704 -0.2534 0.6407, 1.9704 -0.3226 0.5614, 1.9704 -0.3157 0.5618, 1.9704 -0.3087 0.6012, 1.9704 -0.3001 0.5599, 1.9704 -0.2852 0.5544, 1.9704 -0.2632 0.3911, 1.9704 -0.2682 0.3875, 1.9704 -0.2637 0.3466, 1.9704 -0.274 0.3853, 1.9704 -0.2798 0.3446, 1.9704 -0.2805 0.3845, 1.9704 -0.2824 0.3447, 1.9704 -0.2816 0.3845, 1.9704 -0.298 0.3471, 1.9704 -0.2876 0.3855, 1.9704 -0.3134 0.3535, 1.9704 -0.2936 0.388, 1.9704 -0.2986 0.3919, 1.9704 -0.0248 0.4183, 1.9704 -0.0557 0.4447, 1.9704 -0.0428 0.403, 1.9704 -0.0655 0.4367, 1.9704 -0.0631 0.3931, 1.9704 -0.0773 0.4312, 1.9704 -0.0852 0.3884, 1.9704 -0.0892 0.429, 1.9704 -0.1244 0.3884, 1.9704 -0.1191 0.429, 1.9704 -0.1281 0.389, 1.9704 -0.0586 0.5193, 1.9704 -0.051 0.5108, 1.9704 -0.0113 0.5234, 1.9704 -0.0448 0.4993, 1.9704 -0.0032 0.5031, 1.9704 -0.0417 0.4866, 1.9704 -0.0002 0.4814, 1.9704 -0.0414 0.4808, 1.9704 -0.0032 0.4577, 1.9704 -0.043 0.4678, 1.9704 -0.0116 0.4367, 1.9704 -0.0475 0.456, 1.9704 -0.0548 0.4456, 1.9704 -0.1018 0.6209, 1.9704 -0.1278 0.5904, 1.9704 -0.0791 0.5944, 1.9704 -0.1128 0.5725, 1.9704 -0.1025 0.5511, 1.9704 -0.3801 0.5115, 1.9704 -0.4237 0.5004, 1.9704 -0.3821 0.4954, 1.9704 -0.4239 0.494, 1.9704 -0.3813 0.4851, 1.9704 -0.4207 0.468, 1.9704 -0.3765 0.4689, 1.9704 -0.4112 0.4433, 1.9704 -0.3686 0.4554, 1.9704 -0.396 0.4216, 1.9704 -0.3753 0.404, 1.9704 -0.306 0.4146, 1.9704 -0.3041 0.4209, 1.9704 -0.3349 0.4485, 1.9704 -0.3008 0.4264, 1.9704 -0.3239 0.4611, 1.9704 -0.2979 0.4295, 1.9704 -0.3103 0.4705, 1.9704 -0.2927 0.4332, 1.9704 -0.2957 0.4761, 1.9704 -0.2869 0.4355, 1.9704 -0.2798 0.4781, 1.9704 -0.2805 0.4363, 1.9704 -0.2717 0.4776, 1.9704 -0.2759 0.4359, 1.9704 -0.2557 0.4736, 1.9704 -0.2697 0.4339, 1.9704 -0.2416 0.4661, 1.9704 -0.2642 0.4305, 1.9704 -0.2597 0.4259, 1.9704 -0.2226 0.652, 1.9704 -0.2159 0.6124, 1.9704 -0.1921 0.6554, 1.9704 -0.1915 0.6156, 1.9704 -0.1612 0.6517, 1.9704 -0.1689 0.6128, 1.9704 -0.1282 0.6391, 1.9704 -0.1481 0.6048, 1.9704 -0.1295 0.5919, 1.9704 -0.3671 0.5889, 1.9704 -0.3882 0.574, 1.9704 -0.3652 0.5395, 1.9704 -0.3927 0.5698, 1.9704 -0.3744 0.5263, 1.9704 -0.4087 0.5493, 1.9704 -0.4193 0.5254, 1.9704 -0.1224 0.4296, 1.9704 -0.1384 0.3954, 1.9704 -0.1368 0.3938, 1.9704 -0.1204 0.4291, 1.9704 -0.1325 0.3908, 1.9704 -0.1436 0.409, 1.9704 -0.143 0.4041, 1.9704 -0.1413 0.3996, 1.9704 -0.1282 0.429, 1.9704 -0.1328 0.4272, 1.9704 -0.1435 0.4117, 1.9704 -0.1368 0.4243, 1.9704 -0.1396 0.4212, 1.9704 -0.1421 0.4167, 1.9704 -0.1231 0.4296, 1.9665 -0.0205 0.5362, 1.9665 -0.0113 0.5234, 1.9665 -0.0055 0.5088, 1.9665 -0.0032 0.5031, 1.9665 -0.0002 0.4814, 1.9665 -0.0249 0.5423, 1.9665 -0.0429 0.5575, 1.9665 -0.0627 0.5673, 1.9665 -0.0659 0.5684, 1.9665 -0.0791 0.5944, 1.9665 -0.1018 0.6209, 1.9665 -0.1166 0.6312, 1.9665 -0.1282 0.6391, 1.9665 -0.1612 0.6517, 1.9665 -0.1921 0.6554, 1.9665 -0.2226 0.652, 1.9665 -0.2534 0.6407, 1.9665 -0.2692 0.6312, 1.9665 -0.2718 0.6295, 1.9665 -0.2874 0.6162, 1.9665 -0.3011 0.6003, 1.9665 -0.3087 0.6012, 1.9665 -0.3163 0.6016, 1.9665 -0.3425 0.5984, 1.9665 -0.3671 0.5889, 1.9665 -0.3882 0.574, 1.9665 -0.3927 0.5698, 1.9665 -0.4087 0.5493, 1.9665 -0.4145 0.5362, 1.9665 -0.4193 0.5254, 1.9665 -0.4222 0.5088, 1.9665 -0.4237 0.5004, 1.9665 -0.4239 0.494, 1.9665 -0.4207 0.468, 1.9665 -0.4112 0.4433, 1.9665 -0.396 0.4216, 1.9665 -0.3753 0.404, 1.9665 -0.3513 0.3923, 1.9665 -0.3429 0.3898, 1.9665 -0.3421 0.388, 1.9665 -0.3362 0.3755, 1.9665 -0.3264 0.3633, 1.9665 -0.3134 0.3535, 1.9665 -0.3073 0.351, 1.9665 -0.298 0.3471, 1.9665 -0.2824 0.3447, 1.9665 -0.2798 0.3446, 1.9665 -0.2134 0.411, 1.9665 -0.2637 0.3466, 1.9665 -0.2523 0.351, 1.9665 -0.2489 0.3523, 1.9665 -0.2357 0.3615, 1.9665 -0.2255 0.3729, 1.9665 -0.2176 0.3877, 1.9665 -0.2176 0.388, 1.9665 -0.2137 0.4041, 1.9665 -0.2134 0.4177, 1.9665 -0.1204 0.4668, 1.9665 -0.141 0.502, 1.9665 -0.23 0.4555, 1.9665 -0.2416 0.4661, 1.9665 -0.2557 0.4736, 1.9665 -0.2717 0.4776, 1.9665 -0.2798 0.4781, 1.9665 -0.2957 0.4761, 1.9665 -0.3103 0.4705, 1.9665 -0.3239 0.4611, 1.9665 -0.3349 0.4485, 1.9665 -0.3422 0.4343, 1.9665 -0.3567 0.4432, 1.9665 -0.3686 0.4554, 1.9665 -0.3765 0.4689, 1.9665 -0.3813 0.4851, 1.9665 -0.3821 0.4954, 1.9665 -0.3804 0.5088, 1.9665 -0.3801 0.5115, 1.9665 -0.3744 0.5263, 1.9665 -0.3675 0.5362, 1.9665 -0.3652 0.5395, 1.9665 -0.3538 0.5497, 1.9665 -0.339 0.5575, 1.9665 -0.3226 0.5614, 1.9665 -0.3157 0.5618, 1.9665 -0.3001 0.5599, 1.9665 -0.2852 0.5544, 1.9665 -0.2805 0.5518, 1.9665 -0.2703 0.5728, 1.9665 -0.2554 0.5906, 1.9665 -0.2376 0.6036, 1.9665 -0.2159 0.6124, 1.9665 -0.1915 0.6156, 1.9665 -0.1689 0.6128, 1.9665 -0.1481 0.6048, 1.9665 -0.1295 0.5919, 1.9665 -0.1278 0.5904, 1.9665 -0.1128 0.5725, 1.9665 -0.1025 0.5511, 1.9665 -0.0993 0.5362, 1.9665 -0.0985 0.5326, 1.9665 -0.0932 0.5326, 1.9665 -0.0805 0.531, 1.9665 -0.0689 0.5265, 1.9665 -0.0586 0.5193, 1.9665 -0.051 0.5108, 1.9665 -0.0499 0.5088, 1.9665 -0.0448 0.4993, 1.9665 -0.0417 0.4866, 1.9665 -0.0414 0.4808, 1.9665 -0.043 0.4678, 1.9665 -0.0475 0.456, 1.9665 -0.0548 0.4456, 1.9665 -0.0557 0.4447, 1.9665 -0.0655 0.4367, 1.9665 -0.0773 0.4312, 1.9665 -0.0892 0.429, 1.9665 -0.1191 0.429, 1.9665 -0.1204 0.4291, 1.9665 -0.1224 0.4296, 1.9665 -0.1231 0.4296, 1.9665 -0.1282 0.429, 1.9665 -0.1328 0.4272, 1.9665 -0.1368 0.4243, 1.9665 -0.1396 0.4212, 1.9665 -0.1421 0.4167, 1.9665 -0.1435 0.4117, 1.9665 -0.1436 0.409, 1.9665 -0.143 0.4041, 1.9665 -0.1413 0.3996, 1.9665 -0.1384 0.3954, 1.9665 -0.1368 0.3938, 1.9665 -0.1325 0.3908, 1.9665 -0.1281 0.389, 1.9665 -0.1244 0.3884, 1.9665 -0.0852 0.3884, 1.9665 -0.0631 0.3931, 1.9665 -0.0428 0.403, 1.9665 -0.0248 0.4183, 1.9665 -0.0116 0.4367, 1.9665 -0.0032 0.4577, 1.9665 -0.2805 0.4363, 1.9665 -0.2759 0.4359, 1.9665 -0.2697 0.4339, 1.9665 -0.2642 0.4305, 1.9665 -0.2597 0.4259, 1.9665 -0.2566 0.4205, 1.9665 -0.2549 0.4145, 1.9665 -0.2547 0.408, 1.9665 -0.2561 0.4016, 1.9665 -0.259 0.3958, 1.9665 -0.2632 0.3911, 1.9665 -0.2682 0.3875, 1.9665 -0.274 0.3853, 1.9665 -0.2805 0.3845, 1.9665 -0.2816 0.3845, 1.9665 -0.2876 0.3855, 1.9665 -0.2936 0.388, 1.9665 -0.2986 0.3919, 1.9665 -0.3023 0.3964, 1.9665 -0.305 0.4019, 1.9665 -0.3063 0.4081, 1.9665 -0.306 0.4146, 1.9665 -0.3041 0.4209, 1.9665 -0.3008 0.4264, 1.9665 -0.2979 0.4295, 1.9665 -0.2927 0.4332, 1.9665 -0.2869 0.4355
            ]
        }
        coordIndex [
            0,1,2,-1,3,4,5,-1,6,7,8,-1,9,10,11,-1,12,11,13,-1,13,11,14,-1,2,1,15,-1,16,17,18,-1,18,17,19,-1,18,19,20,-1,20,19,21,-1,20,21,5,-1,5,21,22,-1,5,22,3,-1,23,24,19,-1,19,24,25,-1,19,25,21,-1,21,25,26,-1,21,26,27,-1,28,9,29,-1,29,9,11,-1,29,11,30,-1,30,11,12,-1,31,32,33,-1,33,32,34,-1,33,34,35,-1,35,34,36,-1,35,36,37,-1,37,36,38,-1,6,8,39,-1,39,8,40,-1,39,40,41,-1,41,40,42,-1,41,42,43,-1,1,44,15,-1,15,44,45,-1,15,45,46,-1,46,45,47,-1,46,47,6,-1,6,47,48,-1,6,48,7,-1,27,49,21,-1,21,49,50,-1,21,50,51,-1,51,50,52,-1,51,52,53,-1,53,52,54,-1,53,54,55,-1,55,54,56,-1,55,56,57,-1,57,56,58,-1,57,58,59,-1,59,58,60,-1,59,60,29,-1,29,60,61,-1,29,61,28,-1,62,63,64,-1,64,63,65,-1,64,65,66,-1,66,65,67,-1,66,67,68,-1,68,67,69,-1,68,69,70,-1,70,69,71,-1,70,71,72,-1,36,73,38,-1,38,73,74,-1,38,74,75,-1,75,74,76,-1,75,76,77,-1,77,76,78,-1,77,78,79,-1,79,78,80,-1,79,80,81,-1,81,80,82,-1,81,82,83,-1,83,82,84,-1,83,84,62,-1,62,84,85,-1,62,85,63,-1,86,87,88,-1,88,87,89,-1,88,89,33,-1,33,89,90,-1,33,90,31,-1,91,92,93,-1,93,92,94,-1,93,94,95,-1,95,94,96,-1,95,96,97,-1,97,96,98,-1,97,98,99,-1,99,98,100,-1,99,100,14,-1,14,100,101,-1,14,101,13,-1,10,102,11,-1,11,102,103,-1,11,103,104,-1,104,103,105,-1,104,105,106,-1,106,105,107,-1,106,107,108,-1,108,107,109,-1,108,109,110,-1,110,109,111,-1,110,111,112,-1,112,111,113,-1,112,113,114,-1,114,113,115,-1,114,115,116,-1,116,115,117,-1,116,117,118,-1,118,117,119,-1,118,119,19,-1,19,119,120,-1,19,120,23,-1,43,42,121,-1,121,42,122,-1,121,122,123,-1,123,122,124,-1,123,124,125,-1,125,124,126,-1,125,126,127,-1,127,126,128,-1,127,128,86,-1,86,128,129,-1,86,129,87,-1,2,130,0,-1,0,130,131,-1,0,131,132,-1,132,131,133,-1,132,133,134,-1,134,133,135,-1,134,135,91,-1,91,135,136,-1,91,136,92,-1,137,138,139,-1,71,140,72,-1,72,140,137,-1,72,137,141,-1,141,137,139,-1,142,143,137,-1,137,143,144,-1,137,144,138,-1,145,146,147,-1,146,148,147,-1,147,148,149,-1,147,149,150,-1,142,137,147,-1,147,137,151,-1,147,151,145,-1,152,38,153,-1,153,38,75,-1,153,75,154,-1,154,75,77,-1,154,77,155,-1,155,77,79,-1,155,79,156,-1,152,157,38,-1,38,157,158,-1,38,158,37,-1,37,158,159,-1,37,159,35,-1,35,159,160,-1,35,160,33,-1,33,160,161,-1,33,161,88,-1,88,161,162,-1,88,162,86,-1,127,86,163,-1,163,86,162,-1,163,164,127,-1,127,164,165,-1,127,165,125,-1,125,165,166,-1,125,166,123,-1,123,166,167,-1,123,167,121,-1,121,167,168,-1,121,168,43,-1,43,168,41,-1,41,168,169,-1,41,169,170,-1,41,170,171,-1,41,171,39,-1,39,171,172,-1,39,172,6,-1,6,172,173,-1,6,173,46,-1,46,173,174,-1,46,174,15,-1,15,174,175,-1,15,175,2,-1,2,175,176,-1,2,176,130,-1,130,176,177,-1,130,177,131,-1,131,177,178,-1,131,178,133,-1,136,135,179,-1,179,135,133,-1,179,133,178,-1,179,180,136,-1,136,180,181,-1,136,181,92,-1,92,181,182,-1,182,183,92,-1,92,183,184,-1,92,184,94,-1,94,184,185,-1,94,185,96,-1,96,185,186,-1,96,186,98,-1,98,186,187,-1,98,187,100,-1,100,187,188,-1,100,188,101,-1,101,188,189,-1,101,189,13,-1,13,189,190,-1,13,190,12,-1,12,190,191,-1,12,191,30,-1,191,192,30,-1,30,192,193,-1,30,193,29,-1,29,193,194,-1,29,194,59,-1,59,194,195,-1,59,195,57,-1,195,196,57,-1,57,196,197,-1,57,197,55,-1,55,197,198,-1,55,198,53,-1,199,20,5,-1,53,198,200,-1,201,21,200,-1,200,21,51,-1,200,51,53,-1,201,202,21,-1,21,202,203,-1,21,203,22,-1,22,203,204,-1,22,204,3,-1,3,204,205,-1,3,205,4,-1,4,205,206,-1,4,206,5,-1,5,206,207,-1,5,207,199,-1,18,20,208,-1,208,20,199,-1,16,18,209,-1,209,18,208,-1,17,16,210,-1,210,16,209,-1,19,17,211,-1,211,17,210,-1,19,211,212,-1,19,212,118,-1,118,212,213,-1,118,213,116,-1,116,213,214,-1,116,214,114,-1,114,214,215,-1,114,215,112,-1,112,215,216,-1,112,216,110,-1,110,216,217,-1,110,217,108,-1,108,217,218,-1,108,218,106,-1,106,218,219,-1,106,219,104,-1,104,219,220,-1,104,220,11,-1,11,220,221,-1,11,221,14,-1,14,221,222,-1,14,222,99,-1,99,222,223,-1,99,223,97,-1,97,223,224,-1,97,224,95,-1,95,224,225,-1,95,225,93,-1,91,93,225,-1,225,226,91,-1,91,226,227,-1,91,227,228,-1,229,132,228,-1,228,132,134,-1,228,134,91,-1,229,230,132,-1,132,230,231,-1,132,231,0,-1,0,231,232,-1,0,232,1,-1,1,232,233,-1,1,233,44,-1,44,233,234,-1,44,234,45,-1,45,234,235,-1,45,235,47,-1,47,235,236,-1,47,236,48,-1,48,236,237,-1,48,237,7,-1,7,237,238,-1,7,238,8,-1,8,238,239,-1,8,239,40,-1,40,239,240,-1,40,240,42,-1,42,240,241,-1,42,241,122,-1,122,241,242,-1,122,242,124,-1,124,242,243,-1,124,243,126,-1,126,243,244,-1,126,244,128,-1,128,244,245,-1,128,245,129,-1,129,245,246,-1,129,246,87,-1,87,246,247,-1,87,247,89,-1,89,247,248,-1,89,248,90,-1,90,248,31,-1,31,248,249,-1,31,249,250,-1,32,31,251,-1,251,31,250,-1,32,251,252,-1,32,252,34,-1,34,252,253,-1,34,253,36,-1,36,253,254,-1,36,254,73,-1,73,254,255,-1,73,255,74,-1,74,255,256,-1,74,256,76,-1,256,257,76,-1,76,257,258,-1,76,258,78,-1,78,258,259,-1,78,259,80,-1,80,259,260,-1,80,260,82,-1,82,260,261,-1,82,261,84,-1,84,261,262,-1,84,262,85,-1,85,262,263,-1,85,263,63,-1,63,263,264,-1,63,264,65,-1,65,264,265,-1,65,265,67,-1,67,265,266,-1,67,266,69,-1,71,69,267,-1,267,69,266,-1,71,267,268,-1,71,268,140,-1,140,268,269,-1,140,269,137,-1,137,269,270,-1,137,270,151,-1,151,270,271,-1,151,271,145,-1,145,271,272,-1,145,272,146,-1,146,272,273,-1,146,273,148,-1,148,273,274,-1,148,274,149,-1,149,274,275,-1,149,275,150,-1,150,275,276,-1,150,276,147,-1,147,276,277,-1,147,277,142,-1,142,277,278,-1,142,278,143,-1,143,278,279,-1,143,279,144,-1,144,279,280,-1,144,280,138,-1,138,280,281,-1,138,281,139,-1,139,281,282,-1,139,282,141,-1,141,282,283,-1,141,283,72,-1,72,283,284,-1,72,284,70,-1,68,70,285,-1,285,70,284,-1,68,285,286,-1,68,286,66,-1,66,286,287,-1,66,287,64,-1,64,287,288,-1,64,288,62,-1,62,288,289,-1,62,289,83,-1,83,289,290,-1,83,290,81,-1,81,290,156,-1,81,156,79,-1,113,291,292,-1,113,292,115,-1,115,292,293,-1,115,293,117,-1,117,293,294,-1,117,294,119,-1,119,294,295,-1,119,295,120,-1,120,295,296,-1,120,296,23,-1,23,296,297,-1,23,297,24,-1,24,297,298,-1,24,298,25,-1,25,298,299,-1,25,299,26,-1,26,299,300,-1,26,300,27,-1,27,300,301,-1,27,301,49,-1,49,301,302,-1,49,302,50,-1,50,302,303,-1,50,303,52,-1,52,303,304,-1,52,304,54,-1,54,304,305,-1,54,305,56,-1,56,305,306,-1,56,306,58,-1,58,306,307,-1,58,307,60,-1,60,307,308,-1,60,308,61,-1,61,308,309,-1,61,309,28,-1,28,309,310,-1,28,310,9,-1,9,310,311,-1,9,311,10,-1,10,311,312,-1,10,312,102,-1,102,312,313,-1,102,313,103,-1,103,313,314,-1,103,314,105,-1,105,314,315,-1,105,315,107,-1,107,315,316,-1,107,316,109,-1,109,316,317,-1,109,317,111,-1,111,317,291,-1,111,291,113,-1,
        ]
    }
}
Shape{
    appearance Appearance {
        material  Material 	{
            diffuseColor 0.25098039215686274 0.25098039215686274 0.25098039215686274
            specularColor 0.12549019607843137 0.12549019607843137 0.12549019607843137
            ambientIntensity 0.251
            transparency 0.0
            shininess 0.5
        }
    }
    geometry IndexedFaceSet {
        ccw TRUE
        solid FALSE
        coord DEF co Coordinate {
            point [
                1.9665 -0.2816 0.3845, 1.9665 -0.2979 0.4295, 1.9665 -0.3008 0.4264, 1.9665 -0.2805 0.4363, 1.9665 -0.2869 0.4355, 1.9665 -0.2927 0.4332, 1.9665 -0.305 0.4019, 1.9665 -0.3023 0.3964, 1.9665 -0.2986 0.3919, 1.9665 -0.2759 0.4359, 1.9665 -0.2805 0.3845, 1.9665 -0.274 0.3853, 1.9665 -0.259 0.3958, 1.9665 -0.2566 0.4205, 1.9665 -0.2632 0.3911, 1.9665 -0.2597 0.4259, 1.9665 -0.2642 0.4305, 1.9665 -0.2682 0.3875, 1.9665 -0.2697 0.4339, 1.9665 -0.3041 0.4209, 1.9665 -0.306 0.4146, 1.9665 -0.3063 0.4081, 1.9665 -0.2936 0.388, 1.9665 -0.2876 0.3855, 1.9665 -0.2561 0.4016, 1.9665 -0.2547 0.408, 1.9665 -0.2549 0.4145
            ]
        }
        coordIndex [
            0,1,2,-1,3,4,0,-1,0,4,5,-1,0,5,1,-1,6,7,2,-1,2,7,8,-1,3,0,9,-1,9,0,10,-1,9,10,11,-1,12,13,14,-1,14,13,15,-1,14,15,16,-1,11,17,9,-1,9,17,14,-1,9,14,18,-1,18,14,16,-1,19,20,2,-1,2,20,21,-1,2,21,6,-1,8,22,2,-1,2,22,23,-1,2,23,0,-1,24,25,12,-1,12,25,26,-1,12,26,13,-1,
        ]
    }
}