#VRML V2.0 utf8
# 3D model generated by easyeda2kicad.py (https://github.com/uPesy/easyeda2kicad.py)

Shape{
    appearance Appearance {
        material  Material 	{
            diffuseColor 1.0 0.7450980392156863 0.6549019607843137
            specularColor 0.5019607843137255 0.37254901960784315 0.32941176470588235
            ambientIntensity 0.811
            transparency 0.0
            shininess 0.5
        }
    }
    geometry IndexedFaceSet {
        ccw TRUE
        solid FALSE
        coord DEF co Coordinate {
            point [
                -0.1938 0.0707 0.1575, -0.1565 0.0707 0.1575, -0.1565 0.0464 0.1575, -0.0565 0.0398 0.1575, -0.0616 0.0599 0.1575, -0.0474 0.0081 0.1575, -0.1938 0.0464 0.1575, -0.1938 0.0384 0.1575, -0.2009 -0.001 0.1575, -0.1938 0.0787 0.1575, -0.2009 0.6102 0.1575, -0.1494 0.0787 0.1575, -0.0751 0.0741 0.1575, -0.0954 0.0806 0.1575, -0.0989 0.0808 0.1575, -0.1181 0.0767 0.1575, -0.1262 0.0717 0.1575, -0.1494 0.0 0.1575, -0.1333 0.0643 0.1575, -0.1308 0.0674 0.1575, -0.1565 0.0384 0.1575, -0.1565 0.0081 0.1575, -0.1938 0.0081 0.1575, -0.1938 0.0 0.1575, -0.0101 0.0 0.1575, -0.0934 -0.001 0.1575, -0.0474 0.0 0.1575, -0.0812 0.0012 0.1575, -0.0735 0.0054 0.1575, -0.081 0.0684 0.1575, -0.0688 0.0574 0.1575, -0.0985 0.0727 0.1575, -0.0637 0.0425 0.1575, -0.0636 0.0393 0.1575, -0.0677 0.0231 0.1575, -0.0785 0.0117 0.1575, -0.094 0.0063 0.1575, -0.069 0.0091 0.1575, -0.0665 0.0118 0.1575, -0.0589 0.0249 0.1575, -0.1182 0.0021 0.1575, -0.1333 0.0145 0.1575, -0.1271 0.0192 0.1575, -0.1271 0.0596 0.1575, -0.1145 0.0094 0.1575, -0.1143 0.0694 0.1575, -0.0989 0.0061 0.1575, -0.1069 0.0718 0.1575, -0.1017 0.0726 0.1575, -0.1089 -0.001 0.1575, -0.1029 -0.0019 0.1575, -0.2009 -0.6102 0.1575, -0.099 -0.002 0.1575, -0.0172 0.0081 0.1575, -0.0172 0.0787 0.1575, -0.0101 0.0787 0.1575, 0.5997 0.6102 0.1575, 0.5997 -0.001 0.1575, 0.5997 -0.6102 0.1575, -0.5997 -0.6102 0.1575, -0.5997 -0.001 0.1575, -0.1092 -0.001 0.1575, -0.2904 0.0 0.1575, -0.2827 0.0 0.1575, -0.3497 0.0 0.1575, -0.338 0.0252 0.1575, -0.3023 0.0252 0.1575, -0.2488 0.0759 0.1575, -0.263 0.0664 0.1575, -0.32 0.0787 0.1575, -0.2567 0.0055 0.1575, -0.2409 0.0004 0.1575, -0.2324 0.0 0.1575, -0.2365 0.0783 0.1575, -0.5997 0.6102 0.1575, -0.321 0.0787 0.1575, -0.3574 0.0 0.1575, -0.2711 0.0508 0.1575, -0.2726 0.0384 0.1575, -0.2681 0.0186 0.1575, -0.208 0.0 0.1575, -0.208 0.0787 0.1575, -0.2239 0.0787 0.1575, -0.6281 -0.6102 0.1454, -0.7561 -0.6102 0.0121, -0.6281 0.6102 0.1454, -0.7561 0.6102 0.0121, -0.7845 -0.6102 0.0, -1.2402 -0.6102 0.0, -0.7845 0.6102 0.0, -1.2402 0.6102 0.0, -1.2402 0.6102 0.1969, -1.2402 -0.6102 0.1969, -1.2008 0.5709 0.2362, -1.2008 -0.5709 0.2362, -0.8176 0.5709 0.2362, -0.8176 -0.5709 0.2362, -0.7892 0.5709 0.2483, -0.7892 -0.5709 0.2483, -0.6612 0.5709 0.3816, -0.6612 -0.5709 0.3816, -0.6328 0.5709 0.3937, -0.6328 -0.5709 0.3937, 0.6328 0.5709 0.3937, 0.6328 -0.5709 0.3937, 0.6612 0.5709 0.3816, 0.6612 -0.5709 0.3816, 0.7892 0.5709 0.2483, 0.7892 -0.5709 0.2483, 0.8176 0.5709 0.2362, 0.8176 -0.5709 0.2362, 1.2008 0.5709 0.2362, 1.2008 -0.5709 0.2362, 1.2402 -0.6102 0.1969, 1.2402 -0.6102 0.0, 1.2402 0.6102 0.1969, 1.2402 0.6102 0.0, 0.7845 0.6102 0.0, 0.7845 -0.6102 0.0, 0.7561 -0.6102 0.0121, 0.6281 -0.6102 0.1454, 0.7561 0.6102 0.0121, 0.6281 0.6102 0.1454, 0.8176 0.6102 0.1969, -0.8176 0.6102 0.1969, -0.7691 0.6102 0.0032, -0.7868 0.6102 0.2032, -0.7608 0.6102 0.221, -0.6151 0.6102 0.1543, -0.6328 0.6102 0.3543, 0.7691 0.6102 0.0032, 0.7868 0.6102 0.2032, 0.7608 0.6102 0.221, 0.6328 0.6102 0.3543, 0.6151 0.6102 0.1543, -0.8176 -0.6102 0.1969, 0.8176 -0.6102 0.1969, 0.7691 -0.6102 0.0032, 0.7868 -0.6102 0.2032, 0.6328 -0.6102 0.3543, 0.6151 -0.6102 0.1543, 0.7608 -0.6102 0.221, -0.6151 -0.6102 0.1543, -0.6328 -0.6102 0.3543, -0.7608 -0.6102 0.221, -0.7868 -0.6102 0.2032, -0.7691 -0.6102 0.0032, 0.8022 -0.5709 0.2394, 0.8022 0.5709 0.2394, 0.6483 -0.5709 0.3906, 0.6483 0.5709 0.3906, -0.6483 -0.5709 0.3906, -0.6483 0.5709 0.3906, -0.8022 -0.5709 0.2394, -0.8022 0.5709 0.2394
            ]
        }
        coordIndex [
            0,1,2,-1,3,4,5,-1,6,7,8,-1,2,6,0,-1,0,6,8,-1,0,8,9,-1,9,8,10,-1,9,10,11,-1,5,4,10,-1,10,4,12,-1,10,12,13,-1,13,14,10,-1,10,14,15,-1,10,15,16,-1,17,11,18,-1,18,11,10,-1,18,10,19,-1,19,10,16,-1,20,21,7,-1,7,21,22,-1,7,22,8,-1,8,22,23,-1,8,23,17,-1,24,25,26,-1,26,25,27,-1,26,27,28,-1,29,30,31,-1,31,30,32,-1,31,32,33,-1,33,34,31,-1,31,34,35,-1,31,35,36,-1,28,37,26,-1,26,37,38,-1,26,38,5,-1,5,38,39,-1,5,39,3,-1,40,17,41,-1,41,17,18,-1,41,18,42,-1,42,18,43,-1,42,43,44,-1,44,43,45,-1,44,45,46,-1,46,45,47,-1,46,47,36,-1,36,47,48,-1,36,48,31,-1,49,50,51,-1,51,50,52,-1,51,52,25,-1,53,5,54,-1,54,5,10,-1,54,10,55,-1,55,10,56,-1,55,56,24,-1,24,56,57,-1,24,57,25,-1,25,57,58,-1,25,58,51,-1,59,60,51,-1,51,60,8,-1,51,8,49,-1,49,8,17,-1,49,17,61,-1,61,17,40,-1,62,63,8,-1,64,65,66,-1,67,68,69,-1,70,71,63,-1,63,71,72,-1,63,72,8,-1,73,67,10,-1,10,67,69,-1,10,69,74,-1,74,69,75,-1,74,75,60,-1,60,75,76,-1,60,76,8,-1,8,76,64,-1,8,64,62,-1,62,64,66,-1,68,77,69,-1,69,77,78,-1,69,78,63,-1,63,78,79,-1,63,79,70,-1,72,80,8,-1,8,80,81,-1,8,81,10,-1,10,81,82,-1,10,82,73,-1,83,84,85,-1,85,84,86,-1,87,88,89,-1,89,88,90,-1,91,90,92,-1,92,90,88,-1,93,94,95,-1,95,94,96,-1,97,98,99,-1,99,98,100,-1,101,102,103,-1,103,102,104,-1,105,106,107,-1,107,106,108,-1,109,110,111,-1,111,110,112,-1,113,114,115,-1,115,114,116,-1,117,116,118,-1,118,116,114,-1,119,120,121,-1,121,120,122,-1,123,115,116,-1,90,91,89,-1,89,91,124,-1,89,124,125,-1,125,124,126,-1,125,126,86,-1,86,126,85,-1,85,126,127,-1,85,127,128,-1,128,127,129,-1,128,129,74,-1,116,117,123,-1,123,117,130,-1,123,130,131,-1,131,130,121,-1,131,121,132,-1,132,121,122,-1,132,122,133,-1,122,134,133,-1,133,134,56,-1,133,56,129,-1,129,56,10,-1,129,10,74,-1,135,92,88,-1,114,113,118,-1,118,113,136,-1,118,136,137,-1,137,136,138,-1,139,140,141,-1,141,140,120,-1,141,120,138,-1,138,120,119,-1,138,119,137,-1,142,143,83,-1,83,143,144,-1,83,144,84,-1,84,144,145,-1,84,145,146,-1,146,145,135,-1,146,135,87,-1,87,135,88,-1,142,59,143,-1,143,59,51,-1,143,51,139,-1,139,51,58,-1,139,58,140,-1,117,118,137,-1,117,137,130,-1,130,137,119,-1,130,119,121,-1,57,56,134,-1,58,57,140,-1,140,57,134,-1,140,134,120,-1,120,134,122,-1,60,59,142,-1,83,85,142,-1,142,85,128,-1,142,128,60,-1,60,128,74,-1,86,84,146,-1,86,146,125,-1,125,146,87,-1,125,87,89,-1,110,109,147,-1,147,109,148,-1,147,148,108,-1,108,148,107,-1,103,104,149,-1,103,149,150,-1,150,149,106,-1,150,106,105,-1,99,100,151,-1,99,151,152,-1,152,151,102,-1,152,102,101,-1,98,97,153,-1,153,97,154,-1,153,154,96,-1,96,154,95,-1,
        ]
    }
}
Shape{
    appearance Appearance {
        material  Material 	{
            diffuseColor 0.7529411764705882 0.7529411764705882 0.7529411764705882
            specularColor 0.3764705882352941 0.3764705882352941 0.3764705882352941
            ambientIntensity 0.7529
            transparency 0.0
            shininess 0.5
        }
    }
    geometry IndexedFaceSet {
        ccw TRUE
        solid FALSE
        coord DEF co Coordinate {
            point [
                -0.32 0.0787 0.1654, -0.321 0.0787 0.1654, -0.32 0.0787 0.1575, -0.321 0.0787 0.1575, -0.3574 0.0 0.1654, -0.3574 0.0 0.1575, -0.3497 0.0 0.1654, -0.3497 0.0 0.1575, -0.338 0.0252 0.1654, -0.338 0.0252 0.1575, -0.3023 0.0252 0.1654, -0.3023 0.0252 0.1575, -0.2904 -0.0 0.1654, -0.2904 0.0 0.1575, -0.2827 0.0 0.1654, -0.2827 0.0 0.1575, -0.3343 0.0333 0.1654, -0.3062 0.0333 0.1654, -0.3204 0.0634 0.1654, -0.3343 0.0333 0.1575, -0.3204 0.0634 0.1575, -0.3062 0.0333 0.1575, -0.2324 0.0 0.1654, -0.208 0.0 0.1654, -0.2324 0.0 0.1575, -0.208 0.0 0.1575, -0.208 0.0787 0.1654, -0.208 0.0787 0.1575, -0.2239 0.0787 0.1654, -0.2239 0.0787 0.1575, -0.2488 0.0759 0.1654, -0.2488 0.0759 0.1575, -0.2365 0.0783 0.1575, -0.2365 0.0783 0.1654, -0.2726 0.0384 0.1654, -0.2726 0.0384 0.1575, -0.2711 0.0508 0.1575, -0.2711 0.0508 0.1654, -0.263 0.0664 0.1575, -0.263 0.0664 0.1654, -0.2409 0.0004 0.1575, -0.2409 0.0004 0.1654, -0.2567 0.0055 0.1575, -0.2567 0.0055 0.1654, -0.2681 0.0186 0.1575, -0.2681 0.0186 0.1654, -0.2642 0.0286 0.1654, -0.2578 0.0171 0.1654, -0.2466 0.0101 0.1654, -0.2354 0.0084 0.1654, -0.2241 0.0081 0.1654, -0.215 0.0081 0.1654, -0.215 0.0707 0.1654, -0.2206 0.0707 0.1654, -0.2327 0.0703 0.1654, -0.2448 0.0685 0.1654, -0.2535 0.0643 0.1654, -0.262 0.0541 0.1654, -0.2655 0.0384 0.1654, -0.215 0.0707 0.1575, -0.215 0.0081 0.1575, -0.2206 0.0707 0.1575, -0.2327 0.0703 0.1575, -0.2448 0.0685 0.1575, -0.2535 0.0643 0.1575, -0.262 0.0541 0.1575, -0.2655 0.0384 0.1575, -0.2642 0.0286 0.1575, -0.2578 0.0171 0.1575, -0.2466 0.0101 0.1575, -0.2354 0.0084 0.1575, -0.2241 0.0081 0.1575, -0.1494 0.0 0.1654, -0.1494 0.0787 0.1654, -0.1494 0.0 0.1575, -0.1494 0.0787 0.1575, -0.1938 0.0787 0.1654, -0.1938 0.0787 0.1575, -0.1938 0.0707 0.1654, -0.1938 0.0707 0.1575, -0.1565 0.0707 0.1654, -0.1565 0.0707 0.1575, -0.1565 0.0464 0.1654, -0.1565 0.0464 0.1575, -0.1938 0.0464 0.1654, -0.1938 0.0464 0.1575, -0.1938 0.0384 0.1654, -0.1938 0.0384 0.1575, -0.1565 0.0384 0.1654, -0.1565 0.0384 0.1575, -0.1565 0.0081 0.1654, -0.1565 0.0081 0.1575, -0.1938 0.0081 0.1654, -0.1938 0.0081 0.1575, -0.1938 0.0 0.1654, -0.1938 0.0 0.1575, -0.1333 0.0643 0.1654, -0.1333 0.0643 0.1575, -0.1308 0.0674 0.1575, -0.1308 0.0674 0.1654, -0.1262 0.0717 0.1575, -0.1262 0.0717 0.1654, -0.1181 0.0767 0.1575, -0.1181 0.0767 0.1654, -0.0989 0.0808 0.1575, -0.0989 0.0808 0.1654, -0.1271 0.0596 0.1654, -0.1271 0.0596 0.1575, -0.0985 0.0727 0.1654, -0.0985 0.0727 0.1575, -0.1017 0.0726 0.1575, -0.1017 0.0726 0.1654, -0.1069 0.0718 0.1575, -0.1069 0.0718 0.1654, -0.1143 0.0694 0.1575, -0.1143 0.0694 0.1654, -0.0636 0.0393 0.1654, -0.0636 0.0393 0.1575, -0.0637 0.0425 0.1575, -0.0637 0.0425 0.1654, -0.0688 0.0574 0.1575, -0.0688 0.0574 0.1654, -0.081 0.0684 0.1575, -0.081 0.0684 0.1654, -0.0989 0.0061 0.1654, -0.0989 0.0061 0.1575, -0.094 0.0063 0.1575, -0.094 0.0063 0.1654, -0.0785 0.0117 0.1575, -0.0785 0.0117 0.1654, -0.0677 0.0231 0.1575, -0.0677 0.0231 0.1654, -0.1271 0.0192 0.1654, -0.1271 0.0192 0.1575, -0.1145 0.0094 0.1575, -0.1145 0.0094 0.1654, -0.1333 0.0145 0.1654, -0.1333 0.0145 0.1575, -0.099 -0.002 0.1654, -0.099 -0.002 0.1575, -0.1029 -0.0019 0.1575, -0.1029 -0.0019 0.1654, -0.1089 -0.001 0.1575, -0.1092 -0.001 0.1654, -0.1092 -0.001 0.1575, -0.1182 0.0021 0.1575, -0.1182 0.0021 0.1654, -0.0665 0.0118 0.1654, -0.0665 0.0118 0.1575, -0.069 0.0091 0.1575, -0.069 0.0091 0.1654, -0.0735 0.0054 0.1575, -0.0735 0.0054 0.1654, -0.0812 0.0012 0.1575, -0.0812 0.0012 0.1654, -0.0934 -0.001 0.1575, -0.0565 0.0398 0.1654, -0.0565 0.0398 0.1575, -0.0589 0.0249 0.1575, -0.0589 0.0249 0.1654, -0.0954 0.0806 0.1575, -0.0954 0.0806 0.1654, -0.0751 0.0741 0.1575, -0.0751 0.0741 0.1654, -0.0616 0.0599 0.1575, -0.0616 0.0599 0.1654, -0.0101 0.0 0.1654, -0.0101 0.0787 0.1654, -0.0101 0.0 0.1575, -0.0101 0.0787 0.1575, -0.0172 0.0787 0.1654, -0.0172 0.0787 0.1575, -0.0172 0.0081 0.1654, -0.0172 0.0081 0.1575, -0.0474 0.0081 0.1654, -0.0474 0.0081 0.1575, -0.0474 0.0 0.1654, -0.0474 0.0 0.1575
            ]
        }
        coordIndex [
            0,1,2,-1,2,1,3,-1,1,4,3,-1,3,4,5,-1,4,6,5,-1,5,6,7,-1,6,8,7,-1,7,8,9,-1,8,10,9,-1,9,10,11,-1,10,12,11,-1,11,12,13,-1,12,14,13,-1,13,14,15,-1,14,0,15,-1,15,0,2,-1,16,4,1,-1,0,17,1,-1,1,17,18,-1,1,18,16,-1,14,12,10,-1,6,4,8,-1,8,4,16,-1,8,16,10,-1,10,16,17,-1,10,17,14,-1,14,17,0,-1,16,18,19,-1,19,18,20,-1,17,16,21,-1,21,16,19,-1,18,17,20,-1,20,17,21,-1,22,23,24,-1,24,23,25,-1,23,26,25,-1,25,26,27,-1,26,28,27,-1,27,28,29,-1,30,31,32,-1,30,32,33,-1,33,32,29,-1,33,29,28,-1,34,35,36,-1,34,36,37,-1,37,36,38,-1,37,38,39,-1,39,38,31,-1,39,31,30,-1,22,24,40,-1,22,40,41,-1,41,40,42,-1,41,42,43,-1,43,42,44,-1,43,44,45,-1,45,44,35,-1,45,35,34,-1,46,47,43,-1,43,47,48,-1,43,48,41,-1,41,48,49,-1,41,49,22,-1,22,49,50,-1,22,50,23,-1,23,50,51,-1,23,51,26,-1,26,51,52,-1,26,52,28,-1,28,52,53,-1,28,53,33,-1,33,53,54,-1,33,54,30,-1,30,54,55,-1,30,55,39,-1,39,55,56,-1,39,56,37,-1,37,56,57,-1,37,57,34,-1,34,57,58,-1,34,58,45,-1,45,58,46,-1,45,46,43,-1,52,51,59,-1,59,51,60,-1,53,52,61,-1,61,52,59,-1,53,61,62,-1,53,62,54,-1,54,62,63,-1,54,63,55,-1,55,63,64,-1,55,64,56,-1,56,64,65,-1,56,65,57,-1,57,65,66,-1,57,66,58,-1,58,66,67,-1,58,67,46,-1,46,67,68,-1,46,68,47,-1,47,68,69,-1,47,69,48,-1,48,69,70,-1,48,70,49,-1,49,70,71,-1,49,71,50,-1,51,50,60,-1,60,50,71,-1,72,73,74,-1,74,73,75,-1,73,76,75,-1,75,76,77,-1,76,78,77,-1,77,78,79,-1,78,80,79,-1,79,80,81,-1,80,82,81,-1,81,82,83,-1,82,84,83,-1,83,84,85,-1,84,86,85,-1,85,86,87,-1,86,88,87,-1,87,88,89,-1,88,90,89,-1,89,90,91,-1,90,92,91,-1,91,92,93,-1,92,94,93,-1,93,94,95,-1,94,72,95,-1,95,72,74,-1,72,94,92,-1,92,90,72,-1,72,90,88,-1,72,88,73,-1,78,76,80,-1,80,76,73,-1,80,73,82,-1,82,73,88,-1,82,88,84,-1,84,88,86,-1,96,97,98,-1,96,98,99,-1,99,98,100,-1,99,100,101,-1,101,100,102,-1,101,102,103,-1,103,102,104,-1,103,104,105,-1,96,106,97,-1,97,106,107,-1,108,109,110,-1,108,110,111,-1,111,110,112,-1,111,112,113,-1,113,112,114,-1,113,114,115,-1,115,114,107,-1,115,107,106,-1,116,117,118,-1,116,118,119,-1,119,118,120,-1,119,120,121,-1,121,120,122,-1,121,122,123,-1,123,122,109,-1,123,109,108,-1,124,125,126,-1,124,126,127,-1,127,126,128,-1,127,128,129,-1,129,128,130,-1,129,130,131,-1,131,130,117,-1,131,117,116,-1,132,133,134,-1,132,134,135,-1,135,134,125,-1,135,125,124,-1,132,136,133,-1,133,136,137,-1,138,139,140,-1,138,140,141,-1,141,140,142,-1,141,142,143,-1,142,144,143,-1,143,144,145,-1,143,145,146,-1,146,145,137,-1,146,137,136,-1,147,148,149,-1,147,149,150,-1,150,149,151,-1,150,151,152,-1,152,151,153,-1,152,153,154,-1,154,153,138,-1,138,153,155,-1,138,155,139,-1,156,157,158,-1,156,158,159,-1,159,158,148,-1,159,148,147,-1,105,104,160,-1,105,160,161,-1,161,160,162,-1,161,162,163,-1,163,162,164,-1,163,164,165,-1,165,164,157,-1,165,157,156,-1,136,132,146,-1,146,132,135,-1,156,159,131,-1,131,159,129,-1,129,159,147,-1,129,147,150,-1,106,96,99,-1,106,99,115,-1,115,99,101,-1,115,101,103,-1,150,152,129,-1,129,152,154,-1,129,154,127,-1,127,154,138,-1,127,138,124,-1,124,138,141,-1,124,141,135,-1,135,141,143,-1,135,143,146,-1,131,116,156,-1,156,116,119,-1,156,119,165,-1,165,119,121,-1,165,121,163,-1,163,121,123,-1,163,123,161,-1,161,123,108,-1,161,108,105,-1,105,108,111,-1,105,111,103,-1,103,111,113,-1,103,113,115,-1,166,167,168,-1,168,167,169,-1,167,170,169,-1,169,170,171,-1,170,172,171,-1,171,172,173,-1,172,174,173,-1,173,174,175,-1,174,176,175,-1,175,176,177,-1,176,166,177,-1,177,166,168,-1,170,167,172,-1,172,167,166,-1,172,166,174,-1,174,166,176,-1,
        ]
    }
}
Shape{
    appearance Appearance {
        material  Material 	{
            diffuseColor 1.0 0.7450980392156863 0.6549019607843137
            specularColor 0.5019607843137255 0.37254901960784315 0.32941176470588235
            ambientIntensity 0.811
            transparency 0.0
            shininess 0.5
        }
    }
    geometry IndexedFaceSet {
        ccw TRUE
        solid FALSE
        coord DEF co Coordinate {
            point [
                -0.3204 0.0634 0.1575, -0.3062 0.0333 0.1575, -0.3343 0.0333 0.1575, -0.215 0.0707 0.1575, -0.215 0.0081 0.1575, -0.2206 0.0707 0.1575, -0.2241 0.0081 0.1575, -0.2327 0.0703 0.1575, -0.2354 0.0084 0.1575, -0.2448 0.0685 0.1575, -0.2466 0.0101 0.1575, -0.2578 0.0171 0.1575, -0.2642 0.0286 0.1575, -0.2655 0.0384 0.1575, -0.262 0.0541 0.1575, -0.2535 0.0643 0.1575, -1.2402 -0.6102 0.1969, -0.8176 -0.6102 0.1969, -1.2388 -0.6089 0.207, -0.8176 -0.605 0.2165, -1.2349 -0.605 0.2165, -0.8176 -0.5906 0.2309, -1.2205 -0.5906 0.2309, -0.8176 -0.5709 0.2362, -1.2008 -0.5709 0.2362, -1.2402 0.6102 0.1969, -1.2388 0.6089 0.207, -1.2349 0.605 0.2165, -1.2205 0.5906 0.2309, -1.2008 0.5709 0.2362, -0.7868 -0.6102 0.2032, -0.7945 -0.605 0.2213, -0.8001 -0.5906 0.2345, -0.8022 -0.5709 0.2394, -0.7608 -0.6102 0.221, -0.775 -0.605 0.2347, -0.7854 -0.5906 0.2447, -0.7892 -0.5709 0.2483, -0.8176 0.5709 0.2362, -0.8176 0.5906 0.2309, -0.8176 0.605 0.2165, -0.8176 0.6102 0.1969, -0.6328 -0.6102 0.3543, -0.6437 -0.6072 0.3648, -0.6468 -0.6044 0.3677, -0.6529 -0.5987 0.3736, -0.6612 -0.5709 0.3816, -0.6591 -0.5859 0.3795, -0.657 -0.5902 0.3776, -0.8022 0.5709 0.2394, -0.8001 0.5906 0.2345, -0.7945 0.605 0.2213, -0.7868 0.6102 0.2032, -0.7892 0.5709 0.2483, -0.7854 0.5906 0.2447, -0.775 0.605 0.2347, -0.7608 0.6102 0.221, -0.6328 -0.6072 0.3694, -0.6387 -0.6072 0.3682, -0.6328 -0.5902 0.3879, -0.6328 -0.5859 0.3907, -0.6471 -0.5859 0.3878, -0.6328 -0.5709 0.3937, -0.6483 -0.5709 0.3906, -0.6437 -0.5987 0.3799, -0.6328 -0.5987 0.3822, -0.6328 -0.6044 0.3736, -0.6328 0.6102 0.3543, -0.647 0.605 0.368, -0.6574 0.5906 0.3779, -0.6612 0.5709 0.3816, 0.6328 -0.6102 0.3543, 0.6328 -0.605 0.374, 0.6328 -0.5906 0.3884, 0.6328 -0.5709 0.3937, -0.6328 0.605 0.374, -0.6405 0.605 0.3724, -0.6328 0.5906 0.3884, -0.6462 0.5906 0.3857, -0.6328 0.5709 0.3937, -0.6483 0.5709 0.3906, 0.6612 -0.5709 0.3816, 0.6483 -0.5709 0.3906, 0.6574 -0.5906 0.3779, 0.6462 -0.5906 0.3857, 0.647 -0.605 0.368, 0.6405 -0.605 0.3724, 0.6328 0.6102 0.3543, 0.6328 0.605 0.374, 0.6328 0.5906 0.3884, 0.6328 0.5709 0.3937, 0.7608 -0.6102 0.221, 0.775 -0.605 0.2347, 0.7854 -0.5906 0.2447, 0.7892 -0.5709 0.2483, 0.647 0.605 0.368, 0.6405 0.605 0.3724, 0.6574 0.5906 0.3779, 0.6462 0.5906 0.3857, 0.6612 0.5709 0.3816, 0.6483 0.5709 0.3906, 0.7868 -0.6102 0.2032, 0.7945 -0.605 0.2213, 0.8001 -0.5906 0.2345, 0.8022 -0.5709 0.2394, 0.8176 -0.6102 0.1969, 0.8176 -0.605 0.2165, 0.8176 -0.5906 0.2309, 0.8176 -0.5709 0.2362, 0.7608 0.6102 0.221, 0.775 0.605 0.2347, 0.7854 0.5906 0.2447, 0.7892 0.5709 0.2483, 1.2008 -0.5709 0.2362, 1.2205 -0.5906 0.2309, 1.2349 -0.605 0.2165, 1.2388 -0.6089 0.207, 1.2402 -0.6102 0.1969, 0.8022 0.5709 0.2394, 0.8001 0.5906 0.2345, 0.7945 0.605 0.2213, 0.7868 0.6102 0.2032, 0.8176 0.5709 0.2362, 0.8176 0.5906 0.2309, 0.8176 0.605 0.2165, 0.8176 0.6102 0.1969, 1.2402 0.6102 0.1969, 1.2388 0.6089 0.207, 1.2349 0.605 0.2165, 1.2205 0.5906 0.2309, 1.2008 0.5709 0.2362
            ]
        }
        coordIndex [
            0,1,2,-1,3,4,5,-1,5,4,6,-1,5,6,7,-1,7,6,8,-1,7,8,9,-1,10,11,8,-1,8,11,12,-1,8,12,13,-1,13,14,8,-1,8,14,15,-1,8,15,9,-1,16,17,18,-1,18,17,19,-1,18,19,20,-1,20,19,21,-1,20,21,22,-1,22,21,23,-1,22,23,24,-1,25,16,26,-1,26,16,18,-1,26,18,27,-1,18,20,27,-1,27,20,22,-1,27,22,28,-1,28,22,24,-1,28,24,29,-1,17,30,19,-1,19,30,31,-1,19,31,21,-1,21,31,32,-1,21,32,23,-1,23,32,33,-1,30,34,31,-1,31,34,35,-1,31,35,32,-1,32,35,36,-1,32,36,33,-1,33,36,37,-1,29,38,39,-1,29,39,28,-1,28,39,40,-1,28,40,27,-1,27,40,26,-1,26,40,41,-1,26,41,25,-1,42,43,34,-1,34,43,35,-1,43,44,35,-1,35,44,45,-1,35,45,36,-1,46,37,47,-1,47,37,36,-1,47,36,48,-1,48,36,45,-1,38,49,39,-1,39,49,50,-1,39,50,40,-1,40,50,51,-1,40,51,41,-1,41,51,52,-1,49,53,50,-1,50,53,54,-1,50,54,51,-1,51,54,55,-1,51,55,52,-1,52,55,56,-1,57,58,42,-1,59,60,61,-1,60,62,63,-1,60,63,61,-1,61,63,46,-1,61,46,47,-1,47,48,61,-1,61,48,64,-1,61,64,59,-1,59,64,65,-1,58,57,64,-1,64,57,66,-1,64,66,65,-1,48,45,64,-1,64,45,44,-1,64,44,58,-1,58,44,43,-1,58,43,42,-1,67,56,55,-1,67,55,68,-1,68,55,54,-1,68,54,69,-1,69,54,53,-1,69,53,70,-1,57,42,71,-1,57,71,66,-1,66,71,72,-1,66,72,65,-1,65,72,73,-1,65,73,59,-1,59,73,60,-1,60,73,74,-1,60,74,62,-1,75,76,77,-1,77,76,78,-1,77,78,79,-1,79,78,80,-1,70,80,69,-1,69,80,78,-1,69,78,68,-1,68,78,76,-1,68,76,67,-1,75,67,76,-1,81,82,83,-1,83,82,84,-1,83,84,85,-1,85,84,86,-1,85,86,71,-1,82,74,84,-1,84,74,73,-1,84,73,86,-1,86,73,72,-1,86,72,71,-1,87,67,75,-1,87,75,88,-1,88,75,77,-1,88,77,89,-1,89,77,79,-1,89,79,90,-1,71,91,92,-1,71,92,85,-1,85,92,93,-1,85,93,83,-1,83,93,94,-1,83,94,81,-1,95,96,97,-1,97,96,98,-1,97,98,99,-1,99,98,100,-1,90,100,89,-1,89,100,98,-1,89,98,88,-1,88,98,96,-1,88,96,87,-1,95,87,96,-1,91,101,92,-1,92,101,102,-1,92,102,93,-1,93,102,103,-1,93,103,94,-1,94,103,104,-1,101,105,102,-1,102,105,106,-1,102,106,103,-1,103,106,107,-1,103,107,104,-1,104,107,108,-1,109,87,95,-1,109,95,110,-1,110,95,97,-1,110,97,111,-1,111,97,99,-1,111,99,112,-1,113,108,107,-1,113,107,114,-1,114,107,106,-1,114,106,115,-1,115,106,116,-1,116,106,105,-1,116,105,117,-1,112,118,111,-1,111,118,119,-1,111,119,110,-1,110,119,120,-1,110,120,109,-1,109,120,121,-1,118,122,119,-1,119,122,123,-1,119,123,120,-1,120,123,124,-1,120,124,121,-1,121,124,125,-1,117,126,127,-1,117,127,116,-1,116,127,128,-1,116,128,115,-1,115,128,129,-1,115,129,114,-1,114,129,130,-1,114,130,113,-1,126,125,127,-1,127,125,124,-1,127,124,128,-1,128,124,123,-1,128,123,129,-1,129,123,122,-1,129,122,130,-1,
        ]
    }
}