#VRML V2.0 utf8
# 3D model generated by easyeda2kicad.py (https://github.com/uPesy/easyeda2kicad.py)

Shape{
    appearance Appearance {
        material  Material 	{
            diffuseColor 0.8431372549019608 0.8156862745098039 0.7529411764705882
            specularColor 0.25098039215686274 0.24313725490196078 0.22745098039215686
            ambientIntensity 0.8167
            transparency 0.0
            shininess 0.5
        }
    }
    geometry IndexedFaceSet {
        ccw TRUE
        solid FALSE
        coord DEF co Coordinate {
            point [
                -0.0619 0.1646 0.1417, -0.0619 0.1646 0.54, -0.0735 0.1646 0.4273, -0.0735 0.1646 0.4402, -0.0908 0.1646 0.54, -0.0871 0.1646 0.5397, -0.0735 0.1646 0.536, -0.0735 0.1646 0.5202, -0.0868 0.1646 0.5259, -0.0756 0.1646 0.4391, -0.1011 0.1646 0.5277, -0.1127 0.1646 0.5264, -0.1551 0.1646 0.5081, -0.1482 0.1646 0.5192, -0.1664 0.1646 0.54, -0.1205 0.1646 0.4212, -0.132 0.1646 0.4252, -0.1664 0.1646 0.1417, -0.1415 0.1646 0.4312, -0.1503 0.1646 0.4406, -0.1566 0.1646 0.4518, -0.1216 0.1646 0.5232, -0.1298 0.1646 0.5178, -0.1369 0.1646 0.5099, -0.1455 0.1646 0.4789, -0.1443 0.1646 0.4662, -0.1411 0.1646 0.456, -0.1148 0.1646 0.4339, -0.1038 0.1646 0.4327, -0.1234 0.1646 0.4371, -0.1306 0.1646 0.442, -0.1362 0.1646 0.4478, -0.0881 0.1646 0.4344, -0.1375 0.1646 0.5294, -0.1263 0.1646 0.5359, -0.1131 0.1646 0.5397, -0.1418 0.1646 0.5008, -0.1449 0.1646 0.4881, -0.086 0.1646 0.4221, -0.1027 0.1646 0.4198, -0.106 0.1646 0.4197, -0.1602 0.1646 0.4643, -0.1613 0.1646 0.478, -0.1596 0.1646 0.4948, -0.1013 0.1646 0.5407, -0.0619 0.1646 0.6046, -0.1101 0.1646 0.54, -0.1664 0.1646 0.6046, -0.1575 0.1646 0.8134, -0.1575 0.1646 0.6685, -0.1664 0.1646 0.6685, -0.2341 0.1646 0.6046, -0.2341 0.1646 0.6685, -0.3937 0.1646 0.6046, -0.2362 0.1646 0.6685, -0.3937 0.1646 0.9106, -0.2362 0.1646 0.8134, -0.2341 0.1646 0.9106, -0.2341 0.1646 0.8134, -0.1664 0.1646 0.9106, -0.1664 0.1646 0.8134, -0.0619 0.1646 0.9106, -1.2205 0.1646 0.6046, -1.2598 0.1646 0.54, -1.2205 0.1646 0.54, -1.2598 0.1646 0.1417, -1.2205 0.1646 0.1417, -1.2205 0.1646 0.9106, -1.3386 0.1646 0.9106, -1.3386 0.1646 0.7913, -1.4173 0.1646 0.7913, -1.4173 0.1646 0.6339, -1.2598 0.1646 0.6339, -1.2598 0.1646 0.6046, 1.4173 0.1646 0.6339, 1.4173 0.1646 0.7913, 1.2598 0.1646 0.6339, 1.3386 0.1646 0.7913, 1.2598 0.1646 0.6046, 1.0236 0.1646 0.6685, 0.7874 0.1646 0.6046, 0.9449 0.1646 0.6685, 0.7874 0.1646 0.9106, 0.9449 0.1646 0.8134, 1.0236 0.1646 0.8134, 1.3386 0.1646 0.9106, 0.0827 0.1646 0.4224, 0.0681 0.1646 0.4211, 0.0245 0.1646 0.1417, 0.036 0.1646 0.4211, 0.1397 0.1646 0.4211, 0.1486 0.1646 0.4211, 0.1486 0.1646 0.1417, 0.157 0.1646 0.4211, 0.1302 0.1646 0.4928, 0.1311 0.1646 0.4817, 0.1294 0.1646 0.4659, 0.1252 0.1646 0.4535, 0.1184 0.1646 0.443, 0.1087 0.1646 0.4336, 0.0963 0.1646 0.4265, 0.036 0.1646 0.5393, 0.0245 0.1646 0.54, 0.0693 0.1646 0.5393, 0.1486 0.1646 0.54, 0.0864 0.1646 0.5374, 0.1002 0.1646 0.5326, 0.1131 0.1646 0.524, 0.1132 0.1646 0.5239, 0.1216 0.1646 0.5146, 0.1486 0.1646 0.4446, 0.127 0.1646 0.5044, 0.2171 0.1646 0.4543, 0.1683 0.1646 0.4543, 0.229 0.1646 0.4211, 0.2413 0.1646 0.1417, 0.1844 0.1646 0.5393, 0.2002 0.1646 0.5393, 0.2413 0.1646 0.54, 0.2413 0.1646 0.4341, 0.3987 0.1646 0.54, 0.3987 0.1646 0.1417, 0.2463 0.1646 0.4211, 0.2413 0.1646 0.4211, 1.2598 0.1646 0.1417, 1.2598 0.1646 0.54, 0.7874 0.1646 0.1417, 0.7874 0.1646 0.54, 0.3987 0.1646 0.6046, 0.6299 0.1646 0.6685, 0.6299 0.1646 0.8134, 0.5512 0.1646 0.8134, 0.3987 0.1646 0.9106, 0.5512 0.1646 0.6685, 0.2413 0.1646 0.6046, 0.2413 0.1646 0.9106, 0.1575 0.1646 0.6685, 0.1486 0.1646 0.6046, 0.2362 0.1646 0.6685, 0.2362 0.1646 0.8134, 0.1575 0.1646 0.8134, 0.1486 0.1646 0.9106, 0.013 0.1646 0.4341, 0.013 0.1646 0.4211, -0.0504 0.1646 0.4211, -0.0504 0.1646 0.5393, 0.0101 0.1646 0.5393, 0.0101 0.1646 0.5263, -0.0346 0.1646 0.4744, -0.0346 0.1646 0.4341, 0.0072 0.1646 0.4744, 0.0072 0.1646 0.4874, -0.0346 0.1646 0.4874, -0.0346 0.1646 0.5263, 0.0245 0.1646 0.6046, 0.0245 0.1646 0.9106, -0.2319 0.1646 0.4211, -0.2319 0.1646 0.5393, -0.2341 0.1646 0.54, -0.2161 0.1646 0.5393, -0.2341 0.1646 0.1417, -0.1714 0.1646 0.4211, -0.1714 0.1646 0.4341, -0.2161 0.1646 0.4341, -0.3937 0.1646 0.1417, -0.3937 0.1646 0.54, -0.7874 0.1646 0.1417, -0.7874 0.1646 0.54, -0.7874 0.1646 0.6046, -0.5512 0.1646 0.8134, -0.6299 0.1646 0.8134, -0.7874 0.1646 0.9106, -0.6299 0.1646 0.6685, -0.5512 0.1646 0.6685, -0.9449 0.1646 0.6685, -1.0236 0.1646 0.6685, -0.9449 0.1646 0.8134, -1.0236 0.1646 0.8134, 1.3386 0.1646 1.0079, 0.7874 0.1646 1.0079, 0.3987 0.1646 1.0079, 0.2413 0.1646 1.0079, 0.1486 0.1646 1.0079, 0.0245 0.1646 1.0079, -0.0619 0.1646 1.0079, -0.1664 0.1646 1.0079, -0.2341 0.1646 1.0079, -0.3937 0.1646 1.0079, -0.7874 0.1646 1.0079, -1.2205 0.1646 1.0079, -1.3386 0.1646 1.0079, 0.9449 0.5386 0.0039, 0.9055 0.5386 0.0039, 0.9449 0.5386 0.8197, 0.9055 0.5386 0.9094, 1.0236 0.5386 0.8197, 1.063 0.5386 0.9094, 1.0236 0.5386 0.0039, 1.063 0.5386 0.0039, 0.5512 0.5386 0.0039, 0.5118 0.5386 0.0039, 0.5512 0.5386 0.8197, 0.5118 0.5386 0.9094, 0.6299 0.5386 0.8197, 0.6693 0.5386 0.9094, 0.6299 0.5386 0.0039, 0.6693 0.5386 0.0039, 0.1575 0.5386 0.0039, 0.1181 0.5386 0.0039, 0.1575 0.5386 0.8197, 0.1181 0.5386 0.9094, 0.2362 0.5386 0.8197, 0.2756 0.5386 0.9094, 0.2362 0.5386 0.0039, 0.2756 0.5386 0.0039, -0.2362 0.5386 0.0039, -0.2756 0.5386 0.0039, -0.2362 0.5386 0.8197, -0.2756 0.5386 0.9094, -0.1575 0.5386 0.8197, -0.1181 0.5386 0.9094, -0.1575 0.5386 0.0039, -0.1181 0.5386 0.0039, -0.6299 0.5386 0.0039, -0.6693 0.5386 0.0039, -0.6299 0.5386 0.8197, -0.6693 0.5386 0.9094, -0.5512 0.5386 0.8197, -0.5118 0.5386 0.9094, -0.5512 0.5386 0.0039, -0.5118 0.5386 0.0039, -1.0236 0.5386 0.0039, -1.063 0.5386 0.0039, -1.0236 0.5386 0.8197, -1.063 0.5386 0.9094, -0.9449 0.5386 0.8197, -0.9055 0.5386 0.9094, -0.9449 0.5386 0.0039, -0.9055 0.5386 0.0039, -1.2598 0.1842 1.1457, -1.5748 0.1842 1.1457, -1.5748 -1.0165 1.1457, 1.5748 -1.0165 1.1457, 1.5748 0.1842 1.1457, 1.2598 0.1842 1.1457, 1.2598 0.4205 1.1457, -1.2598 0.4205 1.1457, -1.2598 0.4205 0.9094, -1.2598 0.1842 0.9094, 1.2598 0.4205 0.9094, 1.2598 0.1842 0.9094, 1.378 -0.7803 0.2402, 1.378 -0.5441 0.2402, 1.437 -0.7803 0.2402, 1.437 -0.5441 0.2402, 1.378 -0.5441 0.0039, 1.437 -0.5441 0.0039, 1.5748 -1.0165 0.4764, 1.5748 -0.5441 0.0039, 1.5748 0.6567 0.0039, 1.5748 0.6567 0.6732, 1.5748 -0.7803 0.4764, 1.5748 -0.7803 0.2402, 1.5748 -0.5441 0.2402, 1.5748 0.4205 0.6732, 1.5748 0.4205 0.9094, 1.5748 0.1842 0.9094, 1.063 0.6567 0.9094, 1.2598 0.6567 0.9094, 1.2598 0.6567 0.6732, 1.063 0.6567 0.0039, 1.3976 -1.0165 1.0669, 1.3976 -1.0165 0.8504, 1.4764 -1.0165 0.8504, -1.3976 -1.0165 0.8504, -1.3976 -1.0165 1.0669, 1.4764 -1.0165 0.5748, 1.378 -1.0165 0.4764, 1.3189 -1.0165 0.5748, 1.378 -1.0165 0.0039, 1.3189 -1.0165 0.0827, -1.378 -1.0165 0.0039, -1.3189 -1.0165 0.0827, -1.378 -1.0165 0.4764, -1.3189 -1.0165 0.5748, -1.5748 -1.0165 0.4764, -1.4764 -1.0165 0.5748, -1.4764 -1.0165 0.8504, -1.378 -0.5441 0.0039, -1.5748 0.6567 0.0039, -1.063 0.6567 0.0039, -1.5748 -0.5441 0.0039, -1.5157 -0.5441 0.0039, -1.437 -0.5441 0.0039, -0.9055 0.6567 0.0039, -0.6693 0.6567 0.0039, -0.1181 0.6567 0.0039, 0.1181 0.6567 0.0039, 0.2756 0.6567 0.0039, 0.5118 0.6567 0.0039, -0.5118 0.6567 0.0039, -0.2756 0.6567 0.0039, 0.6693 0.6567 0.0039, 0.9055 0.6567 0.0039, 1.5157 -0.5441 0.0039, 0.9055 0.6567 0.9094, 0.6693 0.6567 0.9094, 0.5118 0.6567 0.9094, 0.2756 0.6567 0.9094, -0.6693 0.6567 0.9094, -0.9055 0.6567 0.9094, -0.2756 0.6567 0.9094, -0.5118 0.6567 0.9094, 0.1181 0.6567 0.9094, -0.1181 0.6567 0.9094, -1.378 -0.5441 0.2402, -1.437 -0.5441 0.2402, -1.5748 -0.5441 0.2402, -1.5157 -0.5441 0.2402, -1.378 -0.7803 0.2402, -1.437 -0.7803 0.2402, -1.5748 -0.7803 0.2402, -1.5157 -0.7803 0.2402, -1.437 -0.7803 0.4724, -1.378 -0.7803 0.4764, -1.5157 -0.7803 0.4724, -1.5748 -0.7803 0.4764, -1.2598 0.6567 0.9094, -1.063 0.6567 0.9094, -1.2598 0.6567 0.6732, -1.5748 0.6567 0.6732, -1.5748 0.4205 0.6732, -1.5748 0.1842 0.9094, -1.5748 0.4205 0.9094, 1.2598 -0.8543 0.1417, 1.2598 -0.8543 0.6339, 0.1354 0.1646 0.1417, -1.2598 -0.8543 0.1417, -1.2598 -0.8543 0.6339, -1.4173 -0.8543 0.6339, -1.4173 -0.8543 0.7913, -1.3386 -0.8543 0.7913, -1.3386 -0.8543 1.0079, 1.3386 -0.8543 1.0079, 0.1354 0.1646 1.0079, 1.3386 -0.8543 0.7913, 1.4173 -0.8543 0.7913, 1.4173 -0.8543 0.6339, -1.2598 0.4205 0.6732
            ]
        }
        coordIndex [
            0,1,2,-1,2,1,3,-1,1,4,5,-1,5,6,1,-1,1,6,7,-1,1,7,3,-1,3,7,8,-1,3,8,9,-1,9,8,10,-1,9,10,11,-1,12,13,14,-1,15,16,17,-1,16,18,17,-1,17,18,19,-1,17,19,20,-1,11,21,9,-1,9,21,22,-1,9,22,23,-1,24,25,9,-1,9,25,26,-1,27,28,29,-1,29,28,30,-1,26,31,9,-1,9,31,30,-1,9,30,32,-1,32,30,28,-1,13,33,14,-1,14,33,34,-1,14,34,35,-1,23,36,9,-1,9,36,37,-1,9,37,24,-1,2,38,0,-1,0,38,39,-1,0,39,17,-1,17,39,40,-1,17,40,15,-1,20,41,17,-1,17,41,42,-1,17,42,14,-1,14,42,43,-1,14,43,12,-1,44,45,46,-1,46,45,47,-1,48,49,45,-1,45,49,47,-1,47,49,50,-1,47,50,51,-1,51,50,52,-1,51,52,53,-1,53,52,54,-1,53,54,55,-1,55,54,56,-1,55,56,57,-1,57,56,58,-1,57,58,59,-1,59,58,60,-1,59,60,61,-1,62,63,64,-1,64,63,65,-1,64,65,66,-1,67,68,62,-1,62,68,69,-1,70,71,69,-1,69,71,72,-1,69,72,62,-1,62,72,73,-1,62,73,63,-1,74,75,76,-1,76,75,77,-1,78,79,80,-1,80,79,81,-1,80,81,82,-1,82,81,83,-1,82,83,84,-1,78,76,79,-1,79,76,77,-1,79,77,84,-1,84,77,85,-1,84,85,82,-1,86,87,88,-1,88,87,89,-1,90,88,91,-1,91,88,92,-1,91,92,93,-1,94,95,90,-1,90,95,96,-1,90,96,97,-1,97,98,90,-1,90,98,99,-1,90,99,88,-1,88,99,100,-1,88,100,86,-1,89,101,102,-1,102,101,103,-1,102,103,104,-1,104,103,105,-1,104,105,106,-1,106,107,104,-1,104,107,108,-1,104,108,109,-1,90,110,94,-1,94,110,104,-1,94,104,111,-1,111,104,109,-1,112,113,114,-1,114,113,93,-1,114,93,115,-1,115,93,92,-1,110,116,104,-1,104,116,117,-1,104,117,118,-1,118,117,119,-1,118,119,120,-1,121,122,115,-1,115,122,123,-1,115,123,114,-1,124,125,126,-1,126,125,127,-1,126,127,121,-1,121,127,120,-1,121,120,122,-1,122,120,119,-1,128,80,129,-1,129,80,130,-1,130,80,82,-1,130,82,131,-1,131,82,132,-1,131,132,133,-1,129,133,128,-1,128,133,132,-1,128,132,134,-1,134,132,135,-1,136,137,138,-1,138,137,134,-1,138,134,139,-1,139,134,135,-1,139,135,140,-1,140,135,141,-1,102,142,143,-1,89,102,88,-1,88,102,143,-1,88,143,0,-1,0,143,144,-1,0,144,1,-1,144,145,1,-1,1,145,146,-1,1,146,102,-1,102,146,147,-1,102,147,142,-1,148,149,150,-1,150,149,142,-1,150,142,151,-1,151,142,147,-1,151,147,152,-1,152,147,153,-1,125,78,127,-1,127,78,80,-1,127,80,120,-1,120,80,128,-1,120,128,118,-1,118,128,134,-1,118,134,104,-1,104,134,137,-1,104,137,102,-1,102,137,154,-1,102,154,1,-1,1,154,45,-1,1,45,4,-1,4,45,44,-1,136,140,137,-1,137,140,141,-1,137,141,154,-1,154,141,155,-1,154,155,45,-1,45,155,61,-1,45,61,48,-1,48,61,60,-1,156,157,158,-1,158,157,159,-1,158,159,14,-1,160,17,161,-1,161,17,14,-1,161,14,162,-1,162,14,159,-1,162,159,163,-1,161,156,160,-1,160,156,158,-1,160,158,164,-1,164,158,165,-1,164,165,166,-1,166,165,167,-1,35,46,14,-1,14,46,47,-1,14,47,158,-1,158,47,51,-1,158,51,165,-1,165,51,53,-1,165,53,167,-1,167,53,168,-1,169,55,170,-1,170,55,171,-1,170,171,172,-1,172,171,168,-1,172,168,173,-1,173,168,53,-1,173,53,169,-1,169,53,55,-1,168,174,175,-1,174,168,176,-1,176,168,171,-1,176,171,177,-1,177,171,67,-1,177,67,175,-1,175,67,62,-1,175,62,168,-1,168,62,64,-1,168,64,167,-1,167,64,66,-1,167,66,166,-1,85,178,82,-1,82,178,179,-1,82,179,132,-1,132,179,180,-1,132,180,135,-1,135,180,181,-1,135,181,141,-1,141,181,182,-1,141,182,155,-1,155,182,183,-1,155,183,61,-1,61,183,184,-1,61,184,59,-1,59,184,185,-1,59,185,57,-1,57,185,186,-1,57,186,55,-1,55,186,187,-1,55,187,171,-1,171,187,188,-1,171,188,67,-1,67,188,189,-1,67,189,68,-1,68,189,190,-1,191,192,193,-1,193,192,194,-1,193,194,195,-1,195,194,196,-1,195,196,197,-1,197,196,198,-1,199,200,201,-1,201,200,202,-1,201,202,203,-1,203,202,204,-1,203,204,205,-1,205,204,206,-1,207,208,209,-1,209,208,210,-1,209,210,211,-1,211,210,212,-1,211,212,213,-1,213,212,214,-1,215,216,217,-1,217,216,218,-1,217,218,219,-1,219,218,220,-1,219,220,221,-1,221,220,222,-1,223,224,225,-1,225,224,226,-1,225,226,227,-1,227,226,228,-1,227,228,229,-1,229,228,230,-1,231,232,233,-1,233,232,234,-1,233,234,235,-1,235,234,236,-1,235,236,237,-1,237,236,238,-1,239,240,241,-1,242,243,244,-1,245,246,244,-1,244,246,239,-1,244,239,242,-1,242,239,241,-1,247,248,246,-1,246,248,239,-1,245,244,249,-1,249,244,250,-1,251,252,253,-1,253,252,254,-1,252,255,254,-1,254,255,256,-1,243,242,257,-1,258,259,260,-1,261,262,263,-1,264,265,266,-1,260,264,258,-1,258,264,266,-1,258,266,263,-1,263,266,243,-1,263,243,261,-1,261,243,257,-1,267,268,269,-1,260,259,269,-1,269,259,270,-1,269,270,267,-1,271,272,273,-1,274,275,241,-1,241,275,242,-1,275,271,242,-1,242,271,273,-1,242,273,257,-1,257,273,276,-1,257,276,277,-1,277,276,278,-1,277,278,279,-1,279,278,280,-1,279,280,281,-1,281,280,282,-1,281,282,283,-1,283,282,284,-1,283,284,285,-1,285,284,286,-1,285,286,241,-1,241,286,287,-1,241,287,274,-1,229,230,279,-1,279,281,238,-1,238,281,288,-1,221,222,279,-1,289,290,291,-1,291,290,232,-1,291,232,292,-1,292,232,293,-1,293,232,231,-1,293,231,288,-1,288,231,237,-1,288,237,238,-1,294,295,238,-1,238,295,224,-1,238,224,279,-1,279,224,223,-1,279,223,229,-1,296,297,222,-1,222,297,208,-1,222,208,279,-1,214,298,299,-1,300,301,230,-1,230,301,216,-1,230,216,279,-1,279,216,215,-1,279,215,221,-1,270,259,198,-1,198,259,258,-1,198,258,197,-1,299,200,214,-1,214,200,255,-1,214,255,213,-1,213,255,279,-1,213,279,207,-1,207,279,208,-1,302,303,206,-1,206,303,192,-1,206,192,258,-1,258,192,191,-1,258,191,197,-1,200,199,255,-1,255,199,205,-1,255,205,256,-1,256,205,206,-1,256,206,304,-1,304,206,258,-1,305,303,306,-1,306,303,302,-1,307,299,308,-1,308,299,298,-1,309,295,310,-1,310,295,294,-1,311,301,312,-1,312,301,300,-1,313,297,314,-1,314,297,296,-1,288,315,293,-1,293,315,316,-1,317,291,318,-1,318,291,292,-1,315,319,316,-1,316,319,320,-1,321,317,322,-1,322,317,318,-1,320,319,323,-1,323,319,324,-1,323,324,325,-1,325,324,326,-1,325,326,322,-1,322,326,321,-1,327,328,329,-1,329,328,290,-1,329,290,330,-1,330,290,289,-1,326,285,241,-1,331,330,289,-1,332,333,331,-1,317,321,326,-1,289,291,331,-1,331,291,317,-1,331,317,332,-1,332,317,326,-1,332,326,240,-1,240,326,241,-1,124,334,125,-1,125,334,335,-1,125,335,78,-1,78,335,76,-1,334,124,92,-1,92,336,334,-1,334,336,88,-1,334,88,337,-1,337,88,0,-1,0,17,337,-1,337,17,160,-1,337,160,164,-1,164,166,337,-1,337,166,66,-1,337,66,65,-1,338,337,65,-1,65,63,338,-1,338,63,73,-1,338,73,72,-1,338,72,339,-1,339,72,71,-1,339,71,340,-1,340,71,70,-1,340,70,341,-1,341,70,69,-1,190,342,68,-1,68,342,341,-1,68,341,69,-1,342,190,189,-1,189,188,342,-1,342,188,187,-1,342,187,186,-1,186,185,342,-1,342,185,184,-1,342,184,343,-1,343,184,183,-1,183,344,343,-1,343,344,182,-1,343,182,178,-1,77,345,85,-1,85,345,343,-1,85,343,178,-1,345,77,346,-1,346,77,75,-1,346,75,347,-1,347,75,74,-1,347,74,335,-1,335,74,76,-1,278,335,280,-1,280,335,334,-1,276,347,278,-1,278,347,335,-1,337,282,334,-1,334,282,280,-1,273,346,276,-1,276,346,347,-1,338,284,337,-1,337,284,282,-1,272,345,273,-1,273,345,346,-1,339,286,338,-1,338,286,284,-1,271,343,272,-1,272,343,345,-1,340,287,339,-1,339,287,286,-1,275,342,271,-1,271,342,343,-1,341,274,340,-1,340,274,287,-1,274,341,275,-1,275,341,342,-1,324,283,326,-1,326,283,285,-1,315,288,319,-1,319,288,281,-1,319,281,324,-1,324,281,283,-1,239,248,240,-1,240,248,332,-1,248,247,332,-1,332,247,333,-1,247,348,333,-1,333,348,331,-1,348,329,331,-1,331,329,330,-1,329,348,327,-1,327,348,247,-1,
        ]
    }
}
Shape{
    appearance Appearance {
        material  Material 	{
            diffuseColor 0.8509803921568627 0.8509803921568627 0.8509803921568627
            specularColor 0.4235294117647059 0.4235294117647059 0.4235294117647059
            ambientIntensity 0.851
            transparency 0.0
            shininess 0.5
        }
    }
    geometry IndexedFaceSet {
        ccw TRUE
        solid FALSE
        coord DEF co Coordinate {
            point [
                -1.437 -0.5441 0.0039, -1.437 -0.5441 0.0, -1.5157 -0.5441 0.0039, -1.5157 -0.5441 0.0, -1.437 -0.9378 0.0, -1.437 -0.9582 0.0027, -1.437 -0.7803 0.4724, -1.437 -1.0165 0.4724, -1.437 -0.7803 0.2402, -1.437 -1.0165 0.0787, -1.437 -1.0139 0.0584, -1.437 -1.006 0.0394, -1.437 -0.9935 0.0231, -1.437 -0.5441 0.2402, -1.437 -0.9772 0.0105, -1.5157 -0.7803 0.4724, -1.5157 -1.0165 0.4724, -1.5157 -1.0165 0.0787, -1.5157 -0.7803 0.2402, -1.5157 -0.9935 0.0231, -1.5157 -1.006 0.0394, -1.5157 -1.0139 0.0584, -1.5157 -0.5441 0.2402, -1.5157 -0.9378 0.0, -1.5157 -0.9582 0.0027, -1.5157 -0.9772 0.0105
            ]
        }
        coordIndex [
            0,1,2,-1,2,1,3,-1,1,0,4,-1,4,0,5,-1,6,7,8,-1,8,7,9,-1,9,10,8,-1,8,10,11,-1,8,11,12,-1,0,13,5,-1,5,13,8,-1,5,8,14,-1,14,8,12,-1,15,16,6,-1,6,16,7,-1,16,15,17,-1,17,15,18,-1,19,20,18,-1,18,20,21,-1,18,21,17,-1,18,22,2,-1,3,23,2,-1,2,23,24,-1,2,24,18,-1,18,24,25,-1,18,25,19,-1,23,3,4,-1,4,3,1,-1,9,7,17,-1,17,7,16,-1,
        ]
    }
}
Shape{
    appearance Appearance {
        material  Material 	{
            diffuseColor 0.8431372549019608 0.8156862745098039 0.7529411764705882
            specularColor 0.25098039215686274 0.24313725490196078 0.22745098039215686
            ambientIntensity 0.8167
            transparency 0.0
            shininess 0.5
        }
    }
    geometry IndexedFaceSet {
        ccw TRUE
        solid FALSE
        coord DEF co Coordinate {
            point [
                -0.1181 0.6567 0.9094, -0.1181 0.6567 0.0039, -0.1181 0.5386 0.9094, -0.1181 0.5386 0.0039, -0.2756 0.5386 0.9094, -0.2756 0.5386 0.0039, -0.2756 0.6567 0.9094, -0.2756 0.6567 0.0039, -0.5118 0.6567 0.9094, -0.5118 0.6567 0.0039, -0.5118 0.5386 0.9094, -0.5118 0.5386 0.0039, -0.6693 0.5386 0.9094, -0.6693 0.5386 0.0039, -0.6693 0.6567 0.9094, -0.6693 0.6567 0.0039, -0.9055 0.6567 0.9094, -0.9055 0.6567 0.0039, -0.9055 0.5386 0.9094, -0.9055 0.5386 0.0039, -1.063 0.5386 0.9094, -1.063 0.5386 0.0039, -1.063 0.6567 0.9094, -1.063 0.6567 0.0039, 0.2756 0.6567 0.9094, 0.2756 0.6567 0.0039, 0.2756 0.5386 0.9094, 0.2756 0.5386 0.0039, 0.1181 0.5386 0.9094, 0.1181 0.5386 0.0039, 0.1181 0.6567 0.9094, 0.1181 0.6567 0.0039, 0.6693 0.6567 0.9094, 0.6693 0.6567 0.0039, 0.6693 0.5386 0.9094, 0.6693 0.5386 0.0039, 0.5118 0.5386 0.9094, 0.5118 0.5386 0.0039, 0.5118 0.6567 0.9094, 0.5118 0.6567 0.0039, 1.063 0.6567 0.9094, 1.063 0.6567 0.0039, 1.063 0.5386 0.9094, 1.063 0.5386 0.0039, 0.9055 0.5386 0.9094, 0.9055 0.5386 0.0039, 0.9055 0.6567 0.9094, 0.9055 0.6567 0.0039
            ]
        }
        coordIndex [
            0,1,2,-1,2,1,3,-1,4,5,6,-1,6,5,7,-1,8,9,10,-1,10,9,11,-1,12,13,14,-1,14,13,15,-1,16,17,18,-1,18,17,19,-1,20,21,22,-1,22,21,23,-1,24,25,26,-1,26,25,27,-1,28,29,30,-1,30,29,31,-1,32,33,34,-1,34,33,35,-1,36,37,38,-1,38,37,39,-1,40,41,42,-1,42,41,43,-1,44,45,46,-1,46,45,47,-1,
        ]
    }
}
Shape{
    appearance Appearance {
        material  Material 	{
            diffuseColor 0.8509803921568627 0.8509803921568627 0.8509803921568627
            specularColor 0.4235294117647059 0.4235294117647059 0.4235294117647059
            ambientIntensity 0.851
            transparency 0.0
            shininess 0.5
        }
    }
    geometry IndexedFaceSet {
        ccw TRUE
        solid FALSE
        coord DEF co Coordinate {
            point [
                -1.437 -1.0165 0.0787, -1.5157 -1.0165 0.0787, -1.5157 -1.0139 0.0584, -1.437 -1.0139 0.0584, -1.5157 -1.006 0.0394, -1.437 -1.006 0.0394, -1.5157 -0.9935 0.0231, -1.437 -0.9935 0.0231, -1.5157 -0.9772 0.0105, -1.437 -0.9772 0.0105, -1.5157 -0.9582 0.0027, -1.437 -0.9582 0.0027, -1.5157 -0.9378 0.0, -1.437 -0.9378 0.0
            ]
        }
        coordIndex [
            0,1,2,-1,0,2,3,-1,3,2,4,-1,3,4,5,-1,5,4,6,-1,5,6,7,-1,7,6,8,-1,7,8,9,-1,9,8,10,-1,9,10,11,-1,11,10,12,-1,11,12,13,-1,
        ]
    }
}
Shape{
    appearance Appearance {
        material  Material 	{
            diffuseColor 0.8431372549019608 0.8156862745098039 0.7529411764705882
            specularColor 0.25098039215686274 0.24313725490196078 0.22745098039215686
            ambientIntensity 0.8167
            transparency 0.0
            shininess 0.5
        }
    }
    geometry IndexedFaceSet {
        ccw TRUE
        solid FALSE
        coord DEF co Coordinate {
            point [
                1.378 -1.0165 0.4764, 1.378 -0.7803 0.4764, 1.5748 -1.0165 0.4764, 1.5748 -0.7803 0.4764, 1.5157 -0.7803 0.2402, 1.5748 -0.7803 0.2402, 1.5157 -0.7803 0.4724, 1.437 -0.7803 0.4724, 1.437 -0.7803 0.2402, 1.378 -0.7803 0.2402, 1.5748 -0.5441 0.2402, 1.5157 -0.5441 0.2402, 1.5748 -0.5441 0.0039, 1.5157 -0.5441 0.0039, 1.378 -1.0165 0.0039, 1.378 -0.5441 0.2402, 1.378 -0.5441 0.0039, 1.2598 0.6567 0.6732, 1.2598 0.4205 0.6732, 1.5748 0.6567 0.6732, 1.5748 0.4205 0.6732, 1.2598 0.4205 0.9094, 1.5748 0.4205 0.9094, 1.2598 0.1842 0.9094, 1.5748 0.1842 0.9094, 1.2598 0.1842 1.1457, 1.5748 0.1842 1.1457, 1.2598 0.6567 0.9094
            ]
        }
        coordIndex [
            0,1,2,-1,2,1,3,-1,4,5,6,-1,6,5,3,-1,6,3,7,-1,7,3,1,-1,7,1,8,-1,8,1,9,-1,10,5,11,-1,11,5,4,-1,12,10,13,-1,13,10,11,-1,1,0,9,-1,9,0,14,-1,9,14,15,-1,15,14,16,-1,17,18,19,-1,19,18,20,-1,18,21,20,-1,20,21,22,-1,21,23,22,-1,22,23,24,-1,23,25,24,-1,24,25,26,-1,18,17,21,-1,21,17,27,-1,
        ]
    }
}
Shape{
    appearance Appearance {
        material  Material 	{
            diffuseColor 0.8509803921568627 0.8509803921568627 0.8509803921568627
            specularColor 0.4235294117647059 0.4235294117647059 0.4235294117647059
            ambientIntensity 0.851
            transparency 0.0
            shininess 0.5
        }
    }
    geometry IndexedFaceSet {
        ccw TRUE
        solid FALSE
        coord DEF co Coordinate {
            point [
                1.5157 -0.5441 0.0039, 1.5157 -0.5441 0.0, 1.437 -0.5441 0.0039, 1.437 -0.5441 0.0, 1.437 -1.0165 0.4724, 1.437 -0.7803 0.4724, 1.437 -1.0165 0.0787, 1.437 -0.7803 0.2402, 1.437 -0.9935 0.0231, 1.437 -1.006 0.0394, 1.437 -1.0139 0.0584, 1.437 -0.5441 0.2402, 1.437 -0.9378 0.0, 1.437 -0.9582 0.0027, 1.437 -0.9772 0.0105, 1.5157 -0.9378 0.0, 1.5157 -0.9582 0.0027, 1.5157 -0.7803 0.4724, 1.5157 -1.0165 0.4724, 1.5157 -0.7803 0.2402, 1.5157 -1.0165 0.0787, 1.5157 -1.0139 0.0584, 1.5157 -1.006 0.0394, 1.5157 -0.9935 0.0231, 1.5157 -0.5441 0.2402, 1.5157 -0.9772 0.0105
            ]
        }
        coordIndex [
            0,1,2,-1,2,1,3,-1,4,5,6,-1,6,5,7,-1,8,9,7,-1,7,9,10,-1,7,10,6,-1,7,11,2,-1,3,12,2,-1,2,12,13,-1,2,13,7,-1,7,13,14,-1,7,14,8,-1,12,3,15,-1,15,3,1,-1,1,0,15,-1,15,0,16,-1,17,18,19,-1,19,18,20,-1,20,21,19,-1,19,21,22,-1,19,22,23,-1,0,24,16,-1,16,24,19,-1,16,19,25,-1,25,19,23,-1,5,4,17,-1,17,4,18,-1,20,18,6,-1,6,18,4,-1,20,6,10,-1,20,10,21,-1,21,10,9,-1,21,9,22,-1,22,9,8,-1,22,8,23,-1,23,8,14,-1,23,14,25,-1,25,14,13,-1,25,13,16,-1,16,13,12,-1,16,12,15,-1,
        ]
    }
}
Shape{
    appearance Appearance {
        material  Material 	{
            diffuseColor 0.8431372549019608 0.8156862745098039 0.7529411764705882
            specularColor 0.25098039215686274 0.24313725490196078 0.22745098039215686
            ambientIntensity 0.8167
            transparency 0.0
            shininess 0.5
        }
    }
    geometry IndexedFaceSet {
        ccw TRUE
        solid FALSE
        coord DEF co Coordinate {
            point [
                -0.6693 0.5386 0.9094, -0.6693 0.6567 0.9094, -0.9055 0.6567 0.9094, 0.5118 0.5386 0.9094, 0.5118 0.6567 0.9094, 0.2756 0.6567 0.9094, -1.063 0.6567 0.9094, -1.2598 0.6567 0.9094, -1.063 0.5386 0.9094, -1.2598 0.4205 0.9094, -0.9055 0.5386 0.9094, 1.2598 0.4205 0.9094, 0.2756 0.5386 0.9094, 0.1181 0.5386 0.9094, 0.1181 0.6567 0.9094, -0.1181 0.6567 0.9094, -0.1181 0.5386 0.9094, -0.2756 0.5386 0.9094, -0.2756 0.6567 0.9094, -0.5118 0.6567 0.9094, -0.5118 0.5386 0.9094, 1.2598 0.6567 0.9094, 1.063 0.6567 0.9094, 1.063 0.5386 0.9094, 0.9055 0.5386 0.9094, 0.9055 0.6567 0.9094, 0.6693 0.6567 0.9094, 0.6693 0.5386 0.9094, 1.2598 0.4205 1.1457, -1.2598 0.4205 1.1457
            ]
        }
        coordIndex [
            0,1,2,-1,3,4,5,-1,6,7,8,-1,8,7,9,-1,8,9,10,-1,10,9,11,-1,11,12,13,-1,14,15,13,-1,13,15,16,-1,13,16,11,-1,11,16,17,-1,18,19,17,-1,17,19,20,-1,17,20,11,-1,11,20,0,-1,11,0,10,-1,10,0,2,-1,21,22,11,-1,11,22,23,-1,11,23,24,-1,25,26,24,-1,24,26,27,-1,24,27,11,-1,11,27,3,-1,11,3,12,-1,12,3,5,-1,28,11,29,-1,29,11,9,-1,
        ]
    }
}
Shape{
    appearance Appearance {
        material  Material 	{
            diffuseColor 0.8509803921568627 0.8509803921568627 0.8509803921568627
            specularColor 0.4235294117647059 0.4235294117647059 0.4235294117647059
            ambientIntensity 0.851
            transparency 0.0
            shininess 0.5
        }
    }
    geometry IndexedFaceSet {
        ccw TRUE
        solid FALSE
        coord DEF co Coordinate {
            point [
                -1.0236 0.5806 0.8204, -0.9449 0.5806 0.8204, -0.9449 0.5983 0.8187, -1.0236 0.5983 0.8187, -0.9449 0.6152 0.813, -1.0236 0.6152 0.813, -0.9449 0.6304 0.8037, -1.0236 0.6304 0.8037, -0.9449 0.6431 0.7912, -1.0236 0.6431 0.7912, -0.9449 0.6527 0.7762, -1.0236 0.6527 0.7762, -0.9449 0.6586 0.7594, -1.0236 0.6586 0.7594, -0.9449 0.6606 0.7417, -1.0236 0.6606 0.7417, -0.9449 0.6606 0.13, -1.0236 0.6606 0.13, -0.9449 0.7 0.13, -1.0236 0.7 0.13, -0.9449 0.7406 0.0535, -1.0236 0.7406 0.0535, -0.9449 0.9323 0.0197, -1.0236 0.9323 0.0197, -0.9449 0.9323 0.0, -1.0236 0.9323 0.0, -0.9449 0.5386 0.0, -1.0236 0.5386 0.0, -0.9449 0.5386 0.0039, -0.9449 0.5386 0.8197, -1.0236 0.5386 0.0039, -1.0236 0.5386 0.8197, -0.9449 -0.5682 0.801, -0.9449 0.1646 0.8134, -1.0236 -0.5682 0.801, -1.0236 0.1646 0.8134, -1.0236 0.1646 0.6685, -1.0236 -0.5682 0.6809, -1.0236 -0.6262 0.74, -1.0236 -0.5973 0.6892, -1.0236 -0.6093 0.6986, -1.0236 -0.5832 0.6832, -1.0236 -0.6185 0.7107, -1.0236 -0.6242 0.7249, -1.0236 -0.6262 0.742, -1.0236 -0.6242 0.7571, -1.0236 -0.6185 0.7712, -1.0236 -0.6093 0.7834, -1.0236 -0.5973 0.7928, -1.0236 -0.5832 0.7988, -0.9449 -0.5682 0.6809, -0.9449 0.1646 0.6685, -0.9449 -0.6242 0.7571, -0.9449 -0.6262 0.742, -0.9449 -0.6262 0.74, -0.9449 -0.5973 0.7928, -0.9449 -0.6093 0.7834, -0.9449 -0.6185 0.7712, -0.9449 -0.6242 0.7249, -0.9449 -0.6185 0.7107, -0.9449 -0.5832 0.6832, -0.9449 -0.6093 0.6986, -0.9449 -0.5973 0.6892, -0.9449 -0.5832 0.7988, -0.6299 0.5806 0.8204, -0.5512 0.5806 0.8204, -0.5512 0.5983 0.8187, -0.6299 0.5983 0.8187, -0.5512 0.6152 0.813, -0.6299 0.6152 0.813, -0.5512 0.6304 0.8037, -0.6299 0.6304 0.8037, -0.5512 0.6431 0.7912, -0.6299 0.6431 0.7912, -0.5512 0.6527 0.7762, -0.6299 0.6527 0.7762, -0.5512 0.6586 0.7594, -0.6299 0.6586 0.7594, -0.5512 0.6606 0.7417, -0.6299 0.6606 0.7417, -0.5512 0.6606 0.13, -0.6299 0.6606 0.13, -0.5512 0.7 0.13, -0.6299 0.7 0.13, -0.5512 0.7406 0.0535, -0.6299 0.7406 0.0535, -0.5512 0.9323 0.0197, -0.6299 0.9323 0.0197, -0.5512 0.9323 0.0, -0.6299 0.9323 0.0, -0.5512 0.5386 0.0, -0.6299 0.5386 0.0, -0.5512 0.5386 0.0039, -0.5512 0.5386 0.8197, -0.6299 0.5386 0.0039, -0.6299 0.5386 0.8197, -0.5512 -0.5682 0.801, -0.5512 0.1646 0.8134, -0.6299 -0.5682 0.801, -0.6299 0.1646 0.8134, -0.6299 0.1646 0.6685, -0.6299 -0.5682 0.6809, -0.6299 -0.6262 0.74, -0.6299 -0.5973 0.6892, -0.6299 -0.6093 0.6986, -0.6299 -0.5832 0.6832, -0.6299 -0.6185 0.7107, -0.6299 -0.6242 0.7249, -0.6299 -0.6262 0.742, -0.6299 -0.6242 0.7571, -0.6299 -0.6185 0.7712, -0.6299 -0.6093 0.7834, -0.6299 -0.5973 0.7928, -0.6299 -0.5832 0.7988, -0.5512 -0.5682 0.6809, -0.5512 0.1646 0.6685, -0.5512 -0.6242 0.7571, -0.5512 -0.6262 0.742, -0.5512 -0.6262 0.74, -0.5512 -0.5973 0.7928, -0.5512 -0.6093 0.7834, -0.5512 -0.6185 0.7712, -0.5512 -0.6242 0.7249, -0.5512 -0.6185 0.7107, -0.5512 -0.5832 0.6832, -0.5512 -0.6093 0.6986, -0.5512 -0.5973 0.6892, -0.5512 -0.5832 0.7988, -0.2362 0.5806 0.8204, -0.1575 0.5806 0.8204, -0.1575 0.5983 0.8187, -0.2362 0.5983 0.8187, -0.1575 0.6152 0.813, -0.2362 0.6152 0.813, -0.1575 0.6304 0.8037, -0.2362 0.6304 0.8037, -0.1575 0.6431 0.7912, -0.2362 0.6431 0.7912, -0.1575 0.6527 0.7762, -0.2362 0.6527 0.7762, -0.1575 0.6586 0.7594, -0.2362 0.6586 0.7594, -0.1575 0.6606 0.7417, -0.2362 0.6606 0.7417, -0.1575 0.6606 0.13, -0.2362 0.6606 0.13, -0.1575 0.7 0.13, -0.2362 0.7 0.13, -0.1575 0.7406 0.0535, -0.2362 0.7406 0.0535, -0.1575 0.9323 0.0197, -0.2362 0.9323 0.0197, -0.1575 0.9323 0.0, -0.2362 0.9323 0.0, -0.1575 0.5386 0.0, -0.2362 0.5386 0.0, -0.1575 0.5386 0.0039, -0.1575 0.5386 0.8197, -0.2362 0.5386 0.0039, -0.2362 0.5386 0.8197, -0.2362 0.1646 0.8134, -0.2362 -0.5682 0.801, -0.2341 0.1646 0.8134, -0.1575 -0.5682 0.801, -0.1664 0.1646 0.8134, -0.1575 0.1646 0.8134, -0.2362 0.1646 0.6685, -0.2362 -0.5682 0.6809, -0.2362 -0.6262 0.74, -0.2362 -0.5973 0.6892, -0.2362 -0.6093 0.6986, -0.2362 -0.5832 0.6832, -0.2362 -0.6185 0.7107, -0.2362 -0.6242 0.7249, -0.2362 -0.6262 0.742, -0.2362 -0.6242 0.7571, -0.2362 -0.6185 0.7712, -0.2362 -0.6093 0.7834, -0.2362 -0.5973 0.7928, -0.2362 -0.5832 0.7988, -0.1575 -0.5682 0.6809, -0.1575 0.1646 0.6685, -0.1575 -0.6242 0.7571, -0.1575 -0.6262 0.742, -0.1575 -0.6262 0.74, -0.1575 -0.5973 0.7928, -0.1575 -0.6093 0.7834, -0.1575 -0.6185 0.7712, -0.1575 -0.6242 0.7249, -0.1575 -0.6185 0.7107, -0.1575 -0.5832 0.6832, -0.1575 -0.6093 0.6986, -0.1575 -0.5973 0.6892, -0.1575 -0.5832 0.7988, -0.2341 0.1646 0.6685, -0.1664 0.1646 0.6685, 0.1575 0.5806 0.8204, 0.2362 0.5806 0.8204, 0.2362 0.5983 0.8187, 0.1575 0.5983 0.8187, 0.2362 0.6152 0.813, 0.1575 0.6152 0.813, 0.2362 0.6304 0.8037, 0.1575 0.6304 0.8037, 0.2362 0.6431 0.7912, 0.1575 0.6431 0.7912, 0.2362 0.6527 0.7762, 0.1575 0.6527 0.7762, 0.2362 0.6586 0.7594, 0.1575 0.6586 0.7594, 0.2362 0.6606 0.7417, 0.1575 0.6606 0.7417, 0.2362 0.6606 0.13, 0.1575 0.6606 0.13, 0.2362 0.7 0.13, 0.1575 0.7 0.13, 0.2362 0.7406 0.0535, 0.1575 0.7406 0.0535, 0.2362 0.9323 0.0197, 0.1575 0.9323 0.0197, 0.2362 0.9323 0.0, 0.1575 0.9323 0.0, 0.2362 0.5386 0.0, 0.1575 0.5386 0.0, 0.2362 0.5386 0.0039, 0.2362 0.5386 0.8197, 0.1575 0.5386 0.0039, 0.1575 0.5386 0.8197, 0.2362 -0.5682 0.801, 0.2362 0.1646 0.8134, 0.1575 -0.5682 0.801, 0.1575 0.1646 0.8134, 0.1575 0.1646 0.6685, 0.1575 -0.5682 0.6809, 0.1575 -0.6262 0.74, 0.1575 -0.5973 0.6892, 0.1575 -0.6093 0.6986, 0.1575 -0.5832 0.6832, 0.1575 -0.6185 0.7107, 0.1575 -0.6242 0.7249, 0.1575 -0.6262 0.742, 0.1575 -0.6242 0.7571, 0.1575 -0.6185 0.7712, 0.1575 -0.6093 0.7834, 0.1575 -0.5973 0.7928, 0.1575 -0.5832 0.7988, 0.2362 -0.5682 0.6809, 0.2362 0.1646 0.6685, 0.2362 -0.6242 0.7571, 0.2362 -0.6262 0.742, 0.2362 -0.6262 0.74, 0.2362 -0.5973 0.7928, 0.2362 -0.6093 0.7834, 0.2362 -0.6185 0.7712, 0.2362 -0.6242 0.7249, 0.2362 -0.6185 0.7107, 0.2362 -0.5832 0.6832, 0.2362 -0.6093 0.6986, 0.2362 -0.5973 0.6892, 0.2362 -0.5832 0.7988, 0.5512 0.5806 0.8204, 0.6299 0.5806 0.8204, 0.6299 0.5983 0.8187, 0.5512 0.5983 0.8187, 0.6299 0.6152 0.813, 0.5512 0.6152 0.813, 0.6299 0.6304 0.8037, 0.5512 0.6304 0.8037, 0.6299 0.6431 0.7912, 0.5512 0.6431 0.7912, 0.6299 0.6527 0.7762, 0.5512 0.6527 0.7762, 0.6299 0.6586 0.7594, 0.5512 0.6586 0.7594, 0.6299 0.6606 0.7417, 0.5512 0.6606 0.7417, 0.6299 0.6606 0.13, 0.5512 0.6606 0.13, 0.6299 0.7 0.13, 0.5512 0.7 0.13, 0.6299 0.7406 0.0535, 0.5512 0.7406 0.0535, 0.6299 0.9323 0.0197, 0.5512 0.9323 0.0197, 0.6299 0.9323 0.0, 0.5512 0.9323 0.0, 0.6299 0.5386 0.0, 0.5512 0.5386 0.0, 0.6299 0.5386 0.0039, 0.6299 0.5386 0.8197, 0.5512 0.5386 0.0039, 0.5512 0.5386 0.8197, 0.6299 -0.5682 0.801, 0.6299 0.1646 0.8134, 0.5512 -0.5682 0.801, 0.5512 0.1646 0.8134, 0.5512 0.1646 0.6685, 0.5512 -0.5682 0.6809, 0.5512 -0.6262 0.74, 0.5512 -0.5973 0.6892, 0.5512 -0.6093 0.6986, 0.5512 -0.5832 0.6832, 0.5512 -0.6185 0.7107, 0.5512 -0.6242 0.7249, 0.5512 -0.6262 0.742, 0.5512 -0.6242 0.7571, 0.5512 -0.6185 0.7712, 0.5512 -0.6093 0.7834, 0.5512 -0.5973 0.7928, 0.5512 -0.5832 0.7988, 0.6299 -0.5682 0.6809, 0.6299 0.1646 0.6685, 0.6299 -0.6242 0.7571, 0.6299 -0.6262 0.742, 0.6299 -0.6262 0.74, 0.6299 -0.5973 0.7928, 0.6299 -0.6093 0.7834, 0.6299 -0.6185 0.7712, 0.6299 -0.6242 0.7249, 0.6299 -0.6185 0.7107, 0.6299 -0.5832 0.6832, 0.6299 -0.6093 0.6986, 0.6299 -0.5973 0.6892, 0.6299 -0.5832 0.7988, 0.9449 0.5806 0.8204, 1.0236 0.5806 0.8204, 1.0236 0.5983 0.8187, 0.9449 0.5983 0.8187, 1.0236 0.6152 0.813, 0.9449 0.6152 0.813, 1.0236 0.6304 0.8037, 0.9449 0.6304 0.8037, 1.0236 0.6431 0.7912, 0.9449 0.6431 0.7912, 1.0236 0.6527 0.7762, 0.9449 0.6527 0.7762, 1.0236 0.6586 0.7594, 0.9449 0.6586 0.7594, 1.0236 0.6606 0.7417, 0.9449 0.6606 0.7417, 1.0236 0.6606 0.13, 0.9449 0.6606 0.13, 1.0236 0.7 0.13, 0.9449 0.7 0.13, 1.0236 0.7406 0.0535, 0.9449 0.7406 0.0535, 1.0236 0.9323 0.0197, 0.9449 0.9323 0.0197, 1.0236 0.9323 0.0, 0.9449 0.9323 0.0, 1.0236 0.5386 0.0, 0.9449 0.5386 0.0, 1.0236 0.5386 0.0039, 1.0236 0.5386 0.8197, 0.9449 0.5386 0.0039, 0.9449 0.5386 0.8197, 1.0236 -0.5682 0.801, 1.0236 0.1646 0.8134, 0.9449 -0.5682 0.801, 0.9449 0.1646 0.8134, 0.9449 0.1646 0.6685, 0.9449 -0.5682 0.6809, 0.9449 -0.6262 0.74, 0.9449 -0.5973 0.6892, 0.9449 -0.6093 0.6986, 0.9449 -0.5832 0.6832, 0.9449 -0.6185 0.7107, 0.9449 -0.6242 0.7249, 0.9449 -0.6262 0.742, 0.9449 -0.6242 0.7571, 0.9449 -0.6185 0.7712, 0.9449 -0.6093 0.7834, 0.9449 -0.5973 0.7928, 0.9449 -0.5832 0.7988, 1.0236 -0.5682 0.6809, 1.0236 0.1646 0.6685, 1.0236 -0.6242 0.7571, 1.0236 -0.6262 0.742, 1.0236 -0.6262 0.74, 1.0236 -0.5973 0.7928, 1.0236 -0.6093 0.7834, 1.0236 -0.6185 0.7712, 1.0236 -0.6242 0.7249, 1.0236 -0.6185 0.7107, 1.0236 -0.5832 0.6832, 1.0236 -0.6093 0.6986, 1.0236 -0.5973 0.6892, 1.0236 -0.5832 0.7988
            ]
        }
        coordIndex [
            0,1,2,-1,0,2,3,-1,3,2,4,-1,3,4,5,-1,5,4,6,-1,5,6,7,-1,7,6,8,-1,7,8,9,-1,9,8,10,-1,9,10,11,-1,11,10,12,-1,11,12,13,-1,13,12,14,-1,13,14,15,-1,16,17,14,-1,14,17,15,-1,18,19,16,-1,16,19,17,-1,20,21,18,-1,18,21,19,-1,22,23,20,-1,20,23,21,-1,24,25,22,-1,22,25,23,-1,26,27,24,-1,24,27,25,-1,20,18,16,-1,24,22,26,-1,26,22,20,-1,26,20,28,-1,28,20,16,-1,28,16,29,-1,29,16,14,-1,29,14,1,-1,1,14,2,-1,10,8,6,-1,14,12,2,-1,2,12,10,-1,2,10,4,-1,4,10,6,-1,21,23,25,-1,17,30,15,-1,15,30,31,-1,31,0,15,-1,15,0,3,-1,15,3,13,-1,17,19,30,-1,30,19,21,-1,30,21,27,-1,27,21,25,-1,7,9,11,-1,13,3,11,-1,11,3,5,-1,11,5,7,-1,29,1,31,-1,31,1,0,-1,27,26,30,-1,30,26,28,-1,32,33,34,-1,34,33,35,-1,36,37,38,-1,39,40,41,-1,41,40,42,-1,41,42,37,-1,37,42,43,-1,37,43,38,-1,36,38,35,-1,35,38,44,-1,35,44,34,-1,34,44,45,-1,34,45,46,-1,47,48,46,-1,46,48,49,-1,46,49,34,-1,50,51,33,-1,52,53,32,-1,32,53,33,-1,33,53,54,-1,33,54,50,-1,55,56,57,-1,54,58,50,-1,50,58,59,-1,50,59,60,-1,60,59,61,-1,60,61,62,-1,52,32,57,-1,57,32,63,-1,57,63,55,-1,37,36,50,-1,50,36,51,-1,54,53,38,-1,38,53,44,-1,37,50,60,-1,37,60,41,-1,41,60,62,-1,41,62,39,-1,39,62,61,-1,39,61,40,-1,40,61,59,-1,40,59,42,-1,42,59,58,-1,42,58,43,-1,43,58,54,-1,43,54,38,-1,44,53,52,-1,44,52,45,-1,45,52,57,-1,45,57,46,-1,46,57,56,-1,46,56,47,-1,47,56,55,-1,47,55,48,-1,48,55,63,-1,48,63,49,-1,49,63,32,-1,49,32,34,-1,64,65,66,-1,64,66,67,-1,67,66,68,-1,67,68,69,-1,69,68,70,-1,69,70,71,-1,71,70,72,-1,71,72,73,-1,73,72,74,-1,73,74,75,-1,75,74,76,-1,75,76,77,-1,77,76,78,-1,77,78,79,-1,80,81,78,-1,78,81,79,-1,82,83,80,-1,80,83,81,-1,84,85,82,-1,82,85,83,-1,86,87,84,-1,84,87,85,-1,88,89,86,-1,86,89,87,-1,90,91,88,-1,88,91,89,-1,84,82,80,-1,88,86,90,-1,90,86,84,-1,90,84,92,-1,92,84,80,-1,92,80,93,-1,93,80,78,-1,93,78,65,-1,65,78,66,-1,74,72,70,-1,78,76,66,-1,66,76,74,-1,66,74,68,-1,68,74,70,-1,85,87,89,-1,81,94,79,-1,79,94,95,-1,95,64,79,-1,79,64,67,-1,79,67,77,-1,81,83,94,-1,94,83,85,-1,94,85,91,-1,91,85,89,-1,71,73,75,-1,77,67,75,-1,75,67,69,-1,75,69,71,-1,93,65,95,-1,95,65,64,-1,91,90,94,-1,94,90,92,-1,96,97,98,-1,98,97,99,-1,100,101,102,-1,103,104,105,-1,105,104,106,-1,105,106,101,-1,101,106,107,-1,101,107,102,-1,100,102,99,-1,99,102,108,-1,99,108,98,-1,98,108,109,-1,98,109,110,-1,111,112,110,-1,110,112,113,-1,110,113,98,-1,114,115,97,-1,116,117,96,-1,96,117,97,-1,97,117,118,-1,97,118,114,-1,119,120,121,-1,118,122,114,-1,114,122,123,-1,114,123,124,-1,124,123,125,-1,124,125,126,-1,116,96,121,-1,121,96,127,-1,121,127,119,-1,101,100,114,-1,114,100,115,-1,118,117,102,-1,102,117,108,-1,128,129,130,-1,128,130,131,-1,131,130,132,-1,131,132,133,-1,133,132,134,-1,133,134,135,-1,135,134,136,-1,135,136,137,-1,137,136,138,-1,137,138,139,-1,139,138,140,-1,139,140,141,-1,141,140,142,-1,141,142,143,-1,144,145,142,-1,142,145,143,-1,146,147,144,-1,144,147,145,-1,148,149,146,-1,146,149,147,-1,150,151,148,-1,148,151,149,-1,152,153,150,-1,150,153,151,-1,154,155,152,-1,152,155,153,-1,148,146,144,-1,152,150,154,-1,154,150,148,-1,154,148,156,-1,156,148,144,-1,156,144,157,-1,157,144,142,-1,157,142,129,-1,129,142,130,-1,138,136,134,-1,142,140,130,-1,130,140,138,-1,130,138,132,-1,132,138,134,-1,149,151,153,-1,145,158,143,-1,143,158,159,-1,159,128,143,-1,143,128,131,-1,143,131,141,-1,145,147,158,-1,158,147,149,-1,158,149,155,-1,155,149,153,-1,135,137,139,-1,141,131,139,-1,139,131,133,-1,139,133,135,-1,157,129,159,-1,159,129,128,-1,155,154,158,-1,158,154,156,-1,160,161,162,-1,162,161,163,-1,162,163,164,-1,164,163,165,-1,166,167,168,-1,169,170,171,-1,171,170,172,-1,171,172,167,-1,167,172,173,-1,167,173,168,-1,166,168,160,-1,160,168,174,-1,160,174,161,-1,161,174,175,-1,161,175,176,-1,177,178,176,-1,176,178,179,-1,176,179,161,-1,180,181,165,-1,182,183,163,-1,163,183,165,-1,165,183,184,-1,165,184,180,-1,185,186,187,-1,184,188,180,-1,180,188,189,-1,180,189,190,-1,190,189,191,-1,190,191,192,-1,182,163,187,-1,187,163,193,-1,187,193,185,-1,180,167,166,-1,166,194,180,-1,180,194,195,-1,180,195,181,-1,184,183,168,-1,168,183,174,-1,196,197,198,-1,196,198,199,-1,199,198,200,-1,199,200,201,-1,201,200,202,-1,201,202,203,-1,203,202,204,-1,203,204,205,-1,205,204,206,-1,205,206,207,-1,207,206,208,-1,207,208,209,-1,209,208,210,-1,209,210,211,-1,212,213,210,-1,210,213,211,-1,214,215,212,-1,212,215,213,-1,216,217,214,-1,214,217,215,-1,218,219,216,-1,216,219,217,-1,220,221,218,-1,218,221,219,-1,222,223,220,-1,220,223,221,-1,216,214,212,-1,220,218,222,-1,222,218,216,-1,222,216,224,-1,224,216,212,-1,224,212,225,-1,225,212,210,-1,225,210,197,-1,197,210,198,-1,206,204,202,-1,210,208,198,-1,198,208,206,-1,198,206,200,-1,200,206,202,-1,217,219,221,-1,213,226,211,-1,211,226,227,-1,227,196,211,-1,211,196,199,-1,211,199,209,-1,213,215,226,-1,226,215,217,-1,226,217,223,-1,223,217,221,-1,203,205,207,-1,209,199,207,-1,207,199,201,-1,207,201,203,-1,225,197,227,-1,227,197,196,-1,223,222,226,-1,226,222,224,-1,228,229,230,-1,230,229,231,-1,232,233,234,-1,235,236,237,-1,237,236,238,-1,237,238,233,-1,233,238,239,-1,233,239,234,-1,232,234,231,-1,231,234,240,-1,231,240,230,-1,230,240,241,-1,230,241,242,-1,243,244,242,-1,242,244,245,-1,242,245,230,-1,246,247,229,-1,248,249,228,-1,228,249,229,-1,229,249,250,-1,229,250,246,-1,251,252,253,-1,250,254,246,-1,246,254,255,-1,246,255,256,-1,256,255,257,-1,256,257,258,-1,248,228,253,-1,253,228,259,-1,253,259,251,-1,233,232,246,-1,246,232,247,-1,250,249,234,-1,234,249,240,-1,260,261,262,-1,260,262,263,-1,263,262,264,-1,263,264,265,-1,265,264,266,-1,265,266,267,-1,267,266,268,-1,267,268,269,-1,269,268,270,-1,269,270,271,-1,271,270,272,-1,271,272,273,-1,273,272,274,-1,273,274,275,-1,276,277,274,-1,274,277,275,-1,278,279,276,-1,276,279,277,-1,280,281,278,-1,278,281,279,-1,282,283,280,-1,280,283,281,-1,284,285,282,-1,282,285,283,-1,286,287,284,-1,284,287,285,-1,280,278,276,-1,284,282,286,-1,286,282,280,-1,286,280,288,-1,288,280,276,-1,288,276,289,-1,289,276,274,-1,289,274,261,-1,261,274,262,-1,270,268,266,-1,274,272,262,-1,262,272,270,-1,262,270,264,-1,264,270,266,-1,281,283,285,-1,277,290,275,-1,275,290,291,-1,291,260,275,-1,275,260,263,-1,275,263,273,-1,277,279,290,-1,290,279,281,-1,290,281,287,-1,287,281,285,-1,267,269,271,-1,273,263,271,-1,271,263,265,-1,271,265,267,-1,289,261,291,-1,291,261,260,-1,287,286,290,-1,290,286,288,-1,292,293,294,-1,294,293,295,-1,296,297,298,-1,299,300,301,-1,301,300,302,-1,301,302,297,-1,297,302,303,-1,297,303,298,-1,296,298,295,-1,295,298,304,-1,295,304,294,-1,294,304,305,-1,294,305,306,-1,307,308,306,-1,306,308,309,-1,306,309,294,-1,310,311,293,-1,312,313,292,-1,292,313,293,-1,293,313,314,-1,293,314,310,-1,315,316,317,-1,314,318,310,-1,310,318,319,-1,310,319,320,-1,320,319,321,-1,320,321,322,-1,312,292,317,-1,317,292,323,-1,317,323,315,-1,297,296,310,-1,310,296,311,-1,314,313,298,-1,298,313,304,-1,324,325,326,-1,324,326,327,-1,327,326,328,-1,327,328,329,-1,329,328,330,-1,329,330,331,-1,331,330,332,-1,331,332,333,-1,333,332,334,-1,333,334,335,-1,335,334,336,-1,335,336,337,-1,337,336,338,-1,337,338,339,-1,340,341,338,-1,338,341,339,-1,342,343,340,-1,340,343,341,-1,344,345,342,-1,342,345,343,-1,346,347,344,-1,344,347,345,-1,348,349,346,-1,346,349,347,-1,350,351,348,-1,348,351,349,-1,344,342,340,-1,348,346,350,-1,350,346,344,-1,350,344,352,-1,352,344,340,-1,352,340,353,-1,353,340,338,-1,353,338,325,-1,325,338,326,-1,334,332,330,-1,338,336,326,-1,326,336,334,-1,326,334,328,-1,328,334,330,-1,345,347,349,-1,341,354,339,-1,339,354,355,-1,355,324,339,-1,339,324,327,-1,339,327,337,-1,341,343,354,-1,354,343,345,-1,354,345,351,-1,351,345,349,-1,331,333,335,-1,337,327,335,-1,335,327,329,-1,335,329,331,-1,353,325,355,-1,355,325,324,-1,351,350,354,-1,354,350,352,-1,356,357,358,-1,358,357,359,-1,360,361,362,-1,363,364,365,-1,365,364,366,-1,365,366,361,-1,361,366,367,-1,361,367,362,-1,360,362,359,-1,359,362,368,-1,359,368,358,-1,358,368,369,-1,358,369,370,-1,371,372,370,-1,370,372,373,-1,370,373,358,-1,374,375,357,-1,376,377,356,-1,356,377,357,-1,357,377,378,-1,357,378,374,-1,379,380,381,-1,378,382,374,-1,374,382,383,-1,374,383,384,-1,384,383,385,-1,384,385,386,-1,376,356,381,-1,381,356,387,-1,381,387,379,-1,361,360,374,-1,374,360,375,-1,378,377,362,-1,362,377,368,-1,101,114,124,-1,101,124,105,-1,105,124,126,-1,105,126,103,-1,103,126,125,-1,103,125,104,-1,104,125,123,-1,104,123,106,-1,106,123,122,-1,106,122,107,-1,107,122,118,-1,107,118,102,-1,108,117,116,-1,108,116,109,-1,109,116,121,-1,109,121,110,-1,110,121,120,-1,110,120,111,-1,111,120,119,-1,111,119,112,-1,112,119,127,-1,112,127,113,-1,113,127,96,-1,113,96,98,-1,167,180,190,-1,167,190,171,-1,171,190,192,-1,171,192,169,-1,169,192,191,-1,169,191,170,-1,170,191,189,-1,170,189,172,-1,172,189,188,-1,172,188,173,-1,173,188,184,-1,173,184,168,-1,174,183,182,-1,174,182,175,-1,175,182,187,-1,175,187,176,-1,176,187,186,-1,176,186,177,-1,177,186,185,-1,177,185,178,-1,178,185,193,-1,178,193,179,-1,179,193,163,-1,179,163,161,-1,233,246,256,-1,233,256,237,-1,237,256,258,-1,237,258,235,-1,235,258,257,-1,235,257,236,-1,236,257,255,-1,236,255,238,-1,238,255,254,-1,238,254,239,-1,239,254,250,-1,239,250,234,-1,240,249,248,-1,240,248,241,-1,241,248,253,-1,241,253,242,-1,242,253,252,-1,242,252,243,-1,243,252,251,-1,243,251,244,-1,244,251,259,-1,244,259,245,-1,245,259,228,-1,245,228,230,-1,297,310,320,-1,297,320,301,-1,301,320,322,-1,301,322,299,-1,299,322,321,-1,299,321,300,-1,300,321,319,-1,300,319,302,-1,302,319,318,-1,302,318,303,-1,303,318,314,-1,303,314,298,-1,304,313,312,-1,304,312,305,-1,305,312,317,-1,305,317,306,-1,306,317,316,-1,306,316,307,-1,307,316,315,-1,307,315,308,-1,308,315,323,-1,308,323,309,-1,309,323,292,-1,309,292,294,-1,361,374,384,-1,361,384,365,-1,365,384,386,-1,365,386,363,-1,363,386,385,-1,363,385,364,-1,364,385,383,-1,364,383,366,-1,366,383,382,-1,366,382,367,-1,367,382,378,-1,367,378,362,-1,368,377,376,-1,368,376,369,-1,369,376,381,-1,369,381,370,-1,370,381,380,-1,370,380,371,-1,371,380,379,-1,371,379,372,-1,372,379,387,-1,372,387,373,-1,373,387,356,-1,373,356,358,-1,
        ]
    }
}
Shape{
    appearance Appearance {
        material  Material 	{
            diffuseColor 0.4392156862745098 0.4392156862745098 0.4392156862745098
            specularColor 0.2196078431372549 0.2196078431372549 0.2196078431372549
            ambientIntensity 0.4392
            transparency 0.0
            shininess 0.5
        }
    }
    geometry IndexedFaceSet {
        ccw TRUE
        solid FALSE
        coord DEF co Coordinate {
            point [
                0.2002 0.1646 0.5393, 0.2002 0.1685 0.5393, 0.2413 0.1646 0.4341, 0.2463 0.1685 0.4211, 0.2463 0.1646 0.4211, 0.229 0.1685 0.4211, 0.229 0.1646 0.4211, 0.2413 0.1646 0.4211, 0.2171 0.1685 0.4543, 0.2171 0.1646 0.4543, 0.1683 0.1685 0.4543, 0.1683 0.1646 0.4543, 0.157 0.1685 0.4211, 0.157 0.1646 0.4211, 0.1397 0.1685 0.4211, 0.1397 0.1646 0.4211, 0.1486 0.1646 0.4211, 0.1486 0.1646 0.4446, 0.1844 0.1685 0.5393, 0.1844 0.1646 0.5393, 0.1723 0.1685 0.4672, 0.1899 0.1685 0.5166, 0.191 0.1685 0.5207, 0.1918 0.1685 0.5249, 0.1922 0.1685 0.5249, 0.1929 0.1685 0.5207, 0.2118 0.1685 0.4672, 0.194 0.1685 0.5166, 0.1723 0.1646 0.4672, 0.2118 0.1646 0.4672, 0.1899 0.1646 0.5166, 0.191 0.1646 0.5207, 0.1918 0.1646 0.5249, 0.1922 0.1646 0.5249, 0.1929 0.1646 0.5207, 0.194 0.1646 0.5166, 0.0681 0.1685 0.4211, 0.036 0.1685 0.4211, 0.0681 0.1646 0.4211, 0.036 0.1646 0.4211, 0.036 0.1685 0.5393, 0.036 0.1646 0.5393, 0.0693 0.1685 0.5393, 0.0693 0.1646 0.5393, 0.1311 0.1685 0.4817, 0.1311 0.1646 0.4817, 0.1302 0.1646 0.4928, 0.1302 0.1685 0.4928, 0.127 0.1646 0.5044, 0.127 0.1685 0.5044, 0.1216 0.1646 0.5146, 0.1216 0.1685 0.5146, 0.1132 0.1646 0.5239, 0.1132 0.1685 0.5239, 0.1131 0.1646 0.524, 0.1131 0.1685 0.524, 0.1002 0.1646 0.5326, 0.1002 0.1685 0.5326, 0.0864 0.1646 0.5374, 0.0864 0.1685 0.5374, 0.0827 0.1646 0.4224, 0.0827 0.1685 0.4224, 0.0963 0.1646 0.4265, 0.0963 0.1685 0.4265, 0.1087 0.1646 0.4336, 0.1087 0.1685 0.4336, 0.1184 0.1646 0.443, 0.1184 0.1685 0.443, 0.1252 0.1646 0.4535, 0.1252 0.1685 0.4535, 0.1294 0.1646 0.4659, 0.1294 0.1685 0.4659, 0.1074 0.1685 0.5097, 0.1016 0.1685 0.5158, 0.093 0.1685 0.5214, 0.0833 0.1685 0.5248, 0.0693 0.1685 0.5263, 0.0519 0.1685 0.5263, 0.0519 0.1685 0.4341, 0.0686 0.1685 0.4341, 0.0811 0.1685 0.4353, 0.091 0.1685 0.4384, 0.0991 0.1685 0.4432, 0.1057 0.1685 0.4497, 0.1107 0.1685 0.4578, 0.1141 0.1685 0.4689, 0.1152 0.1685 0.4814, 0.1142 0.1685 0.4931, 0.1115 0.1685 0.5024, 0.0693 0.1646 0.5263, 0.0519 0.1646 0.5263, 0.0833 0.1646 0.5248, 0.093 0.1646 0.5214, 0.1016 0.1646 0.5158, 0.1074 0.1646 0.5097, 0.1115 0.1646 0.5024, 0.1142 0.1646 0.4931, 0.1152 0.1646 0.4814, 0.1141 0.1646 0.4689, 0.1107 0.1646 0.4578, 0.1057 0.1646 0.4497, 0.0991 0.1646 0.4432, 0.091 0.1646 0.4384, 0.0811 0.1646 0.4353, 0.0686 0.1646 0.4341, 0.0519 0.1646 0.4341, 0.013 0.1685 0.4341, 0.013 0.1685 0.4211, 0.013 0.1646 0.4341, 0.013 0.1646 0.4211, -0.0504 0.1685 0.4211, -0.0504 0.1646 0.4211, -0.0504 0.1685 0.5393, -0.0504 0.1646 0.5393, 0.0101 0.1685 0.5393, 0.0101 0.1646 0.5393, 0.0101 0.1685 0.5263, 0.0101 0.1646 0.5263, -0.0346 0.1685 0.5263, -0.0346 0.1646 0.5263, -0.0346 0.1685 0.4874, -0.0346 0.1646 0.4874, 0.0072 0.1685 0.4874, 0.0072 0.1646 0.4874, 0.0072 0.1685 0.4744, 0.0072 0.1646 0.4744, -0.0346 0.1685 0.4744, -0.0346 0.1646 0.4744, -0.0346 0.1685 0.4341, -0.0346 0.1646 0.4341, -0.0735 0.1685 0.4402, -0.0735 0.1685 0.4273, -0.0735 0.1646 0.4402, -0.0735 0.1646 0.4273, -0.106 0.1685 0.4197, -0.106 0.1646 0.4197, -0.1027 0.1646 0.4198, -0.1027 0.1685 0.4198, -0.086 0.1646 0.4221, -0.086 0.1685 0.4221, -0.1613 0.1685 0.478, -0.1613 0.1646 0.478, -0.1602 0.1646 0.4643, -0.1602 0.1685 0.4643, -0.1566 0.1646 0.4518, -0.1566 0.1685 0.4518, -0.1503 0.1646 0.4406, -0.1503 0.1685 0.4406, -0.1415 0.1646 0.4312, -0.1415 0.1685 0.4312, -0.132 0.1646 0.4252, -0.132 0.1685 0.4252, -0.1205 0.1646 0.4212, -0.1205 0.1685 0.4212, -0.1013 0.1685 0.5407, -0.1013 0.1646 0.5407, -0.1131 0.1685 0.5397, -0.1101 0.1646 0.54, -0.1131 0.1646 0.5397, -0.1263 0.1646 0.5359, -0.1263 0.1685 0.5359, -0.1375 0.1646 0.5294, -0.1375 0.1685 0.5294, -0.1482 0.1646 0.5192, -0.1482 0.1685 0.5192, -0.1551 0.1646 0.5081, -0.1551 0.1685 0.5081, -0.1596 0.1646 0.4948, -0.1596 0.1685 0.4948, -0.0908 0.1646 0.54, -0.0871 0.1685 0.5397, -0.0871 0.1646 0.5397, -0.0735 0.1685 0.536, -0.0735 0.1646 0.536, -0.0735 0.1685 0.5202, -0.0735 0.1646 0.5202, -0.1011 0.1685 0.5277, -0.1011 0.1646 0.5277, -0.0868 0.1646 0.5259, -0.0868 0.1685 0.5259, -0.1455 0.1685 0.4789, -0.1455 0.1646 0.4789, -0.1449 0.1646 0.4881, -0.1449 0.1685 0.4881, -0.1418 0.1646 0.5008, -0.1418 0.1685 0.5008, -0.1369 0.1646 0.5099, -0.1369 0.1685 0.5099, -0.1298 0.1646 0.5178, -0.1298 0.1685 0.5178, -0.1216 0.1646 0.5232, -0.1216 0.1685 0.5232, -0.1127 0.1646 0.5264, -0.1127 0.1685 0.5264, -0.1038 0.1685 0.4327, -0.1038 0.1646 0.4327, -0.1148 0.1646 0.4339, -0.1148 0.1685 0.4339, -0.1234 0.1646 0.4371, -0.1234 0.1685 0.4371, -0.1306 0.1646 0.442, -0.1306 0.1685 0.442, -0.1362 0.1646 0.4478, -0.1362 0.1685 0.4478, -0.1411 0.1646 0.456, -0.1411 0.1685 0.456, -0.1443 0.1646 0.4662, -0.1443 0.1685 0.4662, -0.0756 0.1646 0.4391, -0.0756 0.1685 0.4391, -0.0881 0.1646 0.4344, -0.0881 0.1685 0.4344, -0.1714 0.1685 0.4341, -0.1714 0.1685 0.4211, -0.1714 0.1646 0.4341, -0.1714 0.1646 0.4211, -0.2319 0.1685 0.4211, -0.2319 0.1646 0.4211, -0.2319 0.1685 0.5393, -0.2319 0.1646 0.5393, -0.2161 0.1685 0.5393, -0.2161 0.1646 0.5393, -0.2161 0.1685 0.4341, -0.2161 0.1646 0.4341
            ]
        }
        coordIndex [
            0,1,2,-1,2,1,3,-1,2,3,4,-1,5,6,3,-1,3,6,7,-1,3,7,4,-1,5,8,6,-1,6,8,9,-1,8,10,9,-1,9,10,11,-1,10,12,11,-1,11,12,13,-1,14,15,12,-1,12,15,16,-1,12,16,13,-1,15,14,17,-1,17,14,18,-1,17,18,19,-1,18,1,19,-1,19,1,0,-1,20,21,18,-1,14,12,10,-1,21,22,18,-1,18,22,23,-1,18,23,1,-1,1,23,24,-1,1,24,25,-1,18,14,20,-1,20,14,10,-1,20,10,26,-1,26,10,8,-1,25,27,1,-1,1,27,26,-1,1,26,3,-1,3,26,8,-1,3,8,5,-1,20,26,28,-1,28,26,29,-1,21,20,30,-1,30,20,28,-1,21,30,31,-1,21,31,22,-1,22,31,32,-1,22,32,23,-1,24,23,33,-1,33,23,32,-1,24,33,34,-1,24,34,25,-1,25,34,35,-1,25,35,27,-1,26,27,29,-1,29,27,35,-1,36,37,38,-1,38,37,39,-1,37,40,39,-1,39,40,41,-1,40,42,41,-1,41,42,43,-1,44,45,46,-1,44,46,47,-1,47,46,48,-1,47,48,49,-1,49,48,50,-1,49,50,51,-1,51,50,52,-1,51,52,53,-1,53,52,54,-1,53,54,55,-1,55,54,56,-1,55,56,57,-1,57,56,58,-1,57,58,59,-1,59,58,43,-1,59,43,42,-1,36,38,60,-1,36,60,61,-1,61,60,62,-1,61,62,63,-1,63,62,64,-1,63,64,65,-1,65,64,66,-1,65,66,67,-1,67,66,68,-1,67,68,69,-1,69,68,70,-1,69,70,71,-1,71,70,45,-1,71,45,44,-1,49,51,72,-1,72,51,53,-1,72,53,73,-1,73,53,55,-1,73,55,74,-1,74,55,57,-1,74,57,75,-1,75,57,59,-1,75,59,76,-1,76,59,42,-1,76,42,77,-1,77,42,40,-1,77,40,78,-1,78,40,37,-1,78,37,79,-1,79,37,36,-1,79,36,80,-1,80,36,61,-1,80,61,81,-1,81,61,63,-1,81,63,82,-1,82,63,65,-1,82,65,83,-1,83,65,67,-1,83,67,84,-1,84,67,69,-1,84,69,85,-1,85,69,71,-1,85,71,86,-1,86,71,44,-1,86,44,87,-1,87,44,47,-1,87,47,88,-1,88,47,49,-1,88,49,72,-1,76,77,89,-1,89,77,90,-1,76,89,91,-1,76,91,75,-1,75,91,92,-1,75,92,74,-1,74,92,93,-1,74,93,73,-1,73,93,94,-1,73,94,72,-1,72,94,95,-1,72,95,88,-1,88,95,96,-1,88,96,87,-1,87,96,97,-1,87,97,86,-1,86,97,98,-1,86,98,85,-1,85,98,99,-1,85,99,84,-1,84,99,100,-1,84,100,83,-1,83,100,101,-1,83,101,82,-1,82,101,102,-1,82,102,81,-1,81,102,103,-1,81,103,80,-1,80,103,104,-1,80,104,79,-1,78,79,105,-1,105,79,104,-1,77,78,90,-1,90,78,105,-1,106,107,108,-1,108,107,109,-1,107,110,109,-1,109,110,111,-1,110,112,111,-1,111,112,113,-1,112,114,113,-1,113,114,115,-1,114,116,115,-1,115,116,117,-1,116,118,117,-1,117,118,119,-1,118,120,119,-1,119,120,121,-1,120,122,121,-1,121,122,123,-1,122,124,123,-1,123,124,125,-1,124,126,125,-1,125,126,127,-1,126,128,127,-1,127,128,129,-1,128,106,129,-1,129,106,108,-1,110,107,106,-1,106,128,110,-1,110,128,126,-1,110,126,112,-1,116,114,118,-1,118,114,112,-1,118,112,120,-1,120,112,126,-1,120,126,122,-1,122,126,124,-1,130,131,132,-1,132,131,133,-1,134,135,136,-1,134,136,137,-1,137,136,138,-1,137,138,139,-1,139,138,133,-1,139,133,131,-1,140,141,142,-1,140,142,143,-1,143,142,144,-1,143,144,145,-1,145,144,146,-1,145,146,147,-1,147,146,148,-1,147,148,149,-1,149,148,150,-1,149,150,151,-1,151,150,152,-1,151,152,153,-1,153,152,135,-1,153,135,134,-1,154,155,156,-1,156,155,157,-1,157,158,156,-1,156,158,159,-1,156,159,160,-1,160,159,161,-1,160,161,162,-1,162,161,163,-1,162,163,164,-1,164,163,165,-1,164,165,166,-1,166,165,167,-1,166,167,168,-1,168,167,141,-1,168,141,140,-1,155,154,169,-1,169,154,170,-1,169,170,171,-1,171,170,172,-1,171,172,173,-1,172,174,173,-1,173,174,175,-1,176,177,178,-1,176,178,179,-1,179,178,175,-1,179,175,174,-1,180,181,182,-1,180,182,183,-1,183,182,184,-1,183,184,185,-1,185,184,186,-1,185,186,187,-1,187,186,188,-1,187,188,189,-1,189,188,190,-1,189,190,191,-1,191,190,192,-1,191,192,193,-1,193,192,177,-1,193,177,176,-1,194,195,196,-1,194,196,197,-1,197,196,198,-1,197,198,199,-1,199,198,200,-1,199,200,201,-1,201,200,202,-1,201,202,203,-1,203,202,204,-1,203,204,205,-1,205,204,206,-1,205,206,207,-1,207,206,181,-1,207,181,180,-1,130,132,208,-1,130,208,209,-1,209,208,210,-1,209,210,211,-1,211,210,195,-1,211,195,194,-1,197,134,194,-1,194,134,137,-1,194,137,211,-1,211,137,139,-1,211,139,209,-1,209,139,131,-1,209,131,130,-1,174,172,179,-1,179,172,170,-1,179,170,176,-1,176,170,154,-1,176,154,193,-1,193,154,156,-1,193,156,191,-1,191,156,160,-1,191,160,189,-1,189,160,162,-1,189,162,187,-1,187,162,164,-1,187,164,185,-1,185,164,166,-1,185,166,183,-1,183,166,168,-1,183,168,180,-1,180,168,140,-1,180,140,207,-1,207,140,143,-1,207,143,205,-1,205,143,145,-1,205,145,203,-1,203,145,147,-1,203,147,201,-1,201,147,149,-1,201,149,199,-1,199,149,151,-1,199,151,197,-1,197,151,153,-1,197,153,134,-1,212,213,214,-1,214,213,215,-1,213,216,215,-1,215,216,217,-1,216,218,217,-1,217,218,219,-1,218,220,219,-1,219,220,221,-1,220,222,221,-1,221,222,223,-1,222,212,223,-1,223,212,214,-1,220,218,222,-1,222,218,216,-1,222,216,212,-1,212,216,213,-1,
        ]
    }
}
Shape{
    appearance Appearance {
        material  Material 	{
            diffuseColor 0.8431372549019608 0.8156862745098039 0.7529411764705882
            specularColor 0.25098039215686274 0.24313725490196078 0.22745098039215686
            ambientIntensity 0.8167
            transparency 0.0
            shininess 0.5
        }
    }
    geometry IndexedFaceSet {
        ccw TRUE
        solid FALSE
        coord DEF co Coordinate {
            point [
                0.1723 0.1646 0.4672, 0.2118 0.1646 0.4672, 0.1899 0.1646 0.5166, 0.194 0.1646 0.5166, 0.191 0.1646 0.5207, 0.1929 0.1646 0.5207, 0.1918 0.1646 0.5249, 0.1922 0.1646 0.5249, 0.0519 0.1646 0.5263, 0.0519 0.1646 0.4341, 0.0693 0.1646 0.5263, 0.0686 0.1646 0.4341, 0.0811 0.1646 0.4353, 0.1152 0.1646 0.4814, 0.1142 0.1646 0.4931, 0.1115 0.1646 0.5024, 0.0833 0.1646 0.5248, 0.091 0.1646 0.4384, 0.0991 0.1646 0.4432, 0.1057 0.1646 0.4497, 0.1107 0.1646 0.4578, 0.1141 0.1646 0.4689, 0.1074 0.1646 0.5097, 0.1016 0.1646 0.5158, 0.093 0.1646 0.5214
            ]
        }
        coordIndex [
            0,1,2,-1,2,1,3,-1,2,3,4,-1,4,3,5,-1,4,5,6,-1,6,5,7,-1,8,9,10,-1,10,9,11,-1,10,11,12,-1,13,14,10,-1,10,14,15,-1,10,15,16,-1,12,17,10,-1,10,17,18,-1,10,18,19,-1,19,20,10,-1,10,20,21,-1,10,21,13,-1,22,23,15,-1,15,23,24,-1,15,24,16,-1,
        ]
    }
}