#VRML V2.0 utf8
# 3D model generated by easyeda2kicad.py (https://github.com/uPesy/easyeda2kicad.py)

Shape{
    appearance Appearance {
        material  Material 	{
            diffuseColor 0.25098039215686274 0.25098039215686274 0.25098039215686274
            specularColor 0.07450980392156863 0.07450980392156863 0.07450980392156863
            ambientIntensity 0.251
            transparency 0.0
            shininess 0.5
        }
    }
    geometry IndexedFaceSet {
        ccw TRUE
        solid FALSE
        coord DEF co Coordinate {
            point [
                0.3208 0.3059 0.9055, 0.3208 1.2439 0.9055, 0.0769 1.2439 0.9055, 1.6535 0.3059 0.9055, 1.6535 1.2439 0.9055, 1.0689 1.2439 0.9055, 0.4777 -0.0141 0.9055, 0.461 -0.016 0.9055, 0.5664 -0.016 0.9055, -0.0464 -0.0136 0.9055, -0.0678 -0.016 0.9055, 0.0769 -0.016 0.9055, -0.2667 0.3016 0.9055, -0.2667 0.2929 0.9055, -0.2563 0.2929 0.9055, -0.2667 0.2654 0.9055, -0.2563 -0.016 0.9055, -0.3734 0.2654 0.9055, -0.3734 -0.0134 0.9055, -0.4147 0.2654 0.9055, -0.5214 0.2654 0.9055, -0.4147 -0.0134 0.9055, -0.6938 -0.016 0.9055, -0.6938 0.2929 0.9055, -0.5214 0.2929 0.9055, -0.6938 0.3059 0.9055, -0.5214 0.3016 0.9055, -0.2563 0.3059 0.9055, 0.0209 0.2654 0.9055, 0.0769 0.2929 0.9055, -0.0052 0.2873 0.9055, -0.0167 0.2929 0.9055, 0.0622 0.1432 0.9055, 0.0584 0.1056 0.9055, 0.0451 0.0627 0.9055, 0.0226 0.0262 0.9055, 0.0096 0.0138 0.9055, -0.015 -0.0023 0.9055, 0.0384 0.238 0.9055, 0.0551 0.1951 0.9055, -0.0337 0.3012 0.9055, 0.0769 0.3059 0.9055, -0.0559 0.3059 0.9055, -0.1686 0.2929 0.9055, -0.1673 0.2938 0.9055, -0.0727 0.3094 0.9055, -0.091 0.3102 0.9055, -0.2563 1.2439 0.9055, -0.1294 0.3059 0.9055, -0.1364 0.3051 0.9055, -0.2369 0.2038 0.9055, -0.2206 0.2416 0.9055, -0.1943 0.2757 0.9055, -0.1631 -0.005 0.9055, -0.1867 0.0084 0.9055, -0.2098 0.0296 0.9055, -0.223 0.051 0.9055, -0.239 0.0922 0.9055, -0.2459 0.1432 0.9055, -0.2454 0.153 0.9055, -0.091 -0.0186 0.9055, 0.0769 -0.8439 0.9055, -0.2563 -0.8439 0.9055, -0.1012 -0.0184 0.9055, -0.1242 -0.016 0.9055, -0.1263 -0.0158 0.9055, 0.1019 0.218 0.9055, 0.111 0.2447 0.9055, 0.3033 0.0227 0.9055, 0.3033 -0.0134 0.9055, 0.3208 -0.016 0.9055, 0.0985 0.1845 0.9055, 0.2948 0.1625 0.9055, 0.2833 0.1451 0.9055, 0.2582 0.1222 0.9055, 0.1453 0.2254 0.9055, 0.1404 0.2083 0.9055, 0.1968 0.2602 0.9055, 0.1381 0.1845 0.9055, 0.2 0.2602 0.9055, 0.126 0.2671 0.9055, 0.1341 0.2747 0.9055, 0.1503 0.2851 0.9055, 0.2522 0.2863 0.9055, 0.2688 0.2767 0.9055, 0.3208 0.2929 0.9055, 0.2823 0.2641 0.9055, 0.2923 0.2488 0.9055, 0.0916 -0.0134 0.9055, 0.0939 0.0122 0.9055, 0.1019 0.0416 0.9055, 0.1159 0.0675 0.9055, 0.1359 0.0896 0.9055, 0.1639 0.1088 0.9055, 0.2052 0.1329 0.9055, 0.2286 0.1478 0.9055, 0.2995 0.2289 0.9055, 0.3033 0.2034 0.9055, 0.3013 0.18 0.9055, 0.25 0.1656 0.9055, 0.253 0.1704 0.9055, 0.2591 0.1844 0.9055, 0.219 0.1002 0.9055, 0.1863 0.0813 0.9055, 0.163 0.0659 0.9055, 0.262 0.2052 0.9055, 0.262 0.2054 0.9055, 0.259 0.2226 0.9055, 0.2425 0.2475 0.9055, 0.2322 0.2537 0.9055, 0.2182 0.2582 0.9055, 0.18 0.2577 0.9055, 0.169 0.2533 0.9055, 0.1517 0.2377 0.9055, 0.1597 0.2468 0.9055, 0.2543 0.2338 0.9055, 0.2471 0.2434 0.9055, 0.1468 0.0497 0.9055, 0.1388 0.0367 0.9055, 0.1346 0.0227 0.9055, 0.2052 0.2964 0.9055, 0.1738 0.2929 0.9055, 0.1719 0.2927 0.9055, 0.2294 0.2929 0.9055, 0.2251 0.2942 0.9055, 0.3948 -0.0119 0.9055, 0.3752 -0.0027 0.9055, 0.361 0.0089 0.9055, 0.3509 0.0224 0.9055, 0.3428 0.0407 0.9055, 0.3777 0.064 0.9055, 0.3829 0.1208 0.9055, 0.3381 0.064 0.9055, 0.3502 0.1226 0.9055, 0.3725 0.2895 0.9055, 0.5326 0.2895 0.9055, 0.5664 0.2929 0.9055, 0.5326 0.2516 0.9055, 0.4256 0.1485 0.9055, 0.4095 0.1432 0.9055, 0.396 0.1345 0.9055, 0.4259 0.0122 0.9055, 0.4448 0.0107 0.9055, 0.4414 0.1501 0.9055, 0.4522 0.0116 0.9055, 0.46 0.1475 0.9055, 0.4989 0.0438 0.9055, 0.505 0.0601 0.9055, 0.5085 0.0813 0.9055, 0.5361 0.0278 0.9055, 0.5206 0.009 0.9055, 0.3842 0.0411 0.9055, 0.3909 0.0309 0.9055, 0.5186 0.0072 0.9055, 0.5007 -0.0055 0.9055, 0.379 0.0563 0.9055, 0.3994 0.0229 0.9055, 0.4115 0.0163 0.9055, 0.4697 0.0166 0.9055, 0.4817 0.0234 0.9055, 0.4913 0.0324 0.9055, 0.5068 0.0964 0.9055, 0.5013 0.1142 0.9055, 0.4946 0.1258 0.9055, 0.4018 0.2516 0.9055, 0.3897 0.1673 0.9055, 0.4024 0.1753 0.9055, 0.4855 0.1353 0.9055, 0.4743 0.1424 0.9055, 0.4911 0.1767 0.9055, 0.5106 0.1665 0.9055, 0.5269 0.1521 0.9055, 0.5384 0.1354 0.9055, 0.5469 0.1139 0.9055, 0.5515 0.0864 0.9055, 0.5508 0.0718 0.9055, 0.5458 0.0485 0.9055, 0.4228 0.1831 0.9055, 0.4483 0.1862 0.9055, 0.4591 0.185 0.9055, 0.4379 -0.0186 0.9055, 0.5664 -0.8439 0.9055, 0.3208 -0.8439 0.9055, 0.4257 -0.018 0.9055, 0.4156 -0.016 0.9055, 0.5914 0.218 0.9055, 0.6006 0.2447 0.9055, 0.7908 0.18 0.9055, 0.7929 0.0227 0.9055, 0.812 0.2929 0.9055, 0.5881 0.1845 0.9055, 0.812 -0.016 0.9055, 0.7929 -0.0134 0.9055, 0.719 0.2929 0.9055, 0.7418 0.2863 0.9055, 0.7844 0.1625 0.9055, 0.7729 0.1451 0.9055, 0.7477 0.1222 0.9055, 0.6349 0.2254 0.9055, 0.6299 0.2083 0.9055, 0.6863 0.2602 0.9055, 0.6276 0.1845 0.9055, 0.6896 0.2602 0.9055, 0.6156 0.2671 0.9055, 0.6237 0.2747 0.9055, 0.6399 0.2851 0.9055, 0.7584 0.2767 0.9055, 0.7719 0.2641 0.9055, 0.7818 0.2488 0.9055, 0.5812 -0.0134 0.9055, 0.5835 0.0122 0.9055, 0.5914 0.0416 0.9055, 0.6054 0.0675 0.9055, 0.6254 0.0896 0.9055, 0.6535 0.1088 0.9055, 0.6948 0.1329 0.9055, 0.7182 0.1478 0.9055, 0.7891 0.2289 0.9055, 0.7929 0.2034 0.9055, 0.7395 0.1656 0.9055, 0.7425 0.1704 0.9055, 0.7487 0.1844 0.9055, 0.7085 0.1002 0.9055, 0.6758 0.0813 0.9055, 0.6525 0.0659 0.9055, 0.7516 0.2052 0.9055, 0.7515 0.2054 0.9055, 0.7485 0.2226 0.9055, 0.7321 0.2475 0.9055, 0.7217 0.2537 0.9055, 0.7078 0.2582 0.9055, 0.6695 0.2577 0.9055, 0.6585 0.2533 0.9055, 0.6413 0.2377 0.9055, 0.6492 0.2468 0.9055, 0.7439 0.2338 0.9055, 0.7366 0.2434 0.9055, 0.6364 0.0497 0.9055, 0.6284 0.0367 0.9055, 0.6242 0.0227 0.9055, 0.6614 0.2927 0.9055, 0.6634 0.2929 0.9055, 0.5664 0.3059 0.9055, 0.6948 0.2964 0.9055, 0.812 0.3059 0.9055, 0.7147 0.2942 0.9055, 1.1414 -0.0119 0.9055, 1.1218 -0.0027 0.9055, 1.0689 -0.016 0.9055, 1.1075 0.0089 0.9055, 1.0974 0.0224 0.9055, 1.0967 0.1226 0.9055, 1.0847 0.064 0.9055, 1.1294 0.1208 0.9055, 1.1243 0.064 0.9055, 1.0689 0.2929 0.9055, 1.1191 0.2895 0.9055, 1.2792 0.2895 0.9055, 1.2792 0.2516 0.9055, 1.6535 -0.016 0.9055, 1.6535 0.2929 0.9055, 1.0894 0.0407 0.9055, 1.1721 0.1485 0.9055, 1.1561 0.1432 0.9055, 1.1425 0.1345 0.9055, 1.1724 0.0122 0.9055, 1.1914 0.0107 0.9055, 1.188 0.1501 0.9055, 1.1988 0.0116 0.9055, 1.2066 0.1475 0.9055, 1.2455 0.0438 0.9055, 1.2516 0.0601 0.9055, 1.2551 0.0813 0.9055, 1.1308 0.0411 0.9055, 1.1375 0.0309 0.9055, 1.2827 0.0278 0.9055, 1.2671 0.009 0.9055, 1.2652 0.0072 0.9055, 1.2473 -0.0055 0.9055, 1.1256 0.0563 0.9055, 1.1459 0.0229 0.9055, 1.1581 0.0163 0.9055, 1.2163 0.0166 0.9055, 1.2283 0.0234 0.9055, 1.2379 0.0324 0.9055, 1.2533 0.0964 0.9055, 1.2479 0.1142 0.9055, 1.2412 0.1258 0.9055, 1.1484 0.2516 0.9055, 1.1363 0.1673 0.9055, 1.149 0.1753 0.9055, 1.2321 0.1353 0.9055, 1.2209 0.1424 0.9055, 1.2935 0.1139 0.9055, 1.2981 0.0864 0.9055, 1.2377 0.1767 0.9055, 1.2572 0.1665 0.9055, 1.2735 0.1521 0.9055, 1.285 0.1354 0.9055, 1.2973 0.0718 0.9055, 1.2924 0.0485 0.9055, 1.1694 0.1831 0.9055, 1.1948 0.1862 0.9055, 1.2057 0.185 0.9055, 1.2243 -0.0141 0.9055, 1.2076 -0.016 0.9055, 1.6535 -0.8439 0.9055, 1.0689 -0.8439 0.9055, 1.1845 -0.0186 0.9055, 1.1723 -0.018 0.9055, 1.1622 -0.016 0.9055, 1.0689 0.3059 0.9055, 0.812 1.2439 0.9055, 0.5664 1.2439 0.9055, -0.6938 1.2439 0.9055, 0.8311 0.0813 0.9055, 0.8311 0.114 0.9055, 1.0531 0.0813 0.9055, 1.0531 0.114 0.9055, 0.812 -0.8439 0.9055, -0.6938 -0.8439 0.9055, -0.8661 1.2439 0.9055, -0.8661 0.3059 0.9055, -0.8661 0.2929 0.9055, -0.8661 -0.016 0.9055, -0.8661 -0.8439 0.9055, 0.1437 -0.8636 0.5906, -0.8661 -0.8636 0.5906, -0.8661 -0.8625 0.5807, 0.1437 -0.8625 0.5807, 1.6535 -0.8625 0.5807, 1.6535 -0.8636 0.5906, 1.6535 -0.8015 0.0, 0.4921 -0.8408 0.374, 0.1437 -0.8015 0.0, 0.2953 -0.8408 0.374, 0.7953 -0.8408 0.374, 0.7953 -0.8615 0.5709, 0.4921 -0.8615 0.5709, 0.2953 -0.8615 0.5709, 0.9921 -0.8615 0.5709, 0.9921 -0.8408 0.374, 1.2953 -0.8408 0.374, 1.2953 -0.8615 0.5709, 1.4921 -0.8615 0.5709, 1.4921 -0.8408 0.374, -0.2047 -0.8615 0.5709, -0.0079 -0.8615 0.5709, -0.5079 -0.8408 0.374, -0.7047 -0.8408 0.374, -0.8661 -0.8015 0.0, -0.7047 -0.8615 0.5709, -0.5079 -0.8615 0.5709, -0.0079 -0.8408 0.374, -0.2047 -0.8408 0.374, 1.6732 -0.7817 0.0, 1.6732 1.3214 0.0, 1.6732 -0.8439 0.5916, 1.6732 1.2439 0.8858, 1.6732 -0.8439 0.8858, -0.5906 1.3412 0.0, -0.8661 1.3412 0.0, -0.5906 1.3239 0.1969, -0.8661 1.2635 0.8875, 1.378 1.3239 0.1969, 1.6535 1.2635 0.8875, 1.378 1.3412 0.0, 1.6535 1.3412 0.0, -0.8858 -0.8439 0.8858, -0.8858 1.2439 0.8858, -0.8858 -0.8439 0.5916, -0.8858 1.3214 0.0, -0.8858 -0.7817 0.0, 1.6535 -0.8636 0.8858, -0.8661 -0.8636 0.8858, 1.378 1.2624 0.0, -0.3937 1.2624 0.0, -0.3937 1.1443 0.0, -0.5906 1.2624 0.0, -0.5906 1.1443 0.0, 1.3203 -0.2154 0.0, 1.3516 -0.1746 0.0, 1.1811 1.1443 0.0, 1.1811 1.2624 0.0, 1.378 1.1443 0.0, -0.5906 -0.0762 0.0, -0.5838 -0.1271 0.0, 1.2795 -0.2466 0.0, 1.6727 -0.7861 0.0, 1.6713 -0.7903 0.0, 1.3712 -0.1271 0.0, 1.378 -0.0762 0.0, 1.6727 1.3258 0.0, 1.6713 1.33 0.0, -0.5642 -0.1746 0.0, -0.5329 -0.2154 0.0, -0.8853 -0.7861 0.0, -0.4921 -0.2466 0.0, -0.8839 -0.7903 0.0, 1.1811 -0.273 0.0, -0.3937 -0.273 0.0, -0.4447 -0.2663 0.0, -0.8852 1.3265 0.0, -0.8832 1.3313 0.0, -0.8801 1.3354 0.0, -0.8781 1.3371 0.0, -0.876 1.3385 0.0, -0.8737 1.3397 0.0, -0.8712 1.3405 0.0, -0.8747 -0.7995 0.0, -0.8784 -0.7972 0.0, -0.8815 -0.794 0.0, 1.6689 -0.794 0.0, 1.6658 -0.7972 0.0, 1.6621 -0.7995 0.0, 1.6621 1.3392 0.0, 1.6658 1.3368 0.0, 1.6689 1.3337 0.0, -0.8687 1.341 0.0, 1.2321 -0.2663 0.0, 1.6579 -0.801 0.0, -0.8705 -0.801 0.0, 1.6579 1.3407 0.0, -0.8832 1.2537 0.8867, -0.8801 1.2578 0.887, -0.8852 1.249 0.8863, -0.8851 1.249 0.8863, -0.8712 1.2628 0.8875, -0.876 1.2609 0.8873, -0.88 1.2578 0.887, -0.8712 1.2628 0.8875, 1.6535 1.2631 0.8901, -0.8661 1.2631 0.8901, 1.6535 1.2624 0.8922, -0.8661 1.2624 0.8922, 1.6535 1.2617 0.8942, -0.8661 1.2617 0.8942, 1.6535 1.2602 0.8966, -0.8661 1.2602 0.8966, 1.6535 1.2594 0.898, -0.8661 1.2594 0.898, 1.6535 1.2571 0.9003, -0.8661 1.2571 0.9003, 1.6535 1.2562 0.9012, -0.8661 1.2562 0.9012, 1.6535 1.2532 0.9031, -0.8661 1.2532 0.9031, 1.6535 1.2525 0.9035, -0.8661 1.2525 0.9035, 1.6535 1.2487 0.9049, -0.8661 1.2487 0.9049, 1.6535 1.2483 0.905, -0.8661 1.2483 0.905, 1.6579 1.263 0.8875, 1.6586 1.2628 0.8875, 1.6621 1.2616 0.8874, 1.6633 1.2608 0.8873, 1.6658 1.2592 0.8872, 1.6673 1.2577 0.887, 1.6689 1.2561 0.8869, 1.6705 1.2537 0.8867, 1.6713 1.2524 0.8866, 1.6725 1.249 0.8863, 1.6727 1.2483 0.8862, -0.8853 -0.8483 0.5914, -0.8839 -0.8524 0.5911, -0.8815 -0.8562 0.5909, -0.8784 -0.8593 0.5908, -0.8747 -0.8616 0.5907, -0.8705 -0.8631 0.5906, -0.8744 1.2461 0.9035, -0.8704 1.245 0.905, -0.87 1.2461 0.905, -0.8705 1.2439 0.905, -0.8847 1.2489 0.8901, -0.8828 1.2535 0.8901, -0.8797 1.2575 0.8901, -0.8758 1.2605 0.8901, -0.8711 1.2625 0.8901, -0.8673 1.2482 0.905, -0.8683 1.2477 0.905, -0.8736 1.2482 0.9035, -0.8693 1.247 0.905, -0.8722 1.25 0.9035, -0.8704 1.2513 0.9035, -0.8684 1.2522 0.9035, -0.8785 1.2439 0.9012, -0.8759 1.2439 0.9028, -0.8747 1.2439 0.9035, -0.8712 1.2439 0.9048, -0.8781 1.2471 0.9012, -0.8768 1.2501 0.9012, -0.8749 1.2526 0.9012, -0.8723 1.2546 0.9012, -0.8693 1.2558 0.9012, -0.8831 1.2439 0.8956, -0.8816 1.2439 0.898, -0.8811 1.2479 0.898, -0.88 1.2439 0.8997, -0.8795 1.2516 0.898, -0.8771 1.2548 0.898, -0.8739 1.2573 0.898, -0.8701 1.2588 0.898, -0.8851 1.2439 0.8909, -0.8839 1.2439 0.8942, -0.8833 1.2485 0.8942, -0.8816 1.2528 0.8942, -0.8787 1.2565 0.8942, -0.875 1.2593 0.8942, -0.8707 1.2611 0.8942, -0.8854 1.2439 0.8901, 1.6558 1.2522 0.9035, 1.6547 1.2482 0.905, 1.6557 1.2477 0.905, 1.6585 1.2625 0.8901, 1.6632 1.2605 0.8901, 1.6671 1.2575 0.8901, 1.6702 1.2535 0.8901, 1.6721 1.2489 0.8901, 1.6728 1.2439 0.8901, 1.6579 1.2439 0.905, 1.6578 1.245 0.905, 1.6586 1.2439 0.9048, 1.6574 1.2461 0.905, 1.6578 1.2513 0.9035, 1.6567 1.247 0.905, 1.6596 1.25 0.9035, 1.661 1.2482 0.9035, 1.6618 1.2461 0.9035, 1.6567 1.2558 0.9012, 1.6597 1.2546 0.9012, 1.6623 1.2526 0.9012, 1.6642 1.2501 0.9012, 1.6655 1.2471 0.9012, 1.6575 1.2588 0.898, 1.6621 1.2439 0.9035, 1.6633 1.2439 0.9028, 1.6659 1.2439 0.9012, 1.6674 1.2439 0.8997, 1.6685 1.2479 0.898, 1.6669 1.2516 0.898, 1.6645 1.2548 0.898, 1.6613 1.2573 0.898, 1.6581 1.2611 0.8942, 1.6624 1.2593 0.8942, 1.6661 1.2565 0.8942, 1.669 1.2528 0.8942, 1.6707 1.2485 0.8942, 1.669 1.2439 0.898, 1.6705 1.2439 0.8956, 1.6713 1.2439 0.8942, 1.6725 1.2439 0.8909, 1.6579 -0.8631 0.5906, 1.6586 -0.8628 0.5906, 1.6621 -0.8616 0.5907, 1.6633 -0.8608 0.5907, 1.6658 -0.8593 0.5908, 1.6674 -0.8577 0.5909, 1.6689 -0.8562 0.5909, 1.6705 -0.8537 0.5911, 1.6713 -0.8524 0.5911, 1.6725 -0.849 0.5913, 1.6727 -0.8483 0.5914, -0.8705 -0.863 0.8858, -0.8712 -0.8629 0.8858, -0.8746 -0.8615 0.8858, -0.876 -0.8609 0.8858, -0.8783 -0.8591 0.8858, -0.8801 -0.8578 0.8858, -0.8814 -0.8561 0.8858, -0.8832 -0.8537 0.8858, -0.8838 -0.8524 0.8858, -0.8852 -0.849 0.8858, -0.8853 -0.8483 0.8858, -0.8712 -0.8439 0.9048, -0.876 -0.8439 0.9029, -0.8801 -0.8439 0.8997, -0.8832 -0.8439 0.8957, -0.8852 -0.8439 0.8909, 1.6586 -0.8439 0.9048, 1.6634 -0.8439 0.9029, 1.6675 -0.8439 0.8997, 1.6706 -0.8439 0.8957, 1.6726 -0.8439 0.8909, 1.6726 -0.849 0.8858, 1.6706 -0.8537 0.8858, 1.6675 -0.8578 0.8858, 1.6634 -0.8609 0.8858, 1.6586 -0.8629 0.8858, -0.8845 -0.8488 0.8909, -0.8826 -0.8534 0.8909, -0.8796 -0.8573 0.8909, -0.8756 -0.8603 0.8909, -0.8711 -0.8622 0.8909, -0.8661 -0.8629 0.8909, -0.8706 -0.8603 0.8957, -0.8661 -0.8609 0.8957, -0.8697 -0.8573 0.8997, -0.8661 -0.8578 0.8997, -0.8687 -0.8534 0.9029, -0.8661 -0.8537 0.9029, -0.8675 -0.8488 0.9048, -0.8661 -0.849 0.9048, -0.8747 -0.8586 0.8957, -0.8731 -0.8559 0.8997, -0.8711 -0.8524 0.9029, -0.8687 -0.8483 0.9048, -0.8782 -0.8559 0.8957, -0.876 -0.8537 0.8997, -0.8731 -0.8508 0.9029, -0.8697 -0.8475 0.9048, -0.8809 -0.8524 0.8957, -0.8782 -0.8508 0.8997, -0.8747 -0.8488 0.9029, -0.8706 -0.8464 0.9048, -0.8826 -0.8483 0.8957, -0.8796 -0.8475 0.8997, -0.8756 -0.8464 0.9029, -0.8711 -0.8452 0.9048, 1.6719 -0.8488 0.8909, 1.6621 -0.8488 0.9029, 1.658 -0.8464 0.9048, 1.6571 -0.8475 0.9048, 1.6535 -0.849 0.9048, 1.6549 -0.8488 0.9048, 1.6585 -0.8452 0.9048, 1.663 -0.8464 0.9029, 1.667 -0.8475 0.8997, 1.6605 -0.8508 0.9029, 1.6561 -0.8483 0.9048, 1.6585 -0.8524 0.9029, 1.6561 -0.8534 0.9029, 1.6535 -0.8537 0.9029, 1.6656 -0.8508 0.8997, 1.6634 -0.8537 0.8997, 1.6605 -0.8559 0.8997, 1.6571 -0.8573 0.8997, 1.6535 -0.8578 0.8997, 1.67 -0.8483 0.8957, 1.6683 -0.8524 0.8957, 1.6656 -0.8559 0.8957, 1.6621 -0.8586 0.8957, 1.658 -0.8603 0.8957, 1.6535 -0.8609 0.8957, 1.67 -0.8534 0.8909, 1.667 -0.8573 0.8909, 1.663 -0.8603 0.8909, 1.6585 -0.8622 0.8909, 1.6535 -0.8629 0.8909, 1.1811 1.2624 0.1969, 1.378 1.2624 0.1969, 1.1811 -0.273 0.1969, 1.1811 1.1443 0.1969, 1.378 1.1443 0.1969, -0.5906 1.1443 0.1969, -0.3937 1.1443 0.1969, -0.5906 -0.0762 0.1969, -0.3937 -0.273 0.1969, -0.4447 -0.2663 0.1969, -0.5906 1.2624 0.1969, -0.3937 1.2624 0.1969, -0.4921 -0.2466 0.1969, -0.5329 -0.2154 0.1969, 1.3203 -0.2154 0.1969, 1.2795 -0.2466 0.1969, 1.3516 -0.1746 0.1969, 1.3712 -0.1271 0.1969, 1.378 -0.0762 0.1969, 1.2321 -0.2663 0.1969, -0.5642 -0.1746 0.1969, -0.5838 -0.1271 0.1969
            ]
        }
        coordIndex [
            0,1,2,-1,3,4,5,-1,6,7,8,-1,9,10,11,-1,12,13,14,-1,14,13,15,-1,14,15,16,-1,16,15,17,-1,16,17,18,-1,19,20,21,-1,21,20,22,-1,22,20,23,-1,23,20,24,-1,23,24,25,-1,26,12,27,-1,28,29,30,-1,30,29,31,-1,32,33,11,-1,11,33,34,-1,11,34,35,-1,35,36,11,-1,11,36,37,-1,11,37,9,-1,28,38,29,-1,29,38,39,-1,29,39,32,-1,31,29,40,-1,40,29,41,-1,40,41,42,-1,12,14,27,-1,27,14,43,-1,27,43,44,-1,45,2,46,-1,46,2,47,-1,46,47,48,-1,48,47,27,-1,48,27,49,-1,49,27,44,-1,50,51,14,-1,14,51,52,-1,14,52,43,-1,53,54,16,-1,16,54,55,-1,16,55,56,-1,56,57,16,-1,16,57,58,-1,16,58,14,-1,14,58,59,-1,14,59,50,-1,10,60,61,-1,61,60,62,-1,60,63,62,-1,62,63,64,-1,62,64,16,-1,16,64,65,-1,16,65,53,-1,66,67,29,-1,68,69,70,-1,32,11,29,-1,29,11,71,-1,29,71,66,-1,70,69,11,-1,72,73,68,-1,68,73,74,-1,75,76,77,-1,77,76,78,-1,77,78,79,-1,67,80,29,-1,29,80,81,-1,29,81,82,-1,83,84,85,-1,85,84,86,-1,85,86,87,-1,69,88,11,-1,11,88,89,-1,11,89,71,-1,71,89,90,-1,71,90,91,-1,91,92,71,-1,71,92,93,-1,71,93,78,-1,78,93,94,-1,78,94,95,-1,87,96,85,-1,85,96,97,-1,85,97,98,-1,95,99,78,-1,78,99,100,-1,78,100,101,-1,74,102,68,-1,68,102,103,-1,68,103,104,-1,101,105,78,-1,78,105,106,-1,78,106,107,-1,108,109,78,-1,78,109,110,-1,78,110,79,-1,77,111,75,-1,75,111,112,-1,75,112,113,-1,113,112,114,-1,107,115,78,-1,78,115,116,-1,78,116,108,-1,104,117,68,-1,68,117,118,-1,68,118,119,-1,120,41,121,-1,121,41,29,-1,121,29,122,-1,122,29,82,-1,83,85,123,-1,123,85,0,-1,123,0,124,-1,125,126,70,-1,126,127,70,-1,70,127,128,-1,70,128,129,-1,130,131,132,-1,132,131,133,-1,132,133,85,-1,134,135,136,-1,136,135,137,-1,129,132,70,-1,70,132,85,-1,70,85,68,-1,68,85,98,-1,68,98,72,-1,138,139,130,-1,130,139,140,-1,130,140,131,-1,141,142,143,-1,143,142,144,-1,143,144,145,-1,146,147,144,-1,144,147,148,-1,8,149,150,-1,151,152,143,-1,150,153,8,-1,8,153,154,-1,8,154,6,-1,138,130,143,-1,143,130,155,-1,143,155,151,-1,152,156,143,-1,143,156,157,-1,143,157,141,-1,158,159,144,-1,144,159,160,-1,144,160,146,-1,148,161,144,-1,144,161,162,-1,144,162,163,-1,164,165,166,-1,163,167,144,-1,144,167,168,-1,144,168,145,-1,169,170,137,-1,170,171,137,-1,137,171,172,-1,137,172,173,-1,174,175,8,-1,8,175,176,-1,8,176,149,-1,166,177,164,-1,164,177,178,-1,164,178,137,-1,137,178,179,-1,137,179,169,-1,7,180,181,-1,181,180,182,-1,182,180,183,-1,182,183,184,-1,185,186,136,-1,187,188,189,-1,173,174,137,-1,137,174,8,-1,137,8,136,-1,136,8,190,-1,136,190,185,-1,8,191,192,-1,189,193,194,-1,187,195,188,-1,188,195,196,-1,188,196,197,-1,198,199,200,-1,200,199,201,-1,200,201,202,-1,186,203,136,-1,136,203,204,-1,136,204,205,-1,194,206,189,-1,189,206,207,-1,189,207,208,-1,192,209,8,-1,8,209,210,-1,8,210,190,-1,190,210,211,-1,190,211,212,-1,212,213,190,-1,190,213,214,-1,190,214,201,-1,201,214,215,-1,201,215,216,-1,208,217,189,-1,189,217,218,-1,189,218,187,-1,216,219,201,-1,201,219,220,-1,201,220,221,-1,197,222,188,-1,188,222,223,-1,188,223,224,-1,221,225,201,-1,201,225,226,-1,201,226,227,-1,228,229,201,-1,201,229,230,-1,201,230,202,-1,200,231,198,-1,198,231,232,-1,198,232,233,-1,233,232,234,-1,227,235,201,-1,201,235,236,-1,201,236,228,-1,224,237,188,-1,188,237,238,-1,188,238,239,-1,205,240,136,-1,136,240,241,-1,136,241,242,-1,242,241,243,-1,242,243,244,-1,244,243,245,-1,244,245,193,-1,246,247,248,-1,248,247,249,-1,248,249,250,-1,251,252,253,-1,253,252,254,-1,255,256,257,-1,258,259,257,-1,257,259,260,-1,257,260,255,-1,250,261,248,-1,248,261,252,-1,248,252,255,-1,255,252,251,-1,255,251,256,-1,262,263,254,-1,254,263,264,-1,254,264,253,-1,265,266,267,-1,267,266,268,-1,267,268,269,-1,270,271,268,-1,268,271,272,-1,273,274,267,-1,275,276,259,-1,259,276,277,-1,259,277,278,-1,262,254,267,-1,267,254,279,-1,267,279,273,-1,274,280,267,-1,267,280,281,-1,267,281,265,-1,282,283,268,-1,268,283,284,-1,268,284,270,-1,272,285,268,-1,268,285,286,-1,268,286,287,-1,288,289,290,-1,287,291,268,-1,268,291,292,-1,268,292,269,-1,293,294,259,-1,295,296,258,-1,258,296,297,-1,258,297,259,-1,259,297,298,-1,259,298,293,-1,294,299,259,-1,259,299,300,-1,259,300,275,-1,290,301,288,-1,288,301,302,-1,288,302,258,-1,258,302,303,-1,258,303,295,-1,278,304,259,-1,259,304,305,-1,259,305,306,-1,306,305,307,-1,305,308,307,-1,307,308,309,-1,307,309,310,-1,3,5,311,-1,311,5,312,-1,311,312,244,-1,244,312,313,-1,244,313,242,-1,45,42,2,-1,2,42,41,-1,2,41,0,-1,0,41,120,-1,0,120,124,-1,47,314,27,-1,27,314,25,-1,27,25,26,-1,26,25,24,-1,193,189,244,-1,244,189,255,-1,244,255,311,-1,311,255,260,-1,311,260,3,-1,313,1,242,-1,242,1,0,-1,242,0,136,-1,136,0,85,-1,136,85,134,-1,134,85,133,-1,191,315,316,-1,315,191,317,-1,317,191,248,-1,317,248,318,-1,318,248,255,-1,318,255,316,-1,316,255,189,-1,316,189,191,-1,191,189,188,-1,191,188,192,-1,7,181,8,-1,8,181,319,-1,8,319,191,-1,191,319,307,-1,191,307,248,-1,248,307,310,-1,248,310,246,-1,10,61,11,-1,11,61,182,-1,11,182,70,-1,70,182,184,-1,70,184,125,-1,18,21,16,-1,16,21,22,-1,16,22,62,-1,62,22,320,-1,314,321,25,-1,25,321,322,-1,25,322,23,-1,23,322,323,-1,23,323,22,-1,22,323,324,-1,22,324,320,-1,320,324,325,-1,326,327,328,-1,329,330,331,-1,332,333,334,-1,334,333,335,-1,334,335,329,-1,336,337,338,-1,335,339,329,-1,329,339,338,-1,329,338,330,-1,330,338,337,-1,330,337,340,-1,338,333,336,-1,336,333,332,-1,336,332,341,-1,341,332,342,-1,341,342,340,-1,340,342,343,-1,340,343,330,-1,330,343,344,-1,330,344,332,-1,332,344,345,-1,332,345,342,-1,346,347,329,-1,348,349,350,-1,350,349,328,-1,328,349,351,-1,328,351,352,-1,329,347,334,-1,334,347,353,-1,334,353,354,-1,331,326,329,-1,329,326,328,-1,329,328,346,-1,346,328,352,-1,346,352,354,-1,354,352,348,-1,354,348,334,-1,334,348,350,-1,355,356,357,-1,357,356,358,-1,357,358,359,-1,360,361,362,-1,362,361,363,-1,362,363,364,-1,364,363,365,-1,364,365,366,-1,366,365,367,-1,368,369,370,-1,370,369,371,-1,370,371,372,-1,373,374,331,-1,331,374,327,-1,375,366,367,-1,376,377,378,-1,378,377,379,-1,355,380,381,-1,382,383,384,-1,384,383,375,-1,385,386,372,-1,380,355,387,-1,387,355,388,-1,387,388,389,-1,381,390,355,-1,355,390,391,-1,355,391,356,-1,356,391,384,-1,356,384,392,-1,392,384,393,-1,386,394,372,-1,372,394,395,-1,372,395,396,-1,396,395,397,-1,396,397,398,-1,399,332,400,-1,400,332,350,-1,400,350,401,-1,385,372,379,-1,379,372,371,-1,379,371,402,-1,402,403,379,-1,379,403,404,-1,379,404,405,-1,405,406,379,-1,379,406,407,-1,379,407,408,-1,409,410,397,-1,397,410,411,-1,397,411,398,-1,389,412,387,-1,387,412,413,-1,387,413,414,-1,415,416,384,-1,384,416,417,-1,384,417,393,-1,360,378,361,-1,361,378,379,-1,361,379,418,-1,418,379,408,-1,399,419,332,-1,332,419,387,-1,332,387,420,-1,420,387,414,-1,401,350,397,-1,397,350,421,-1,397,421,409,-1,375,367,384,-1,384,367,422,-1,384,422,415,-1,403,423,424,-1,369,425,371,-1,371,425,402,-1,402,425,403,-1,403,425,426,-1,403,426,423,-1,427,407,428,-1,428,407,406,-1,428,406,429,-1,429,406,405,-1,429,405,424,-1,424,405,404,-1,424,404,403,-1,363,361,430,-1,430,361,418,-1,430,418,427,-1,427,418,408,-1,427,408,407,-1,365,363,431,-1,431,363,432,-1,431,432,433,-1,433,432,434,-1,433,434,435,-1,435,434,436,-1,435,436,437,-1,437,436,438,-1,437,438,439,-1,439,438,440,-1,439,440,441,-1,441,440,442,-1,441,442,443,-1,443,442,444,-1,443,444,445,-1,445,444,446,-1,445,446,447,-1,447,446,448,-1,447,448,449,-1,449,448,450,-1,449,450,451,-1,451,450,452,-1,451,452,4,-1,4,452,321,-1,415,422,453,-1,453,422,367,-1,453,367,365,-1,453,454,415,-1,415,454,455,-1,415,455,416,-1,455,456,416,-1,416,456,457,-1,416,457,417,-1,417,457,458,-1,458,459,417,-1,417,459,460,-1,417,460,393,-1,460,461,393,-1,393,461,462,-1,393,462,392,-1,462,463,392,-1,392,463,358,-1,392,358,356,-1,370,372,396,-1,370,396,464,-1,464,396,398,-1,464,398,465,-1,465,398,411,-1,465,411,466,-1,466,411,410,-1,466,410,467,-1,467,410,409,-1,467,409,468,-1,468,409,421,-1,468,421,469,-1,469,421,350,-1,469,350,327,-1,470,471,472,-1,472,471,321,-1,473,321,471,-1,425,474,426,-1,426,474,475,-1,426,475,423,-1,423,475,424,-1,424,475,476,-1,424,476,429,-1,429,476,477,-1,429,477,428,-1,428,477,427,-1,427,477,478,-1,427,478,430,-1,430,478,432,-1,430,432,363,-1,321,452,479,-1,479,452,450,-1,480,321,479,-1,481,482,483,-1,483,482,480,-1,483,480,484,-1,484,480,479,-1,484,479,485,-1,485,479,450,-1,486,487,470,-1,470,487,488,-1,470,488,471,-1,471,488,489,-1,471,489,473,-1,490,481,491,-1,491,481,483,-1,491,483,492,-1,492,483,484,-1,492,484,493,-1,493,484,485,-1,493,485,494,-1,495,496,497,-1,497,496,498,-1,450,448,485,-1,485,448,446,-1,485,446,494,-1,494,446,444,-1,494,444,442,-1,498,490,497,-1,497,490,491,-1,497,491,499,-1,499,491,492,-1,499,492,500,-1,500,492,493,-1,500,493,501,-1,501,493,494,-1,501,494,502,-1,502,494,442,-1,503,504,505,-1,505,504,495,-1,495,497,505,-1,505,497,499,-1,505,499,506,-1,506,499,500,-1,506,500,507,-1,507,500,501,-1,507,501,508,-1,508,501,502,-1,508,502,509,-1,482,321,480,-1,498,486,490,-1,490,486,470,-1,490,470,481,-1,481,470,472,-1,481,472,482,-1,482,472,321,-1,503,474,510,-1,510,474,425,-1,510,425,369,-1,442,440,502,-1,502,440,438,-1,502,438,509,-1,509,438,436,-1,509,436,434,-1,503,505,474,-1,474,505,506,-1,474,506,475,-1,475,506,507,-1,475,507,476,-1,476,507,508,-1,476,508,477,-1,477,508,509,-1,477,509,478,-1,478,509,434,-1,478,434,432,-1,511,512,513,-1,513,512,4,-1,514,454,453,-1,454,514,455,-1,455,514,515,-1,455,515,456,-1,456,515,457,-1,457,515,516,-1,457,516,458,-1,458,516,459,-1,459,516,517,-1,459,517,460,-1,460,517,461,-1,461,517,518,-1,461,518,462,-1,462,518,463,-1,463,518,519,-1,463,519,358,-1,445,447,511,-1,511,447,449,-1,511,449,512,-1,512,449,451,-1,512,451,4,-1,4,520,521,-1,521,520,522,-1,523,4,521,-1,524,525,526,-1,526,525,523,-1,526,523,527,-1,527,523,521,-1,527,521,528,-1,528,521,522,-1,529,524,530,-1,530,524,526,-1,530,526,531,-1,531,526,527,-1,531,527,532,-1,532,527,528,-1,532,528,533,-1,437,439,534,-1,534,439,441,-1,522,535,528,-1,528,535,536,-1,528,536,533,-1,533,536,537,-1,533,537,538,-1,538,539,533,-1,533,539,540,-1,533,540,532,-1,532,540,541,-1,532,541,531,-1,531,541,542,-1,531,542,530,-1,530,542,534,-1,530,534,529,-1,529,534,441,-1,529,441,443,-1,433,435,543,-1,543,435,437,-1,437,534,543,-1,543,534,542,-1,543,542,544,-1,544,542,541,-1,544,541,545,-1,545,541,540,-1,545,540,546,-1,546,540,539,-1,546,539,547,-1,525,4,523,-1,443,445,529,-1,529,445,511,-1,529,511,524,-1,524,511,513,-1,524,513,525,-1,525,513,4,-1,433,514,431,-1,431,514,453,-1,431,453,365,-1,538,548,539,-1,539,548,549,-1,539,549,547,-1,547,549,550,-1,547,550,551,-1,433,543,514,-1,514,543,544,-1,514,544,515,-1,515,544,545,-1,515,545,516,-1,516,545,546,-1,516,546,517,-1,517,546,547,-1,517,547,518,-1,518,547,551,-1,518,551,519,-1,332,420,331,-1,331,420,552,-1,552,420,553,-1,553,420,414,-1,553,414,554,-1,554,414,555,-1,555,414,413,-1,555,413,556,-1,556,413,557,-1,557,413,412,-1,557,412,558,-1,558,412,559,-1,559,412,389,-1,559,389,560,-1,560,389,561,-1,561,389,388,-1,561,388,562,-1,562,388,355,-1,562,355,357,-1,468,469,563,-1,563,469,327,-1,563,327,374,-1,563,564,468,-1,468,564,565,-1,468,565,467,-1,467,565,566,-1,566,567,467,-1,467,567,568,-1,467,568,466,-1,568,569,466,-1,466,569,570,-1,466,570,465,-1,570,571,465,-1,465,571,572,-1,465,572,464,-1,572,573,464,-1,464,573,368,-1,464,368,370,-1,321,473,325,-1,325,473,574,-1,473,489,574,-1,574,489,488,-1,574,488,575,-1,488,487,575,-1,575,487,486,-1,575,486,576,-1,576,486,498,-1,576,498,577,-1,498,496,577,-1,577,496,495,-1,577,495,578,-1,495,504,578,-1,578,504,503,-1,578,503,368,-1,368,503,510,-1,368,510,369,-1,520,4,306,-1,520,306,522,-1,522,306,579,-1,522,579,535,-1,535,579,536,-1,536,579,580,-1,536,580,537,-1,537,580,538,-1,538,580,581,-1,538,581,548,-1,548,581,582,-1,548,582,549,-1,549,582,550,-1,550,582,583,-1,550,583,551,-1,551,583,519,-1,519,583,359,-1,519,359,358,-1,357,359,562,-1,562,359,584,-1,562,584,561,-1,561,584,560,-1,560,584,585,-1,560,585,559,-1,559,585,558,-1,558,585,586,-1,558,586,557,-1,557,586,556,-1,556,586,587,-1,556,587,555,-1,555,587,554,-1,554,587,588,-1,554,588,553,-1,553,588,552,-1,552,588,373,-1,552,373,331,-1,573,572,589,-1,571,570,590,-1,569,568,591,-1,567,566,592,-1,565,564,593,-1,563,374,594,-1,564,563,593,-1,593,563,594,-1,593,594,595,-1,595,594,596,-1,595,596,597,-1,597,596,598,-1,597,598,599,-1,599,598,600,-1,599,600,601,-1,601,600,602,-1,601,602,325,-1,566,565,592,-1,592,565,593,-1,592,593,603,-1,603,593,595,-1,603,595,604,-1,604,595,597,-1,604,597,605,-1,605,597,599,-1,605,599,606,-1,606,599,601,-1,606,601,325,-1,568,567,591,-1,591,567,592,-1,591,592,607,-1,607,592,603,-1,607,603,608,-1,608,603,604,-1,608,604,609,-1,609,604,605,-1,609,605,610,-1,610,605,606,-1,610,606,325,-1,570,569,590,-1,590,569,591,-1,590,591,611,-1,611,591,607,-1,611,607,612,-1,612,607,608,-1,612,608,613,-1,613,608,609,-1,613,609,614,-1,614,609,610,-1,614,610,325,-1,572,571,589,-1,589,571,590,-1,589,590,615,-1,615,590,611,-1,615,611,616,-1,616,611,612,-1,616,612,617,-1,617,612,613,-1,617,613,618,-1,618,613,614,-1,618,614,325,-1,368,573,578,-1,578,573,589,-1,578,589,577,-1,577,589,615,-1,577,615,576,-1,576,615,616,-1,576,616,575,-1,575,616,617,-1,575,617,574,-1,574,617,618,-1,574,618,325,-1,359,583,619,-1,620,621,622,-1,306,623,624,-1,622,621,306,-1,625,306,621,-1,625,621,626,-1,626,621,620,-1,626,620,627,-1,579,306,625,-1,628,629,630,-1,630,629,624,-1,630,624,631,-1,631,624,623,-1,631,623,632,-1,579,625,580,-1,580,625,626,-1,580,626,581,-1,581,626,627,-1,581,627,582,-1,633,628,634,-1,634,628,630,-1,634,630,635,-1,635,630,631,-1,635,631,636,-1,636,631,632,-1,636,632,637,-1,638,633,639,-1,639,633,634,-1,639,634,640,-1,640,634,635,-1,640,635,641,-1,641,635,636,-1,641,636,642,-1,642,636,637,-1,642,637,643,-1,583,638,619,-1,619,638,639,-1,619,639,644,-1,644,639,640,-1,644,640,645,-1,645,640,641,-1,645,641,646,-1,646,641,642,-1,646,642,647,-1,647,642,643,-1,647,643,648,-1,359,619,584,-1,584,619,644,-1,584,644,585,-1,585,644,645,-1,585,645,586,-1,586,645,646,-1,586,646,587,-1,587,646,647,-1,587,647,588,-1,588,647,648,-1,588,648,373,-1,629,306,624,-1,583,582,638,-1,638,582,627,-1,638,627,633,-1,633,627,620,-1,633,620,628,-1,628,620,622,-1,628,622,629,-1,629,622,306,-1,306,325,602,-1,306,602,623,-1,623,602,600,-1,623,600,632,-1,632,600,598,-1,632,598,637,-1,637,598,596,-1,637,596,643,-1,643,596,594,-1,643,594,648,-1,648,594,374,-1,648,374,373,-1,362,364,649,-1,649,364,650,-1,651,652,653,-1,654,655,656,-1,656,655,657,-1,656,657,658,-1,659,362,660,-1,660,362,649,-1,660,649,655,-1,655,649,652,-1,655,652,657,-1,657,652,651,-1,658,661,662,-1,663,664,665,-1,665,664,666,-1,653,667,651,-1,651,667,666,-1,651,666,668,-1,668,666,664,-1,662,669,658,-1,658,669,670,-1,658,670,656,-1,650,364,375,-1,375,364,366,-1,378,360,659,-1,659,360,362,-1,659,660,378,-1,378,660,376,-1,660,655,376,-1,376,655,377,-1,655,654,377,-1,377,654,379,-1,654,656,379,-1,379,656,385,-1,657,400,658,-1,658,400,401,-1,658,401,661,-1,661,401,397,-1,661,397,662,-1,662,397,395,-1,662,395,669,-1,669,395,394,-1,669,394,670,-1,670,394,386,-1,670,386,656,-1,656,386,385,-1,657,651,400,-1,400,651,399,-1,667,391,666,-1,666,391,390,-1,666,390,665,-1,665,390,381,-1,665,381,663,-1,663,381,380,-1,663,380,664,-1,664,380,387,-1,664,387,668,-1,668,387,419,-1,668,419,651,-1,651,419,399,-1,667,653,391,-1,391,653,384,-1,653,652,384,-1,384,652,382,-1,652,649,382,-1,382,649,383,-1,649,650,383,-1,383,650,375,-1,
        ]
    }
}
Shape{
    appearance Appearance {
        material  Material 	{
            diffuseColor 0.7686274509803922 0.7686274509803922 0.7686274509803922
            specularColor 0.615686274509804 0.615686274509804 0.615686274509804
            ambientIntensity 0.7686
            transparency 0.0
            shininess 0.5
        }
    }
    geometry IndexedFaceSet {
        ccw TRUE
        solid FALSE
        coord DEF co Coordinate {
            point [
                1.2953 -1.9317 0.1967, 1.4921 -1.9317 0.1967, 1.2953 -1.5551 0.2165, 1.4921 -1.5551 0.2165, 1.2953 -1.9214 0.0001, 1.2953 -1.5448 0.0199, 1.4921 -1.9214 0.0001, 1.4921 -1.5448 0.0199, 1.4921 -1.4797 0.2583, 1.2953 -1.4797 0.2583, 1.4921 -1.4944 0.2416, 1.2953 -1.4944 0.2416, 1.4921 -1.5126 0.2287, 1.2953 -1.5126 0.2287, 1.4921 -1.5332 0.2201, 1.2953 -1.5332 0.2201, 1.2953 -1.3184 0.1454, 1.2953 -1.3627 0.0953, 1.2953 -1.4171 0.0565, 1.2953 -1.4789 0.0309, 1.4921 -1.4789 0.0309, 1.4921 -1.4171 0.0565, 1.4921 -1.3627 0.0953, 1.4921 -1.3184 0.1454, 1.2953 -1.349 0.445, 1.4921 -1.349 0.445, 1.2953 -1.1877 0.332, 1.4921 -1.1877 0.332, 1.4921 -1.3018 0.4976, 1.2953 -1.3018 0.4976, 1.4921 -1.2434 0.5375, 1.2953 -1.2434 0.5375, 1.4921 -1.1773 0.5624, 1.2953 -1.1773 0.5624, 1.4921 -1.1071 0.5709, 1.2953 -1.1071 0.5709, 1.2953 -1.172 0.3496, 1.2953 -1.1525 0.3629, 1.2953 -1.1305 0.3712, 1.2953 -1.1071 0.374, 1.4921 -1.1071 0.374, 1.4921 -1.1305 0.3712, 1.4921 -1.1525 0.3629, 1.4921 -1.172 0.3496, 1.4921 -0.8615 0.5709, 1.4921 -0.8408 0.374, 1.2953 -0.8615 0.5709, 1.2953 -0.8408 0.374, -0.7047 -1.9317 0.1967, -0.5079 -1.9317 0.1967, -0.7047 -1.5551 0.2165, -0.5079 -1.5551 0.2165, -0.7047 -1.9214 0.0001, -0.7047 -1.5448 0.0199, -0.5079 -1.9214 0.0001, -0.5079 -1.5448 0.0199, -0.5079 -1.4797 0.2583, -0.7047 -1.4797 0.2583, -0.5079 -1.4944 0.2416, -0.7047 -1.4944 0.2416, -0.5079 -1.5126 0.2287, -0.7047 -1.5126 0.2287, -0.5079 -1.5332 0.2201, -0.7047 -1.5332 0.2201, -0.7047 -1.3184 0.1454, -0.7047 -1.3627 0.0953, -0.7047 -1.4171 0.0565, -0.7047 -1.4789 0.0309, -0.5079 -1.4789 0.0309, -0.5079 -1.4171 0.0565, -0.5079 -1.3627 0.0953, -0.5079 -1.3184 0.1454, -0.7047 -1.349 0.445, -0.5079 -1.349 0.445, -0.7047 -1.1877 0.332, -0.5079 -1.1877 0.332, -0.5079 -1.3018 0.4976, -0.7047 -1.3018 0.4976, -0.5079 -1.2434 0.5375, -0.7047 -1.2434 0.5375, -0.5079 -1.1773 0.5624, -0.7047 -1.1773 0.5624, -0.5079 -1.1071 0.5709, -0.7047 -1.1071 0.5709, -0.7047 -1.172 0.3496, -0.7047 -1.1525 0.3629, -0.7047 -1.1305 0.3712, -0.7047 -1.1071 0.374, -0.5079 -1.1071 0.374, -0.5079 -1.1305 0.3712, -0.5079 -1.1525 0.3629, -0.5079 -1.172 0.3496, -0.5079 -0.8615 0.5709, -0.5079 -0.8408 0.374, -0.7047 -0.8615 0.5709, -0.7047 -0.8408 0.374, -0.2047 -1.9317 0.1967, -0.0079 -1.9317 0.1967, -0.2047 -1.5551 0.2165, -0.0079 -1.5551 0.2165, -0.2047 -1.9214 0.0001, -0.2047 -1.5448 0.0199, -0.0079 -1.9214 0.0001, -0.0079 -1.5448 0.0199, -0.0079 -1.4797 0.2583, -0.2047 -1.4797 0.2583, -0.0079 -1.4944 0.2416, -0.2047 -1.4944 0.2416, -0.0079 -1.5126 0.2287, -0.2047 -1.5126 0.2287, -0.0079 -1.5332 0.2201, -0.2047 -1.5332 0.2201, -0.2047 -1.3184 0.1454, -0.2047 -1.3627 0.0953, -0.2047 -1.4171 0.0565, -0.2047 -1.4789 0.0309, -0.0079 -1.4789 0.0309, -0.0079 -1.4171 0.0565, -0.0079 -1.3627 0.0953, -0.0079 -1.3184 0.1454, -0.2047 -1.349 0.445, -0.0079 -1.349 0.445, -0.2047 -1.1877 0.332, -0.0079 -1.1877 0.332, -0.0079 -1.3018 0.4976, -0.2047 -1.3018 0.4976, -0.0079 -1.2434 0.5375, -0.2047 -1.2434 0.5375, -0.0079 -1.1773 0.5624, -0.2047 -1.1773 0.5624, -0.0079 -1.1071 0.5709, -0.2047 -1.1071 0.5709, -0.2047 -1.172 0.3496, -0.2047 -1.1525 0.3629, -0.2047 -1.1305 0.3712, -0.2047 -1.1071 0.374, -0.0079 -1.1071 0.374, -0.0079 -1.1305 0.3712, -0.0079 -1.1525 0.3629, -0.0079 -1.172 0.3496, -0.0079 -0.8615 0.5709, -0.0079 -0.8408 0.374, -0.2047 -0.8615 0.5709, -0.2047 -0.8408 0.374, 0.7953 -1.9317 0.1967, 0.9921 -1.9317 0.1967, 0.7953 -1.5551 0.2165, 0.9921 -1.5551 0.2165, 0.7953 -1.9214 0.0001, 0.7953 -1.5448 0.0199, 0.9921 -1.9214 0.0001, 0.9921 -1.5448 0.0199, 0.9921 -1.4797 0.2583, 0.7953 -1.4797 0.2583, 0.9921 -1.4944 0.2416, 0.7953 -1.4944 0.2416, 0.9921 -1.5126 0.2287, 0.7953 -1.5126 0.2287, 0.9921 -1.5332 0.2201, 0.7953 -1.5332 0.2201, 0.7953 -1.3184 0.1454, 0.7953 -1.3627 0.0953, 0.7953 -1.4171 0.0565, 0.7953 -1.4789 0.0309, 0.9921 -1.4789 0.0309, 0.9921 -1.4171 0.0565, 0.9921 -1.3627 0.0953, 0.9921 -1.3184 0.1454, 0.7953 -1.349 0.445, 0.9921 -1.349 0.445, 0.7953 -1.1877 0.332, 0.9921 -1.1877 0.332, 0.9921 -1.3018 0.4976, 0.7953 -1.3018 0.4976, 0.9921 -1.2434 0.5375, 0.7953 -1.2434 0.5375, 0.9921 -1.1773 0.5624, 0.7953 -1.1773 0.5624, 0.9921 -1.1071 0.5709, 0.7953 -1.1071 0.5709, 0.7953 -1.172 0.3496, 0.7953 -1.1525 0.3629, 0.7953 -1.1305 0.3712, 0.7953 -1.1071 0.374, 0.9921 -1.1071 0.374, 0.9921 -1.1305 0.3712, 0.9921 -1.1525 0.3629, 0.9921 -1.172 0.3496, 0.9921 -0.8615 0.5709, 0.9921 -0.8408 0.374, 0.7953 -0.8615 0.5709, 0.7953 -0.8408 0.374, 0.2953 -1.9317 0.1967, 0.4921 -1.9317 0.1967, 0.2953 -1.5551 0.2165, 0.4921 -1.5551 0.2165, 0.2953 -1.9214 0.0001, 0.2953 -1.5448 0.0199, 0.4921 -1.9214 0.0001, 0.4921 -1.5448 0.0199, 0.4921 -1.4797 0.2583, 0.2953 -1.4797 0.2583, 0.4921 -1.4944 0.2416, 0.2953 -1.4944 0.2416, 0.4921 -1.5126 0.2287, 0.2953 -1.5126 0.2287, 0.4921 -1.5332 0.2201, 0.2953 -1.5332 0.2201, 0.2953 -1.3184 0.1454, 0.2953 -1.3627 0.0953, 0.2953 -1.4171 0.0565, 0.2953 -1.4789 0.0309, 0.4921 -1.4789 0.0309, 0.4921 -1.4171 0.0565, 0.4921 -1.3627 0.0953, 0.4921 -1.3184 0.1454, 0.2953 -1.349 0.445, 0.4921 -1.349 0.445, 0.2953 -1.1877 0.332, 0.4921 -1.1877 0.332, 0.4921 -1.3018 0.4976, 0.2953 -1.3018 0.4976, 0.4921 -1.2434 0.5375, 0.2953 -1.2434 0.5375, 0.4921 -1.1773 0.5624, 0.2953 -1.1773 0.5624, 0.4921 -1.1071 0.5709, 0.2953 -1.1071 0.5709, 0.2953 -1.172 0.3496, 0.2953 -1.1525 0.3629, 0.2953 -1.1305 0.3712, 0.2953 -1.1071 0.374, 0.4921 -1.1071 0.374, 0.4921 -1.1305 0.3712, 0.4921 -1.1525 0.3629, 0.4921 -1.172 0.3496, 0.4921 -0.8615 0.5709, 0.4921 -0.8408 0.374, 0.2953 -0.8615 0.5709, 0.2953 -0.8408 0.374
            ]
        }
        coordIndex [
            0,1,2,-1,2,1,3,-1,4,0,5,-1,5,0,2,-1,6,4,7,-1,7,4,5,-1,1,6,3,-1,3,6,7,-1,8,9,10,-1,10,9,11,-1,10,11,12,-1,12,11,13,-1,12,13,14,-1,14,13,15,-1,14,15,3,-1,3,15,2,-1,9,16,11,-1,11,16,17,-1,11,17,13,-1,13,17,18,-1,13,18,15,-1,15,18,19,-1,15,19,2,-1,2,19,5,-1,7,5,19,-1,7,19,20,-1,20,19,18,-1,20,18,21,-1,21,18,17,-1,21,17,22,-1,22,17,16,-1,22,16,23,-1,3,7,14,-1,14,7,20,-1,14,20,12,-1,12,20,21,-1,12,21,10,-1,10,21,22,-1,10,22,8,-1,8,22,23,-1,9,8,24,-1,24,8,25,-1,16,9,26,-1,26,9,24,-1,23,16,27,-1,27,16,26,-1,8,23,25,-1,25,23,27,-1,24,25,28,-1,24,28,29,-1,29,28,30,-1,29,30,31,-1,31,30,32,-1,31,32,33,-1,33,32,34,-1,33,34,35,-1,26,24,36,-1,36,24,29,-1,36,29,37,-1,37,29,31,-1,37,31,38,-1,38,31,33,-1,38,33,39,-1,39,33,35,-1,39,40,38,-1,38,40,41,-1,38,41,37,-1,37,41,42,-1,37,42,36,-1,36,42,43,-1,36,43,26,-1,26,43,27,-1,40,34,41,-1,41,34,32,-1,41,32,42,-1,42,32,30,-1,42,30,43,-1,43,30,28,-1,43,28,27,-1,27,28,25,-1,34,40,44,-1,44,40,45,-1,35,34,46,-1,46,34,44,-1,39,35,47,-1,47,35,46,-1,40,39,45,-1,45,39,47,-1,0,4,1,-1,1,4,6,-1,48,49,50,-1,50,49,51,-1,52,48,53,-1,53,48,50,-1,54,52,55,-1,55,52,53,-1,49,54,51,-1,51,54,55,-1,56,57,58,-1,58,57,59,-1,58,59,60,-1,60,59,61,-1,60,61,62,-1,62,61,63,-1,62,63,51,-1,51,63,50,-1,57,64,59,-1,59,64,65,-1,59,65,61,-1,61,65,66,-1,61,66,63,-1,63,66,67,-1,63,67,50,-1,50,67,53,-1,55,53,67,-1,55,67,68,-1,68,67,66,-1,68,66,69,-1,69,66,65,-1,69,65,70,-1,70,65,64,-1,70,64,71,-1,51,55,62,-1,62,55,68,-1,62,68,60,-1,60,68,69,-1,60,69,58,-1,58,69,70,-1,58,70,56,-1,56,70,71,-1,57,56,72,-1,72,56,73,-1,64,57,74,-1,74,57,72,-1,71,64,75,-1,75,64,74,-1,56,71,73,-1,73,71,75,-1,72,73,76,-1,72,76,77,-1,77,76,78,-1,77,78,79,-1,79,78,80,-1,79,80,81,-1,81,80,82,-1,81,82,83,-1,74,72,84,-1,84,72,77,-1,84,77,85,-1,85,77,79,-1,85,79,86,-1,86,79,81,-1,86,81,87,-1,87,81,83,-1,87,88,86,-1,86,88,89,-1,86,89,85,-1,85,89,90,-1,85,90,84,-1,84,90,91,-1,84,91,74,-1,74,91,75,-1,88,82,89,-1,89,82,80,-1,89,80,90,-1,90,80,78,-1,90,78,91,-1,91,78,76,-1,91,76,75,-1,75,76,73,-1,82,88,92,-1,92,88,93,-1,83,82,94,-1,94,82,92,-1,87,83,95,-1,95,83,94,-1,88,87,93,-1,93,87,95,-1,48,52,49,-1,49,52,54,-1,96,97,98,-1,98,97,99,-1,100,96,101,-1,101,96,98,-1,102,100,103,-1,103,100,101,-1,97,102,99,-1,99,102,103,-1,104,105,106,-1,106,105,107,-1,106,107,108,-1,108,107,109,-1,108,109,110,-1,110,109,111,-1,110,111,99,-1,99,111,98,-1,105,112,107,-1,107,112,113,-1,107,113,109,-1,109,113,114,-1,109,114,111,-1,111,114,115,-1,111,115,98,-1,98,115,101,-1,103,101,115,-1,103,115,116,-1,116,115,114,-1,116,114,117,-1,117,114,113,-1,117,113,118,-1,118,113,112,-1,118,112,119,-1,99,103,110,-1,110,103,116,-1,110,116,108,-1,108,116,117,-1,108,117,106,-1,106,117,118,-1,106,118,104,-1,104,118,119,-1,105,104,120,-1,120,104,121,-1,112,105,122,-1,122,105,120,-1,119,112,123,-1,123,112,122,-1,104,119,121,-1,121,119,123,-1,120,121,124,-1,120,124,125,-1,125,124,126,-1,125,126,127,-1,127,126,128,-1,127,128,129,-1,129,128,130,-1,129,130,131,-1,122,120,132,-1,132,120,125,-1,132,125,133,-1,133,125,127,-1,133,127,134,-1,134,127,129,-1,134,129,135,-1,135,129,131,-1,135,136,134,-1,134,136,137,-1,134,137,133,-1,133,137,138,-1,133,138,132,-1,132,138,139,-1,132,139,122,-1,122,139,123,-1,136,130,137,-1,137,130,128,-1,137,128,138,-1,138,128,126,-1,138,126,139,-1,139,126,124,-1,139,124,123,-1,123,124,121,-1,130,136,140,-1,140,136,141,-1,131,130,142,-1,142,130,140,-1,135,131,143,-1,143,131,142,-1,136,135,141,-1,141,135,143,-1,96,100,97,-1,97,100,102,-1,144,145,146,-1,146,145,147,-1,148,144,149,-1,149,144,146,-1,150,148,151,-1,151,148,149,-1,145,150,147,-1,147,150,151,-1,152,153,154,-1,154,153,155,-1,154,155,156,-1,156,155,157,-1,156,157,158,-1,158,157,159,-1,158,159,147,-1,147,159,146,-1,153,160,155,-1,155,160,161,-1,155,161,157,-1,157,161,162,-1,157,162,159,-1,159,162,163,-1,159,163,146,-1,146,163,149,-1,151,149,163,-1,151,163,164,-1,164,163,162,-1,164,162,165,-1,165,162,161,-1,165,161,166,-1,166,161,160,-1,166,160,167,-1,147,151,158,-1,158,151,164,-1,158,164,156,-1,156,164,165,-1,156,165,154,-1,154,165,166,-1,154,166,152,-1,152,166,167,-1,153,152,168,-1,168,152,169,-1,160,153,170,-1,170,153,168,-1,167,160,171,-1,171,160,170,-1,152,167,169,-1,169,167,171,-1,168,169,172,-1,168,172,173,-1,173,172,174,-1,173,174,175,-1,175,174,176,-1,175,176,177,-1,177,176,178,-1,177,178,179,-1,170,168,180,-1,180,168,173,-1,180,173,181,-1,181,173,175,-1,181,175,182,-1,182,175,177,-1,182,177,183,-1,183,177,179,-1,183,184,182,-1,182,184,185,-1,182,185,181,-1,181,185,186,-1,181,186,180,-1,180,186,187,-1,180,187,170,-1,170,187,171,-1,184,178,185,-1,185,178,176,-1,185,176,186,-1,186,176,174,-1,186,174,187,-1,187,174,172,-1,187,172,171,-1,171,172,169,-1,178,184,188,-1,188,184,189,-1,179,178,190,-1,190,178,188,-1,183,179,191,-1,191,179,190,-1,184,183,189,-1,189,183,191,-1,144,148,145,-1,145,148,150,-1,192,193,194,-1,194,193,195,-1,196,192,197,-1,197,192,194,-1,198,196,199,-1,199,196,197,-1,193,198,195,-1,195,198,199,-1,200,201,202,-1,202,201,203,-1,202,203,204,-1,204,203,205,-1,204,205,206,-1,206,205,207,-1,206,207,195,-1,195,207,194,-1,201,208,203,-1,203,208,209,-1,203,209,205,-1,205,209,210,-1,205,210,207,-1,207,210,211,-1,207,211,194,-1,194,211,197,-1,199,197,211,-1,199,211,212,-1,212,211,210,-1,212,210,213,-1,213,210,209,-1,213,209,214,-1,214,209,208,-1,214,208,215,-1,195,199,206,-1,206,199,212,-1,206,212,204,-1,204,212,213,-1,204,213,202,-1,202,213,214,-1,202,214,200,-1,200,214,215,-1,201,200,216,-1,216,200,217,-1,208,201,218,-1,218,201,216,-1,215,208,219,-1,219,208,218,-1,200,215,217,-1,217,215,219,-1,216,217,220,-1,216,220,221,-1,221,220,222,-1,221,222,223,-1,223,222,224,-1,223,224,225,-1,225,224,226,-1,225,226,227,-1,218,216,228,-1,228,216,221,-1,228,221,229,-1,229,221,223,-1,229,223,230,-1,230,223,225,-1,230,225,231,-1,231,225,227,-1,231,232,230,-1,230,232,233,-1,230,233,229,-1,229,233,234,-1,229,234,228,-1,228,234,235,-1,228,235,218,-1,218,235,219,-1,232,226,233,-1,233,226,224,-1,233,224,234,-1,234,224,222,-1,234,222,235,-1,235,222,220,-1,235,220,219,-1,219,220,217,-1,226,232,236,-1,236,232,237,-1,227,226,238,-1,238,226,236,-1,231,227,239,-1,239,227,238,-1,232,231,237,-1,237,231,239,-1,192,196,193,-1,193,196,198,-1,
        ]
    }
}
Shape{
    appearance Appearance {
        material  Material 	{
            diffuseColor 0.45098039215686275 0.43137254901960786 0.4196078431372549
            specularColor 0.03137254901960784 0.03137254901960784 0.03137254901960784
            ambientIntensity 0.6221
            transparency 0.0
            shininess 0.5
        }
    }
    geometry IndexedFaceSet {
        ccw TRUE
        solid FALSE
        coord DEF co Coordinate {
            point [
                -0.5214 0.2654 0.9055, -0.5214 0.2654 0.9016, -0.5214 0.2929 0.9055, -0.5214 0.3016 0.9016, -0.5214 0.3016 0.9055, -0.2667 0.3016 0.9016, -0.2667 0.3016 0.9055, -0.2667 0.2654 0.9016, -0.2667 0.2654 0.9055, -0.2667 0.2929 0.9055, -0.3734 0.2654 0.9016, -0.3734 0.2654 0.9055, -0.3734 -0.0134 0.9016, -0.3734 -0.0134 0.9055, -0.4147 -0.0134 0.9016, -0.4147 -0.0134 0.9055, -0.4147 0.2654 0.9016, -0.4147 0.2654 0.9055, -0.0051 0.229 0.9016, 0.0083 0.202 0.9016, 0.0551 0.1951 0.9016, 0.0622 0.1432 0.9016, 0.0384 0.238 0.9016, 0.0209 0.2654 0.9016, -0.0208 0.2472 0.9016, -0.0052 0.2873 0.9016, -0.039 0.2601 0.9016, -0.0337 0.3012 0.9016, -0.0616 0.2691 0.9016, -0.091 0.274 0.9016, -0.1202 0.02 0.9016, -0.1012 -0.0184 0.9016, -0.091 0.0158 0.9016, -0.091 -0.0186 0.9016, -0.0728 0.0181 0.9016, -0.0464 -0.0136 0.9016, -0.0447 0.0267 0.9016, -0.015 -0.0023 0.9016, -0.0245 0.039 0.9016, 0.0096 0.0138 0.9016, -0.0087 0.0549 0.9016, 0.0226 0.0262 0.9016, 0.0041 0.0761 0.9016, 0.0451 0.0627 0.9016, 0.0138 0.1047 0.9016, 0.0584 0.1056 0.9016, 0.0191 0.1432 0.9016, 0.0179 0.1584 0.9016, -0.0727 0.3094 0.9016, -0.091 0.3102 0.9016, -0.1188 0.2701 0.9016, -0.1364 0.3051 0.9016, -0.1403 0.2625 0.9016, -0.1673 0.2938 0.9016, -0.1597 0.25 0.9016, -0.1943 0.2757 0.9016, -0.1747 0.2341 0.9016, -0.2206 0.2416 0.9016, -0.1868 0.213 0.9016, -0.1963 0.1835 0.9016, -0.2369 0.2038 0.9016, -0.2454 0.153 0.9016, -0.2012 0.1432 0.9016, -0.2459 0.1432 0.9016, -0.1979 0.1122 0.9016, -0.239 0.0922 0.9016, -0.188 0.0779 0.9016, -0.223 0.051 0.9016, -0.1767 0.0576 0.9016, -0.2098 0.0296 0.9016, -0.1614 0.0407 0.9016, -0.1867 0.0084 0.9016, -0.1432 0.0285 0.9016, -0.1631 -0.005 0.9016, -0.1263 -0.0158 0.9016, 0.0226 0.0262 0.9055, 0.0451 0.0627 0.9055, 0.0584 0.1056 0.9055, 0.0622 0.1432 0.9055, -0.0678 -0.016 0.9055, -0.091 -0.0186 0.9055, -0.0464 -0.0136 0.9055, -0.015 -0.0023 0.9055, 0.0096 0.0138 0.9055, -0.2098 0.0296 0.9055, -0.1867 0.0084 0.9055, -0.1631 -0.005 0.9055, -0.1263 -0.0158 0.9055, -0.1242 -0.016 0.9055, -0.1012 -0.0184 0.9055, -0.2459 0.1432 0.9055, -0.239 0.0922 0.9055, -0.223 0.051 0.9055, -0.1943 0.2757 0.9055, -0.2206 0.2416 0.9055, -0.2369 0.2038 0.9055, -0.2454 0.153 0.9055, -0.091 0.3102 0.9055, -0.1294 0.3059 0.9055, -0.1686 0.2929 0.9055, -0.1673 0.2938 0.9055, -0.1364 0.3051 0.9055, 0.0209 0.2654 0.9055, -0.0052 0.2873 0.9055, -0.0167 0.2929 0.9055, -0.0337 0.3012 0.9055, -0.0559 0.3059 0.9055, -0.0727 0.3094 0.9055, 0.0551 0.1951 0.9055, 0.0384 0.238 0.9055, -0.091 0.274 0.9055, -0.0616 0.2691 0.9055, -0.039 0.2601 0.9055, -0.0208 0.2472 0.9055, -0.0051 0.229 0.9055, 0.0083 0.202 0.9055, 0.0179 0.1584 0.9055, 0.0191 0.1432 0.9055, 0.0138 0.1047 0.9055, 0.0041 0.0761 0.9055, -0.0087 0.0549 0.9055, -0.0245 0.039 0.9055, -0.0447 0.0267 0.9055, -0.0728 0.0181 0.9055, -0.091 0.0158 0.9055, -0.1202 0.02 0.9055, -0.1432 0.0285 0.9055, -0.1614 0.0407 0.9055, -0.1767 0.0576 0.9055, -0.188 0.0779 0.9055, -0.1979 0.1122 0.9055, -0.2012 0.1432 0.9055, -0.1963 0.1835 0.9055, -0.1868 0.213 0.9055, -0.1747 0.2341 0.9055, -0.1597 0.25 0.9055, -0.1403 0.2625 0.9055, -0.1188 0.2701 0.9055
            ]
        }
        coordIndex [
            0,1,2,-1,2,1,3,-1,2,3,4,-1,3,5,4,-1,4,5,6,-1,7,8,5,-1,5,8,9,-1,5,9,6,-1,7,10,8,-1,8,10,11,-1,10,12,11,-1,11,12,13,-1,12,14,13,-1,13,14,15,-1,14,16,15,-1,15,16,17,-1,16,1,17,-1,17,1,0,-1,5,3,16,-1,16,3,1,-1,7,5,10,-1,10,5,16,-1,10,16,12,-1,12,16,14,-1,18,19,20,-1,20,19,21,-1,20,22,18,-1,18,22,23,-1,18,23,24,-1,24,23,25,-1,24,25,26,-1,26,25,27,-1,26,27,28,-1,28,27,29,-1,30,31,32,-1,32,31,33,-1,32,33,34,-1,34,33,35,-1,34,35,36,-1,36,35,37,-1,36,37,38,-1,38,37,39,-1,38,39,40,-1,40,39,41,-1,40,41,42,-1,42,41,43,-1,42,43,44,-1,44,43,45,-1,44,45,46,-1,46,45,21,-1,46,21,47,-1,47,21,19,-1,27,48,29,-1,29,48,49,-1,29,49,50,-1,50,49,51,-1,50,51,52,-1,52,51,53,-1,52,53,54,-1,54,53,55,-1,54,55,56,-1,56,55,57,-1,56,57,58,-1,58,57,59,-1,57,60,59,-1,59,60,61,-1,59,61,62,-1,62,61,63,-1,62,63,64,-1,64,63,65,-1,64,65,66,-1,66,65,67,-1,66,67,68,-1,68,67,69,-1,68,69,70,-1,70,69,71,-1,70,71,72,-1,72,71,73,-1,72,73,30,-1,30,73,74,-1,30,74,31,-1,41,75,76,-1,41,76,43,-1,43,76,77,-1,43,77,45,-1,45,77,78,-1,45,78,21,-1,35,33,79,-1,79,33,80,-1,79,81,35,-1,35,81,82,-1,35,82,37,-1,37,82,83,-1,37,83,39,-1,39,83,75,-1,39,75,41,-1,80,33,31,-1,69,84,85,-1,69,85,71,-1,71,85,86,-1,71,86,73,-1,73,86,87,-1,73,87,74,-1,74,87,88,-1,74,88,31,-1,31,88,89,-1,31,89,80,-1,63,90,91,-1,63,91,65,-1,65,91,92,-1,65,92,67,-1,67,92,84,-1,67,84,69,-1,55,93,94,-1,55,94,57,-1,57,94,95,-1,57,95,60,-1,60,95,96,-1,60,96,61,-1,61,96,90,-1,61,90,63,-1,49,97,51,-1,51,97,98,-1,93,55,99,-1,99,55,53,-1,99,53,100,-1,100,53,51,-1,100,51,101,-1,101,51,98,-1,97,49,48,-1,23,102,103,-1,23,103,25,-1,25,103,104,-1,25,104,27,-1,104,105,27,-1,27,105,106,-1,27,106,48,-1,48,106,107,-1,48,107,97,-1,21,78,108,-1,21,108,20,-1,20,108,109,-1,20,109,22,-1,22,109,102,-1,22,102,23,-1,29,110,111,-1,29,111,28,-1,28,111,112,-1,28,112,26,-1,26,112,113,-1,26,113,24,-1,24,113,114,-1,24,114,18,-1,18,114,115,-1,18,115,19,-1,19,115,116,-1,19,116,47,-1,47,116,117,-1,47,117,46,-1,46,117,118,-1,46,118,44,-1,44,118,119,-1,44,119,42,-1,42,119,120,-1,42,120,40,-1,40,120,121,-1,40,121,38,-1,38,121,122,-1,38,122,36,-1,36,122,123,-1,36,123,34,-1,34,123,124,-1,34,124,32,-1,32,124,125,-1,32,125,30,-1,30,125,126,-1,30,126,72,-1,72,126,127,-1,72,127,70,-1,70,127,128,-1,70,128,68,-1,68,128,129,-1,68,129,66,-1,66,129,130,-1,66,130,64,-1,64,130,131,-1,64,131,62,-1,62,131,132,-1,62,132,59,-1,59,132,133,-1,59,133,58,-1,58,133,134,-1,58,134,56,-1,56,134,135,-1,56,135,54,-1,54,135,136,-1,54,136,52,-1,52,136,137,-1,52,137,50,-1,50,137,110,-1,50,110,29,-1,
        ]
    }
}
Shape{
    appearance Appearance {
        material  Material 	{
            diffuseColor 0.25098039215686274 0.25098039215686274 0.25098039215686274
            specularColor 0.07450980392156863 0.07450980392156863 0.07450980392156863
            ambientIntensity 0.251
            transparency 0.0
            shininess 0.5
        }
    }
    geometry IndexedFaceSet {
        ccw TRUE
        solid FALSE
        coord DEF co Coordinate {
            point [
                -0.1868 0.213 0.9055, -0.1963 0.1835 0.9055, 0.0179 0.1584 0.9055, 0.0041 0.0761 0.9055, 0.0138 0.1047 0.9055, -0.1979 0.1122 0.9055, -0.0728 0.0181 0.9055, -0.091 0.0158 0.9055, -0.1202 0.02 0.9055, -0.0087 0.0549 0.9055, -0.2012 0.1432 0.9055, 0.0191 0.1432 0.9055, -0.039 0.2601 0.9055, -0.0616 0.2691 0.9055, -0.091 0.274 0.9055, -0.1188 0.2701 0.9055, -0.1403 0.2625 0.9055, -0.188 0.0779 0.9055, -0.1767 0.0576 0.9055, -0.1432 0.0285 0.9055, -0.1614 0.0407 0.9055, -0.0447 0.0267 0.9055, -0.0245 0.039 0.9055, -0.0208 0.2472 0.9055, 0.0083 0.202 0.9055, -0.0051 0.229 0.9055, -0.1597 0.25 0.9055, -0.1747 0.2341 0.9055
            ]
        }
        coordIndex [
            0,1,2,-1,3,4,5,-1,6,5,7,-1,7,5,8,-1,3,5,9,-1,1,10,2,-1,2,10,5,-1,2,5,11,-1,11,5,4,-1,12,13,2,-1,13,14,2,-1,2,14,15,-1,2,15,16,-1,5,17,8,-1,8,17,18,-1,8,18,19,-1,19,18,20,-1,6,21,5,-1,5,21,22,-1,5,22,9,-1,12,2,23,-1,23,2,24,-1,23,24,25,-1,16,26,2,-1,2,26,27,-1,2,27,0,-1,
        ]
    }
}
Shape{
    appearance Appearance {
        material  Material 	{
            diffuseColor 0.45098039215686275 0.43137254901960786 0.4196078431372549
            specularColor 0.03137254901960784 0.03137254901960784 0.03137254901960784
            ambientIntensity 0.6221
            transparency 0.0
            shininess 0.5
        }
    }
    geometry IndexedFaceSet {
        ccw TRUE
        solid FALSE
        coord DEF co Coordinate {
            point [
                0.1381 0.1845 0.9016, 0.0985 0.1845 0.9016, 0.1381 0.1845 0.9055, 0.0985 0.1845 0.9055, 0.126 0.2671 0.9016, 0.126 0.2671 0.9055, 0.111 0.2447 0.9055, 0.111 0.2447 0.9016, 0.1019 0.218 0.9055, 0.1019 0.218 0.9016, 0.2052 0.2964 0.9055, 0.1738 0.2929 0.9055, 0.2052 0.2964 0.9016, 0.1719 0.2927 0.9016, 0.1719 0.2927 0.9055, 0.1503 0.2851 0.9055, 0.1503 0.2851 0.9016, 0.1341 0.2747 0.9055, 0.1341 0.2747 0.9016, 0.2522 0.2863 0.9055, 0.2688 0.2767 0.9016, 0.2688 0.2767 0.9055, 0.2823 0.2641 0.9016, 0.2823 0.2641 0.9055, 0.2923 0.2488 0.9016, 0.2923 0.2488 0.9055, 0.2995 0.2289 0.9016, 0.2995 0.2289 0.9055, 0.3033 0.2034 0.9016, 0.3033 0.2034 0.9055, 0.2294 0.2929 0.9055, 0.2251 0.2942 0.9016, 0.2522 0.2863 0.9016, 0.2251 0.2942 0.9055, 0.219 0.1002 0.9016, 0.219 0.1002 0.9055, 0.2582 0.1222 0.9055, 0.2582 0.1222 0.9016, 0.2833 0.1451 0.9055, 0.2833 0.1451 0.9016, 0.2948 0.1625 0.9055, 0.2948 0.1625 0.9016, 0.3013 0.18 0.9055, 0.3013 0.18 0.9016, 0.1863 0.0813 0.9016, 0.1863 0.0813 0.9055, 0.1346 0.0227 0.9016, 0.1346 0.0227 0.9055, 0.1388 0.0367 0.9055, 0.1388 0.0367 0.9016, 0.1468 0.0497 0.9055, 0.1468 0.0497 0.9016, 0.163 0.0659 0.9055, 0.163 0.0659 0.9016, 0.3033 0.0227 0.9016, 0.3033 0.0227 0.9055, 0.3033 -0.0134 0.9016, 0.3033 -0.0134 0.9055, 0.0916 -0.0134 0.9016, 0.0916 -0.0134 0.9055, 0.1639 0.1088 0.9016, 0.1639 0.1088 0.9055, 0.1359 0.0896 0.9055, 0.1359 0.0896 0.9016, 0.1159 0.0675 0.9055, 0.1159 0.0675 0.9016, 0.1019 0.0416 0.9055, 0.1019 0.0416 0.9016, 0.0939 0.0122 0.9055, 0.0939 0.0122 0.9016, 0.2052 0.1329 0.9016, 0.2052 0.1329 0.9055, 0.25 0.1656 0.9016, 0.25 0.1656 0.9055, 0.2286 0.1478 0.9055, 0.2286 0.1478 0.9016, 0.262 0.2052 0.9016, 0.262 0.2052 0.9055, 0.2591 0.1844 0.9055, 0.2591 0.1844 0.9016, 0.253 0.1704 0.9055, 0.253 0.1704 0.9016, 0.2 0.2602 0.9016, 0.2 0.2602 0.9055, 0.2182 0.2582 0.9055, 0.2182 0.2582 0.9016, 0.2322 0.2537 0.9055, 0.2322 0.2537 0.9016, 0.2425 0.2475 0.9055, 0.2425 0.2475 0.9016, 0.2471 0.2434 0.9055, 0.2471 0.2434 0.9016, 0.2543 0.2338 0.9055, 0.2543 0.2338 0.9016, 0.259 0.2226 0.9055, 0.259 0.2226 0.9016, 0.262 0.2054 0.9055, 0.262 0.2054 0.9016, 0.1404 0.2083 0.9055, 0.1404 0.2083 0.9016, 0.1453 0.2254 0.9055, 0.1453 0.2254 0.9016, 0.1517 0.2377 0.9055, 0.1517 0.2377 0.9016, 0.1597 0.2468 0.9055, 0.1597 0.2468 0.9016, 0.169 0.2533 0.9055, 0.169 0.2533 0.9016, 0.18 0.2577 0.9055, 0.18 0.2577 0.9016, 0.1968 0.2602 0.9055, 0.1968 0.2602 0.9016, 0.4018 0.2516 0.9016, 0.3897 0.1673 0.9016, 0.4018 0.2516 0.9055, 0.3897 0.1673 0.9055, 0.4483 0.1862 0.9016, 0.4483 0.1862 0.9055, 0.4228 0.1831 0.9055, 0.4228 0.1831 0.9016, 0.4024 0.1753 0.9055, 0.4024 0.1753 0.9016, 0.5515 0.0864 0.9016, 0.5515 0.0864 0.9055, 0.5469 0.1139 0.9055, 0.5469 0.1139 0.9016, 0.5384 0.1354 0.9055, 0.5384 0.1354 0.9016, 0.5269 0.1521 0.9055, 0.5269 0.1521 0.9016, 0.5106 0.1665 0.9055, 0.5106 0.1665 0.9016, 0.4911 0.1767 0.9055, 0.4911 0.1767 0.9016, 0.4591 0.185 0.9055, 0.4591 0.185 0.9016, 0.5206 0.009 0.9016, 0.5206 0.009 0.9055, 0.5361 0.0278 0.9055, 0.5361 0.0278 0.9016, 0.5458 0.0485 0.9055, 0.5458 0.0485 0.9016, 0.5508 0.0718 0.9055, 0.5508 0.0718 0.9016, 0.4777 -0.0141 0.9016, 0.4379 -0.0186 0.9016, 0.461 -0.016 0.9055, 0.4379 -0.0186 0.9055, 0.4777 -0.0141 0.9055, 0.5007 -0.0055 0.9055, 0.5007 -0.0055 0.9016, 0.5186 0.0072 0.9055, 0.5186 0.0072 0.9016, 0.3948 -0.0119 0.9055, 0.3752 -0.0027 0.9016, 0.3752 -0.0027 0.9055, 0.361 0.0089 0.9016, 0.361 0.0089 0.9055, 0.3509 0.0224 0.9016, 0.3509 0.0224 0.9055, 0.3428 0.0407 0.9016, 0.3428 0.0407 0.9055, 0.3381 0.064 0.9016, 0.3381 0.064 0.9055, 0.4156 -0.016 0.9055, 0.4257 -0.018 0.9016, 0.3948 -0.0119 0.9016, 0.4257 -0.018 0.9055, 0.3777 0.064 0.9016, 0.3777 0.064 0.9055, 0.4448 0.0107 0.9016, 0.4448 0.0107 0.9055, 0.4259 0.0122 0.9055, 0.4259 0.0122 0.9016, 0.4115 0.0163 0.9055, 0.4115 0.0163 0.9016, 0.3994 0.0229 0.9055, 0.3994 0.0229 0.9016, 0.3909 0.0309 0.9055, 0.3909 0.0309 0.9016, 0.3842 0.0411 0.9055, 0.3842 0.0411 0.9016, 0.379 0.0563 0.9055, 0.379 0.0563 0.9016, 0.5085 0.0813 0.9016, 0.5085 0.0813 0.9055, 0.505 0.0601 0.9055, 0.505 0.0601 0.9016, 0.4989 0.0438 0.9055, 0.4989 0.0438 0.9016, 0.4913 0.0324 0.9055, 0.4913 0.0324 0.9016, 0.4817 0.0234 0.9055, 0.4817 0.0234 0.9016, 0.4697 0.0166 0.9055, 0.4697 0.0166 0.9016, 0.4522 0.0116 0.9055, 0.4522 0.0116 0.9016, 0.4414 0.1501 0.9016, 0.4414 0.1501 0.9055, 0.46 0.1475 0.9055, 0.46 0.1475 0.9016, 0.4743 0.1424 0.9055, 0.4743 0.1424 0.9016, 0.4855 0.1353 0.9055, 0.4855 0.1353 0.9016, 0.4946 0.1258 0.9055, 0.4946 0.1258 0.9016, 0.5013 0.1142 0.9055, 0.5013 0.1142 0.9016, 0.5068 0.0964 0.9055, 0.5068 0.0964 0.9016, 0.3829 0.1208 0.9016, 0.3829 0.1208 0.9055, 0.396 0.1345 0.9055, 0.396 0.1345 0.9016, 0.4095 0.1432 0.9055, 0.4095 0.1432 0.9016, 0.4256 0.1485 0.9055, 0.4256 0.1485 0.9016, 0.3502 0.1226 0.9016, 0.3502 0.1226 0.9055, 0.3725 0.2895 0.9016, 0.3725 0.2895 0.9055, 0.5326 0.2895 0.9016, 0.5326 0.2895 0.9055, 0.5326 0.2516 0.9016, 0.5326 0.2516 0.9055, 0.6276 0.1845 0.9016, 0.5881 0.1845 0.9016, 0.6276 0.1845 0.9055, 0.5881 0.1845 0.9055, 0.6156 0.2671 0.9016, 0.6156 0.2671 0.9055, 0.6006 0.2447 0.9055, 0.6006 0.2447 0.9016, 0.5914 0.218 0.9055, 0.5914 0.218 0.9016, 0.6948 0.2964 0.9055, 0.6634 0.2929 0.9055, 0.6948 0.2964 0.9016, 0.6614 0.2927 0.9016, 0.6614 0.2927 0.9055, 0.6399 0.2851 0.9055, 0.6399 0.2851 0.9016, 0.6237 0.2747 0.9055, 0.6237 0.2747 0.9016, 0.7418 0.2863 0.9055, 0.7584 0.2767 0.9016, 0.7584 0.2767 0.9055, 0.7719 0.2641 0.9016, 0.7719 0.2641 0.9055, 0.7818 0.2488 0.9016, 0.7818 0.2488 0.9055, 0.7891 0.2289 0.9016, 0.7891 0.2289 0.9055, 0.7929 0.2034 0.9016, 0.7929 0.2034 0.9055, 0.719 0.2929 0.9055, 0.7147 0.2942 0.9016, 0.7418 0.2863 0.9016, 0.7147 0.2942 0.9055, 0.7085 0.1002 0.9016, 0.7085 0.1002 0.9055, 0.7477 0.1222 0.9055, 0.7477 0.1222 0.9016, 0.7729 0.1451 0.9055, 0.7729 0.1451 0.9016, 0.7844 0.1625 0.9055, 0.7844 0.1625 0.9016, 0.7908 0.18 0.9055, 0.7908 0.18 0.9016, 0.6758 0.0813 0.9016, 0.6758 0.0813 0.9055, 0.6242 0.0227 0.9016, 0.6242 0.0227 0.9055, 0.6284 0.0367 0.9055, 0.6284 0.0367 0.9016, 0.6364 0.0497 0.9055, 0.6364 0.0497 0.9016, 0.6525 0.0659 0.9055, 0.6525 0.0659 0.9016, 0.7929 0.0227 0.9016, 0.7929 0.0227 0.9055, 0.7929 -0.0134 0.9016, 0.7929 -0.0134 0.9055, 0.5812 -0.0134 0.9016, 0.5812 -0.0134 0.9055, 0.6535 0.1088 0.9016, 0.6535 0.1088 0.9055, 0.6254 0.0896 0.9055, 0.6254 0.0896 0.9016, 0.6054 0.0675 0.9055, 0.6054 0.0675 0.9016, 0.5914 0.0416 0.9055, 0.5914 0.0416 0.9016, 0.5835 0.0122 0.9055, 0.5835 0.0122 0.9016, 0.6948 0.1329 0.9016, 0.6948 0.1329 0.9055, 0.7395 0.1656 0.9016, 0.7395 0.1656 0.9055, 0.7182 0.1478 0.9055, 0.7182 0.1478 0.9016, 0.7516 0.2052 0.9016, 0.7516 0.2052 0.9055, 0.7487 0.1844 0.9055, 0.7487 0.1844 0.9016, 0.7425 0.1704 0.9055, 0.7425 0.1704 0.9016, 0.6896 0.2602 0.9016, 0.6896 0.2602 0.9055, 0.7078 0.2582 0.9055, 0.7078 0.2582 0.9016, 0.7217 0.2537 0.9055, 0.7217 0.2537 0.9016, 0.7321 0.2475 0.9055, 0.7321 0.2475 0.9016, 0.7366 0.2434 0.9055, 0.7366 0.2434 0.9016, 0.7439 0.2338 0.9055, 0.7439 0.2338 0.9016, 0.7485 0.2226 0.9055, 0.7485 0.2226 0.9016, 0.7515 0.2054 0.9055, 0.7515 0.2054 0.9016, 0.6299 0.2083 0.9055, 0.6299 0.2083 0.9016, 0.6349 0.2254 0.9055, 0.6349 0.2254 0.9016, 0.6413 0.2377 0.9055, 0.6413 0.2377 0.9016, 0.6492 0.2468 0.9055, 0.6492 0.2468 0.9016, 0.6585 0.2533 0.9055, 0.6585 0.2533 0.9016, 0.6695 0.2577 0.9055, 0.6695 0.2577 0.9016, 0.6863 0.2602 0.9055, 0.6863 0.2602 0.9016, 1.0531 0.0813 0.9016, 0.8311 0.0813 0.9016, 1.0531 0.0813 0.9055, 0.8311 0.0813 0.9055, 0.8311 0.114 0.9016, 0.8311 0.114 0.9055, 1.0531 0.114 0.9016, 1.0531 0.114 0.9055, 1.1484 0.2516 0.9016, 1.1363 0.1673 0.9016, 1.1484 0.2516 0.9055, 1.1363 0.1673 0.9055, 1.1948 0.1862 0.9016, 1.1948 0.1862 0.9055, 1.1694 0.1831 0.9055, 1.1694 0.1831 0.9016, 1.149 0.1753 0.9055, 1.149 0.1753 0.9016, 1.2981 0.0864 0.9016, 1.2981 0.0864 0.9055, 1.2935 0.1139 0.9055, 1.2935 0.1139 0.9016, 1.285 0.1354 0.9055, 1.285 0.1354 0.9016, 1.2735 0.1521 0.9055, 1.2735 0.1521 0.9016, 1.2572 0.1665 0.9055, 1.2572 0.1665 0.9016, 1.2377 0.1767 0.9055, 1.2377 0.1767 0.9016, 1.2057 0.185 0.9055, 1.2057 0.185 0.9016, 1.2671 0.009 0.9016, 1.2671 0.009 0.9055, 1.2827 0.0278 0.9055, 1.2827 0.0278 0.9016, 1.2924 0.0485 0.9055, 1.2924 0.0485 0.9016, 1.2973 0.0718 0.9055, 1.2973 0.0718 0.9016, 1.2243 -0.0141 0.9016, 1.1845 -0.0186 0.9016, 1.2076 -0.016 0.9055, 1.1845 -0.0186 0.9055, 1.2243 -0.0141 0.9055, 1.2473 -0.0055 0.9055, 1.2473 -0.0055 0.9016, 1.2652 0.0072 0.9055, 1.2652 0.0072 0.9016, 1.1414 -0.0119 0.9055, 1.1218 -0.0027 0.9016, 1.1218 -0.0027 0.9055, 1.1075 0.0089 0.9016, 1.1075 0.0089 0.9055, 1.0974 0.0224 0.9016, 1.0974 0.0224 0.9055, 1.0894 0.0407 0.9016, 1.0894 0.0407 0.9055, 1.0847 0.064 0.9016, 1.0847 0.064 0.9055, 1.1622 -0.016 0.9055, 1.1723 -0.018 0.9016, 1.1414 -0.0119 0.9016, 1.1723 -0.018 0.9055, 1.1243 0.064 0.9016, 1.1243 0.064 0.9055, 1.1914 0.0107 0.9016, 1.1914 0.0107 0.9055, 1.1724 0.0122 0.9055, 1.1724 0.0122 0.9016, 1.1581 0.0163 0.9055, 1.1581 0.0163 0.9016, 1.1459 0.0229 0.9055, 1.1459 0.0229 0.9016, 1.1375 0.0309 0.9055, 1.1375 0.0309 0.9016, 1.1308 0.0411 0.9055, 1.1308 0.0411 0.9016, 1.1256 0.0563 0.9055, 1.1256 0.0563 0.9016, 1.2551 0.0813 0.9016, 1.2551 0.0813 0.9055, 1.2516 0.0601 0.9055, 1.2516 0.0601 0.9016, 1.2455 0.0438 0.9055, 1.2455 0.0438 0.9016, 1.2379 0.0324 0.9055, 1.2379 0.0324 0.9016, 1.2283 0.0234 0.9055, 1.2283 0.0234 0.9016, 1.2163 0.0166 0.9055, 1.2163 0.0166 0.9016, 1.1988 0.0116 0.9055, 1.1988 0.0116 0.9016, 1.188 0.1501 0.9016, 1.188 0.1501 0.9055, 1.2066 0.1475 0.9055, 1.2066 0.1475 0.9016, 1.2209 0.1424 0.9055, 1.2209 0.1424 0.9016, 1.2321 0.1353 0.9055, 1.2321 0.1353 0.9016, 1.2412 0.1258 0.9055, 1.2412 0.1258 0.9016, 1.2479 0.1142 0.9055, 1.2479 0.1142 0.9016, 1.2533 0.0964 0.9055, 1.2533 0.0964 0.9016, 1.1294 0.1208 0.9016, 1.1294 0.1208 0.9055, 1.1425 0.1345 0.9055, 1.1425 0.1345 0.9016, 1.1561 0.1432 0.9055, 1.1561 0.1432 0.9016, 1.1721 0.1485 0.9055, 1.1721 0.1485 0.9016, 1.0967 0.1226 0.9016, 1.0967 0.1226 0.9055, 1.1191 0.2895 0.9016, 1.1191 0.2895 0.9055, 1.2792 0.2895 0.9016, 1.2792 0.2895 0.9055, 1.2792 0.2516 0.9016, 1.2792 0.2516 0.9055
            ]
        }
        coordIndex [
            0,1,2,-1,2,1,3,-1,4,5,6,-1,4,6,7,-1,7,6,8,-1,7,8,9,-1,9,8,3,-1,9,3,1,-1,10,11,12,-1,12,11,13,-1,11,14,13,-1,13,14,15,-1,13,15,16,-1,16,15,17,-1,16,17,18,-1,18,17,5,-1,18,5,4,-1,19,20,21,-1,21,20,22,-1,21,22,23,-1,23,22,24,-1,23,24,25,-1,25,24,26,-1,25,26,27,-1,27,26,28,-1,27,28,29,-1,30,31,19,-1,19,31,32,-1,19,32,20,-1,30,33,31,-1,31,33,10,-1,31,10,12,-1,34,35,36,-1,34,36,37,-1,37,36,38,-1,37,38,39,-1,39,38,40,-1,39,40,41,-1,41,40,42,-1,41,42,43,-1,43,42,29,-1,43,29,28,-1,34,44,35,-1,35,44,45,-1,46,47,48,-1,46,48,49,-1,49,48,50,-1,49,50,51,-1,51,50,52,-1,51,52,53,-1,53,52,45,-1,53,45,44,-1,46,54,47,-1,47,54,55,-1,54,56,55,-1,55,56,57,-1,56,58,57,-1,57,58,59,-1,60,61,62,-1,60,62,63,-1,63,62,64,-1,63,64,65,-1,65,64,66,-1,65,66,67,-1,67,66,68,-1,67,68,69,-1,69,68,59,-1,69,59,58,-1,60,70,61,-1,61,70,71,-1,72,73,74,-1,72,74,75,-1,75,74,71,-1,75,71,70,-1,76,77,78,-1,76,78,79,-1,79,78,80,-1,79,80,81,-1,81,80,73,-1,81,73,72,-1,82,83,84,-1,82,84,85,-1,85,84,86,-1,85,86,87,-1,87,86,88,-1,87,88,89,-1,89,88,90,-1,89,90,91,-1,91,90,92,-1,91,92,93,-1,93,92,94,-1,93,94,95,-1,95,94,96,-1,95,96,97,-1,97,96,77,-1,97,77,76,-1,0,2,98,-1,0,98,99,-1,99,98,100,-1,99,100,101,-1,101,100,102,-1,101,102,103,-1,103,102,104,-1,103,104,105,-1,105,104,106,-1,105,106,107,-1,107,106,108,-1,107,108,109,-1,109,108,110,-1,109,110,111,-1,111,110,83,-1,111,83,82,-1,56,54,58,-1,58,54,46,-1,28,76,43,-1,43,76,79,-1,43,79,41,-1,41,79,81,-1,41,81,39,-1,39,81,72,-1,39,72,37,-1,37,72,75,-1,37,75,34,-1,34,75,70,-1,34,70,44,-1,44,70,60,-1,44,60,53,-1,53,60,63,-1,53,63,51,-1,51,63,65,-1,51,65,49,-1,49,65,67,-1,49,67,46,-1,46,67,69,-1,46,69,58,-1,1,0,9,-1,9,0,99,-1,9,99,7,-1,7,99,101,-1,7,101,4,-1,4,101,103,-1,4,103,18,-1,18,103,105,-1,18,105,16,-1,16,105,107,-1,16,107,13,-1,13,107,109,-1,13,109,12,-1,109,111,12,-1,12,111,82,-1,12,82,31,-1,31,82,85,-1,31,85,32,-1,32,85,87,-1,32,87,20,-1,20,87,89,-1,20,89,22,-1,22,89,91,-1,22,91,24,-1,24,91,93,-1,24,93,26,-1,26,93,95,-1,26,95,28,-1,28,95,97,-1,28,97,76,-1,112,113,114,-1,114,113,115,-1,116,117,118,-1,116,118,119,-1,119,118,120,-1,119,120,121,-1,121,120,115,-1,121,115,113,-1,122,123,124,-1,122,124,125,-1,125,124,126,-1,125,126,127,-1,127,126,128,-1,127,128,129,-1,129,128,130,-1,129,130,131,-1,131,130,132,-1,131,132,133,-1,133,132,134,-1,133,134,135,-1,135,134,117,-1,135,117,116,-1,136,137,138,-1,136,138,139,-1,139,138,140,-1,139,140,141,-1,141,140,142,-1,141,142,143,-1,143,142,123,-1,143,123,122,-1,144,145,146,-1,146,145,147,-1,146,148,144,-1,144,148,149,-1,144,149,150,-1,150,149,151,-1,150,151,152,-1,152,151,137,-1,152,137,136,-1,153,154,155,-1,155,154,156,-1,155,156,157,-1,157,156,158,-1,157,158,159,-1,159,158,160,-1,159,160,161,-1,161,160,162,-1,161,162,163,-1,164,165,153,-1,153,165,166,-1,153,166,154,-1,164,167,165,-1,165,167,147,-1,165,147,145,-1,162,168,163,-1,163,168,169,-1,170,171,172,-1,170,172,173,-1,173,172,174,-1,173,174,175,-1,175,174,176,-1,175,176,177,-1,177,176,178,-1,177,178,179,-1,179,178,180,-1,179,180,181,-1,181,180,182,-1,181,182,183,-1,183,182,169,-1,183,169,168,-1,184,185,186,-1,184,186,187,-1,187,186,188,-1,187,188,189,-1,189,188,190,-1,189,190,191,-1,191,190,192,-1,191,192,193,-1,193,192,194,-1,193,194,195,-1,195,194,196,-1,195,196,197,-1,197,196,171,-1,197,171,170,-1,198,199,200,-1,198,200,201,-1,201,200,202,-1,201,202,203,-1,203,202,204,-1,203,204,205,-1,205,204,206,-1,205,206,207,-1,207,206,208,-1,207,208,209,-1,209,208,210,-1,209,210,211,-1,211,210,185,-1,211,185,184,-1,212,213,214,-1,212,214,215,-1,215,214,216,-1,215,216,217,-1,217,216,218,-1,217,218,219,-1,219,218,199,-1,219,199,198,-1,212,220,213,-1,213,220,221,-1,220,222,221,-1,221,222,223,-1,222,224,223,-1,223,224,225,-1,224,226,225,-1,225,226,227,-1,226,112,227,-1,227,112,114,-1,226,224,112,-1,112,224,222,-1,112,222,113,-1,113,222,220,-1,144,150,193,-1,193,150,152,-1,193,152,191,-1,191,152,136,-1,191,136,189,-1,189,136,139,-1,189,139,187,-1,168,162,183,-1,183,162,160,-1,183,160,181,-1,181,160,158,-1,181,158,179,-1,179,158,156,-1,179,156,177,-1,177,156,154,-1,177,154,175,-1,175,154,166,-1,175,166,173,-1,173,166,165,-1,173,165,170,-1,170,165,145,-1,170,145,197,-1,197,145,144,-1,197,144,195,-1,195,144,193,-1,220,212,113,-1,113,212,215,-1,113,215,121,-1,121,215,217,-1,121,217,119,-1,119,217,219,-1,119,219,116,-1,116,219,198,-1,116,198,135,-1,135,198,201,-1,135,201,133,-1,133,201,203,-1,133,203,131,-1,131,203,205,-1,131,205,129,-1,129,205,207,-1,129,207,127,-1,127,207,209,-1,127,209,125,-1,125,209,211,-1,125,211,122,-1,122,211,184,-1,122,184,143,-1,143,184,187,-1,143,187,141,-1,141,187,139,-1,228,229,230,-1,230,229,231,-1,232,233,234,-1,232,234,235,-1,235,234,236,-1,235,236,237,-1,237,236,231,-1,237,231,229,-1,238,239,240,-1,240,239,241,-1,239,242,241,-1,241,242,243,-1,241,243,244,-1,244,243,245,-1,244,245,246,-1,246,245,233,-1,246,233,232,-1,247,248,249,-1,249,248,250,-1,249,250,251,-1,251,250,252,-1,251,252,253,-1,253,252,254,-1,253,254,255,-1,255,254,256,-1,255,256,257,-1,258,259,247,-1,247,259,260,-1,247,260,248,-1,258,261,259,-1,259,261,238,-1,259,238,240,-1,262,263,264,-1,262,264,265,-1,265,264,266,-1,265,266,267,-1,267,266,268,-1,267,268,269,-1,269,268,270,-1,269,270,271,-1,271,270,257,-1,271,257,256,-1,262,272,263,-1,263,272,273,-1,274,275,276,-1,274,276,277,-1,277,276,278,-1,277,278,279,-1,279,278,280,-1,279,280,281,-1,281,280,273,-1,281,273,272,-1,274,282,275,-1,275,282,283,-1,282,284,283,-1,283,284,285,-1,284,286,285,-1,285,286,287,-1,288,289,290,-1,288,290,291,-1,291,290,292,-1,291,292,293,-1,293,292,294,-1,293,294,295,-1,295,294,296,-1,295,296,297,-1,297,296,287,-1,297,287,286,-1,288,298,289,-1,289,298,299,-1,300,301,302,-1,300,302,303,-1,303,302,299,-1,303,299,298,-1,304,305,306,-1,304,306,307,-1,307,306,308,-1,307,308,309,-1,309,308,301,-1,309,301,300,-1,310,311,312,-1,310,312,313,-1,313,312,314,-1,313,314,315,-1,315,314,316,-1,315,316,317,-1,317,316,318,-1,317,318,319,-1,319,318,320,-1,319,320,321,-1,321,320,322,-1,321,322,323,-1,323,322,324,-1,323,324,325,-1,325,324,305,-1,325,305,304,-1,228,230,326,-1,228,326,327,-1,327,326,328,-1,327,328,329,-1,329,328,330,-1,329,330,331,-1,331,330,332,-1,331,332,333,-1,333,332,334,-1,333,334,335,-1,335,334,336,-1,335,336,337,-1,337,336,338,-1,337,338,339,-1,339,338,311,-1,339,311,310,-1,284,282,286,-1,286,282,274,-1,256,304,271,-1,271,304,307,-1,271,307,269,-1,269,307,309,-1,269,309,267,-1,267,309,300,-1,267,300,265,-1,265,300,303,-1,265,303,262,-1,262,303,298,-1,262,298,272,-1,272,298,288,-1,272,288,281,-1,281,288,291,-1,281,291,279,-1,279,291,293,-1,279,293,277,-1,277,293,295,-1,277,295,274,-1,274,295,297,-1,274,297,286,-1,229,228,237,-1,237,228,327,-1,237,327,235,-1,235,327,329,-1,235,329,232,-1,232,329,331,-1,232,331,246,-1,246,331,333,-1,246,333,244,-1,244,333,335,-1,244,335,241,-1,241,335,337,-1,241,337,240,-1,337,339,240,-1,240,339,310,-1,240,310,259,-1,259,310,313,-1,259,313,260,-1,260,313,315,-1,260,315,248,-1,248,315,317,-1,248,317,250,-1,250,317,319,-1,250,319,252,-1,252,319,321,-1,252,321,254,-1,254,321,323,-1,254,323,256,-1,256,323,325,-1,256,325,304,-1,340,341,342,-1,342,341,343,-1,341,344,343,-1,343,344,345,-1,344,346,345,-1,345,346,347,-1,346,340,347,-1,347,340,342,-1,346,344,340,-1,340,344,341,-1,348,349,350,-1,350,349,351,-1,352,353,354,-1,352,354,355,-1,355,354,356,-1,355,356,357,-1,357,356,351,-1,357,351,349,-1,358,359,360,-1,358,360,361,-1,361,360,362,-1,361,362,363,-1,363,362,364,-1,363,364,365,-1,365,364,366,-1,365,366,367,-1,367,366,368,-1,367,368,369,-1,369,368,370,-1,369,370,371,-1,371,370,353,-1,371,353,352,-1,372,373,374,-1,372,374,375,-1,375,374,376,-1,375,376,377,-1,377,376,378,-1,377,378,379,-1,379,378,359,-1,379,359,358,-1,380,381,382,-1,382,381,383,-1,382,384,380,-1,380,384,385,-1,380,385,386,-1,386,385,387,-1,386,387,388,-1,388,387,373,-1,388,373,372,-1,389,390,391,-1,391,390,392,-1,391,392,393,-1,393,392,394,-1,393,394,395,-1,395,394,396,-1,395,396,397,-1,397,396,398,-1,397,398,399,-1,400,401,389,-1,389,401,402,-1,389,402,390,-1,400,403,401,-1,401,403,383,-1,401,383,381,-1,398,404,399,-1,399,404,405,-1,406,407,408,-1,406,408,409,-1,409,408,410,-1,409,410,411,-1,411,410,412,-1,411,412,413,-1,413,412,414,-1,413,414,415,-1,415,414,416,-1,415,416,417,-1,417,416,418,-1,417,418,419,-1,419,418,405,-1,419,405,404,-1,420,421,422,-1,420,422,423,-1,423,422,424,-1,423,424,425,-1,425,424,426,-1,425,426,427,-1,427,426,428,-1,427,428,429,-1,429,428,430,-1,429,430,431,-1,431,430,432,-1,431,432,433,-1,433,432,407,-1,433,407,406,-1,434,435,436,-1,434,436,437,-1,437,436,438,-1,437,438,439,-1,439,438,440,-1,439,440,441,-1,441,440,442,-1,441,442,443,-1,443,442,444,-1,443,444,445,-1,445,444,446,-1,445,446,447,-1,447,446,421,-1,447,421,420,-1,448,449,450,-1,448,450,451,-1,451,450,452,-1,451,452,453,-1,453,452,454,-1,453,454,455,-1,455,454,435,-1,455,435,434,-1,448,456,449,-1,449,456,457,-1,456,458,457,-1,457,458,459,-1,458,460,459,-1,459,460,461,-1,460,462,461,-1,461,462,463,-1,462,348,463,-1,463,348,350,-1,462,460,348,-1,348,460,458,-1,348,458,349,-1,349,458,456,-1,380,386,429,-1,429,386,388,-1,429,388,427,-1,427,388,372,-1,427,372,425,-1,425,372,375,-1,425,375,423,-1,404,398,419,-1,419,398,396,-1,419,396,417,-1,417,396,394,-1,417,394,415,-1,415,394,392,-1,415,392,413,-1,413,392,390,-1,413,390,411,-1,411,390,402,-1,411,402,409,-1,409,402,401,-1,409,401,406,-1,406,401,381,-1,406,381,433,-1,433,381,380,-1,433,380,431,-1,431,380,429,-1,456,448,349,-1,349,448,451,-1,349,451,357,-1,357,451,453,-1,357,453,355,-1,355,453,455,-1,355,455,352,-1,352,455,434,-1,352,434,371,-1,371,434,437,-1,371,437,369,-1,369,437,439,-1,369,439,367,-1,367,439,441,-1,367,441,365,-1,365,441,443,-1,365,443,363,-1,363,443,445,-1,363,445,361,-1,361,445,447,-1,361,447,358,-1,358,447,420,-1,358,420,379,-1,379,420,423,-1,379,423,377,-1,377,423,375,-1,
        ]
    }
}
Shape{
    appearance Appearance {
        material  Material 	{
            diffuseColor 0.7686274509803922 0.7686274509803922 0.7686274509803922
            specularColor 0.615686274509804 0.615686274509804 0.615686274509804
            ambientIntensity 0.7686
            transparency 0.0
            shininess 0.5
        }
    }
    geometry IndexedFaceSet {
        ccw TRUE
        solid FALSE
        coord DEF co Coordinate {
            point [
                -0.5906 -0.0762 0.0, -0.5906 0.1424 0.0, 0.358 0.1424 0.0, 0.2853 0.1436 0.0, 0.3388 0.1436 0.0, 0.1659 0.1436 0.0, 0.1902 0.1976 0.0, 0.2015 0.18 0.0, -0.5906 1.7349 0.0, -0.3937 1.9317 0.0, 0.358 1.9317 0.0, 0.0171 0.1436 0.0, -0.0117 0.1436 0.0, 0.0651 0.3405 0.0, 0.2177 0.1645 0.0, 0.2382 0.1525 0.0, 0.2609 0.1458 0.0, -0.5906 1.2624 0.0, -0.3937 1.2624 0.0, -0.3937 1.1443 0.0, 0.3388 0.3405 0.0, 0.2832 0.3405 0.0, 0.2548 0.3375 0.0, 0.2318 0.3294 0.0, 0.0915 0.3405 0.0, 0.2103 0.315 0.0, -0.5906 1.1443 0.0, 0.1371 0.1436 0.0, 0.1183 0.1989 0.0, 0.037 0.1989 0.0, 0.2101 0.3148 0.0, 0.1962 0.2994 0.0, 0.1871 0.2824 0.0, 0.1818 0.263 0.0, 0.1803 0.2445 0.0, 0.1831 0.2182 0.0, -0.4447 -0.2663 0.0, -0.4921 -0.2466 0.0, -0.5329 -0.2154 0.0, -0.5642 -0.1746 0.0, -0.5838 -0.1271 0.0, 0.5621 0.1424 0.0, 0.57 0.1413 0.0, 0.358 -0.273 0.0, 0.5754 0.1412 0.0, 0.587 0.1424 0.0, 1.378 0.1424 0.0, 1.378 -0.0762 0.0, 1.1811 -0.273 0.0, 1.3712 -0.1271 0.0, 1.2321 -0.2663 0.0, 1.3516 -0.1746 0.0, 1.2795 -0.2466 0.0, 1.3203 -0.2154 0.0, 0.3772 0.1652 0.0, 0.3772 0.1436 0.0, 0.4828 0.1436 0.0, 0.382 0.3405 0.0, 0.382 0.3189 0.0, 0.5212 0.1538 0.0, 0.5212 0.1754 0.0, 0.4828 0.3405 0.0, 0.5422 0.1452 0.0, -0.3937 -0.273 0.0, 1.1811 1.9317 0.0, 1.1811 1.2624 0.0, 1.378 1.7349 0.0, 1.378 1.2624 0.0, 0.4564 0.2325 0.0, 0.4564 0.1652 0.0, 0.3868 0.2325 0.0, 0.3868 0.2541 0.0, 0.4564 0.2541 0.0, 0.4564 0.3189 0.0, 0.5867 0.3191 0.0, 0.6014 0.3138 0.0, 0.5248 0.1735 0.0, 0.6151 0.3047 0.0, 0.627 0.2916 0.0, 0.6413 0.24 0.0, 0.6393 0.2187 0.0, 0.6339 0.2017 0.0, 0.5901 0.1649 0.0, 0.5718 0.1628 0.0, 0.6045 0.1702 0.0, 0.6165 0.1783 0.0, 0.6258 0.1881 0.0, 0.5456 0.1657 0.0, 0.7853 0.1436 0.0, 0.6845 0.1436 0.0, 0.5997 0.1438 0.0, 0.6187 0.1503 0.0, 1.1811 1.1443 0.0, 0.6573 0.2887 0.0, 0.6457 0.3071 0.0, 0.7589 0.3405 0.0, 0.6351 0.2764 0.0, 0.6403 0.2553 0.0, 0.5676 0.3429 0.0, 0.544 0.3413 0.0, 0.5212 0.3351 0.0, 0.5212 0.3087 0.0, 0.5434 0.3182 0.0, 0.5673 0.3213 0.0, 0.6346 0.1604 0.0, 0.6494 0.176 0.0, 0.6845 0.1652 0.0, 0.6598 0.1947 0.0, 0.7589 0.1652 0.0, 0.6279 0.3242 0.0, 0.6092 0.3349 0.0, 0.5873 0.3413 0.0, 0.7853 0.3405 0.0, 1.378 1.1443 0.0, 0.6658 0.2156 0.0, 0.6677 0.2384 0.0, 0.6648 0.2663 0.0, 1.1811 1.2624 0.1969, 1.378 1.2624 0.1969, 1.378 1.7349 0.1969, 1.1811 1.9317 0.1969, -0.3937 1.9317 0.1969, -0.3937 1.2624 0.1969, -0.5906 1.7349 0.1969, -0.5906 1.2624 0.1969, 1.1811 1.1443 0.1969, -0.3937 1.1443 0.1969, 1.1811 -0.273 0.1969, -0.3937 -0.273 0.1969, -0.4921 -0.2466 0.1969, -0.5906 -0.0762 0.1969, -0.5329 -0.2154 0.1969, -0.5838 -0.1271 0.1969, -0.5642 -0.1746 0.1969, -0.5906 1.1443 0.1969, -0.4447 -0.2663 0.1969, 1.378 1.1443 0.1969, 1.378 -0.0762 0.1969, 1.3712 -0.1271 0.1969, 1.2321 -0.2663 0.1969, 1.3516 -0.1746 0.1969, 1.2795 -0.2466 0.1969, 1.3203 -0.2154 0.1969
            ]
        }
        coordIndex [
            0,1,2,-1,3,4,2,-1,5,6,7,-1,8,9,10,-1,11,2,12,-1,12,2,1,-1,12,1,13,-1,7,14,5,-1,5,14,15,-1,5,15,16,-1,17,8,18,-1,18,8,10,-1,18,10,19,-1,19,10,20,-1,19,20,21,-1,22,23,24,-1,24,23,25,-1,1,26,13,-1,13,26,19,-1,13,19,24,-1,24,19,21,-1,24,21,22,-1,16,3,5,-1,5,3,2,-1,5,2,27,-1,27,2,11,-1,27,11,28,-1,28,11,29,-1,25,30,24,-1,24,30,31,-1,24,31,32,-1,32,33,24,-1,24,33,34,-1,24,34,5,-1,5,34,35,-1,5,35,6,-1,36,37,0,-1,37,38,0,-1,0,38,39,-1,0,39,40,-1,41,42,43,-1,43,42,44,-1,43,44,45,-1,46,47,48,-1,48,47,49,-1,48,49,50,-1,50,49,51,-1,50,51,52,-1,52,51,53,-1,54,55,2,-1,2,55,56,-1,4,20,2,-1,2,20,10,-1,2,10,54,-1,54,10,57,-1,54,57,58,-1,59,56,60,-1,60,56,61,-1,59,62,56,-1,56,62,41,-1,56,41,2,-1,2,41,43,-1,2,43,0,-1,0,43,63,-1,0,63,36,-1,10,64,65,-1,65,64,66,-1,65,66,67,-1,68,69,70,-1,70,69,54,-1,70,54,71,-1,71,54,58,-1,71,58,72,-1,72,58,73,-1,74,75,76,-1,76,75,77,-1,76,77,78,-1,79,80,76,-1,76,80,81,-1,82,83,84,-1,84,83,85,-1,81,86,76,-1,76,86,85,-1,76,85,87,-1,87,85,83,-1,88,45,89,-1,89,45,90,-1,89,90,91,-1,10,65,57,-1,57,65,92,-1,57,92,61,-1,93,94,95,-1,78,96,76,-1,76,96,97,-1,76,97,79,-1,98,99,92,-1,92,99,100,-1,92,100,61,-1,61,100,101,-1,61,101,60,-1,60,101,102,-1,60,102,76,-1,76,102,103,-1,76,103,74,-1,91,104,89,-1,89,104,105,-1,89,105,106,-1,106,105,107,-1,106,107,108,-1,94,109,95,-1,95,109,110,-1,95,110,111,-1,111,98,95,-1,95,98,92,-1,95,92,112,-1,112,92,113,-1,112,113,88,-1,88,113,46,-1,88,46,45,-1,45,46,48,-1,45,48,43,-1,107,114,108,-1,108,114,115,-1,108,115,95,-1,95,115,116,-1,95,116,93,-1,117,118,119,-1,120,121,122,-1,122,121,123,-1,122,123,124,-1,119,120,117,-1,117,120,122,-1,117,122,125,-1,125,122,126,-1,125,126,127,-1,127,126,128,-1,129,130,131,-1,131,130,132,-1,131,132,133,-1,126,134,128,-1,128,134,130,-1,128,130,135,-1,135,130,129,-1,136,125,137,-1,137,125,127,-1,137,127,138,-1,138,127,139,-1,138,139,140,-1,140,139,141,-1,140,141,142,-1,18,122,17,-1,17,122,124,-1,19,126,18,-1,18,126,122,-1,26,134,19,-1,19,134,126,-1,134,26,130,-1,130,26,1,-1,130,1,0,-1,63,128,135,-1,63,135,36,-1,36,135,129,-1,36,129,37,-1,37,129,131,-1,37,131,38,-1,38,131,133,-1,38,133,39,-1,39,133,132,-1,39,132,40,-1,40,132,130,-1,40,130,0,-1,48,127,43,-1,43,127,128,-1,43,128,63,-1,47,137,138,-1,47,138,49,-1,49,138,140,-1,49,140,51,-1,51,140,142,-1,51,142,53,-1,53,142,141,-1,53,141,52,-1,52,141,139,-1,52,139,50,-1,50,139,127,-1,50,127,48,-1,113,136,46,-1,46,136,137,-1,46,137,47,-1,92,125,113,-1,113,125,136,-1,65,117,92,-1,92,117,125,-1,67,118,65,-1,65,118,117,-1,66,119,67,-1,67,119,118,-1,64,120,66,-1,66,120,119,-1,9,121,10,-1,10,121,120,-1,10,120,64,-1,8,123,9,-1,9,123,121,-1,17,124,8,-1,8,124,123,-1,
        ]
    }
}
Shape{
    appearance Appearance {
        material  Material 	{
            diffuseColor 0.25098039215686274 0.25098039215686274 0.25098039215686274
            specularColor 0.07450980392156863 0.07450980392156863 0.07450980392156863
            ambientIntensity 0.251
            transparency 0.0
            shininess 0.5
        }
    }
    geometry IndexedFaceSet {
        ccw TRUE
        solid FALSE
        coord DEF co Coordinate {
            point [
                0.0651 0.3405 0.0039, -0.0117 0.1436 0.0039, 0.0651 0.3405 0.0, -0.0117 0.1436 0.0, 0.0171 0.1436 0.0039, 0.0171 0.1436 0.0, 0.037 0.1989 0.0039, 0.037 0.1989 0.0, 0.1183 0.1989 0.0039, 0.1183 0.1989 0.0, 0.1371 0.1436 0.0039, 0.1371 0.1436 0.0, 0.1659 0.1436 0.0039, 0.1659 0.1436 0.0, 0.0915 0.3405 0.0039, 0.0915 0.3405 0.0, 0.1117 0.2205 0.0039, 0.0459 0.2205 0.0039, 0.0823 0.3027 0.0039, 0.0804 0.3095 0.0039, 0.0792 0.3165 0.0039, 0.0785 0.3165 0.0039, 0.0773 0.3095 0.0039, 0.0755 0.3027 0.0039, 0.1117 0.2205 0.0, 0.0459 0.2205 0.0, 0.0823 0.3027 0.0, 0.0804 0.3095 0.0, 0.0792 0.3165 0.0, 0.0785 0.3165 0.0, 0.0773 0.3095 0.0, 0.0755 0.3027 0.0, 0.2853 0.1436 0.0039, 0.3388 0.1436 0.0039, 0.2853 0.1436 0.0, 0.3388 0.1436 0.0, 0.3388 0.3405 0.0039, 0.3388 0.3405 0.0, 0.2832 0.3405 0.0039, 0.2832 0.3405 0.0, 0.1803 0.2445 0.0039, 0.1803 0.2445 0.0, 0.1818 0.263 0.0, 0.1818 0.263 0.0039, 0.1871 0.2824 0.0, 0.1871 0.2824 0.0039, 0.1962 0.2994 0.0, 0.1962 0.2994 0.0039, 0.2101 0.3148 0.0, 0.2101 0.3148 0.0039, 0.2103 0.315 0.0, 0.2103 0.315 0.0039, 0.2318 0.3294 0.0, 0.2318 0.3294 0.0039, 0.2548 0.3375 0.0, 0.2548 0.3375 0.0039, 0.2609 0.1458 0.0, 0.2609 0.1458 0.0039, 0.2382 0.1525 0.0, 0.2382 0.1525 0.0039, 0.2177 0.1645 0.0, 0.2177 0.1645 0.0039, 0.2015 0.18 0.0, 0.2015 0.18 0.0039, 0.1902 0.1976 0.0, 0.1902 0.1976 0.0039, 0.1831 0.2182 0.0, 0.1831 0.2182 0.0039, 0.2199 0.2913 0.0039, 0.2294 0.3014 0.0039, 0.2438 0.3107 0.0039, 0.26 0.3164 0.0039, 0.2833 0.3189 0.0039, 0.3124 0.3189 0.0039, 0.3124 0.1652 0.0039, 0.2844 0.1652 0.0039, 0.2637 0.1672 0.0039, 0.2471 0.1724 0.0039, 0.2337 0.1803 0.0039, 0.2226 0.1912 0.0039, 0.2143 0.2048 0.0039, 0.2086 0.2233 0.0039, 0.2068 0.244 0.0039, 0.2084 0.2636 0.0039, 0.213 0.2791 0.0039, 0.2833 0.3189 0.0, 0.3124 0.3189 0.0, 0.26 0.3164 0.0, 0.2438 0.3107 0.0, 0.2294 0.3014 0.0, 0.2199 0.2913 0.0, 0.213 0.2791 0.0, 0.2084 0.2636 0.0, 0.2068 0.244 0.0, 0.2086 0.2233 0.0, 0.2143 0.2048 0.0, 0.2226 0.1912 0.0, 0.2337 0.1803 0.0, 0.2471 0.1724 0.0, 0.2637 0.1672 0.0, 0.2844 0.1652 0.0, 0.3124 0.1652 0.0, 0.3772 0.1652 0.0039, 0.3772 0.1436 0.0039, 0.3772 0.1652 0.0, 0.3772 0.1436 0.0, 0.4828 0.1436 0.0039, 0.4828 0.1436 0.0, 0.4828 0.3405 0.0039, 0.4828 0.3405 0.0, 0.382 0.3405 0.0039, 0.382 0.3405 0.0, 0.382 0.3189 0.0039, 0.382 0.3189 0.0, 0.4564 0.3189 0.0039, 0.4564 0.3189 0.0, 0.4564 0.2541 0.0039, 0.4564 0.2541 0.0, 0.3868 0.2541 0.0039, 0.3868 0.2541 0.0, 0.3868 0.2325 0.0039, 0.3868 0.2325 0.0, 0.4564 0.2325 0.0039, 0.4564 0.2325 0.0, 0.4564 0.1652 0.0039, 0.4564 0.1652 0.0, 0.5212 0.1754 0.0039, 0.5212 0.1538 0.0039, 0.5212 0.1754 0.0, 0.5212 0.1538 0.0, 0.5422 0.1452 0.0039, 0.5754 0.1412 0.0039, 0.5754 0.1412 0.0, 0.57 0.1413 0.0, 0.57 0.1413 0.0039, 0.5621 0.1424 0.0, 0.5422 0.1452 0.0, 0.6677 0.2384 0.0039, 0.6677 0.2384 0.0, 0.6658 0.2156 0.0, 0.6658 0.2156 0.0039, 0.6598 0.1947 0.0, 0.6598 0.1947 0.0039, 0.6494 0.176 0.0, 0.6494 0.176 0.0039, 0.6346 0.1604 0.0, 0.6346 0.1604 0.0039, 0.6187 0.1503 0.0, 0.6187 0.1503 0.0039, 0.5997 0.1438 0.0, 0.5997 0.1438 0.0039, 0.587 0.1424 0.0, 0.5676 0.3429 0.0039, 0.5676 0.3429 0.0, 0.5873 0.3413 0.0, 0.5873 0.3413 0.0039, 0.6092 0.3349 0.0, 0.6092 0.3349 0.0039, 0.6279 0.3242 0.0, 0.6279 0.3242 0.0039, 0.6457 0.3071 0.0, 0.6457 0.3071 0.0039, 0.6573 0.2887 0.0, 0.6573 0.2887 0.0039, 0.6648 0.2663 0.0, 0.6648 0.2663 0.0039, 0.5212 0.3351 0.0039, 0.5212 0.3351 0.0, 0.544 0.3413 0.0, 0.544 0.3413 0.0039, 0.5212 0.3087 0.0039, 0.5212 0.3087 0.0, 0.5673 0.3213 0.0039, 0.5673 0.3213 0.0, 0.5434 0.3182 0.0, 0.5434 0.3182 0.0039, 0.6413 0.24 0.0039, 0.6413 0.24 0.0, 0.6403 0.2553 0.0, 0.6403 0.2553 0.0039, 0.6351 0.2764 0.0, 0.6351 0.2764 0.0039, 0.627 0.2916 0.0, 0.627 0.2916 0.0039, 0.6151 0.3047 0.0, 0.6151 0.3047 0.0039, 0.6014 0.3138 0.0, 0.6014 0.3138 0.0039, 0.5867 0.3191 0.0, 0.5867 0.3191 0.0039, 0.5718 0.1628 0.0039, 0.5718 0.1628 0.0, 0.5901 0.1649 0.0, 0.5901 0.1649 0.0039, 0.6045 0.1702 0.0, 0.6045 0.1702 0.0039, 0.6165 0.1783 0.0, 0.6165 0.1783 0.0039, 0.6258 0.1881 0.0, 0.6258 0.1881 0.0039, 0.6339 0.2017 0.0, 0.6339 0.2017 0.0039, 0.6393 0.2187 0.0, 0.6393 0.2187 0.0039, 0.5248 0.1735 0.0, 0.5248 0.1735 0.0039, 0.5456 0.1657 0.0, 0.5456 0.1657 0.0039, 0.6845 0.1652 0.0039, 0.6845 0.1436 0.0039, 0.6845 0.1652 0.0, 0.6845 0.1436 0.0, 0.7853 0.1436 0.0039, 0.7853 0.1436 0.0, 0.7853 0.3405 0.0039, 0.7853 0.3405 0.0, 0.7589 0.3405 0.0039, 0.7589 0.3405 0.0, 0.7589 0.1652 0.0039, 0.7589 0.1652 0.0
            ]
        }
        coordIndex [
            0,1,2,-1,2,1,3,-1,1,4,3,-1,3,4,5,-1,4,6,5,-1,5,6,7,-1,6,8,7,-1,7,8,9,-1,8,10,9,-1,9,10,11,-1,10,12,11,-1,11,12,13,-1,12,14,13,-1,13,14,15,-1,14,0,15,-1,15,0,2,-1,16,8,17,-1,17,8,6,-1,18,14,16,-1,16,14,12,-1,16,12,8,-1,8,12,10,-1,18,19,14,-1,14,19,20,-1,14,20,0,-1,0,20,21,-1,0,21,22,-1,22,23,0,-1,0,23,17,-1,0,17,1,-1,1,17,6,-1,1,6,4,-1,16,17,24,-1,24,17,25,-1,18,16,26,-1,26,16,24,-1,18,26,27,-1,18,27,19,-1,19,27,28,-1,19,28,20,-1,21,20,29,-1,29,20,28,-1,21,29,30,-1,21,30,22,-1,22,30,31,-1,22,31,23,-1,17,23,25,-1,25,23,31,-1,32,33,34,-1,34,33,35,-1,33,36,35,-1,35,36,37,-1,36,38,37,-1,37,38,39,-1,40,41,42,-1,40,42,43,-1,43,42,44,-1,43,44,45,-1,45,44,46,-1,45,46,47,-1,47,46,48,-1,47,48,49,-1,49,48,50,-1,49,50,51,-1,51,50,52,-1,51,52,53,-1,53,52,54,-1,53,54,55,-1,55,54,39,-1,55,39,38,-1,32,34,56,-1,32,56,57,-1,57,56,58,-1,57,58,59,-1,59,58,60,-1,59,60,61,-1,61,60,62,-1,61,62,63,-1,63,62,64,-1,63,64,65,-1,65,64,66,-1,65,66,67,-1,67,66,41,-1,67,41,40,-1,45,47,68,-1,68,47,49,-1,68,49,69,-1,69,49,51,-1,69,51,70,-1,70,51,53,-1,70,53,71,-1,71,53,55,-1,71,55,72,-1,72,55,38,-1,72,38,73,-1,73,38,36,-1,73,36,74,-1,74,36,33,-1,74,33,75,-1,75,33,32,-1,75,32,76,-1,76,32,57,-1,76,57,77,-1,77,57,59,-1,77,59,78,-1,78,59,61,-1,78,61,79,-1,79,61,63,-1,79,63,80,-1,80,63,65,-1,80,65,81,-1,81,65,67,-1,81,67,82,-1,82,67,40,-1,82,40,83,-1,83,40,43,-1,83,43,84,-1,84,43,45,-1,84,45,68,-1,72,73,85,-1,85,73,86,-1,72,85,87,-1,72,87,71,-1,71,87,88,-1,71,88,70,-1,70,88,89,-1,70,89,69,-1,69,89,90,-1,69,90,68,-1,68,90,91,-1,68,91,84,-1,84,91,92,-1,84,92,83,-1,83,92,93,-1,83,93,82,-1,82,93,94,-1,82,94,81,-1,81,94,95,-1,81,95,80,-1,80,95,96,-1,80,96,79,-1,79,96,97,-1,79,97,78,-1,78,97,98,-1,78,98,77,-1,77,98,99,-1,77,99,76,-1,76,99,100,-1,76,100,75,-1,74,75,101,-1,101,75,100,-1,73,74,86,-1,86,74,101,-1,102,103,104,-1,104,103,105,-1,103,106,105,-1,105,106,107,-1,106,108,107,-1,107,108,109,-1,108,110,109,-1,109,110,111,-1,110,112,111,-1,111,112,113,-1,112,114,113,-1,113,114,115,-1,114,116,115,-1,115,116,117,-1,116,118,117,-1,117,118,119,-1,118,120,119,-1,119,120,121,-1,120,122,121,-1,121,122,123,-1,122,124,123,-1,123,124,125,-1,124,102,125,-1,125,102,104,-1,106,103,102,-1,102,124,106,-1,106,124,122,-1,106,122,108,-1,112,110,114,-1,114,110,108,-1,114,108,116,-1,116,108,122,-1,116,122,118,-1,118,122,120,-1,126,127,128,-1,128,127,129,-1,129,127,130,-1,131,132,133,-1,131,133,134,-1,134,133,135,-1,134,135,130,-1,130,135,136,-1,130,136,129,-1,137,138,139,-1,137,139,140,-1,140,139,141,-1,140,141,142,-1,142,141,143,-1,142,143,144,-1,144,143,145,-1,144,145,146,-1,146,145,147,-1,146,147,148,-1,148,147,149,-1,148,149,150,-1,150,149,131,-1,131,149,151,-1,131,151,132,-1,152,153,154,-1,152,154,155,-1,155,154,156,-1,155,156,157,-1,157,156,158,-1,157,158,159,-1,159,158,160,-1,159,160,161,-1,161,160,162,-1,161,162,163,-1,163,162,164,-1,163,164,165,-1,165,164,138,-1,165,138,137,-1,166,167,168,-1,166,168,169,-1,169,168,153,-1,169,153,152,-1,166,170,167,-1,167,170,171,-1,172,173,174,-1,172,174,175,-1,175,174,171,-1,175,171,170,-1,176,177,178,-1,176,178,179,-1,179,178,180,-1,179,180,181,-1,181,180,182,-1,181,182,183,-1,183,182,184,-1,183,184,185,-1,185,184,186,-1,185,186,187,-1,187,186,188,-1,187,188,189,-1,189,188,173,-1,189,173,172,-1,190,191,192,-1,190,192,193,-1,193,192,194,-1,193,194,195,-1,195,194,196,-1,195,196,197,-1,197,196,198,-1,197,198,199,-1,199,198,200,-1,199,200,201,-1,201,200,202,-1,201,202,203,-1,203,202,177,-1,203,177,176,-1,126,128,204,-1,126,204,205,-1,205,204,206,-1,205,206,207,-1,207,206,191,-1,207,191,190,-1,193,131,190,-1,190,131,134,-1,190,134,207,-1,207,134,130,-1,207,130,205,-1,205,130,127,-1,205,127,126,-1,170,166,175,-1,175,166,169,-1,175,169,172,-1,172,169,152,-1,172,152,189,-1,189,152,155,-1,189,155,187,-1,187,155,157,-1,187,157,185,-1,185,157,159,-1,185,159,183,-1,183,159,161,-1,183,161,181,-1,181,161,163,-1,181,163,179,-1,179,163,165,-1,179,165,176,-1,176,165,137,-1,176,137,203,-1,203,137,140,-1,203,140,201,-1,201,140,142,-1,201,142,199,-1,199,142,144,-1,199,144,197,-1,197,144,146,-1,197,146,195,-1,195,146,148,-1,195,148,193,-1,193,148,150,-1,193,150,131,-1,208,209,210,-1,210,209,211,-1,209,212,211,-1,211,212,213,-1,212,214,213,-1,213,214,215,-1,214,216,215,-1,215,216,217,-1,216,218,217,-1,217,218,219,-1,218,208,219,-1,219,208,210,-1,216,214,218,-1,218,214,212,-1,218,212,208,-1,208,212,209,-1,
        ]
    }
}
Shape{
    appearance Appearance {
        material  Material 	{
            diffuseColor 0.7686274509803922 0.7686274509803922 0.7686274509803922
            specularColor 0.615686274509804 0.615686274509804 0.615686274509804
            ambientIntensity 0.7686
            transparency 0.0
            shininess 0.5
        }
    }
    geometry IndexedFaceSet {
        ccw TRUE
        solid FALSE
        coord DEF co Coordinate {
            point [
                0.1117 0.2205 0.0, 0.0459 0.2205 0.0, 0.0823 0.3027 0.0, 0.0755 0.3027 0.0, 0.0804 0.3095 0.0, 0.0773 0.3095 0.0, 0.0792 0.3165 0.0, 0.0785 0.3165 0.0, 0.3124 0.3189 0.0, 0.3124 0.1652 0.0, 0.2833 0.3189 0.0, 0.2844 0.1652 0.0, 0.2637 0.1672 0.0, 0.2068 0.244 0.0, 0.2084 0.2636 0.0, 0.213 0.2791 0.0, 0.26 0.3164 0.0, 0.2471 0.1724 0.0, 0.2337 0.1803 0.0, 0.2226 0.1912 0.0, 0.2143 0.2048 0.0, 0.2086 0.2233 0.0, 0.2199 0.2913 0.0, 0.2294 0.3014 0.0, 0.2438 0.3107 0.0
            ]
        }
        coordIndex [
            0,1,2,-1,2,1,3,-1,2,3,4,-1,4,3,5,-1,4,5,6,-1,6,5,7,-1,8,9,10,-1,10,9,11,-1,10,11,12,-1,13,14,10,-1,10,14,15,-1,10,15,16,-1,12,17,10,-1,10,17,18,-1,10,18,19,-1,19,20,10,-1,10,20,21,-1,10,21,13,-1,22,23,15,-1,15,23,24,-1,15,24,16,-1,
        ]
    }
}