<?xml version="1.0" encoding="UTF-8"?>
<svg id="Layer_2" data-name="Layer 2" xmlns="http://www.w3.org/2000/svg" viewBox="0 0 106.62 105.48">
  <defs>
    <style>
      .cls-1 {
        fill: #fdf096;
      }

      .cls-2 {
        fill: #fada00;
      }

      .cls-3 {
        fill: #191b22;
      }
    </style>
  </defs>
  <g id="Layer_1-2" data-name="Layer 1">
    <g id="Generative_Object_-15_30_" data-name="Generative Object (-15, 30)">
      <path d="M69.62,23.73l.32,1.76c.15.81,3.65,5.44,5.12,6.28,1.54.21,3.19.61,3.94,2.13.92,1.83.5,4.1-.86,5.69-1.09,1.27-2.53,1.97-4.18,2.75l7.57,3.26,2.88,1.15,8.37,3.46c.65.27.34,1.13.16,1.59l-2.43,6.33,15.41,15.4c.41.41.69.72.71,1.2.01.36-.16,1.21-.63,1.25l-7.33-3.52-15.89-7.9-2.88-1.47c-.58-.29-.47-1.15-.27-1.64l2.48-5.95-6.56-6.2c.43,1.77.49,3.44-.09,5.06-.89,2.48-4.1,3.13-6.61,1.85l2.22,5.16c1.35,3.65,1.97,7.4,2.37,11.18-.14.1-.19.42-.21.37-.02-.08-.02-.28-.22-.35.13.72.16,1.43.12,2.23.03,1.18-.2,2.35.24,3.42-.29,6.15-2.3,12.29-5.98,17.33-1.76,2.42-3.73,4.26-6.17,5.89-7.41,4.94-16.91,5.03-25.35,2.16-4.98-1.69-9.6-4.11-13.67-7.43-4.67-3.81-8.4-8.39-11.41-13.59C4.21,71.17.98,58.75.11,45.49L0,39.08c-.13-7.93,1.85-17.22,6.06-23.67.42-.65,1.43-.88,2.02-.84.68.05,1.25.58,1.7,1.18l3.75,5.05c4.64,6.25,11.31,9.69,18.34,11.82l1.33.4-.37-1.66-.45-3.02c-1.13-7.63-.28-16.44,4.6-22.42,5.09-6.25,12.77-7.73,19.72-3.6,3.38,2.01,6.04,4.84,8.12,8.17,2.56,4.09,3.98,8.59,4.82,13.24ZM40.6,77.87c-.59,1-.71,1.65-.91,2.49l-.8,3.33c-1.07,4.44-3.49,8.87-8.44,9.09-2.49.11-4.88-.35-7-1.56l-2.47-1.42c6.73,6.83,17.34,11.62,26.86,11.29,7.56-.26,14.31-3.96,18.16-10.62,1.81-3.14,3.01-6.45,3.5-10.11.73-5.48.42-11-1.48-16.16l-4.73-11.32-4.09-4.14-1.73-1.93c-1.17.06-2.47-.56-2.84-1.61-.43-1.21.39-2.1,1.43-2.46-.72-.79-1.75-1.86-1.57-3.02.57-3.63,3.52-9.86,5.68-13,.9-1.3,2.42-2.25,4.03-2.02.84.12,1.34.76,2.13,1.14l-1.06-4.79c-1.72-6.27-5.38-12.43-11.41-15.28-4.82-2.28-10.21-1.32-13.76,2.7-2.75,3.12-4.12,7.2-4.48,11.42-.27,3.25-.02,6.35.46,9.59l1.38,9.32,1.53,12.09c.11.87-.11,1.7-.68,2.1-.78.54-1.68.41-2.35-.07-.62-.44-.46-1.16-.54-1.85l-.89-7.68-.77-5.61c-3.94-1.1-7.57-2.3-11.08-4.03-5.89-2.9-10.74-7.26-14.14-12.9-.21-.35-.38-.72-.76-.82-4.61,9.41-4.74,19.49-3.84,29.8l.37-2c.31-.78.88-1.21,1.71-1.38.38-.07.76,0,1.11.31,3.2,2.92,6.44,5.66,9.86,8.36-.84,1.43-.87,3.02-.99,4.7-3.11-2.3-5.76-4.66-8.58-7.07-.16,8.87,2.28,17.24,6.87,24.54,1.71,2.72,3.8,5.03,6.16,7.13,2.94,2.6,7.8,4.95,11.37,3.52,2.43-.98,3.56-4.94,4.2-7.61l1.13-4.79c1.15,1.1,2.14,1.91,3.47,2.3ZM74.82,37.2c.35.06.86-.66.67-1.09-5.78.98-8.73-3.02-12.25-7.12-2.18,3.29-3.78,6.6-5.05,10.27,1.65.48,3.21,1.09,4.89,1.09,3.53,0,6.88-1,10.01-2.47.57-.27.93-.83,1.72-.69ZM72.12,52.38c.57-.82-.03-1.29-.09-1.93l-1.67-3.94-2.48-4.75-1.39.48c.74,1.78,1.7,3.26,2.61,4.86l3.02,5.27ZM66.04,49.09c-1.33-1.67-2.44-3.42-3.19-5.46-.99.36-1.72.03-2.82.11,2.62,2.95,5.16,5.67,8.15,8.08-.6-1.09-1.45-1.81-2.14-2.73ZM97.06,69.65l4.03,2.1c-.47-.85-1.18-1.28-1.86-1.97l-10.25-10.47c-.55-.56-.6-.95-.29-1.69l2.46-5.88-10.49-4.29-5.51-2.33c-.65-.28-1.25-.69-2.03-.75,1.17,1.53,2.55,2.61,3.84,3.88l5.58,5.48c.48.47,1.31,1.05,1.31,1.83l-2.57,6.21.91.59c.8.27,1.47.61,2.22.99l7.31,3.73,2.2,1.02c1.07.5,2.1.99,3.16,1.54Z"/>
      <path class="cls-3" d="M73.45,72.52l.08,5.29c0,.18-.05.31-.15.38-.44-1.06-.21-2.24-.24-3.42.04-.81.01-1.52-.12-2.23.19.07.19.28.22.35.01.05.06-.27.21-.37Z"/>
      <path class="cls-1" d="M40.6,77.87c-1.33-.39-2.32-1.2-3.47-2.3l-1.13,4.79c-.63,2.68-1.76,6.64-4.2,7.61-3.56,1.43-8.43-.92-11.37-3.52-2.37-2.1-4.45-4.41-6.16-7.13-4.59-7.3-7.03-15.67-6.87-24.54,2.82,2.4,5.46,4.77,8.58,7.07.12-1.68.15-3.28.99-4.7-3.41-2.71-6.66-5.44-9.86-8.36-.35-.32-.73-.39-1.11-.31-.83.16-1.4.59-1.71,1.38l-.37,2c-.9-10.32-.77-20.39,3.84-29.8.38.1.55.47.76.82,3.4,5.64,8.25,10,14.14,12.9,3.52,1.73,7.14,2.93,11.08,4.03l.77,5.61.89,7.68c.08.69-.08,1.41.54,1.85.66.47,1.57.6,2.35.07.58-.4.79-1.23.68-2.1l-1.53-12.09-1.38-9.32c-.48-3.24-.73-6.34-.46-9.59.35-4.21,1.73-8.3,4.48-11.42,3.55-4.02,8.94-4.98,13.76-2.7,6.03,2.85,9.69,9,11.41,15.28l1.06,4.79c-.79-.39-1.28-1.02-2.13-1.14-1.61-.23-3.13.72-4.03,2.02-2.17,3.14-5.11,9.37-5.68,13-.18,1.17.85,2.23,1.57,3.02-1.04.37-1.86,1.25-1.43,2.46.37,1.04,1.67,1.67,2.84,1.61l1.73,1.93,4.09,4.14,4.73,11.32c1.9,5.16,2.22,10.68,1.48,16.16-.49,3.66-1.69,6.98-3.5,10.11-3.85,6.66-10.6,10.36-18.16,10.62-9.53.33-20.14-4.46-26.86-11.29l2.47,1.42c2.12,1.21,4.51,1.68,7,1.56,4.95-.22,7.37-4.65,8.44-9.09l.8-3.33c.2-.84.32-1.48.91-2.49ZM48.41,27.85c.35-.57.27-1.25.3-1.89.07-1.59-.47-3.23-1.76-4.14-1.14-.81-2.72-.57-3.33.68-1.03,2.09-.37,4.69,1.52,6.02.57.4,1.3.63,1.96.46.44-.11.96-.55,1.31-1.12Z"/>
      <path class="cls-2" d="M97.06,69.65c-1.06-.55-2.09-1.05-3.16-1.54l-2.2-1.02-7.31-3.73c-.76-.39-1.43-.72-2.22-.99l-.91-.59,2.57-6.21c0-.78-.83-1.36-1.31-1.83l-5.58-5.48c-1.29-1.27-2.67-2.35-3.84-3.88.79.06,1.38.47,2.03.75l5.51,2.33,10.49,4.29-2.46,5.88c-.31.73-.26,1.13.29,1.69l10.25,10.47c.68.69,1.39,1.12,1.86,1.97l-4.03-2.1Z"/>
      <path class="cls-1" d="M74.82,37.2c-.79-.14-1.15.42-1.72.69-3.13,1.47-6.48,2.47-10.01,2.47-1.68,0-3.24-.61-4.89-1.09,1.26-3.67,2.87-6.98,5.05-10.27,3.51,4.1,6.46,8.1,12.25,7.12.19.43-.32,1.15-.67,1.09Z"/>
      <path class="cls-1" d="M72.12,52.38l-3.02-5.27c-.91-1.59-1.88-3.08-2.61-4.86l1.39-.48,2.48,4.75,1.67,3.94c.06.64.66,1.11.09,1.93Z"/>
      <path class="cls-1" d="M66.04,49.09c.69.92,1.55,1.64,2.14,2.73-2.99-2.41-5.53-5.13-8.15-8.08,1.1-.08,1.84.25,2.82-.11.75,2.05,1.85,3.79,3.19,5.46Z"/>
      <path d="M48.41,27.85c-.35.57-.87,1.01-1.31,1.12-.66.17-1.39-.06-1.96-.46-1.89-1.33-2.55-3.92-1.52-6.02.61-1.25,2.19-1.49,3.33-.68,1.28.91,1.83,2.55,1.76,4.14-.03.65.05,1.32-.3,1.89Z"/>
    </g>
  </g>
</svg>