<?xml version="1.0" encoding="UTF-8"?>
<svg id="Layer_2" data-name="Layer 2" xmlns="http://www.w3.org/2000/svg" viewBox="0 0 149.26 115.44">
  <defs>
    <style>
      .cls-1 {
        fill: #f2fb00;
      }

      .cls-2 {
        fill: #fdf096;
      }

      .cls-3 {
        fill: #f5d71a;
      }

      .cls-4 {
        fill: #fada00;
      }

      .cls-5 {
        fill: #1d1a1d;
      }
    </style>
  </defs>
  <g id="Layer_1-2" data-name="Layer 1">
    <g id="Generative_Object_45_30_" data-name="Generative Object (45, 30)">
      <path d="M106.04,23.54l-.58.81c.45,0,.78-.13,1.12-.24l9.01-2.89,12.54-4.08c.48-.16.85-.24,1.18.09s.39.77.19,1.27l-3.16,8.1,4.25.48,10.86,1.27,7.43.9c.37.59.51,1.66.16,2.2l-3.79.88-12.75,3.08-19.2,4.58c-.51.12-.82.04-1.11-.35-.17-.23-.39-.7-.25-1.09l2.93-7.7-13.88-.89c-1.11-.07-2.08-.09-3.04.44l4.04,3.38c1.02,1.76,1.27,3.86.59,5.79-1.07,3.05-5.07,2.68-8.17,2.11-2.4-.44-4.63-1.09-6.79-1.93-2.45,1.85-5.06,3.13-7.83,4.47l4.35,8.16c1.38,2.58,2.74,5.02,3.76,7.73,5.65,15.03,1.99,32.45-10.22,43.18-7.01,6.17-14.99,9.13-24.1,10.6-4.61.74-9.16,1.55-13.83,1.56-8.3,0-16.12-3.16-22.31-8.66-4.88-4.33-8.63-9.52-11.38-15.36C.23,79.01-3.08,60.09,4.06,47.8c.32-.55,1.18-.83,1.64-.85.64-.03,1.2.37,1.67.8l2.42,2.21c1.43,1.31,3.01,2.05,4.85,2.39,3.29.61,8.74-.14,11.95-1.16l7.5-2.38,1.22-.42c5.27-1.81,10.52-3.45,16.17-4.71l-2.81-11.64c-1.32-5.49-.97-11.14.81-16.46C52.57,6.45,60.74-.45,70.42.02c1.85.09,3.6.34,5.32.96,6.12,2.22,10.07,6.47,12.88,12.38,3.44,1,6.91,1.75,10.49,1.28l4.14-.84c1.58-.32,3.36.48,3.97,2.09.99,2.6.36,5.5-1.16,7.64ZM3.72,63.61c-.04-.06-.15-.04-.17,0l-.08,1.86c-.1,2.34-.07,4.71.38,7.08l.34-.17c1.88,11.83,6.57,23.34,16.1,31.42,5.56,4.71,12.59,7.44,19.94,7.19,5.89-.2,11.69-1.12,17.42-2.4s10.94-3.66,15.6-7.12c8.19-6.09,13.14-15.43,13.51-25.55.13-3.49-.08-6.73-.9-10.1-.61-2.52-1.6-4.74-2.78-7.05l-4.4-8.58c-.74-1.44-1.36-2.97-2.34-4.22-.54-.69-1.6-.87-1.85-1.88s.02-2.03,1.1-2.57c3.11-1.53,6.85-3.16,9.49-5.42-.26-1.29-.02-2.44.1-3.67l1.01-10.29c.14-1.44.25-3.05-.07-4.37-.48-1.98-1.37-3.73-2.42-5.4-2.7-4.31-6.98-7.03-11.99-7.71-4.08-.55-8.11.54-11.56,2.93-7.36,5.1-9.96,15.06-7.91,23.74l5.01,21.21c.25,1.05-1.01,1.95-1.78,1.98-1.11.05-1.91-.7-2.12-1.75l-.94-4.66c-4.94.97-9.58,2.41-14.31,4.01l-5.46,1.85c-5.53,1.88-12.05,3.83-17.91,3.04-3.39-.46-6.18-2.25-8.48-4.92-1.21,2.62-1.92,5.22-2.19,7.98l-.36,3.55ZM94.86,28.48c2.79-1.55,5.3-3.47,7.32-5.95,1.04-1.27,1.82-2.7,1.87-4.53-5.08,1.5-9.1,2.02-14.08.83-.05,4.27-.47,8.27-.91,12.42,2.02-.71,3.88-1.72,5.8-2.78ZM138.25,32.07l3.55-.81c.5-.11,1.04-.19,1.36-.7l-4.25-.43-5.55-.69-8.21-.92c-.34-.04-.61.05-.81-.23-.12-.16-.2-.4-.09-.67l3.19-7.92-3.55,1.06-21,6.73c-.18.06-.3.15-.4.23-.08.05-.08.22.13.35l13.41,1.01c.4-.26,1.39.19,1.2.68l-3.15,8.04c.58.17.96-.14,1.49-.27l22.67-5.45ZM97.75,34.97l1.4,1.4c.09.03.17.01.22-.04l-1.54-1.55c-.92-.93-1.89-1.82-3.15-2.49.86,1.21,2.14,1.77,3.06,2.69ZM96.57,37.82l-3.9-2.29-1.27-1.12c-.83.66-1.77.87-2.79,1.09.51.51,1.1.7,1.7.84l6.26,1.48Z"/>
      <path class="cls-2" d="M106.58,24.11c-.33.11-.67.24-1.12.24l.58-.81c-.02.46.41.35.54.57Z"/>
      <path class="cls-2" d="M4.19,72.37c-.46-2.88-.56-5.77-.48-8.76l.36-3.55c.28-2.75.99-5.36,2.19-7.98,2.3,2.67,5.09,4.46,8.48,4.92,5.86.79,12.38-1.16,17.91-3.04l5.46-1.85c4.72-1.6,9.37-3.04,14.31-4.01l.94,4.66c.21,1.04,1.01,1.8,2.12,1.75.77-.04,2.03-.93,1.78-1.98l-5.01-21.21c-2.05-8.68.55-18.64,7.91-23.74,3.45-2.39,7.47-3.48,11.56-2.93,5.01.68,9.29,3.39,11.99,7.71,1.05,1.68,1.94,3.43,2.42,5.4.32,1.32.21,2.93.07,4.37l-1.01,10.29c-.12,1.22-.36,2.37-.1,3.67-2.64,2.26-6.38,3.89-9.49,5.42-1.09.54-1.37,1.52-1.1,2.57s1.31,1.19,1.85,1.88c.98,1.25,1.6,2.78,2.34,4.22l4.4,8.58c1.19,2.31,2.17,4.53,2.78,7.05.82,3.37,1.03,6.61.9,10.1-.37,10.12-5.31,19.46-13.51,25.55-4.66,3.47-9.9,5.85-15.6,7.12s-11.53,2.21-17.42,2.4c-7.36.25-14.39-2.48-19.94-7.19-9.54-8.08-14.22-19.6-16.1-31.42ZM78.95,25.43c.09-1.16.04-2.23-.52-3.13s-1.54-1.32-2.47-1.32c-.99,0-1.85.49-2.56,1.26-.74.82-.89,1.98-.79,3.11.15,1.67,1.53,3.01,3.18,3.01s3.02-1.19,3.16-2.94ZM76.02,79.88c-1.56.13-2.76-.21-4.06-.78-1.06,8.01-2.86,14.19-9.98,18.93-3.98,2.65-8.55,3.98-13.37,4.2-4.72.22-9.86-.84-13.81-3.36-4.43-2.83-7.55-7-9.21-11.91l-1.32-5.12,16.43-.47-.25-4.6-9.23.26-9.92.34c-.92.03-1.46,1.03-1.3,1.89l1.1,5.81c1.34,5.98,4.3,11.6,9.18,15.61,2.81,2.3,5.82,3.94,9.34,4.93,8.52,2.38,17.68.74,24.95-4.19.73-.5,1.31-1.01,1.94-1.58l1.54-1.4c3.54-3.48,5.63-7.9,6.6-12.74l1.39-5.82Z"/>
      <path class="cls-4" d="M138.25,32.07l-22.67,5.45c-.54.13-.92.44-1.49.27l3.15-8.04c.19-.49-.8-.93-1.2-.68l-13.41-1.01c-.21-.12-.2-.29-.13-.35.11-.08.23-.17.4-.23l21-6.73,3.55-1.06-3.19,7.92c-.11.27-.03.51.09.67.2.28.47.2.81.23l8.21.92,5.55.69,4.25.43c-.33.51-.87.58-1.36.7l-3.55.81Z"/>
      <path class="cls-2" d="M94.86,28.48c-1.92,1.06-3.78,2.07-5.8,2.78.44-4.15.86-8.15.91-12.42,4.98,1.19,8.99.67,14.08-.83-.05,1.82-.83,3.25-1.87,4.53-2.02,2.47-4.52,4.39-7.32,5.95Z"/>
      <path class="cls-2" d="M96.57,37.82l-6.26-1.48c-.59-.14-1.19-.33-1.7-.84,1.02-.22,1.97-.43,2.79-1.09l1.27,1.12,3.9,2.29Z"/>
      <path class="cls-5" d="M4.19,72.37l-.34.17c-.45-2.37-.47-4.74-.38-7.08l.08-1.86s.13-.05.17,0c-.09,3,.02,5.89.48,8.76Z"/>
      <path class="cls-1" d="M97.84,34.77l-.08.2c-.92-.92-2.2-1.47-3.06-2.69,1.26.67,2.22,1.56,3.15,2.49Z"/>
      <path class="cls-3" d="M97.75,34.97l.08-.2,1.54,1.55c-.06.06-.13.08-.22.04l-1.4-1.4Z"/>
      <path d="M76.02,79.88l-1.39,5.82c-.96,4.84-3.06,9.26-6.6,12.74l-1.54,1.4c-.62.57-1.2,1.08-1.94,1.58-7.26,4.93-16.42,6.57-24.95,4.19-3.51-.98-6.53-2.62-9.34-4.93-4.88-4-7.83-9.63-9.18-15.61l-1.1-5.81c-.16-.86.38-1.86,1.3-1.89l9.92-.34,9.23-.26.25,4.6-16.43.47,1.32,5.12c1.66,4.91,4.78,9.08,9.21,11.91,3.95,2.52,9.09,3.58,13.81,3.36,4.82-.23,9.38-1.55,13.37-4.2,7.12-4.74,8.92-10.92,9.98-18.93,1.3.57,2.5.91,4.06.78Z"/>
      <path d="M78.95,25.43c-.14,1.74-1.59,2.94-3.16,2.94-1.65,0-3.03-1.34-3.18-3.01-.1-1.13.05-2.29.79-3.11s1.57-1.26,2.56-1.26c.94,0,1.92.42,2.47,1.32s.61,1.97.52,3.13Z"/>
    </g>
  </g>
</svg>