#VRML V2.0 utf8
# 3D model generated by easyeda2kicad.py (https://github.com/uPesy/easyeda2kicad.py)

Shape{
    appearance Appearance {
        material  Material 	{
            diffuseColor 0.11372549019607843 0.11372549019607843 0.11372549019607843
            specularColor 0.058823529411764705 0.058823529411764705 0.058823529411764705
            ambientIntensity 0.1137
            transparency 0.0
            shininess 0.5
        }
    }
    geometry IndexedFaceSet {
        ccw TRUE
        solid FALSE
        coord DEF co Coordinate {
            point [
                -0.876 0.9035 0.0039, -0.8169 0.9035 0.0039, -0.8169 -0.4744 0.0039, -1.0039 -0.4744 0.0039, -1.0039 1.122 0.0039, -0.876 0.9626 0.0039, -1.0026 1.1322 0.0039, -0.9987 1.1417 0.0039, -0.9924 1.1499 0.0039, -0.9843 1.1561 0.0039, -0.8366 1.1614 0.0039, -0.8366 0.9823 0.0039, -0.9646 1.1614 0.0039, -0.9748 1.1601 0.0039
            ]
        }
        coordIndex [
            0,1,2,-1,2,3,0,-1,0,3,4,-1,0,4,5,-1,5,4,6,-1,6,7,5,-1,5,7,8,-1,5,8,9,-1,10,11,12,-1,12,11,5,-1,12,5,13,-1,13,5,9,-1,
        ]
    }
}
Shape{
    appearance Appearance {
        material  Material 	{
            diffuseColor 1.0 1.0 1.0
            specularColor 0.5019607843137255 0.5019607843137255 0.5019607843137255
            ambientIntensity 1.0
            transparency 0.0
            shininess 0.5
        }
    }
    geometry IndexedFaceSet {
        ccw TRUE
        solid FALSE
        coord DEF co Coordinate {
            point [
                -0.8169 0.9035 0.0, -0.8169 -0.4744 0.0, -0.8169 0.9035 0.0039, -0.8169 -0.4744 0.0039, -0.1437 0.9823 0.0, -0.1437 0.9823 0.0039, -0.1181 0.9823 0.0, -0.1181 0.9823 0.0039, -0.6437 0.9823 0.0, -0.6437 0.9823 0.0039, -0.6181 0.9823 0.0, -0.6181 0.9823 0.0039, 0.3563 0.9823 0.0, 0.3563 0.9823 0.0039, 0.3819 0.9823 0.0, 0.3819 0.9823 0.0039
            ]
        }
        coordIndex [
            0,1,2,-1,2,1,3,-1,4,5,6,-1,6,5,7,-1,8,9,10,-1,10,9,11,-1,12,13,14,-1,14,13,15,-1,
        ]
    }
}
Shape{
    appearance Appearance {
        material  Material 	{
            diffuseColor 0.11372549019607843 0.11372549019607843 0.11372549019607843
            specularColor 0.058823529411764705 0.058823529411764705 0.058823529411764705
            ambientIntensity 0.1137
            transparency 0.0
            shininess 0.5
        }
    }
    geometry IndexedFaceSet {
        ccw TRUE
        solid FALSE
        coord DEF co Coordinate {
            point [
                -0.6634 -0.9823 0.0039, -0.8366 -0.9823 0.0039, -1.0039 -0.7745 0.0039, -0.0216 -1.1614 0.0039, -0.1634 -1.1614 0.0039, -0.0216 -0.7745 0.0039, -0.1634 -0.9823 0.0039, -0.3366 -0.9823 0.0039, -0.8366 -1.1614 0.0039, -0.9646 -1.1614 0.0039, -1.0039 -1.122 0.0039, -1.0026 -1.1322 0.0039, -0.9748 -1.1601 0.0039, -0.9843 -1.1561 0.0039, -0.9987 -1.1417 0.0039, -0.9924 -1.1499 0.0039, 0.6634 -1.1614 0.0039, 0.3366 -1.1614 0.0039, 0.6634 -0.9823 0.0039, 0.3366 -0.9823 0.0039, 0.9843 -1.1561 0.0039, 0.9748 -1.1601 0.0039, 0.9924 -1.1499 0.0039, 0.9646 -1.1614 0.0039, 0.9987 -1.1417 0.0039, 0.8366 -0.9823 0.0039, 1.0039 -0.7745 0.0039, 0.8366 -1.1614 0.0039, 1.0039 -1.122 0.0039, 1.0026 -1.1322 0.0039, 0.0601 -0.7745 0.0039, 0.0632 -0.775 0.0039, 0.1634 -0.9823 0.0039, 0.0654 -0.775 0.0039, 0.07 -0.7745 0.0039, -0.012 -0.6953 0.0039, -0.012 -0.704 0.0039, -0.0216 -0.5925 0.0039, -0.0139 -0.7654 0.0039, -0.0139 -0.774 0.0039, 0.0284 -0.774 0.0039, 0.0437 -0.77 0.0039, 0.0437 -0.7613 0.0039, 0.0284 -0.6953 0.0039, 0.1634 -1.1614 0.0039, 0.0521 -0.7734 0.0039, 0.0178 -0.7385 0.0039, 0.0178 -0.7654 0.0039, -0.01 -0.7385 0.0039, -0.01 -0.7299 0.0039, 0.0178 -0.7299 0.0039, 0.0178 -0.704 0.0039, 0.1494 -0.774 0.0039, 0.109 -0.774 0.0039, 0.0751 -0.774 0.0039, 0.0827 -0.7714 0.0039, 0.1388 -0.6953 0.0039, 0.1494 -0.6953 0.0039, 1.0039 -0.5925 0.0039, 0.0981 -0.716 0.0039, 0.0935 -0.7087 0.0039, 0.0699 -0.7039 0.0039, 0.0758 -0.706 0.0039, 0.0451 -0.7621 0.0039, 0.0813 -0.7096 0.0039, 0.086 -0.7149 0.0039, 0.0917 -0.7355 0.0039, 0.0909 -0.744 0.0039, 0.0888 -0.7508 0.0039, 0.0713 -0.7655 0.0039, 0.0639 -0.7664 0.0039, 0.077 -0.7634 0.0039, 0.0819 -0.7602 0.0039, 0.0855 -0.7563 0.0039, 0.0535 -0.7652 0.0039, 0.0437 -0.708 0.0039, 0.0526 -0.7042 0.0039, 0.0622 -0.703 0.0039, 0.0893 -0.721 0.0039, 0.0914 -0.7294 0.0039, 0.0891 -0.7673 0.0039, 0.095 -0.7611 0.0039, 0.109 -0.7654 0.0039, 0.0992 -0.7536 0.0039, 0.1388 -0.7654 0.0039, 0.0623 -0.6943 0.0039, 0.0528 -0.695 0.0039, 0.0437 -0.6975 0.0039, 0.1015 -0.7453 0.0039, 0.1023 -0.7362 0.0039, 0.1012 -0.725 0.0039, 0.0864 -0.7018 0.0039, 0.0789 -0.6975 0.0039, 0.0702 -0.695 0.0039, -0.1694 -0.774 0.0039, -0.1579 -0.774 0.0039, -0.0984 -0.774 0.0039, -0.0887 -0.7525 0.0039, -0.0842 -0.7595 0.0039, -1.0039 -0.5925 0.0039, -0.1387 -0.6953 0.0039, -0.1282 -0.6953 0.0039, -0.6634 -1.1614 0.0039, -0.3366 -1.1614 0.0039, -0.0777 -0.7657 0.0039, -0.0695 -0.7705 0.0039, -0.0604 -0.7732 0.0039, -0.0507 -0.774 0.0039, -0.0292 -0.774 0.0039, -0.0292 -0.6953 0.0039, -0.0515 -0.6953 0.0039, -0.0807 -0.7056 0.0039, -0.0863 -0.7117 0.0039, -0.0899 -0.7185 0.0039, -0.0628 -0.6965 0.0039, -0.0721 -0.6998 0.0039, -0.0806 -0.7055 0.0039, -0.1099 -0.774 0.0039, -0.1174 -0.752 0.0039, -0.15 -0.752 0.0039, -0.0921 -0.7263 0.0039, -0.0926 -0.7337 0.0039, -0.0915 -0.7442 0.0039, 1.0039 1.122 0.1039, 1.0039 -0.4744 0.1039, 1.0039 1.122 0.0039, 1.0039 -0.4744 0.0039, -1.0039 1.122 0.0039, -1.0039 -0.4744 0.0039, -1.0039 1.122 0.1039, -1.0039 -0.4744 0.1039, 0.9646 1.1614 0.0039, 0.8366 1.1614 0.0039, 0.9646 1.1614 0.1039, 0.8366 1.1614 0.1039, 0.3366 1.1614 0.0039, 0.3366 1.1614 0.1039, 0.6634 1.1614 0.0039, 0.6634 1.1614 0.1039, -0.1634 1.1614 0.0039, -0.1634 1.1614 0.1039, 0.1634 1.1614 0.0039, 0.1634 1.1614 0.1039, -0.6634 1.1614 0.0039, -0.6634 1.1614 0.1039, -0.3366 1.1614 0.0039, -0.3366 1.1614 0.1039, 0.876 0.9626 0.0039, 0.8366 0.9823 0.0039, 0.9733 1.1604 0.0039, 0.9816 1.1575 0.0039, 0.9891 1.1528 0.0039, 0.9953 1.1466 0.0039, 1.0 1.1391 0.0039, 0.8169 -0.4744 0.0039, 0.8169 0.9035 0.0039, 0.876 0.9035 0.0039, 1.003 1.1308 0.0039, 0.6181 0.9823 0.0039, 0.6181 0.9626 0.0039, 0.3819 0.9626 0.0039, 0.3819 0.9823 0.0039, 0.3563 0.9823 0.0039, 0.3366 1.002 0.0039, 0.6437 0.9823 0.0039, 0.6634 1.002 0.0039, 0.6488 0.983 0.0039, 0.6607 0.9921 0.0039, 0.6576 0.988 0.0039, 0.6535 0.9849 0.0039, 0.3465 0.9849 0.0039, 0.3424 0.988 0.0039, 0.3512 0.983 0.0039, 0.3393 0.9921 0.0039, 0.3373 0.9969 0.0039, 0.6627 0.9969 0.0039, 0.1634 1.002 0.0039, 0.1181 0.9823 0.0039, 0.1437 0.9823 0.0039, 0.1488 0.983 0.0039, 0.1627 0.9969 0.0039, 0.1607 0.9921 0.0039, 0.1576 0.988 0.0039, 0.1181 0.9626 0.0039, -0.1181 0.9626 0.0039, -0.1181 0.9823 0.0039, -0.1437 0.9823 0.0039, -0.1634 1.002 0.0039, -0.1627 0.9969 0.0039, 0.1535 0.9849 0.0039, -0.1488 0.983 0.0039, -0.1535 0.9849 0.0039, -0.1576 0.988 0.0039, -0.1607 0.9921 0.0039, -0.3819 0.9823 0.0039, -0.3563 0.9823 0.0039, -0.3366 1.002 0.0039, -0.3373 0.9969 0.0039, -0.3393 0.9921 0.0039, -0.3424 0.988 0.0039, -0.3465 0.9849 0.0039, -0.3512 0.983 0.0039, -0.3819 0.9626 0.0039, -0.6181 0.9626 0.0039, -0.6181 0.9823 0.0039, -0.6437 0.9823 0.0039, -0.6634 1.002 0.0039, -0.6488 0.983 0.0039, -0.6535 0.9849 0.0039, -0.6576 0.988 0.0039, -0.6607 0.9921 0.0039, -0.6627 0.9969 0.0039, 0.3366 -1.1614 0.1039, 0.6634 -1.1614 0.1039, 0.1634 -1.1614 0.1039, -0.1634 -1.1614 0.1039, -0.6634 -1.1614 0.1039, -0.3366 -1.1614 0.1039, 0.9646 -1.1614 0.1039, 0.8366 -1.1614 0.1039, 1.0039 -1.122 0.1039, 1.0039 -0.5925 0.1039, -0.9646 -1.1614 0.1039, -0.8366 -1.1614 0.1039, -1.0039 -1.122 0.1039, -1.0039 -0.5925 0.1039, -0.9646 1.1614 0.1039, -0.8366 1.1614 0.1039, -0.9646 1.1614 0.0039, -0.8366 1.1614 0.0039, 0.9695 -1.0879 0.3843, 1.0039 -1.1223 0.1039, 0.9695 1.0879 0.3843, 1.0039 1.1223 0.1039, -0.9649 1.1614 0.1039, -0.9304 1.127 0.3843, 0.9649 1.1614 0.1039, 0.9304 1.127 0.3843, -0.9695 -1.0879 0.3843, -1.0039 -1.1223 0.1039, -0.9695 1.0879 0.3843, -1.0039 1.1223 0.1039, 0.9649 -1.1614 0.1039, 0.9304 -1.127 0.3843, -0.9649 -1.1614 0.1039, -0.9304 -1.127 0.3843, -0.7286 -0.926 0.4189, -0.726 -0.9456 0.4189, 0.9304 -1.0879 0.4189, -0.8217 -1.0191 0.4189, -0.8401 -1.0115 0.4189, -0.9304 -1.0879 0.4189, -0.8217 -0.8722 0.4189, -0.9304 1.0879 0.4189, -0.8401 -0.8798 0.4189, -0.8558 -0.8919 0.4189, -0.7483 -0.9994 0.4189, -0.764 -1.0115 0.4189, -0.7824 -1.0191 0.4189, -0.802 -1.0217 0.4189, -0.7362 -0.9076 0.4189, 0.9304 1.0879 0.4189, -0.7483 -0.8919 0.4189, -0.7286 -0.9653 0.4189, -0.7362 -0.9837 0.4189, -0.8558 -0.9994 0.4189, -0.8679 -0.9837 0.4189, -0.8755 -0.9653 0.4189, -0.802 -0.8696 0.4189, -0.7824 -0.8722 0.4189, -0.764 -0.8798 0.4189, -0.8781 -0.9456 0.4189, -0.8755 -0.926 0.4189, -0.8679 -0.9076 0.4189
            ]
        }
        coordIndex [
            0,1,2,-1,3,4,5,-1,5,4,6,-1,5,6,7,-1,1,8,2,-1,2,8,9,-1,2,9,10,-1,10,9,11,-1,9,12,11,-1,11,12,13,-1,11,13,14,-1,14,13,15,-1,16,17,18,-1,18,17,19,-1,20,21,22,-1,22,21,23,-1,22,23,24,-1,25,26,27,-1,27,26,28,-1,27,28,23,-1,23,28,29,-1,23,29,24,-1,30,31,32,-1,32,31,33,-1,32,33,19,-1,19,33,34,-1,19,34,18,-1,35,36,37,-1,37,36,38,-1,37,38,5,-1,5,38,39,-1,5,39,40,-1,41,40,42,-1,42,40,43,-1,44,3,32,-1,32,3,5,-1,32,5,30,-1,30,5,40,-1,30,40,45,-1,45,40,41,-1,46,47,48,-1,48,47,38,-1,48,38,49,-1,49,38,36,-1,49,36,50,-1,50,36,51,-1,52,34,53,-1,53,34,54,-1,53,54,55,-1,56,37,57,-1,57,37,58,-1,57,58,52,-1,52,58,26,-1,52,26,34,-1,34,26,25,-1,34,25,18,-1,59,60,56,-1,61,62,63,-1,63,62,64,-1,63,64,65,-1,66,67,63,-1,63,67,68,-1,69,70,71,-1,71,70,72,-1,68,73,63,-1,63,73,72,-1,63,72,74,-1,74,72,70,-1,35,37,43,-1,43,37,75,-1,43,75,42,-1,42,75,76,-1,42,76,63,-1,63,76,77,-1,63,77,61,-1,65,78,63,-1,63,78,79,-1,63,79,66,-1,55,80,53,-1,53,80,81,-1,53,81,82,-1,82,81,83,-1,82,83,84,-1,85,86,37,-1,37,86,87,-1,37,87,75,-1,83,88,84,-1,84,88,89,-1,84,89,56,-1,56,89,90,-1,56,90,59,-1,60,91,56,-1,56,91,92,-1,56,92,37,-1,37,92,93,-1,37,93,85,-1,94,95,5,-1,96,97,98,-1,2,99,100,-1,100,99,37,-1,100,37,101,-1,100,94,2,-1,2,94,5,-1,2,5,0,-1,0,5,7,-1,0,7,102,-1,102,7,103,-1,98,104,96,-1,96,104,105,-1,96,105,106,-1,107,108,5,-1,5,108,109,-1,5,109,37,-1,37,109,110,-1,111,112,101,-1,101,112,113,-1,110,114,37,-1,37,114,115,-1,37,115,101,-1,101,115,116,-1,101,116,111,-1,106,107,96,-1,96,107,5,-1,96,5,117,-1,117,5,95,-1,117,95,118,-1,118,95,119,-1,113,120,101,-1,101,120,121,-1,101,121,96,-1,96,121,122,-1,96,122,97,-1,123,124,125,-1,125,124,126,-1,127,128,129,-1,129,128,130,-1,131,132,133,-1,133,132,134,-1,135,136,137,-1,137,136,138,-1,139,140,141,-1,141,140,142,-1,143,144,145,-1,145,144,146,-1,147,148,132,-1,132,131,147,-1,147,131,149,-1,147,149,150,-1,150,151,147,-1,147,151,152,-1,147,152,153,-1,154,155,126,-1,126,155,156,-1,126,156,125,-1,125,156,147,-1,125,147,157,-1,157,147,153,-1,158,159,160,-1,137,161,135,-1,135,161,162,-1,135,162,163,-1,160,161,158,-1,158,161,137,-1,158,137,164,-1,164,137,165,-1,164,165,166,-1,167,168,169,-1,170,171,172,-1,172,171,173,-1,172,173,162,-1,162,173,174,-1,162,174,163,-1,166,165,169,-1,169,165,175,-1,169,175,167,-1,139,141,176,-1,177,139,178,-1,178,139,176,-1,178,176,179,-1,180,181,182,-1,183,184,177,-1,177,184,185,-1,177,185,139,-1,139,185,186,-1,139,186,187,-1,187,186,188,-1,180,182,176,-1,176,182,189,-1,176,189,179,-1,186,190,191,-1,191,192,186,-1,186,192,193,-1,186,193,188,-1,194,143,195,-1,195,143,145,-1,145,196,195,-1,195,196,197,-1,195,197,198,-1,198,199,195,-1,195,199,200,-1,195,200,201,-1,202,203,194,-1,194,203,204,-1,194,204,143,-1,143,204,205,-1,143,205,206,-1,206,205,207,-1,206,207,208,-1,209,210,208,-1,208,210,211,-1,208,211,206,-1,212,17,213,-1,213,17,16,-1,44,214,3,-1,3,214,215,-1,3,215,4,-1,216,102,217,-1,217,102,103,-1,218,219,23,-1,23,219,27,-1,220,28,221,-1,221,28,26,-1,221,26,58,-1,9,8,222,-1,222,8,223,-1,10,224,2,-1,2,224,225,-1,2,225,99,-1,226,227,228,-1,228,227,229,-1,230,231,220,-1,220,221,230,-1,230,221,124,-1,230,124,232,-1,232,124,123,-1,232,123,233,-1,226,234,235,-1,236,133,237,-1,237,133,134,-1,237,134,138,-1,138,136,237,-1,237,136,142,-1,237,142,235,-1,235,142,140,-1,235,140,146,-1,146,144,235,-1,235,144,227,-1,235,227,226,-1,130,225,238,-1,238,225,224,-1,238,224,239,-1,130,238,129,-1,129,238,240,-1,129,240,241,-1,218,242,243,-1,244,222,245,-1,245,222,223,-1,245,223,216,-1,216,217,245,-1,245,217,215,-1,245,215,243,-1,243,215,214,-1,243,214,212,-1,212,213,243,-1,243,213,219,-1,243,219,218,-1,246,247,248,-1,249,250,251,-1,252,253,254,-1,254,253,255,-1,256,257,248,-1,248,257,258,-1,248,258,251,-1,251,258,259,-1,251,259,249,-1,246,248,260,-1,260,248,261,-1,260,261,262,-1,247,263,248,-1,248,263,264,-1,248,264,256,-1,250,265,251,-1,251,265,266,-1,251,266,267,-1,252,268,253,-1,253,268,269,-1,253,269,261,-1,261,269,270,-1,261,270,262,-1,267,271,251,-1,251,271,272,-1,251,272,253,-1,253,272,273,-1,253,273,255,-1,
        ]
    }
}
Shape{
    appearance Appearance {
        material  Material 	{
            diffuseColor 0.0 0.0 0.0
            specularColor 0.0 0.0 0.0
            ambientIntensity 0.0
            transparency 0.0
            shininess 0.5
        }
    }
    geometry IndexedFaceSet {
        ccw TRUE
        solid FALSE
        coord DEF co Coordinate {
            point [
                -0.726 -0.9456 0.4185, -0.726 -0.9456 0.4189, -0.7286 -0.926 0.4185, -0.7286 -0.926 0.4189, -0.7362 -0.9076 0.4185, -0.7362 -0.9076 0.4189, -0.7483 -0.8919 0.4185, -0.7483 -0.8919 0.4189, -0.764 -0.8798 0.4185, -0.764 -0.8798 0.4189, -0.7824 -0.8722 0.4185, -0.7824 -0.8722 0.4189, -0.802 -0.8696 0.4185, -0.802 -0.8696 0.4189, -0.8217 -0.8722 0.4185, -0.8217 -0.8722 0.4189, -0.8401 -0.8798 0.4185, -0.8401 -0.8798 0.4189, -0.8558 -0.8919 0.4185, -0.8558 -0.8919 0.4189, -0.8679 -0.9076 0.4185, -0.8679 -0.9076 0.4189, -0.8755 -0.926 0.4185, -0.8755 -0.926 0.4189, -0.8781 -0.9456 0.4185, -0.8781 -0.9456 0.4189, -0.8755 -0.9653 0.4185, -0.8755 -0.9653 0.4189, -0.8679 -0.9837 0.4185, -0.8679 -0.9837 0.4189, -0.8558 -0.9994 0.4185, -0.8558 -0.9994 0.4189, -0.8401 -1.0115 0.4185, -0.8401 -1.0115 0.4189, -0.8217 -1.0191 0.4185, -0.8217 -1.0191 0.4189, -0.802 -1.0217 0.4185, -0.802 -1.0217 0.4189, -0.7824 -1.0191 0.4185, -0.7824 -1.0191 0.4189, -0.764 -1.0115 0.4185, -0.764 -1.0115 0.4189, -0.7483 -0.9994 0.4185, -0.7483 -0.9994 0.4189, -0.7362 -0.9837 0.4185, -0.7362 -0.9837 0.4189, -0.7286 -0.9653 0.4185, -0.7286 -0.9653 0.4189, -0.802 -0.9456 0.4185
            ]
        }
        coordIndex [
            0,1,2,-1,2,1,3,-1,2,3,4,-1,4,3,5,-1,4,5,6,-1,6,5,7,-1,6,7,8,-1,8,7,9,-1,8,9,10,-1,10,9,11,-1,10,11,12,-1,12,11,13,-1,12,13,14,-1,14,13,15,-1,14,15,16,-1,16,15,17,-1,16,17,18,-1,18,17,19,-1,18,19,20,-1,20,19,21,-1,20,21,22,-1,22,21,23,-1,22,23,24,-1,24,23,25,-1,24,25,26,-1,26,25,27,-1,26,27,28,-1,28,27,29,-1,28,29,30,-1,30,29,31,-1,30,31,32,-1,32,31,33,-1,32,33,34,-1,34,33,35,-1,34,35,36,-1,36,35,37,-1,36,37,38,-1,38,37,39,-1,38,39,40,-1,40,39,41,-1,40,41,42,-1,42,41,43,-1,42,43,44,-1,44,43,45,-1,44,45,46,-1,46,45,47,-1,46,47,0,-1,0,47,1,-1,44,46,48,-1,48,46,0,-1,48,0,2,-1,38,40,48,-1,48,40,42,-1,48,42,44,-1,32,34,48,-1,48,34,36,-1,48,36,38,-1,26,28,48,-1,48,28,30,-1,48,30,32,-1,20,22,48,-1,48,22,24,-1,48,24,26,-1,14,16,48,-1,48,16,18,-1,48,18,20,-1,8,10,48,-1,48,10,12,-1,48,12,14,-1,2,4,48,-1,48,4,6,-1,48,6,8,-1,
        ]
    }
}
Shape{
    appearance Appearance {
        material  Material 	{
            diffuseColor 1.0 1.0 1.0
            specularColor 0.5019607843137255 0.5019607843137255 0.5019607843137255
            ambientIntensity 1.0
            transparency 0.0
            shininess 0.5
        }
    }
    geometry IndexedFaceSet {
        ccw TRUE
        solid FALSE
        coord DEF co Coordinate {
            point [
                -0.6634 -0.9823 0.0, -0.8366 -0.9823 0.0, -0.6634 -0.9823 0.0039, -0.8366 -0.9823 0.0039, -0.8366 -1.1614 0.1039, -0.8366 -1.2106 0.1039, -0.6634 -1.1614 0.1039, -0.6634 -1.2106 0.1039, -0.6634 -1.1614 0.0039, -0.6634 -1.2106 0.0, -0.8366 -1.1614 0.0039, -0.8366 -1.2106 0.0, -0.1634 -0.9823 0.0, -0.3366 -0.9823 0.0, -0.1634 -0.9823 0.0039, -0.3366 -0.9823 0.0039, -0.3366 -1.2106 0.1039, -0.1634 -1.2106 0.1039, -0.3366 -1.1614 0.1039, -0.1634 -1.1614 0.1039, -0.3366 -1.1614 0.0039, -0.3366 -1.2106 0.0, -0.1634 -1.2106 0.0, -0.1634 -1.1614 0.0039, 0.3366 -0.9823 0.0, 0.1634 -0.9823 0.0, 0.3366 -0.9823 0.0039, 0.1634 -0.9823 0.0039, 0.1634 -1.2106 0.1039, 0.3366 -1.2106 0.1039, 0.1634 -1.1614 0.1039, 0.3366 -1.1614 0.1039, 0.1634 -1.1614 0.0039, 0.1634 -1.2106 0.0, 0.3366 -1.2106 0.0, 0.3366 -1.1614 0.0039, 0.8366 -0.9823 0.0, 0.6634 -0.9823 0.0, 0.8366 -0.9823 0.0039, 0.6634 -0.9823 0.0039, 0.6634 -1.2106 0.1039, 0.8366 -1.2106 0.1039, 0.6634 -1.1614 0.1039, 0.8366 -1.1614 0.1039, 0.6634 -1.1614 0.0039, 0.6634 -1.2106 0.0, 0.8366 -1.2106 0.0, 0.8366 -1.1614 0.0039, 0.8169 -0.4744 0.0039, 0.8169 -0.4744 0.0, 0.8169 0.9035 0.0039, 0.8169 0.9035 0.0, 0.6634 1.002 0.0039, 0.6634 1.002 0.0, 0.6627 0.9969 0.0039, 0.6627 0.9969 0.0, 0.6607 0.9921 0.0039, 0.6607 0.9921 0.0, 0.6576 0.988 0.0039, 0.6576 0.988 0.0, 0.6535 0.9849 0.0039, 0.6535 0.9849 0.0, 0.6488 0.983 0.0039, 0.6488 0.983 0.0, 0.6437 0.9823 0.0039, 0.6437 0.9823 0.0, 0.6181 0.9823 0.0039, 0.6181 0.9823 0.0, 0.3563 0.9823 0.0039, 0.3563 0.9823 0.0, 0.3512 0.983 0.0039, 0.3512 0.983 0.0, 0.3465 0.9849 0.0039, 0.3465 0.9849 0.0, 0.3424 0.988 0.0039, 0.3424 0.988 0.0, 0.3393 0.9921 0.0039, 0.3393 0.9921 0.0, 0.3373 0.9969 0.0039, 0.3373 0.9969 0.0, 0.3366 1.002 0.0039, 0.3366 1.002 0.0, 0.1634 1.002 0.0039, 0.1634 1.002 0.0, 0.1627 0.9969 0.0039, 0.1627 0.9969 0.0, 0.1607 0.9921 0.0039, 0.1607 0.9921 0.0, 0.1576 0.988 0.0039, 0.1576 0.988 0.0, 0.1535 0.9849 0.0039, 0.1535 0.9849 0.0, 0.1488 0.983 0.0039, 0.1488 0.983 0.0, 0.1437 0.9823 0.0039, 0.1437 0.9823 0.0, 0.1181 0.9823 0.0039, 0.1181 0.9823 0.0, -0.1437 0.9823 0.0039, -0.1437 0.9823 0.0, -0.1488 0.983 0.0039, -0.1488 0.983 0.0, -0.1535 0.9849 0.0039, -0.1535 0.9849 0.0, -0.1576 0.988 0.0039, -0.1576 0.988 0.0, -0.1607 0.9921 0.0039, -0.1607 0.9921 0.0, -0.1627 0.9969 0.0039, -0.1627 0.9969 0.0, -0.1634 1.002 0.0039, -0.1634 1.002 0.0, -0.3366 1.002 0.0039, -0.3366 1.002 0.0, -0.3373 0.9969 0.0039, -0.3373 0.9969 0.0, -0.3393 0.9921 0.0039, -0.3393 0.9921 0.0, -0.3424 0.988 0.0039, -0.3424 0.988 0.0, -0.3465 0.9849 0.0039, -0.3465 0.9849 0.0, -0.3512 0.983 0.0039, -0.3512 0.983 0.0, -0.3563 0.9823 0.0039, -0.3563 0.9823 0.0, -0.3819 0.9823 0.0039, -0.3819 0.9823 0.0, -0.6437 0.9823 0.0039, -0.6437 0.9823 0.0, -0.6488 0.983 0.0039, -0.6488 0.983 0.0, -0.6535 0.9849 0.0039, -0.6535 0.9849 0.0, -0.6576 0.988 0.0039, -0.6576 0.988 0.0, -0.6607 0.9921 0.0039, -0.6607 0.9921 0.0, -0.6627 0.9969 0.0039, -0.6627 0.9969 0.0, -0.6634 1.002 0.0039, -0.6634 1.002 0.0, 1.0039 -0.5925 0.1039, 1.0551 -0.5925 0.1039, 1.0039 -0.4744 0.1039, 1.0551 -0.4744 0.1039, -0.6634 1.1614 0.1039, -0.6634 1.2106 0.1039, -0.8366 1.1614 0.1039, -0.8366 1.2106 0.1039, -0.1634 1.1614 0.1039, -0.1634 1.2106 0.1039, -0.3366 1.1614 0.1039, -0.3366 1.2106 0.1039, 0.3366 1.1614 0.1039, 0.3366 1.2106 0.1039, 0.1634 1.1614 0.1039, 0.1634 1.2106 0.1039, 0.8366 1.1614 0.1039, 0.8366 1.2106 0.1039, 0.6634 1.1614 0.1039, 0.6634 1.2106 0.1039, -1.0039 -0.4744 0.1039, -1.0551 -0.4744 0.1039, -1.0039 -0.5925 0.1039, -1.0551 -0.5925 0.1039, 1.0551 -0.4744 0.0, 1.0551 -0.5925 0.0, 1.0039 -0.4744 0.0039, 0.8366 0.9823 0.0039, 0.8366 0.9823 0.0, 0.8366 1.1614 0.0039, 0.8366 1.2106 0.0, 0.6634 1.2106 0.0, 0.6634 1.1614 0.0039, 0.3366 1.1614 0.0039, 0.3366 1.2106 0.0, 0.1634 1.2106 0.0, 0.1634 1.1614 0.0039, -0.1634 1.1614 0.0039, -0.1634 1.2106 0.0, -0.3366 1.2106 0.0, -0.3366 1.1614 0.0039, -0.6634 1.1614 0.0039, -0.6634 1.2106 0.0, -0.8366 1.2106 0.0, -0.8366 0.9823 0.0, -0.8366 0.9823 0.0039, -0.8366 1.1614 0.0039, -0.8169 -0.4744 0.0039, -0.8169 -0.4744 0.0, -1.0039 -0.4744 0.0039, -1.0551 -0.4744 0.0, -1.0551 -0.5925 0.0, -1.0039 -0.5925 0.0039, -0.0216 -0.5925 0.0039, 1.0039 -0.5925 0.0039, -0.876 0.9626 0.0, -0.876 0.9035 0.0, -0.8169 0.9035 0.0, -0.6181 0.9626 0.0, -0.1181 0.9626 0.0, 0.1181 0.9626 0.0, -0.6181 0.9823 0.0, -0.3819 0.9626 0.0, 0.3819 0.9823 0.0, 0.3819 0.9626 0.0, 0.876 0.9626 0.0, 0.876 0.9035 0.0, 0.6181 0.9626 0.0, -0.1181 0.9823 0.0, -0.1387 -0.6953 0.0043, -0.1694 -0.774 0.0043, -0.1387 -0.6953 0.0039, -0.1694 -0.774 0.0039, -0.1579 -0.774 0.0043, -0.1579 -0.774 0.0039, -0.15 -0.752 0.0043, -0.15 -0.752 0.0039, -0.1174 -0.752 0.0043, -0.1174 -0.752 0.0039, -0.1099 -0.774 0.0043, -0.1099 -0.774 0.0039, -0.0984 -0.774 0.0043, -0.0984 -0.774 0.0039, -0.1282 -0.6953 0.0043, -0.1282 -0.6953 0.0039, -0.1201 -0.7433 0.0043, -0.1464 -0.7433 0.0043, -0.1318 -0.7104 0.0043, -0.1326 -0.7077 0.0043, -0.1331 -0.7049 0.0043, -0.1333 -0.7049 0.0043, -0.1339 -0.7077 0.0043, -0.1346 -0.7104 0.0043, -0.1201 -0.7433 0.0039, -0.1464 -0.7433 0.0039, -0.1318 -0.7104 0.0039, -0.1326 -0.7077 0.0039, -0.1331 -0.7049 0.0039, -0.1333 -0.7049 0.0039, -0.1339 -0.7077 0.0039, -0.1346 -0.7104 0.0039, -0.0507 -0.774 0.0043, -0.0292 -0.774 0.0043, -0.0507 -0.774 0.0039, -0.0292 -0.774 0.0039, -0.0292 -0.6953 0.0043, -0.0292 -0.6953 0.0039, -0.0515 -0.6953 0.0043, -0.0515 -0.6953 0.0039, -0.0926 -0.7337 0.0043, -0.0926 -0.7337 0.0039, -0.0921 -0.7263 0.0039, -0.0921 -0.7263 0.0043, -0.0899 -0.7185 0.0039, -0.0899 -0.7185 0.0043, -0.0863 -0.7117 0.0039, -0.0863 -0.7117 0.0043, -0.0807 -0.7056 0.0039, -0.0807 -0.7056 0.0043, -0.0806 -0.7055 0.0039, -0.0806 -0.7055 0.0043, -0.0721 -0.6998 0.0039, -0.0721 -0.6998 0.0043, -0.0628 -0.6965 0.0039, -0.0628 -0.6965 0.0043, -0.0604 -0.7732 0.0039, -0.0604 -0.7732 0.0043, -0.0695 -0.7705 0.0039, -0.0695 -0.7705 0.0043, -0.0777 -0.7657 0.0039, -0.0777 -0.7657 0.0043, -0.0842 -0.7595 0.0039, -0.0842 -0.7595 0.0043, -0.0887 -0.7525 0.0039, -0.0887 -0.7525 0.0043, -0.0915 -0.7442 0.0039, -0.0915 -0.7442 0.0043, -0.0768 -0.715 0.0043, -0.073 -0.7109 0.0043, -0.0672 -0.7072 0.0043, -0.0607 -0.7049 0.0043, -0.0514 -0.704 0.0043, -0.0398 -0.704 0.0043, -0.0398 -0.7654 0.0043, -0.051 -0.7654 0.0043, -0.0593 -0.7646 0.0043, -0.0659 -0.7626 0.0043, -0.0713 -0.7594 0.0043, -0.0757 -0.755 0.0043, -0.079 -0.7496 0.0043, -0.0813 -0.7422 0.0043, -0.0821 -0.7339 0.0043, -0.0814 -0.7261 0.0043, -0.0796 -0.7198 0.0043, -0.0514 -0.704 0.0039, -0.0398 -0.704 0.0039, -0.0607 -0.7049 0.0039, -0.0672 -0.7072 0.0039, -0.073 -0.7109 0.0039, -0.0768 -0.715 0.0039, -0.0796 -0.7198 0.0039, -0.0814 -0.7261 0.0039, -0.0821 -0.7339 0.0039, -0.0813 -0.7422 0.0039, -0.079 -0.7496 0.0039, -0.0757 -0.755 0.0039, -0.0713 -0.7594 0.0039, -0.0659 -0.7626 0.0039, -0.0593 -0.7646 0.0039, -0.051 -0.7654 0.0039, -0.0398 -0.7654 0.0039, -0.0139 -0.7654 0.0043, -0.0139 -0.774 0.0043, -0.0139 -0.7654 0.0039, -0.0139 -0.774 0.0039, 0.0284 -0.774 0.0043, 0.0284 -0.774 0.0039, 0.0284 -0.6953 0.0043, 0.0284 -0.6953 0.0039, -0.012 -0.6953 0.0043, -0.012 -0.6953 0.0039, -0.012 -0.704 0.0043, -0.012 -0.704 0.0039, 0.0178 -0.704 0.0043, 0.0178 -0.704 0.0039, 0.0178 -0.7299 0.0043, 0.0178 -0.7299 0.0039, -0.01 -0.7299 0.0043, -0.01 -0.7299 0.0039, -0.01 -0.7385 0.0043, -0.01 -0.7385 0.0039, 0.0178 -0.7385 0.0043, 0.0178 -0.7385 0.0039, 0.0178 -0.7654 0.0043, 0.0178 -0.7654 0.0039, 0.0437 -0.7613 0.0043, 0.0437 -0.77 0.0043, 0.0437 -0.7613 0.0039, 0.0437 -0.77 0.0039, 0.0521 -0.7734 0.0043, 0.0654 -0.775 0.0043, 0.0654 -0.775 0.0039, 0.0632 -0.775 0.0039, 0.0632 -0.775 0.0043, 0.0601 -0.7745 0.0039, 0.0521 -0.7734 0.0039, 0.07 -0.7745 0.0039, 0.0751 -0.774 0.0043, 0.0751 -0.774 0.0039, 0.0827 -0.7714 0.0043, 0.0827 -0.7714 0.0039, 0.0891 -0.7673 0.0043, 0.0891 -0.7673 0.0039, 0.095 -0.7611 0.0043, 0.095 -0.7611 0.0039, 0.0992 -0.7536 0.0043, 0.0992 -0.7536 0.0039, 0.1015 -0.7453 0.0043, 0.1015 -0.7453 0.0039, 0.1023 -0.7362 0.0043, 0.1023 -0.7362 0.0039, 0.0623 -0.6943 0.0043, 0.0623 -0.6943 0.0039, 0.0702 -0.695 0.0039, 0.0702 -0.695 0.0043, 0.0789 -0.6975 0.0039, 0.0789 -0.6975 0.0043, 0.0864 -0.7018 0.0039, 0.0864 -0.7018 0.0043, 0.0935 -0.7087 0.0039, 0.0935 -0.7087 0.0043, 0.0981 -0.716 0.0039, 0.0981 -0.716 0.0043, 0.1012 -0.725 0.0039, 0.1012 -0.725 0.0043, 0.0437 -0.6975 0.0043, 0.0437 -0.6975 0.0039, 0.0528 -0.695 0.0039, 0.0528 -0.695 0.0043, 0.0437 -0.708 0.0043, 0.0437 -0.708 0.0039, 0.0622 -0.703 0.0043, 0.0622 -0.703 0.0039, 0.0526 -0.7042 0.0039, 0.0526 -0.7042 0.0043, 0.0917 -0.7355 0.0043, 0.0917 -0.7355 0.0039, 0.0914 -0.7294 0.0039, 0.0914 -0.7294 0.0043, 0.0893 -0.721 0.0039, 0.0893 -0.721 0.0043, 0.086 -0.7149 0.0039, 0.086 -0.7149 0.0043, 0.0813 -0.7096 0.0039, 0.0813 -0.7096 0.0043, 0.0758 -0.706 0.0039, 0.0758 -0.706 0.0043, 0.0699 -0.7039 0.0039, 0.0699 -0.7039 0.0043, 0.0639 -0.7664 0.0043, 0.0639 -0.7664 0.0039, 0.0713 -0.7655 0.0039, 0.0713 -0.7655 0.0043, 0.077 -0.7634 0.0039, 0.077 -0.7634 0.0043, 0.0819 -0.7602 0.0039, 0.0819 -0.7602 0.0043, 0.0855 -0.7563 0.0039, 0.0855 -0.7563 0.0043, 0.0888 -0.7508 0.0039, 0.0888 -0.7508 0.0043, 0.0909 -0.744 0.0039, 0.0909 -0.744 0.0043, 0.0451 -0.7621 0.0039, 0.0451 -0.7621 0.0043, 0.0535 -0.7652 0.0039, 0.0535 -0.7652 0.0043, 0.109 -0.7654 0.0043, 0.109 -0.774 0.0043, 0.109 -0.7654 0.0039, 0.109 -0.774 0.0039, 0.1494 -0.774 0.0043, 0.1494 -0.774 0.0039, 0.1494 -0.6953 0.0043, 0.1494 -0.6953 0.0039, 0.1388 -0.6953 0.0043, 0.1388 -0.6953 0.0039, 0.1388 -0.7654 0.0043, 0.1388 -0.7654 0.0039
            ]
        }
        coordIndex [
            0,1,2,-1,2,1,3,-1,4,5,6,-1,6,5,7,-1,0,2,8,-1,6,7,8,-1,8,7,9,-1,8,9,0,-1,3,1,10,-1,10,1,11,-1,10,11,4,-1,4,11,5,-1,9,7,11,-1,11,7,5,-1,11,1,9,-1,9,1,0,-1,12,13,14,-1,14,13,15,-1,16,17,18,-1,18,17,19,-1,15,13,20,-1,20,13,21,-1,20,21,18,-1,18,21,16,-1,22,17,21,-1,21,17,16,-1,12,14,23,-1,19,17,23,-1,23,17,22,-1,23,22,12,-1,22,21,12,-1,12,21,13,-1,24,25,26,-1,26,25,27,-1,28,29,30,-1,30,29,31,-1,27,25,32,-1,32,25,33,-1,32,33,30,-1,30,33,28,-1,34,29,33,-1,33,29,28,-1,24,26,35,-1,31,29,35,-1,35,29,34,-1,35,34,24,-1,34,33,24,-1,24,33,25,-1,36,37,38,-1,38,37,39,-1,40,41,42,-1,42,41,43,-1,39,37,44,-1,44,37,45,-1,44,45,42,-1,42,45,40,-1,46,41,45,-1,45,41,40,-1,36,38,47,-1,43,41,47,-1,47,41,46,-1,47,46,36,-1,46,45,36,-1,36,45,37,-1,48,49,50,-1,50,49,51,-1,52,53,54,-1,54,53,55,-1,54,55,56,-1,56,55,57,-1,56,57,58,-1,58,57,59,-1,58,59,60,-1,60,59,61,-1,60,61,62,-1,62,61,63,-1,62,63,64,-1,64,63,65,-1,64,65,66,-1,66,65,67,-1,68,69,70,-1,70,69,71,-1,70,71,72,-1,72,71,73,-1,72,73,74,-1,74,73,75,-1,74,75,76,-1,76,75,77,-1,76,77,78,-1,78,77,79,-1,78,79,80,-1,80,79,81,-1,82,83,84,-1,84,83,85,-1,84,85,86,-1,86,85,87,-1,86,87,88,-1,88,87,89,-1,88,89,90,-1,90,89,91,-1,90,91,92,-1,92,91,93,-1,92,93,94,-1,94,93,95,-1,94,95,96,-1,96,95,97,-1,98,99,100,-1,100,99,101,-1,100,101,102,-1,102,101,103,-1,102,103,104,-1,104,103,105,-1,104,105,106,-1,106,105,107,-1,106,107,108,-1,108,107,109,-1,108,109,110,-1,110,109,111,-1,112,113,114,-1,114,113,115,-1,114,115,116,-1,116,115,117,-1,116,117,118,-1,118,117,119,-1,118,119,120,-1,120,119,121,-1,120,121,122,-1,122,121,123,-1,122,123,124,-1,124,123,125,-1,124,125,126,-1,126,125,127,-1,128,129,130,-1,130,129,131,-1,130,131,132,-1,132,131,133,-1,132,133,134,-1,134,133,135,-1,134,135,136,-1,136,135,137,-1,136,137,138,-1,138,137,139,-1,138,139,140,-1,140,139,141,-1,142,143,144,-1,144,143,145,-1,146,147,148,-1,148,147,149,-1,150,151,152,-1,152,151,153,-1,154,155,156,-1,156,155,157,-1,158,159,160,-1,160,159,161,-1,162,163,164,-1,164,163,165,-1,166,145,167,-1,167,145,143,-1,49,48,168,-1,144,145,168,-1,168,145,166,-1,168,166,49,-1,169,170,171,-1,171,170,172,-1,171,172,158,-1,158,172,159,-1,173,161,172,-1,172,161,159,-1,53,52,174,-1,160,161,174,-1,174,161,173,-1,174,173,53,-1,80,81,175,-1,175,81,176,-1,175,176,154,-1,154,176,155,-1,177,157,176,-1,176,157,155,-1,83,82,178,-1,156,157,178,-1,178,157,177,-1,178,177,83,-1,110,111,179,-1,179,111,180,-1,179,180,150,-1,150,180,151,-1,181,153,180,-1,180,153,151,-1,113,112,182,-1,152,153,182,-1,182,153,181,-1,182,181,113,-1,140,141,183,-1,183,141,184,-1,183,184,146,-1,146,184,147,-1,185,149,184,-1,184,149,147,-1,186,187,188,-1,148,149,188,-1,188,149,185,-1,188,185,186,-1,189,190,191,-1,191,190,192,-1,191,192,162,-1,162,192,163,-1,193,165,192,-1,192,165,163,-1,167,143,142,-1,164,165,194,-1,194,165,193,-1,194,193,195,-1,195,193,167,-1,195,167,196,-1,196,167,142,-1,193,192,190,-1,193,190,167,-1,167,190,49,-1,167,49,166,-1,197,186,198,-1,198,186,199,-1,185,184,186,-1,186,184,141,-1,186,141,199,-1,190,199,200,-1,141,139,199,-1,199,139,137,-1,199,137,135,-1,201,202,49,-1,135,133,199,-1,199,133,131,-1,199,131,200,-1,200,131,129,-1,200,129,203,-1,190,200,49,-1,49,200,204,-1,49,204,201,-1,69,205,206,-1,115,201,117,-1,117,201,119,-1,127,125,204,-1,204,125,123,-1,204,123,201,-1,201,123,121,-1,201,121,119,-1,113,181,180,-1,93,202,95,-1,95,202,97,-1,89,87,73,-1,207,208,51,-1,202,206,49,-1,49,206,209,-1,49,209,51,-1,51,209,170,-1,51,170,207,-1,105,103,115,-1,115,103,101,-1,115,101,201,-1,201,101,99,-1,201,99,210,-1,89,73,91,-1,170,59,57,-1,180,111,113,-1,113,111,109,-1,113,109,115,-1,115,109,107,-1,115,107,105,-1,69,206,71,-1,71,206,202,-1,71,202,73,-1,73,202,93,-1,73,93,91,-1,79,77,87,-1,87,77,75,-1,87,75,73,-1,67,65,209,-1,209,65,63,-1,209,63,170,-1,170,63,61,-1,170,61,59,-1,83,177,176,-1,173,172,53,-1,53,172,170,-1,53,170,55,-1,55,170,57,-1,87,85,79,-1,79,85,83,-1,79,83,81,-1,81,83,176,-1,211,212,213,-1,213,212,214,-1,212,215,214,-1,214,215,216,-1,215,217,216,-1,216,217,218,-1,217,219,218,-1,218,219,220,-1,219,221,220,-1,220,221,222,-1,221,223,222,-1,222,223,224,-1,223,225,224,-1,224,225,226,-1,225,211,226,-1,226,211,213,-1,227,219,228,-1,228,219,217,-1,229,225,227,-1,227,225,223,-1,227,223,219,-1,219,223,221,-1,229,230,225,-1,225,230,231,-1,225,231,211,-1,211,231,232,-1,211,232,233,-1,233,234,211,-1,211,234,228,-1,211,228,212,-1,212,228,217,-1,212,217,215,-1,227,228,235,-1,235,228,236,-1,229,227,237,-1,237,227,235,-1,229,237,238,-1,229,238,230,-1,230,238,239,-1,230,239,231,-1,232,231,240,-1,240,231,239,-1,232,240,241,-1,232,241,233,-1,233,241,242,-1,233,242,234,-1,228,234,236,-1,236,234,242,-1,243,244,245,-1,245,244,246,-1,244,247,246,-1,246,247,248,-1,247,249,248,-1,248,249,250,-1,251,252,253,-1,251,253,254,-1,254,253,255,-1,254,255,256,-1,256,255,257,-1,256,257,258,-1,258,257,259,-1,258,259,260,-1,260,259,261,-1,260,261,262,-1,262,261,263,-1,262,263,264,-1,264,263,265,-1,264,265,266,-1,266,265,250,-1,266,250,249,-1,243,245,267,-1,243,267,268,-1,268,267,269,-1,268,269,270,-1,270,269,271,-1,270,271,272,-1,272,271,273,-1,272,273,274,-1,274,273,275,-1,274,275,276,-1,276,275,277,-1,276,277,278,-1,278,277,252,-1,278,252,251,-1,256,258,279,-1,279,258,260,-1,279,260,280,-1,280,260,262,-1,280,262,281,-1,281,262,264,-1,281,264,282,-1,282,264,266,-1,282,266,283,-1,283,266,249,-1,283,249,284,-1,284,249,247,-1,284,247,285,-1,285,247,244,-1,285,244,286,-1,286,244,243,-1,286,243,287,-1,287,243,268,-1,287,268,288,-1,288,268,270,-1,288,270,289,-1,289,270,272,-1,289,272,290,-1,290,272,274,-1,290,274,291,-1,291,274,276,-1,291,276,292,-1,292,276,278,-1,292,278,293,-1,293,278,251,-1,293,251,294,-1,294,251,254,-1,294,254,295,-1,295,254,256,-1,295,256,279,-1,283,284,296,-1,296,284,297,-1,283,296,298,-1,283,298,282,-1,282,298,299,-1,282,299,281,-1,281,299,300,-1,281,300,280,-1,280,300,301,-1,280,301,279,-1,279,301,302,-1,279,302,295,-1,295,302,303,-1,295,303,294,-1,294,303,304,-1,294,304,293,-1,293,304,305,-1,293,305,292,-1,292,305,306,-1,292,306,291,-1,291,306,307,-1,291,307,290,-1,290,307,308,-1,290,308,289,-1,289,308,309,-1,289,309,288,-1,288,309,310,-1,288,310,287,-1,287,310,311,-1,287,311,286,-1,285,286,312,-1,312,286,311,-1,284,285,297,-1,297,285,312,-1,313,314,315,-1,315,314,316,-1,314,317,316,-1,316,317,318,-1,317,319,318,-1,318,319,320,-1,319,321,320,-1,320,321,322,-1,321,323,322,-1,322,323,324,-1,323,325,324,-1,324,325,326,-1,325,327,326,-1,326,327,328,-1,327,329,328,-1,328,329,330,-1,329,331,330,-1,330,331,332,-1,331,333,332,-1,332,333,334,-1,333,335,334,-1,334,335,336,-1,335,313,336,-1,336,313,315,-1,317,314,313,-1,313,335,317,-1,317,335,333,-1,317,333,319,-1,323,321,325,-1,325,321,319,-1,325,319,327,-1,327,319,333,-1,327,333,329,-1,329,333,331,-1,337,338,339,-1,339,338,340,-1,340,338,341,-1,342,343,344,-1,342,344,345,-1,345,344,346,-1,345,346,341,-1,341,346,347,-1,341,347,340,-1,343,342,348,-1,348,342,349,-1,348,349,350,-1,350,349,351,-1,350,351,352,-1,352,351,353,-1,352,353,354,-1,354,353,355,-1,354,355,356,-1,356,355,357,-1,356,357,358,-1,358,357,359,-1,358,359,360,-1,360,359,361,-1,360,361,362,-1,363,364,365,-1,363,365,366,-1,366,365,367,-1,366,367,368,-1,368,367,369,-1,368,369,370,-1,370,369,371,-1,370,371,372,-1,372,371,373,-1,372,373,374,-1,374,373,375,-1,374,375,376,-1,376,375,362,-1,376,362,361,-1,377,378,379,-1,377,379,380,-1,380,379,364,-1,380,364,363,-1,377,381,378,-1,378,381,382,-1,383,384,385,-1,383,385,386,-1,386,385,382,-1,386,382,381,-1,387,388,389,-1,387,389,390,-1,390,389,391,-1,390,391,392,-1,392,391,393,-1,392,393,394,-1,394,393,395,-1,394,395,396,-1,396,395,397,-1,396,397,398,-1,398,397,399,-1,398,399,400,-1,400,399,384,-1,400,384,383,-1,401,402,403,-1,401,403,404,-1,404,403,405,-1,404,405,406,-1,406,405,407,-1,406,407,408,-1,408,407,409,-1,408,409,410,-1,410,409,411,-1,410,411,412,-1,412,411,413,-1,412,413,414,-1,414,413,388,-1,414,388,387,-1,337,339,415,-1,337,415,416,-1,416,415,417,-1,416,417,418,-1,418,417,402,-1,418,402,401,-1,404,342,401,-1,401,342,345,-1,401,345,418,-1,418,345,341,-1,418,341,416,-1,416,341,338,-1,416,338,337,-1,381,377,386,-1,386,377,380,-1,386,380,383,-1,383,380,363,-1,383,363,400,-1,400,363,366,-1,400,366,398,-1,398,366,368,-1,398,368,396,-1,396,368,370,-1,396,370,394,-1,394,370,372,-1,394,372,392,-1,392,372,374,-1,392,374,390,-1,390,374,376,-1,390,376,387,-1,387,376,361,-1,387,361,414,-1,414,361,359,-1,414,359,412,-1,412,359,357,-1,412,357,410,-1,410,357,355,-1,410,355,408,-1,408,355,353,-1,408,353,406,-1,406,353,351,-1,406,351,404,-1,404,351,349,-1,404,349,342,-1,419,420,421,-1,421,420,422,-1,420,423,422,-1,422,423,424,-1,423,425,424,-1,424,425,426,-1,425,427,426,-1,426,427,428,-1,427,429,428,-1,428,429,430,-1,429,419,430,-1,430,419,421,-1,427,425,429,-1,429,425,423,-1,429,423,419,-1,419,423,420,-1,
        ]
    }
}
Shape{
    appearance Appearance {
        material  Material 	{
            diffuseColor 0.11372549019607843 0.11372549019607843 0.11372549019607843
            specularColor 0.058823529411764705 0.058823529411764705 0.058823529411764705
            ambientIntensity 0.1137
            transparency 0.0
            shininess 0.5
        }
    }
    geometry IndexedFaceSet {
        ccw TRUE
        solid FALSE
        coord DEF co Coordinate {
            point [
                -0.1201 -0.7433 0.0039, -0.1464 -0.7433 0.0039, -0.1318 -0.7104 0.0039, -0.1346 -0.7104 0.0039, -0.1326 -0.7077 0.0039, -0.1339 -0.7077 0.0039, -0.1331 -0.7049 0.0039, -0.1333 -0.7049 0.0039, -0.0398 -0.704 0.0039, -0.0398 -0.7654 0.0039, -0.0514 -0.704 0.0039, -0.051 -0.7654 0.0039, -0.0593 -0.7646 0.0039, -0.0821 -0.7339 0.0039, -0.0814 -0.7261 0.0039, -0.0796 -0.7198 0.0039, -0.0607 -0.7049 0.0039, -0.0659 -0.7626 0.0039, -0.0713 -0.7594 0.0039, -0.0757 -0.755 0.0039, -0.079 -0.7496 0.0039, -0.0813 -0.7422 0.0039, -0.0768 -0.715 0.0039, -0.073 -0.7109 0.0039, -0.0672 -0.7072 0.0039, -1.0039 -1.1223 0.1039, -1.0039 -1.122 0.1039, -1.0039 -1.122 0.0039, -1.0026 -1.1322 0.1045, -1.0026 -1.1322 0.0039, -1.0025 -1.1324 0.1045, -0.9987 -1.1417 0.0039, -0.9987 -1.1417 0.1048, -0.9986 -1.1418 0.1048, -0.9924 -1.1499 0.0039, -0.9924 -1.1499 0.1049, -0.9843 -1.1561 0.1048, -0.9843 -1.1561 0.0039, -0.9842 -1.1561 0.1048, -0.9749 -1.16 0.1045, -0.9748 -1.1601 0.0039, -0.9748 -1.1601 0.1045, -0.9646 -1.1614 0.0039, -0.9646 -1.1614 0.1039, -0.9649 -1.1614 0.1039, -0.9649 1.1614 0.1039, -0.9646 1.1614 0.1039, -0.9646 1.1614 0.0039, -0.9748 1.1601 0.1045, -0.9748 1.1601 0.0039, -0.9749 1.16 0.1045, -0.9843 1.1561 0.0039, -0.9842 1.1561 0.1048, -0.9843 1.1561 0.1048, -0.9924 1.1499 0.0039, -0.9924 1.1499 0.1049, -0.9986 1.1418 0.1048, -0.9987 1.1417 0.0039, -0.9987 1.1417 0.1048, -1.0025 1.1324 0.1045, -1.0026 1.1322 0.0039, -1.0026 1.1322 0.1045, -1.0039 1.122 0.0039, -1.0039 1.122 0.1039, -1.0039 1.1223 0.1039, -0.9405 -1.1255 0.3854, -0.9304 -1.127 0.3843, -0.9405 -1.1255 0.3854, -0.9498 -1.1216 0.386, -0.9498 -1.1215 0.386, -0.9579 -1.1153 0.3863, -0.9641 -1.1073 0.386, -0.9641 -1.1073 0.386, -0.968 -1.098 0.3854, -0.9681 -1.0979 0.3854, -0.9695 -1.0879 0.3843, -0.9695 1.0879 0.3843, -0.9673 1.0879 0.3933, -0.9673 -1.0879 0.3933, -0.9672 1.0879 0.3935, -0.9672 -1.0879 0.3935, -0.9629 1.0879 0.4017, -0.9629 -1.0879 0.4017, -0.9628 1.0879 0.4019, -0.9628 -1.0879 0.4019, -0.9566 1.0879 0.4089, -0.9566 -1.0879 0.4089, -0.9565 1.0879 0.409, -0.9565 -1.0879 0.409, -0.9488 1.0879 0.4143, -0.9488 -1.0879 0.4143, -0.9487 1.0879 0.4144, -0.9487 -1.0879 0.4144, -0.9399 1.0879 0.4177, -0.9399 -1.0879 0.4177, -0.9398 1.0879 0.4177, -0.9398 -1.0879 0.4177, -0.9304 -1.0879 0.4189, -0.9304 1.0879 0.4189, -0.9681 1.0979 0.3854, -0.968 1.098 0.3854, -0.9641 1.1073 0.386, -0.9641 1.1073 0.386, -0.9579 1.1153 0.3863, -0.9498 1.1215 0.386, -0.9498 1.1216 0.386, -0.9405 1.1255 0.3854, -0.9405 1.1255 0.3854, -0.9304 1.127 0.3843, 0.9649 -1.1614 0.1039, 0.9646 -1.1614 0.1039, 0.9646 -1.1614 0.0039, 0.9748 -1.1601 0.1045, 0.9748 -1.1601 0.0039, 0.9749 -1.16 0.1045, 0.9843 -1.1561 0.0039, 0.9842 -1.1561 0.1048, 0.9843 -1.1561 0.1048, 0.9924 -1.1499 0.0039, 0.9924 -1.1499 0.1049, 0.9986 -1.1418 0.1048, 0.9987 -1.1417 0.0039, 0.9987 -1.1417 0.1048, 1.0025 -1.1324 0.1045, 1.0026 -1.1322 0.0039, 1.0026 -1.1322 0.1045, 1.0039 -1.122 0.0039, 1.0039 -1.122 0.1039, 1.0039 -1.1223 0.1039, -0.9304 -1.1203 0.4019, -0.9304 -1.1141 0.4089, -0.9372 -1.1132 0.4089, -0.9352 -1.1057 0.4143, -0.9329 -1.0971 0.4177, -0.9352 -1.0961 0.4177, -0.9386 -1.0926 0.4177, -0.9371 -1.0946 0.4177, -0.9396 -1.0904 0.4177, -0.9304 -1.0973 0.4177, -0.94 -1.1236 0.3933, -0.9489 -1.1199 0.3933, -0.9565 -1.114 0.3933, -0.9624 -1.1064 0.3933, -0.9661 -1.0975 0.3933, -0.9304 -1.114 0.409, -0.9304 -1.1063 0.4143, -0.9304 -1.1062 0.4144, -0.9304 -1.0974 0.4177, -0.9396 -1.1038 0.4143, -0.9434 -1.1009 0.4143, -0.9464 -1.0971 0.4143, -0.9482 -1.0927 0.4143, -0.9435 -1.1106 0.4089, -0.949 -1.1065 0.4089, -0.9531 -1.101 0.4089, -0.9558 -1.0947 0.4089, -0.9304 -1.1247 0.3935, -0.9304 -1.1204 0.4017, -0.9388 -1.1193 0.4017, -0.9467 -1.1161 0.4017, -0.9534 -1.1109 0.4017, -0.9586 -1.1042 0.4017, -0.9618 -1.0963 0.4017, -0.9304 -1.1248 0.3933, -0.9558 1.0947 0.4089, -0.9482 1.0927 0.4143, -0.9396 1.0904 0.4177, -0.9386 1.0926 0.4177, -0.9352 1.0961 0.4177, -0.9371 1.0946 0.4177, -0.9329 1.0971 0.4177, -0.9661 1.0975 0.3933, -0.9624 1.1064 0.3933, -0.9565 1.114 0.3933, -0.9489 1.1199 0.3933, -0.94 1.1236 0.3933, -0.9304 1.1248 0.3933, -0.9304 1.0973 0.4177, -0.9464 1.0971 0.4143, -0.9434 1.1009 0.4143, -0.9396 1.1038 0.4143, -0.9352 1.1057 0.4143, -0.9304 1.0974 0.4177, -0.9304 1.1062 0.4144, -0.9304 1.1063 0.4143, -0.9304 1.114 0.409, -0.9531 1.101 0.4089, -0.949 1.1065 0.4089, -0.9435 1.1106 0.4089, -0.9372 1.1132 0.4089, -0.9618 1.0963 0.4017, -0.9586 1.1042 0.4017, -0.9534 1.1109 0.4017, -0.9467 1.1161 0.4017, -0.9388 1.1193 0.4017, -0.9304 1.1141 0.4089, -0.9304 1.1203 0.4019, -0.9304 1.1204 0.4017, -0.9304 1.1247 0.3935, 1.0039 1.122 0.1039, 1.0039 1.122 0.0039, 1.0039 1.1223 0.1039, 1.003 1.1308 0.0039, 1.0028 1.1308 0.1044, 1.0025 1.1324 0.1045, 1.0 1.1391 0.0039, 0.9998 1.139 0.1047, 0.9986 1.1418 0.1048, 0.9953 1.1466 0.0039, 0.9951 1.1464 0.1049, 0.9924 1.1499 0.1049, 0.9891 1.1528 0.0039, 0.9889 1.1526 0.1049, 0.9843 1.1561 0.1048, 0.9816 1.1575 0.0039, 0.9815 1.1573 0.1047, 0.9749 1.16 0.1045, 0.9733 1.1604 0.0039, 0.9733 1.1603 0.1044, 0.9646 1.1614 0.0039, 0.9646 1.1614 0.1039, 0.9649 1.1614 0.1039, 0.9681 -1.0979 0.3854, 0.9695 -1.0879 0.3843, 0.968 -1.098 0.3854, 0.9641 -1.1073 0.386, 0.9641 -1.1073 0.386, 0.9579 -1.1153 0.3863, 0.9498 -1.1215 0.386, 0.9498 -1.1216 0.386, 0.9405 -1.1255 0.3854, 0.9405 -1.1255 0.3854, 0.9304 -1.127 0.3843, 0.9304 -1.1248 0.3933, 0.9304 -1.1247 0.3935, 0.9304 -1.1204 0.4017, 0.9304 -1.1203 0.4019, 0.9304 -1.1141 0.4089, 0.9304 -1.114 0.409, 0.9304 -1.1063 0.4143, 0.9304 -1.1062 0.4144, 0.9304 -1.0974 0.4177, 0.9304 -1.0973 0.4177, 0.9304 -1.0879 0.4189, 0.9304 1.127 0.3843, 0.9304 1.1248 0.3933, 0.9304 1.1247 0.3935, 0.9304 1.1204 0.4017, 0.9304 1.1203 0.4019, 0.9304 1.1141 0.4089, 0.9304 1.114 0.409, 0.9304 1.1063 0.4143, 0.9304 1.1062 0.4144, 0.9304 1.0974 0.4177, 0.9304 1.0973 0.4177, 0.9304 1.0879 0.4189, 0.9681 1.0979 0.3854, 0.9579 1.1153 0.3863, 0.9544 1.118 0.3862, 0.9498 1.1216 0.386, 0.9472 1.1227 0.3859, 0.9405 1.1255 0.3854, 0.9391 1.1257 0.3852, 0.9652 1.1047 0.3859, 0.9641 1.1073 0.386, 0.9605 1.1119 0.3862, 0.9683 1.0966 0.3852, 0.9695 1.0879 0.3843, 0.9628 -1.0879 0.4019, 0.9566 -1.0879 0.4089, 0.9558 -1.0947 0.4089, 0.9482 -1.0927 0.4143, 0.9396 -1.0904 0.4177, 0.9386 -1.0926 0.4177, 0.9352 -1.0961 0.4177, 0.9371 -1.0946 0.4177, 0.9329 -1.0971 0.4177, 0.9398 -1.0879 0.4177, 0.9661 -1.0975 0.3933, 0.9624 -1.1064 0.3933, 0.9565 -1.114 0.3933, 0.9489 -1.1199 0.3933, 0.94 -1.1236 0.3933, 0.9565 -1.0879 0.409, 0.9488 -1.0879 0.4143, 0.9487 -1.0879 0.4144, 0.9399 -1.0879 0.4177, 0.9464 -1.0971 0.4143, 0.9434 -1.1009 0.4143, 0.9396 -1.1038 0.4143, 0.9352 -1.1057 0.4143, 0.9531 -1.101 0.4089, 0.949 -1.1065 0.4089, 0.9435 -1.1106 0.4089, 0.9372 -1.1132 0.4089, 0.9672 -1.0879 0.3935, 0.9629 -1.0879 0.4017, 0.9618 -1.0963 0.4017, 0.9586 -1.1042 0.4017, 0.9534 -1.1109 0.4017, 0.9467 -1.1161 0.4017, 0.9388 -1.1193 0.4017, 0.9673 -1.0879 0.3933, 0.9377 1.1196 0.4017, 0.9363 1.1135 0.4089, 0.9345 1.1058 0.4143, 0.9325 1.0971 0.4177, 0.9345 1.0964 0.4177, 0.939 1.092 0.4177, 0.9378 1.0938 0.4177, 0.9397 1.09 0.4177, 0.9386 1.1239 0.3933, 0.9464 1.1212 0.3933, 0.9534 1.1168 0.3933, 0.9593 1.1109 0.3933, 0.9637 1.1039 0.3933, 0.9664 1.0961 0.3933, 0.9673 1.0879 0.3933, 0.9398 1.0879 0.4177, 0.9419 1.1023 0.4143, 0.9448 1.0994 0.4143, 0.947 1.0959 0.4143, 0.9484 1.092 0.4143, 0.9384 1.1045 0.4143, 0.9363 1.0953 0.4177, 0.9399 1.0879 0.4177, 0.9487 1.0879 0.4144, 0.9488 1.0879 0.4143, 0.9565 1.0879 0.409, 0.9418 1.1115 0.4089, 0.9468 1.1084 0.4089, 0.9509 1.1043 0.4089, 0.9541 1.0993 0.4089, 0.956 1.0937 0.4089, 0.9445 1.1172 0.4017, 0.9507 1.1133 0.4017, 0.9559 1.1082 0.4017, 0.9597 1.102 0.4017, 0.9621 1.0951 0.4017, 0.9566 1.0879 0.4089, 0.9628 1.0879 0.4019, 0.9629 1.0879 0.4017, 0.9672 1.0879 0.3935
            ]
        }
        coordIndex [
            0,1,2,-1,2,1,3,-1,2,3,4,-1,4,3,5,-1,4,5,6,-1,6,5,7,-1,8,9,10,-1,10,9,11,-1,10,11,12,-1,13,14,10,-1,10,14,15,-1,10,15,16,-1,12,17,10,-1,10,17,18,-1,10,18,19,-1,19,20,10,-1,10,20,21,-1,10,21,13,-1,22,23,15,-1,15,23,24,-1,15,24,16,-1,25,26,27,-1,25,27,28,-1,28,27,29,-1,28,29,30,-1,30,29,31,-1,30,31,32,-1,32,31,33,-1,33,31,34,-1,33,34,35,-1,35,34,36,-1,36,34,37,-1,36,37,38,-1,38,37,39,-1,39,37,40,-1,39,40,41,-1,42,43,40,-1,40,43,44,-1,40,44,41,-1,45,46,47,-1,45,47,48,-1,48,47,49,-1,48,49,50,-1,50,49,51,-1,50,51,52,-1,52,51,53,-1,53,51,54,-1,53,54,55,-1,55,54,56,-1,56,54,57,-1,56,57,58,-1,58,57,59,-1,59,57,60,-1,59,60,61,-1,62,63,60,-1,60,63,64,-1,60,64,61,-1,36,38,65,-1,65,38,39,-1,65,39,66,-1,66,39,41,-1,66,41,44,-1,65,67,36,-1,36,67,68,-1,36,68,35,-1,35,68,69,-1,69,70,35,-1,35,70,71,-1,35,71,33,-1,33,71,72,-1,33,72,32,-1,32,72,73,-1,32,73,30,-1,30,73,74,-1,30,74,28,-1,28,74,75,-1,28,75,25,-1,76,75,77,-1,77,75,78,-1,77,78,79,-1,79,78,80,-1,79,80,81,-1,81,80,82,-1,81,82,83,-1,83,82,84,-1,83,84,85,-1,85,84,86,-1,85,86,87,-1,87,86,88,-1,87,88,89,-1,89,88,90,-1,89,90,91,-1,91,90,92,-1,91,92,93,-1,93,92,94,-1,93,94,95,-1,94,96,95,-1,95,96,97,-1,95,97,98,-1,56,58,99,-1,99,58,59,-1,99,59,76,-1,76,59,61,-1,76,61,64,-1,99,100,56,-1,56,100,101,-1,56,101,55,-1,55,101,102,-1,102,103,55,-1,55,103,104,-1,55,104,53,-1,53,104,105,-1,53,105,52,-1,52,105,106,-1,52,106,50,-1,50,106,107,-1,50,107,48,-1,48,107,108,-1,48,108,45,-1,109,110,111,-1,109,111,112,-1,112,111,113,-1,112,113,114,-1,114,113,115,-1,114,115,116,-1,116,115,117,-1,117,115,118,-1,117,118,119,-1,119,118,120,-1,120,118,121,-1,120,121,122,-1,122,121,123,-1,123,121,124,-1,123,124,125,-1,126,127,124,-1,124,127,128,-1,124,128,125,-1,129,130,131,-1,132,133,134,-1,97,135,136,-1,137,135,97,-1,134,133,97,-1,138,97,133,-1,139,67,65,-1,67,139,68,-1,68,139,140,-1,68,140,69,-1,69,140,141,-1,69,141,70,-1,70,141,142,-1,70,142,71,-1,71,142,72,-1,72,142,143,-1,72,143,73,-1,73,143,74,-1,74,143,78,-1,74,78,75,-1,96,137,97,-1,144,145,132,-1,132,145,146,-1,132,146,133,-1,133,146,147,-1,133,147,138,-1,148,136,149,-1,149,136,135,-1,149,135,150,-1,150,135,137,-1,150,137,151,-1,96,94,137,-1,137,94,92,-1,137,92,151,-1,151,92,90,-1,151,90,88,-1,131,148,152,-1,152,148,149,-1,152,149,153,-1,153,149,150,-1,153,150,154,-1,154,150,151,-1,154,151,155,-1,155,151,88,-1,156,157,158,-1,158,157,129,-1,129,131,158,-1,158,131,152,-1,158,152,159,-1,159,152,153,-1,159,153,160,-1,160,153,154,-1,160,154,161,-1,161,154,155,-1,161,155,162,-1,130,144,131,-1,131,144,132,-1,131,132,148,-1,148,132,134,-1,148,134,136,-1,136,134,97,-1,156,139,163,-1,163,139,65,-1,163,65,66,-1,88,86,155,-1,155,86,84,-1,155,84,162,-1,162,84,82,-1,162,82,80,-1,156,158,139,-1,139,158,159,-1,139,159,140,-1,140,159,160,-1,140,160,141,-1,141,160,161,-1,141,161,142,-1,142,161,162,-1,142,162,143,-1,143,162,80,-1,143,80,78,-1,83,85,164,-1,165,166,167,-1,98,168,169,-1,170,168,98,-1,167,166,98,-1,95,98,166,-1,171,100,99,-1,100,171,101,-1,101,171,172,-1,101,172,102,-1,102,172,173,-1,102,173,103,-1,103,173,174,-1,103,174,104,-1,104,174,105,-1,105,174,175,-1,105,175,106,-1,106,175,107,-1,107,175,176,-1,107,176,108,-1,177,170,98,-1,87,89,165,-1,165,89,91,-1,165,91,166,-1,166,91,93,-1,166,93,95,-1,178,169,179,-1,179,169,168,-1,179,168,180,-1,180,168,170,-1,180,170,181,-1,177,182,170,-1,170,182,183,-1,170,183,181,-1,181,183,184,-1,181,184,185,-1,164,178,186,-1,186,178,179,-1,186,179,187,-1,187,179,180,-1,187,180,188,-1,188,180,181,-1,188,181,189,-1,189,181,185,-1,79,81,190,-1,190,81,83,-1,83,164,190,-1,190,164,186,-1,190,186,191,-1,191,186,187,-1,191,187,192,-1,192,187,188,-1,192,188,193,-1,193,188,189,-1,193,189,194,-1,85,87,164,-1,164,87,165,-1,164,165,178,-1,178,165,167,-1,178,167,169,-1,169,167,98,-1,79,171,77,-1,77,171,99,-1,77,99,76,-1,185,195,189,-1,189,195,196,-1,189,196,194,-1,194,196,197,-1,194,197,198,-1,79,190,171,-1,171,190,191,-1,171,191,172,-1,172,191,192,-1,172,192,173,-1,173,192,193,-1,173,193,174,-1,174,193,194,-1,174,194,175,-1,175,194,198,-1,175,198,176,-1,199,200,201,-1,201,200,202,-1,201,202,203,-1,203,202,204,-1,204,202,205,-1,204,205,206,-1,206,205,207,-1,207,205,208,-1,207,208,209,-1,209,208,210,-1,210,208,211,-1,210,211,212,-1,212,211,213,-1,213,211,214,-1,213,214,215,-1,215,214,216,-1,216,214,217,-1,216,217,218,-1,219,220,217,-1,217,220,221,-1,217,221,218,-1,120,122,222,-1,222,122,123,-1,222,123,223,-1,223,123,125,-1,223,125,128,-1,222,224,120,-1,120,224,225,-1,120,225,119,-1,119,225,226,-1,226,227,119,-1,119,227,228,-1,119,228,117,-1,117,228,229,-1,117,229,116,-1,116,229,230,-1,116,230,114,-1,114,230,231,-1,114,231,112,-1,112,231,232,-1,112,232,109,-1,66,232,163,-1,163,232,233,-1,163,233,156,-1,156,233,234,-1,156,234,157,-1,157,234,235,-1,157,235,129,-1,129,235,236,-1,129,236,130,-1,130,236,237,-1,130,237,144,-1,144,237,238,-1,144,238,145,-1,145,238,239,-1,145,239,146,-1,146,239,240,-1,146,240,147,-1,147,240,241,-1,147,241,138,-1,241,242,138,-1,138,242,243,-1,138,243,97,-1,244,108,245,-1,245,108,176,-1,245,176,246,-1,246,176,198,-1,246,198,247,-1,247,198,197,-1,247,197,248,-1,248,197,196,-1,248,196,249,-1,249,196,195,-1,249,195,250,-1,250,195,185,-1,250,185,251,-1,251,185,184,-1,251,184,252,-1,252,184,183,-1,252,183,253,-1,253,183,182,-1,253,182,254,-1,182,177,254,-1,254,177,98,-1,254,98,255,-1,203,204,256,-1,257,212,258,-1,258,212,213,-1,258,213,259,-1,259,213,215,-1,259,215,260,-1,260,215,216,-1,260,216,261,-1,261,216,218,-1,261,218,262,-1,262,218,221,-1,262,221,244,-1,256,204,263,-1,263,204,206,-1,263,206,264,-1,264,206,207,-1,264,207,265,-1,265,207,209,-1,265,209,257,-1,257,209,210,-1,257,210,212,-1,203,256,201,-1,201,256,266,-1,201,266,267,-1,268,269,270,-1,271,272,273,-1,243,274,275,-1,276,274,243,-1,273,272,243,-1,277,243,272,-1,278,224,222,-1,224,278,225,-1,225,278,279,-1,225,279,226,-1,226,279,280,-1,226,280,227,-1,227,280,281,-1,227,281,228,-1,228,281,229,-1,229,281,282,-1,229,282,230,-1,230,282,231,-1,231,282,233,-1,231,233,232,-1,242,276,243,-1,283,284,271,-1,271,284,285,-1,271,285,272,-1,272,285,286,-1,272,286,277,-1,287,275,288,-1,288,275,274,-1,288,274,289,-1,289,274,276,-1,289,276,290,-1,242,241,276,-1,276,241,240,-1,276,240,290,-1,290,240,239,-1,290,239,238,-1,270,287,291,-1,291,287,288,-1,291,288,292,-1,292,288,289,-1,292,289,293,-1,293,289,290,-1,293,290,294,-1,294,290,238,-1,295,296,297,-1,297,296,268,-1,268,270,297,-1,297,270,291,-1,297,291,298,-1,298,291,292,-1,298,292,299,-1,299,292,293,-1,299,293,300,-1,300,293,294,-1,300,294,301,-1,269,283,270,-1,270,283,271,-1,270,271,287,-1,287,271,273,-1,287,273,275,-1,275,273,243,-1,295,278,302,-1,302,278,222,-1,302,222,223,-1,238,237,294,-1,294,237,236,-1,294,236,301,-1,301,236,235,-1,301,235,234,-1,295,297,278,-1,278,297,298,-1,278,298,279,-1,279,298,299,-1,279,299,280,-1,280,299,300,-1,280,300,281,-1,281,300,301,-1,281,301,282,-1,282,301,234,-1,282,234,233,-1,246,247,303,-1,248,249,304,-1,305,306,307,-1,255,308,309,-1,310,308,255,-1,307,306,255,-1,254,255,306,-1,262,311,261,-1,261,311,312,-1,261,312,260,-1,260,312,259,-1,259,312,313,-1,259,313,258,-1,258,313,257,-1,257,313,314,-1,257,314,265,-1,265,314,264,-1,264,314,315,-1,264,315,263,-1,263,315,256,-1,256,315,316,-1,256,316,266,-1,266,316,317,-1,266,317,267,-1,318,310,255,-1,250,251,305,-1,305,251,252,-1,305,252,306,-1,306,252,253,-1,306,253,254,-1,319,309,320,-1,320,309,308,-1,320,308,321,-1,321,308,310,-1,321,310,322,-1,249,250,304,-1,304,250,305,-1,304,305,323,-1,323,305,307,-1,323,307,324,-1,324,307,255,-1,318,325,310,-1,310,325,326,-1,310,326,322,-1,322,326,327,-1,322,327,328,-1,329,319,330,-1,330,319,320,-1,330,320,331,-1,331,320,321,-1,331,321,332,-1,332,321,322,-1,332,322,333,-1,333,322,328,-1,303,329,334,-1,334,329,330,-1,334,330,335,-1,335,330,331,-1,335,331,336,-1,336,331,332,-1,336,332,337,-1,337,332,333,-1,337,333,338,-1,247,248,303,-1,303,248,304,-1,303,304,329,-1,329,304,323,-1,329,323,319,-1,319,323,324,-1,319,324,309,-1,309,324,255,-1,262,244,311,-1,311,244,245,-1,311,245,246,-1,328,339,333,-1,333,339,340,-1,333,340,338,-1,338,340,341,-1,338,341,342,-1,246,303,311,-1,311,303,334,-1,311,334,312,-1,312,334,335,-1,312,335,313,-1,313,335,336,-1,313,336,314,-1,314,336,337,-1,314,337,315,-1,315,337,338,-1,315,338,316,-1,316,338,342,-1,316,342,317,-1,223,267,302,-1,302,267,317,-1,302,317,295,-1,295,317,342,-1,295,342,296,-1,296,342,341,-1,296,341,268,-1,268,341,340,-1,268,340,269,-1,269,340,339,-1,269,339,283,-1,283,339,328,-1,283,328,284,-1,284,328,327,-1,284,327,285,-1,285,327,326,-1,285,326,286,-1,286,326,325,-1,286,325,277,-1,325,318,277,-1,277,318,255,-1,277,255,243,-1,
        ]
    }
}
Shape{
    appearance Appearance {
        material  Material 	{
            diffuseColor 1.0 1.0 1.0
            specularColor 0.5019607843137255 0.5019607843137255 0.5019607843137255
            ambientIntensity 1.0
            transparency 0.0
            shininess 0.5
        }
    }
    geometry IndexedFaceSet {
        ccw TRUE
        solid FALSE
        coord DEF co Coordinate {
            point [
                0.3819 0.9626 0.0039, 0.3819 0.9626 0.0, 0.3819 0.9823 0.0039, 0.3819 0.9823 0.0, 0.6181 0.9626 0.0039, 0.6181 0.9626 0.0, 0.6181 0.9823 0.0, 0.6181 0.9823 0.0039, -0.6181 0.9626 0.0039, -0.6181 0.9626 0.0, -0.6181 0.9823 0.0039, -0.6181 0.9823 0.0, -0.3819 0.9626 0.0039, -0.3819 0.9626 0.0, -0.3819 0.9823 0.0, -0.3819 0.9823 0.0039, -0.1181 0.9626 0.0039, -0.1181 0.9626 0.0, -0.1181 0.9823 0.0039, -0.1181 0.9823 0.0, 0.1181 0.9626 0.0039, 0.1181 0.9626 0.0, 0.1181 0.9823 0.0, 0.1181 0.9823 0.0039, 0.876 0.9035 0.0039, 0.8169 0.9035 0.0039, 0.876 0.9035 0.0, 0.8169 0.9035 0.0, 0.876 0.9626 0.0039, 0.876 0.9626 0.0, 0.8366 0.9823 0.0039, 0.8366 0.9823 0.0, -0.876 0.9626 0.0039, -0.8366 0.9823 0.0039, -0.876 0.9626 0.0, -0.8366 0.9823 0.0, -0.876 0.9035 0.0039, -0.876 0.9035 0.0, -0.8169 0.9035 0.0039, -0.8169 0.9035 0.0
            ]
        }
        coordIndex [
            0,1,2,-1,2,1,3,-1,0,4,1,-1,1,4,5,-1,5,4,6,-1,6,4,7,-1,8,9,10,-1,10,9,11,-1,8,12,9,-1,9,12,13,-1,13,12,14,-1,14,12,15,-1,16,17,18,-1,18,17,19,-1,16,20,17,-1,17,20,21,-1,21,20,22,-1,22,20,23,-1,24,25,26,-1,26,25,27,-1,28,24,29,-1,29,24,26,-1,30,28,31,-1,31,28,29,-1,32,33,34,-1,34,33,35,-1,36,32,37,-1,37,32,34,-1,38,36,39,-1,39,36,37,-1,
        ]
    }
}