#VRML V2.0 utf8
# 3D model generated by easyeda2kicad.py (https://github.com/uPesy/easyeda2kicad.py)

Shape{
    appearance Appearance {
        material  Material 	{
            diffuseColor 0.7529411764705882 0.7529411764705882 0.7529411764705882
            specularColor 0.3764705882352941 0.3764705882352941 0.3764705882352941
            ambientIntensity 0.7529
            transparency 0.0
            shininess 0.5
        }
    }
    geometry IndexedFaceSet {
        ccw TRUE
        solid FALSE
        coord DEF co Coordinate {
            point [
                -0.2907 0.106 0.1969, -0.2347 0.106 0.1969, -0.2347 0.0697 0.1969, -0.2907 0.0697 0.1969, -0.2907 0.0575 0.1969, -0.3013 -0.0015 0.1969, -0.0151 0.0 0.1969, -0.1353 -0.0015 0.1969, -0.0712 0.0 0.1969, -0.1301 -0.0009 0.1969, -0.1159 0.0045 0.1969, -0.2907 0.1181 0.1969, -0.3013 1.4921 0.1969, -0.2241 0.1181 0.1969, -0.0997 0.1 0.1969, -0.112 0.1108 0.1969, -0.0957 0.0645 0.1969, -0.0954 0.0589 0.1969, -0.1477 0.109 0.1969, -0.0982 0.076 0.1969, -0.1906 0.0288 0.1969, -0.1999 0.0217 0.1969, -0.1999 0.0964 0.1969, -0.2347 0.0575 0.1969, -0.2347 0.0121 0.1969, -0.2907 0.0121 0.1969, -0.2907 0.0 0.1969, -0.2241 0.0 0.1969, -0.1045 0.0127 0.1969, -0.0998 0.0176 0.1969, -0.0712 0.0121 0.1969, -0.0912 0.0306 0.1969, -0.0865 0.0442 0.1969, -0.1245 0.1172 0.1969, -0.1389 0.1206 0.1969, -0.1483 0.1211 0.1969, -0.1655 0.1192 0.1969, -0.1763 0.1155 0.1969, -0.1892 0.1077 0.1969, -0.1964 0.1008 0.1969, -0.1071 0.0269 0.1969, -0.1156 0.0191 0.1969, -0.1895 0.0108 0.1969, -0.1772 0.0031 0.1969, -0.0848 0.0597 0.1969, -0.0867 0.0759 0.1969, -0.0916 0.0884 0.1969, -0.1906 0.0893 0.1969, -0.1811 0.0985 0.1969, -0.1841 0.0222 0.1969, -0.17 0.1048 0.1969, -0.1736 0.015 0.1969, -0.1623 0.0107 0.1969, -0.1337 0.1073 0.1969, -0.1217 0.1026 0.1969, -0.097 0.0459 0.1969, -0.1007 0.0361 0.1969, -0.1648 0.1066 0.1969, -0.1518 0.1089 0.1969, -0.139 0.0097 0.1969, -0.127 0.0128 0.1969, -0.1484 0.0091 0.1969, -0.1108 0.095 0.1969, -0.1035 0.0864 0.1969, -0.1634 -0.0015 0.1969, -0.1544 -0.0028 0.1969, -0.3013 -1.4921 0.1969, -0.1485 -0.003 0.1969, -0.0257 0.0121 0.1969, -0.0257 0.1181 0.1969, -0.0151 0.1181 0.1969, 1.1024 1.4921 0.1969, 1.1024 -0.0015 0.1969, 1.1024 -1.4921 0.1969, -1.1024 -1.4921 0.1969, -1.1024 -0.0015 0.1969, -0.1638 -0.0015 0.1969, -0.4356 0.0 0.1969, -0.424 0.0 0.1969, -0.5245 0.0 0.1969, -0.5071 0.0379 0.1969, -0.4535 0.0379 0.1969, -0.4026 0.0286 0.1969, -0.3945 0.0165 0.1969, -0.3857 0.0087 0.1969, -0.3768 0.0041 0.1969, -0.3547 0.1174 0.1969, -0.3733 0.1139 0.1969, -0.3624 0.0008 0.1969, -0.3485 0.0 0.1969, -0.3119 0.0 0.1969, -0.3119 0.1181 0.1969, -0.3358 0.1181 0.1969, -0.3852 0.1078 0.1969, -0.48 0.1181 0.1969, -1.1024 1.4921 0.1969, -0.4815 0.1181 0.1969, -0.536 0.0 0.1969, -0.3938 0.1003 0.1969, -0.4014 0.0897 0.1969, -0.4063 0.0773 0.1969, -0.4087 0.063 0.1969, -0.4088 0.0576 0.1969, -0.4072 0.0418 0.1969, -1.1806 -1.4921 0.3858, 1.1806 -1.4921 0.3858, -1.1806 1.4921 0.3858, 1.1806 1.4921 0.3858
            ]
        }
        coordIndex [
            0,1,2,-1,3,4,5,-1,6,7,8,-1,8,7,9,-1,8,9,10,-1,2,3,0,-1,0,3,5,-1,0,5,11,-1,11,5,12,-1,11,12,13,-1,14,15,12,-1,16,17,18,-1,16,18,19,-1,20,21,22,-1,23,24,4,-1,4,24,25,-1,4,25,5,-1,5,25,26,-1,5,26,27,-1,10,28,8,-1,8,28,29,-1,8,29,30,-1,30,29,31,-1,30,31,32,-1,15,33,12,-1,12,33,34,-1,12,34,35,-1,35,36,12,-1,12,36,37,-1,12,37,38,-1,27,13,22,-1,22,13,12,-1,22,12,39,-1,39,12,38,-1,18,40,41,-1,22,21,27,-1,27,21,42,-1,27,42,43,-1,32,44,30,-1,30,44,45,-1,30,45,12,-1,12,45,46,-1,12,46,14,-1,22,47,20,-1,20,47,48,-1,20,48,49,-1,49,48,50,-1,49,50,51,-1,51,50,52,-1,18,53,54,-1,17,55,18,-1,18,55,56,-1,18,56,40,-1,57,58,59,-1,59,58,18,-1,59,18,60,-1,60,18,41,-1,57,59,50,-1,50,59,61,-1,50,61,52,-1,54,62,18,-1,18,62,63,-1,18,63,19,-1,64,65,66,-1,66,65,67,-1,66,67,7,-1,68,30,69,-1,69,30,12,-1,69,12,70,-1,70,12,71,-1,70,71,6,-1,6,71,72,-1,6,72,7,-1,7,72,73,-1,7,73,66,-1,74,75,66,-1,66,75,5,-1,66,5,64,-1,64,5,27,-1,64,27,76,-1,76,27,43,-1,77,78,5,-1,79,80,81,-1,82,83,78,-1,78,83,84,-1,78,84,85,-1,86,87,12,-1,85,88,78,-1,78,88,89,-1,78,89,5,-1,89,90,5,-1,5,90,91,-1,5,91,12,-1,12,91,92,-1,12,92,86,-1,87,93,12,-1,12,93,94,-1,12,94,95,-1,95,94,96,-1,95,96,75,-1,75,96,97,-1,75,97,5,-1,5,97,79,-1,5,79,77,-1,77,79,81,-1,93,98,94,-1,94,98,99,-1,94,99,100,-1,100,101,94,-1,94,101,102,-1,94,102,78,-1,78,102,103,-1,78,103,82,-1,104,105,106,-1,106,105,107,-1,
        ]
    }
}
Shape{
    appearance Appearance {
        material  Material 	{
            diffuseColor 1.0 0.5019607843137255 0.0
            specularColor 0.5019607843137255 0.25098039215686274 0.0
            ambientIntensity 0.5937
            transparency 0.0
            shininess 0.5
        }
    }
    geometry IndexedFaceSet {
        ccw TRUE
        solid FALSE
        coord DEF co Coordinate {
            point [
                -1.1806 1.4961 0.3858, -1.1024 1.4961 0.1969, -1.3775 1.4961 0.189, -1.2992 1.4961 0.0, -2.9528 1.4961 0.189, -2.9528 1.4961 0.0, 1.1059 -1.4961 0.1969, 1.1024 -1.4961 0.1969, 1.2992 -1.4961 0.0, 1.1806 -1.4961 0.3858, 1.3775 -1.4961 0.189, 2.9528 -1.4961 0.189, 2.9528 -1.4961 0.0, -2.9528 -1.4961 0.189, -2.9528 -1.4961 0.0, -1.3775 -1.4961 0.189, -1.2992 -1.4961 0.0, -1.1806 -1.4961 0.3858, -1.1024 -1.4961 0.1969, -1.1806 1.4921 0.3858, -1.1806 -1.4921 0.3858, 1.1806 -1.4921 0.3858, 1.3775 1.4961 0.189, 1.1806 1.4921 0.3858, 1.1806 1.4961 0.3858, 2.9528 1.4961 0.189, 2.9528 1.4961 0.0, 1.2992 1.4961 0.0, 1.1024 -1.4921 0.1969, 1.1024 -0.0015 0.1969, 1.1024 1.4921 0.1969, 1.1024 1.4961 0.1969, -1.1024 1.4921 0.1969, -1.1024 -0.0015 0.1969, -1.1024 -1.4921 0.1969, 1.1059 1.4961 0.1969
            ]
        }
        coordIndex [
            0,1,2,-1,2,1,3,-1,2,3,4,-1,4,3,5,-1,6,7,8,-1,9,6,10,-1,10,6,8,-1,10,8,11,-1,11,8,12,-1,13,14,15,-1,15,14,16,-1,15,16,17,-1,17,16,18,-1,2,4,15,-1,15,4,13,-1,0,2,19,-1,19,2,15,-1,19,15,20,-1,20,15,17,-1,9,10,21,-1,21,10,22,-1,21,22,23,-1,23,22,24,-1,25,22,11,-1,11,22,10,-1,26,25,12,-1,12,25,11,-1,27,26,8,-1,8,26,12,-1,7,28,8,-1,8,28,29,-1,8,29,27,-1,27,29,30,-1,27,30,31,-1,1,32,3,-1,3,32,33,-1,3,33,16,-1,16,33,34,-1,16,34,18,-1,5,3,14,-1,14,3,16,-1,4,5,13,-1,13,5,14,-1,27,31,35,-1,25,26,22,-1,22,26,27,-1,22,27,24,-1,24,27,35,-1,
        ]
    }
}
Shape{
    appearance Appearance {
        material  Material 	{
            diffuseColor 0.7529411764705882 0.7529411764705882 0.7529411764705882
            specularColor 0.3764705882352941 0.3764705882352941 0.3764705882352941
            ambientIntensity 0.7529
            transparency 0.0
            shininess 0.5
        }
    }
    geometry IndexedFaceSet {
        ccw TRUE
        solid FALSE
        coord DEF co Coordinate {
            point [
                -0.48 0.1181 0.2362, -0.4815 0.1181 0.2362, -0.48 0.1181 0.1969, -0.4815 0.1181 0.1969, -0.536 -0.0 0.2362, -0.536 0.0 0.1969, -0.5245 0.0 0.2362, -0.5245 0.0 0.1969, -0.5071 0.0379 0.2362, -0.5071 0.0379 0.1969, -0.4535 0.0379 0.2362, -0.4535 0.0379 0.1969, -0.4356 -0.0 0.2362, -0.4356 0.0 0.1969, -0.424 0.0 0.2362, -0.424 0.0 0.1969, -0.5015 0.05 0.2362, -0.4593 0.05 0.2362, -0.4807 0.0951 0.2362, -0.5015 0.05 0.1969, -0.4807 0.0951 0.1969, -0.4593 0.05 0.1969, -0.3485 0.0 0.2362, -0.3119 0.0 0.2362, -0.3485 0.0 0.1969, -0.3119 0.0 0.1969, -0.3119 0.1181 0.2362, -0.3119 0.1181 0.1969, -0.3358 0.1181 0.2362, -0.3358 0.1181 0.1969, -0.3733 0.1139 0.2362, -0.3733 0.1139 0.1969, -0.3547 0.1174 0.1969, -0.3547 0.1174 0.2362, -0.4088 0.0576 0.2362, -0.4088 0.0576 0.1969, -0.4087 0.063 0.1969, -0.4087 0.063 0.2362, -0.4063 0.0773 0.1969, -0.4063 0.0773 0.2362, -0.4014 0.0897 0.1969, -0.4014 0.0897 0.2362, -0.3938 0.1003 0.1969, -0.3938 0.1003 0.2362, -0.3852 0.1078 0.1969, -0.3852 0.1078 0.2362, -0.3624 0.0008 0.1969, -0.3624 0.0008 0.2362, -0.3768 0.0041 0.1969, -0.3768 0.0041 0.2362, -0.3857 0.0087 0.1969, -0.3857 0.0087 0.2362, -0.3945 0.0165 0.1969, -0.3945 0.0165 0.2362, -0.4026 0.0286 0.1969, -0.4026 0.0286 0.2362, -0.4072 0.0418 0.1969, -0.4072 0.0418 0.2362, -0.3491 0.1054 0.2362, -0.3671 0.1027 0.2362, -0.3724 0.1008 0.2362, -0.3813 0.0956 0.2362, -0.3881 0.0889 0.2362, -0.3935 0.0803 0.2362, -0.397 0.0701 0.2362, -0.3982 0.0576 0.2362, -0.3982 0.0543 0.2362, -0.3961 0.0418 0.2362, -0.3922 0.0329 0.2362, -0.3863 0.0251 0.2362, -0.3793 0.0195 0.2362, -0.3699 0.0151 0.2362, -0.3531 0.0126 0.2362, -0.3361 0.0121 0.2362, -0.3225 0.0121 0.2362, -0.3225 0.106 0.2362, -0.3308 0.106 0.2362, -0.3225 0.106 0.1969, -0.3225 0.0121 0.1969, -0.3308 0.106 0.1969, -0.3491 0.1054 0.1969, -0.3671 0.1027 0.1969, -0.3724 0.1008 0.1969, -0.3813 0.0956 0.1969, -0.3881 0.0889 0.1969, -0.3935 0.0803 0.1969, -0.397 0.0701 0.1969, -0.3982 0.0576 0.1969, -0.3982 0.0543 0.1969, -0.3961 0.0418 0.1969, -0.3922 0.0329 0.1969, -0.3863 0.0251 0.1969, -0.3793 0.0195 0.1969, -0.3699 0.0151 0.1969, -0.3531 0.0126 0.1969, -0.3361 0.0121 0.1969, -0.2241 0.0 0.2362, -0.2241 0.1181 0.2362, -0.2241 0.0 0.1969, -0.2241 0.1181 0.1969, -0.2907 0.1181 0.2362, -0.2907 0.1181 0.1969, -0.2907 0.106 0.2362, -0.2907 0.106 0.1969, -0.2347 0.106 0.2362, -0.2347 0.106 0.1969, -0.2347 0.0697 0.2362, -0.2347 0.0697 0.1969, -0.2907 0.0697 0.2362, -0.2907 0.0697 0.1969, -0.2907 0.0575 0.2362, -0.2907 0.0575 0.1969, -0.2347 0.0575 0.2362, -0.2347 0.0575 0.1969, -0.2347 0.0121 0.2362, -0.2347 0.0121 0.1969, -0.2907 0.0121 0.2362, -0.2907 0.0121 0.1969, -0.2907 0.0 0.2362, -0.2907 0.0 0.1969, -0.1999 0.0964 0.2362, -0.1999 0.0964 0.1969, -0.1964 0.1008 0.1969, -0.1964 0.1008 0.2362, -0.1892 0.1077 0.1969, -0.1892 0.1077 0.2362, -0.1763 0.1155 0.1969, -0.1763 0.1155 0.2362, -0.1655 0.1192 0.1969, -0.1655 0.1192 0.2362, -0.1483 0.1211 0.1969, -0.1483 0.1211 0.2362, -0.1906 0.0893 0.2362, -0.1906 0.0893 0.1969, -0.1477 0.109 0.2362, -0.1477 0.109 0.1969, -0.1518 0.1089 0.1969, -0.1518 0.1089 0.2362, -0.1648 0.1066 0.1969, -0.1648 0.1066 0.2362, -0.17 0.1048 0.1969, -0.17 0.1048 0.2362, -0.1811 0.0985 0.1969, -0.1811 0.0985 0.2362, -0.0954 0.0589 0.2362, -0.0954 0.0589 0.1969, -0.0957 0.0645 0.1969, -0.0957 0.0645 0.2362, -0.0982 0.076 0.1969, -0.0982 0.076 0.2362, -0.1035 0.0864 0.1969, -0.1035 0.0864 0.2362, -0.1108 0.095 0.1969, -0.1108 0.095 0.2362, -0.1217 0.1026 0.1969, -0.1217 0.1026 0.2362, -0.1337 0.1073 0.1969, -0.1337 0.1073 0.2362, -0.1484 0.0091 0.2362, -0.1484 0.0091 0.1969, -0.139 0.0097 0.1969, -0.139 0.0097 0.2362, -0.127 0.0128 0.1969, -0.127 0.0128 0.2362, -0.1156 0.0191 0.1969, -0.1156 0.0191 0.2362, -0.1071 0.0269 0.1969, -0.1071 0.0269 0.2362, -0.1007 0.0361 0.1969, -0.1007 0.0361 0.2362, -0.097 0.0459 0.1969, -0.097 0.0459 0.2362, -0.1906 0.0288 0.2362, -0.1906 0.0288 0.1969, -0.1841 0.0222 0.1969, -0.1841 0.0222 0.2362, -0.1736 0.015 0.1969, -0.1736 0.015 0.2362, -0.1623 0.0107 0.1969, -0.1623 0.0107 0.2362, -0.1999 0.0217 0.2362, -0.1999 0.0217 0.1969, -0.1485 -0.003 0.2362, -0.1485 -0.003 0.1969, -0.1544 -0.0028 0.1969, -0.1544 -0.0028 0.2362, -0.1634 -0.0015 0.1969, -0.1638 -0.0015 0.2362, -0.1638 -0.0015 0.1969, -0.1772 0.0031 0.1969, -0.1772 0.0031 0.2362, -0.1895 0.0108 0.1969, -0.1895 0.0108 0.2362, -0.1353 -0.0015 0.1969, -0.1301 -0.0009 0.2362, -0.1301 -0.0009 0.1969, -0.1159 0.0045 0.2362, -0.1159 0.0045 0.1969, -0.1045 0.0127 0.2362, -0.1045 0.0127 0.1969, -0.0998 0.0176 0.2362, -0.0998 0.0176 0.1969, -0.0848 0.0597 0.2362, -0.0848 0.0597 0.1969, -0.0865 0.0442 0.1969, -0.0865 0.0442 0.2362, -0.0912 0.0306 0.1969, -0.0912 0.0306 0.2362, -0.1389 0.1206 0.1969, -0.1389 0.1206 0.2362, -0.1245 0.1172 0.1969, -0.1245 0.1172 0.2362, -0.112 0.1108 0.1969, -0.112 0.1108 0.2362, -0.0997 0.1 0.1969, -0.0997 0.1 0.2362, -0.0916 0.0884 0.1969, -0.0916 0.0884 0.2362, -0.0867 0.0759 0.1969, -0.0867 0.0759 0.2362, -0.0151 0.0 0.2362, -0.0151 0.1181 0.2362, -0.0151 0.0 0.1969, -0.0151 0.1181 0.1969, -0.0257 0.1181 0.2362, -0.0257 0.1181 0.1969, -0.0257 0.0121 0.2362, -0.0257 0.0121 0.1969, -0.0712 0.0121 0.2362, -0.0712 0.0121 0.1969, -0.0712 0.0 0.2362, -0.0712 0.0 0.1969, 1.1059 -1.4961 0.1969, 1.1059 -1.4921 0.1969, 1.1024 -1.4961 0.1969, 1.1024 -1.4921 0.1969, 1.1806 -1.4921 0.3858, 1.1806 -1.4961 0.3858, -1.1806 -1.4921 0.3858, -1.1806 -1.4961 0.3858, -1.1024 -1.4921 0.1969, -1.1024 -1.4961 0.1969, -0.3013 -1.4921 0.1969, 1.1059 1.4961 0.1969, 1.1024 1.4961 0.1969, 1.1059 1.4921 0.1969, 1.1024 1.4921 0.1969, -1.1806 1.4921 0.3858, -1.1024 1.4921 0.1969, -1.1806 1.4961 0.3858, -1.1024 1.4961 0.1969, 1.1806 1.4921 0.3858, 1.1806 1.4961 0.3858, -0.3013 1.4921 0.1969
            ]
        }
        coordIndex [
            0,1,2,-1,2,1,3,-1,1,4,3,-1,3,4,5,-1,4,6,5,-1,5,6,7,-1,6,8,7,-1,7,8,9,-1,8,10,9,-1,9,10,11,-1,10,12,11,-1,11,12,13,-1,12,14,13,-1,13,14,15,-1,14,0,15,-1,15,0,2,-1,16,4,1,-1,0,17,1,-1,1,17,18,-1,1,18,16,-1,14,12,10,-1,6,4,8,-1,8,4,16,-1,8,16,10,-1,10,16,17,-1,10,17,14,-1,14,17,0,-1,16,18,19,-1,19,18,20,-1,17,16,21,-1,21,16,19,-1,18,17,20,-1,20,17,21,-1,22,23,24,-1,24,23,25,-1,23,26,25,-1,25,26,27,-1,26,28,27,-1,27,28,29,-1,30,31,32,-1,30,32,33,-1,33,32,29,-1,33,29,28,-1,34,35,36,-1,34,36,37,-1,37,36,38,-1,37,38,39,-1,39,38,40,-1,39,40,41,-1,41,40,42,-1,41,42,43,-1,43,42,44,-1,43,44,45,-1,45,44,31,-1,45,31,30,-1,22,24,46,-1,22,46,47,-1,47,46,48,-1,47,48,49,-1,49,48,50,-1,49,50,51,-1,51,50,52,-1,51,52,53,-1,53,52,54,-1,53,54,55,-1,55,54,56,-1,55,56,57,-1,57,56,35,-1,57,35,34,-1,58,59,30,-1,30,59,60,-1,30,60,45,-1,45,60,61,-1,45,61,43,-1,43,61,62,-1,43,62,41,-1,41,62,63,-1,41,63,39,-1,39,63,64,-1,39,64,37,-1,37,64,65,-1,37,65,34,-1,34,65,66,-1,34,66,57,-1,57,66,67,-1,57,67,55,-1,55,67,68,-1,55,68,53,-1,53,68,69,-1,53,69,51,-1,51,69,70,-1,51,70,49,-1,49,70,71,-1,49,71,47,-1,47,71,72,-1,47,72,22,-1,22,72,73,-1,22,73,23,-1,23,73,74,-1,23,74,26,-1,26,74,75,-1,26,75,28,-1,28,75,76,-1,28,76,33,-1,33,76,58,-1,33,58,30,-1,75,74,77,-1,77,74,78,-1,76,75,79,-1,79,75,77,-1,76,79,80,-1,76,80,58,-1,58,80,81,-1,58,81,59,-1,59,81,82,-1,59,82,60,-1,60,82,83,-1,60,83,61,-1,61,83,84,-1,61,84,62,-1,62,84,85,-1,62,85,63,-1,63,85,86,-1,63,86,64,-1,64,86,87,-1,64,87,65,-1,65,87,88,-1,65,88,66,-1,66,88,89,-1,66,89,67,-1,67,89,90,-1,67,90,68,-1,68,90,91,-1,68,91,69,-1,69,91,92,-1,69,92,70,-1,70,92,93,-1,70,93,71,-1,71,93,94,-1,71,94,72,-1,72,94,95,-1,72,95,73,-1,74,73,78,-1,78,73,95,-1,96,97,98,-1,98,97,99,-1,97,100,99,-1,99,100,101,-1,100,102,101,-1,101,102,103,-1,102,104,103,-1,103,104,105,-1,104,106,105,-1,105,106,107,-1,106,108,107,-1,107,108,109,-1,108,110,109,-1,109,110,111,-1,110,112,111,-1,111,112,113,-1,112,114,113,-1,113,114,115,-1,114,116,115,-1,115,116,117,-1,116,118,117,-1,117,118,119,-1,118,96,119,-1,119,96,98,-1,96,118,116,-1,116,114,96,-1,96,114,112,-1,96,112,97,-1,102,100,104,-1,104,100,97,-1,104,97,106,-1,106,97,112,-1,106,112,108,-1,108,112,110,-1,120,121,122,-1,120,122,123,-1,123,122,124,-1,123,124,125,-1,125,124,126,-1,125,126,127,-1,127,126,128,-1,127,128,129,-1,129,128,130,-1,129,130,131,-1,120,132,121,-1,121,132,133,-1,134,135,136,-1,134,136,137,-1,137,136,138,-1,137,138,139,-1,139,138,140,-1,139,140,141,-1,141,140,142,-1,141,142,143,-1,143,142,133,-1,143,133,132,-1,144,145,146,-1,144,146,147,-1,147,146,148,-1,147,148,149,-1,149,148,150,-1,149,150,151,-1,151,150,152,-1,151,152,153,-1,153,152,154,-1,153,154,155,-1,155,154,156,-1,155,156,157,-1,157,156,135,-1,157,135,134,-1,158,159,160,-1,158,160,161,-1,161,160,162,-1,161,162,163,-1,163,162,164,-1,163,164,165,-1,165,164,166,-1,165,166,167,-1,167,166,168,-1,167,168,169,-1,169,168,170,-1,169,170,171,-1,171,170,145,-1,171,145,144,-1,172,173,174,-1,172,174,175,-1,175,174,176,-1,175,176,177,-1,177,176,178,-1,177,178,179,-1,179,178,159,-1,179,159,158,-1,172,180,173,-1,173,180,181,-1,182,183,184,-1,182,184,185,-1,185,184,186,-1,185,186,187,-1,186,188,187,-1,187,188,189,-1,187,189,190,-1,190,189,191,-1,190,191,192,-1,192,191,181,-1,192,181,180,-1,183,182,193,-1,193,182,194,-1,193,194,195,-1,195,194,196,-1,195,196,197,-1,197,196,198,-1,197,198,199,-1,199,198,200,-1,199,200,201,-1,202,203,204,-1,202,204,205,-1,205,204,206,-1,205,206,207,-1,207,206,201,-1,207,201,200,-1,131,130,208,-1,131,208,209,-1,209,208,210,-1,209,210,211,-1,211,210,212,-1,211,212,213,-1,213,212,214,-1,213,214,215,-1,215,214,216,-1,215,216,217,-1,217,216,218,-1,217,218,219,-1,219,218,203,-1,219,203,202,-1,132,120,123,-1,180,172,192,-1,192,172,175,-1,192,175,190,-1,190,175,177,-1,190,177,187,-1,187,177,179,-1,187,179,185,-1,185,179,158,-1,132,123,143,-1,143,123,125,-1,143,125,141,-1,141,125,127,-1,141,127,139,-1,139,127,129,-1,139,129,137,-1,137,129,131,-1,137,131,134,-1,134,131,209,-1,134,209,157,-1,157,209,211,-1,157,211,155,-1,155,211,213,-1,155,213,153,-1,153,213,215,-1,153,215,151,-1,151,215,217,-1,151,217,149,-1,149,217,219,-1,149,219,147,-1,147,219,202,-1,147,202,144,-1,144,202,171,-1,171,202,205,-1,171,205,169,-1,169,205,207,-1,169,207,167,-1,167,207,200,-1,167,200,165,-1,165,200,198,-1,165,198,163,-1,163,198,196,-1,163,196,161,-1,161,196,194,-1,161,194,158,-1,158,194,182,-1,158,182,185,-1,220,221,222,-1,222,221,223,-1,221,224,223,-1,223,224,225,-1,224,226,225,-1,225,226,227,-1,226,228,227,-1,227,228,229,-1,228,230,229,-1,229,230,231,-1,230,220,231,-1,231,220,222,-1,224,221,226,-1,226,221,220,-1,226,220,228,-1,228,220,230,-1,20,21,19,-1,77,78,79,-1,79,78,95,-1,79,95,80,-1,80,95,94,-1,80,94,81,-1,90,89,94,-1,94,89,88,-1,94,88,87,-1,93,92,94,-1,94,92,91,-1,94,91,90,-1,87,86,94,-1,94,86,85,-1,94,85,84,-1,84,83,94,-1,94,83,82,-1,94,82,81,-1,232,233,234,-1,234,233,235,-1,233,232,236,-1,236,232,237,-1,238,239,240,-1,240,239,241,-1,235,233,236,-1,235,236,242,-1,242,236,238,-1,242,238,240,-1,243,244,245,-1,245,244,246,-1,247,248,249,-1,249,248,250,-1,245,251,243,-1,243,251,252,-1,245,246,251,-1,251,246,253,-1,251,253,247,-1,247,253,248,-1,
        ]
    }
}