#VRML V2.0 utf8
# 3D model generated by easyeda2kicad.py (https://github.com/uPesy/easyeda2kicad.py)

Shape{
    appearance Appearance {
        material  Material 	{
            diffuseColor 0.8431372549019608 0.8156862745098039 0.7529411764705882
            specularColor 0.25098039215686274 0.24313725490196078 0.22745098039215686
            ambientIntensity 0.8167
            transparency 0.0
            shininess 0.5
        }
    }
    geometry IndexedFaceSet {
        ccw TRUE
        solid FALSE
        coord DEF co Coordinate {
            point [
                0.1575 0.2882 0.0039, 0.1575 -0.4992 0.0039, -0.0245 -0.4992 0.0039, 0.9449 0.2882 0.0039, 0.9449 -0.4992 0.0039, 0.6299 -0.4992 0.0039, 1.5748 0.1701 0.0039, 1.5748 -0.4992 0.0039, 1.2598 0.1701 0.0039, 1.0236 -0.4992 0.0039, 1.2598 0.389 0.0039, 1.0236 0.2882 0.0039, 0.5512 -0.4992 0.0039, 0.2362 -0.4992 0.0039, 0.5512 0.2882 0.0039, 0.2362 0.2882 0.0039, 0.098 0.389 0.0039, 0.1027 0.3883 0.0039, 0.1059 0.3882 0.0039, 0.1129 0.389 0.0039, 0.6299 0.2882 0.0039, -0.0101 0.5078 0.0039, -0.0101 0.4948 0.0039, -0.0245 0.6425 0.0039, -0.013 0.4026 0.0039, -0.0245 0.389 0.0039, -0.013 0.3897 0.0039, 0.0504 0.3897 0.0039, 0.0734 0.3958 0.0039, 0.0734 0.4088 0.0039, 0.0504 0.5078 0.0039, 0.086 0.3906 0.0039, 0.0346 0.443 0.0039, 0.0346 0.4026 0.0039, -0.0072 0.443 0.0039, -0.0072 0.4559 0.0039, 0.0346 0.4559 0.0039, 0.0346 0.4948 0.0039, 0.2319 0.3897 0.0039, 0.1714 0.3897 0.0039, 0.1205 0.3897 0.0039, 0.132 0.3937 0.0039, 0.216 0.5078 0.0039, 0.2319 0.5078 0.0039, 1.2598 0.6425 0.0039, 0.1551 0.4767 0.0039, 0.1482 0.4877 0.0039, 0.1127 0.495 0.0039, 0.1216 0.4918 0.0039, 0.0756 0.4076 0.0039, 0.1298 0.4863 0.0039, 0.1369 0.4784 0.0039, 0.1455 0.4475 0.0039, 0.1443 0.4347 0.0039, 0.1411 0.4245 0.0039, 0.1148 0.4024 0.0039, 0.1038 0.4012 0.0039, 0.1234 0.4056 0.0039, 0.1306 0.4105 0.0039, 0.1362 0.4163 0.0039, 0.0881 0.4029 0.0039, 0.0734 0.4887 0.0039, 0.0868 0.4944 0.0039, 0.1011 0.4963 0.0039, 0.1418 0.4693 0.0039, 0.1449 0.4567 0.0039, 0.1415 0.3998 0.0039, 0.1503 0.4091 0.0039, 0.1714 0.4026 0.0039, 0.1566 0.4203 0.0039, 0.216 0.4026 0.0039, 0.1012 0.5092 0.0039, 0.0871 0.5082 0.0039, 0.0734 0.5045 0.0039, 0.1602 0.4328 0.0039, 0.1613 0.4465 0.0039, 0.1596 0.4633 0.0039, 0.1375 0.498 0.0039, 0.1263 0.5044 0.0039, 0.1131 0.5083 0.0039, -0.1397 0.3897 0.0039, -0.1252 0.422 0.0039, -0.1184 0.4115 0.0039, -0.1844 0.5078 0.0039, -0.2002 0.5078 0.0039, -0.229 0.3897 0.0039, -0.2463 0.3897 0.0039, -1.2599 0.389 0.0039, -1.2599 0.6425 0.0039, -0.1087 0.4022 0.0039, -0.0964 0.395 0.0039, -0.0827 0.391 0.0039, -0.0681 0.3897 0.0039, -0.036 0.3897 0.0039, -0.036 0.5078 0.0039, -0.0694 0.5078 0.0039, -0.1132 0.4924 0.0039, -0.1216 0.4831 0.0039, -0.1271 0.473 0.0039, -0.0864 0.506 0.0039, -0.1002 0.5011 0.0039, -0.1131 0.4925 0.0039, -0.157 0.3897 0.0039, -0.1683 0.4228 0.0039, -0.2171 0.4228 0.0039, -0.1302 0.4613 0.0039, -0.1311 0.4502 0.0039, -0.1294 0.4344 0.0039, -0.1575 -0.4992 0.0039, -0.2362 -0.4992 0.0039, -0.5512 -0.4992 0.0039, -0.2362 0.2882 0.0039, -0.5512 0.2882 0.0039, -0.1575 0.2882 0.0039, -0.6299 0.2882 0.0039, -0.6299 -0.4992 0.0039, -0.9449 -0.4992 0.0039, -0.9449 0.2882 0.0039, -1.0236 0.2882 0.0039, -1.2599 0.1701 0.0039, -1.0236 -0.4992 0.0039, -1.5748 0.1701 0.0039, -1.5748 -0.4992 0.0039, 0.1575 -0.4992 0.1378, 1.4173 -0.4992 1.6772, -1.4173 -0.4992 1.6772, 1.4173 -0.4992 1.2047, 0.9449 -0.4992 0.1378, 1.5748 -0.4992 1.2047, 1.0236 -0.4992 0.1378, 0.6299 -0.4992 0.1378, -0.1575 -0.4992 0.1378, -0.2362 -0.4992 0.1378, -1.4173 -0.4992 1.2047, -1.5748 -0.4992 1.2047, -1.0236 -0.4992 0.1378, -0.9449 -0.4992 0.1378, -0.5512 -0.4992 0.1378, -0.6299 -0.4992 0.1378, 0.2362 -0.4992 0.1378, 0.5512 -0.4992 0.1378, -1.378 0.3276 0.4961, -1.378 0.0913 0.4961, -1.2992 0.3276 0.4961, -1.2992 0.0913 0.4961, -0.7874 -0.1232 0.4961, -0.9449 0.1346 0.4961, -1.0236 0.1346 0.4961, -0.9449 0.2843 0.4961, -0.7874 0.5244 0.4961, -1.0236 0.2843 0.4961, -1.2992 0.5244 0.4961, -1.2992 -0.1232 0.4961, 1.2008 0.5244 0.4961, 1.2008 -0.1232 0.4961, 1.2992 0.0913 0.4961, 1.2992 -0.1232 0.4961, 1.2992 0.5244 0.4961, 1.2992 0.3276 0.4961, 1.3779 0.3276 0.4961, 1.3779 0.0913 0.4961, 1.2992 -0.3811 0.4961, 1.2008 -0.3811 0.4961, 0.7874 -0.3811 0.4961, 0.7874 -0.1232 0.4961, 0.3937 -0.3811 0.4961, 0.3937 -0.1232 0.4961, -0.0 -0.3811 0.4961, -0.0 -0.1232 0.4961, -0.3937 -0.3811 0.4961, -0.3937 -0.1232 0.4961, -0.7874 -0.3811 0.4961, -1.2992 -0.3811 0.4961, -0.6299 0.2843 0.4961, -0.6299 0.1346 0.4961, -0.5512 0.1346 0.4961, -0.5512 0.2843 0.4961, -0.3937 0.5244 0.4961, -0.2362 0.2843 0.4961, -0.2362 0.1346 0.4961, -0.1575 0.1346 0.4961, -0.1575 0.2843 0.4961, -0.0 0.5244 0.4961, 0.1575 0.2843 0.4961, 0.1575 0.1346 0.4961, 0.2362 0.1346 0.4961, 0.2362 0.2843 0.4961, 0.3937 0.5244 0.4961, 0.5512 0.2843 0.4961, 0.5512 0.1346 0.4961, 0.6299 0.1346 0.4961, 0.6299 0.2843 0.4961, 0.7874 0.5244 0.4961, 0.9449 0.2843 0.4961, 0.9449 0.1346 0.4961, 1.0236 0.1346 0.4961, 1.0236 0.2843 0.4961, 1.5748 0.4063 0.4764, 1.5748 0.4063 0.2402, 1.4567 0.4063 0.4764, 1.4567 0.4063 0.2402, 1.5748 0.6425 0.4764, 1.4567 0.6425 0.4764, 1.5748 0.6425 1.6772, 1.5748 -0.0268 1.6772, 1.5748 0.1701 0.2402, 1.5748 -0.0268 1.4409, 1.5748 -0.263 1.4409, 1.5748 -0.263 1.2047, -1.4567 0.6425 0.4764, -1.5748 0.6425 0.4764, -1.5748 0.6425 1.6772, 1.2598 0.6425 0.4764, 1.3779 0.6425 0.4764, -1.2599 0.6425 0.4764, -1.378 0.6425 0.4764, 1.4173 -0.2039 1.4409, 1.4173 -0.263 1.4409, 1.5157 -0.2039 1.4409, 1.5157 -0.0268 1.4409, 1.4173 -0.4402 1.2047, 1.5157 -0.4402 1.2047, 1.5157 -0.263 1.2047, 1.3583 0.5835 1.6772, 1.3583 0.3866 1.6772, 1.437 0.3866 1.6772, -1.3583 0.3866 1.6772, -1.3583 0.5835 1.6772, 1.437 0.0323 1.6772, 1.4173 -0.0268 1.6772, 1.3583 0.0323 1.6772, 1.3583 -0.4402 1.6772, -1.3583 -0.4402 1.6772, -1.4173 -0.0268 1.6772, -1.3583 0.0323 1.6772, -1.5748 -0.0268 1.6772, -1.437 0.0323 1.6772, -1.437 0.3866 1.6772, -1.5748 0.4063 0.4764, -1.4567 0.4063 0.4764, -1.2599 0.4063 0.4764, -1.378 0.4063 0.4764, -1.5748 0.4063 0.2402, -1.4567 0.4063 0.2402, -1.2599 0.4063 0.2402, -1.378 0.4063 0.2402, -1.378 0.178 0.2402, -1.2599 0.1701 0.2402, -1.4567 0.178 0.2402, -1.5748 0.1701 0.2402, -1.5748 -0.0268 1.4409, -1.5748 -0.263 1.2047, -1.5748 -0.263 1.4409, -1.378 0.3276 1.5149, -1.2992 0.3276 1.5149, -1.2992 0.5244 1.5149, 1.2992 0.5244 1.5149, 1.2992 0.3276 1.5149, 1.3779 0.3276 1.5149, 1.3779 0.0913 1.5149, 1.2992 0.0913 1.5149, 1.2992 -0.3811 1.5149, -1.2992 -0.3811 1.5149, -1.2992 0.0913 1.5149, -1.378 0.0913 1.5149, -1.5158 -0.263 1.2047, -1.5158 -0.4402 1.2047, -1.4173 -0.4402 1.2047, -1.5158 -0.263 0.2598, -1.4173 -0.263 0.2598, -1.4173 -0.263 1.4409, -1.5158 -0.0268 1.4409, -1.5158 -0.2039 1.4409, -1.4173 -0.2039 1.4409, -1.5158 -0.0268 0.2598, -1.4173 -0.0268 0.2598, -1.4173 -0.4402 0.2598, -1.4173 -0.2039 0.2598, -1.5158 -0.2039 0.2598, -1.5158 -0.4402 0.2598
            ]
        }
        coordIndex [
            0,1,2,-1,3,4,5,-1,6,7,8,-1,8,7,9,-1,8,9,10,-1,10,9,11,-1,10,11,3,-1,12,13,14,-1,14,13,15,-1,16,17,0,-1,0,17,18,-1,0,18,15,-1,15,18,19,-1,15,19,14,-1,14,19,20,-1,21,22,23,-1,23,22,24,-1,23,24,25,-1,25,24,26,-1,25,26,27,-1,28,27,29,-1,29,27,30,-1,28,31,27,-1,27,31,16,-1,27,16,25,-1,32,33,34,-1,34,33,24,-1,34,24,35,-1,35,24,22,-1,35,22,36,-1,36,22,37,-1,38,19,39,-1,39,19,40,-1,39,40,41,-1,42,23,43,-1,43,23,44,-1,43,44,38,-1,38,44,10,-1,38,10,19,-1,19,10,3,-1,19,3,20,-1,20,3,5,-1,45,46,42,-1,47,48,49,-1,49,48,50,-1,49,50,51,-1,52,53,49,-1,49,53,54,-1,55,56,57,-1,57,56,58,-1,54,59,49,-1,49,59,58,-1,49,58,60,-1,60,58,56,-1,21,23,30,-1,30,23,61,-1,30,61,29,-1,29,61,62,-1,29,62,49,-1,49,62,63,-1,49,63,47,-1,51,64,49,-1,49,64,65,-1,49,65,52,-1,41,66,39,-1,39,66,67,-1,39,67,68,-1,68,67,69,-1,68,69,70,-1,71,72,23,-1,23,72,73,-1,23,73,61,-1,69,74,70,-1,70,74,75,-1,70,75,42,-1,42,75,76,-1,42,76,45,-1,46,77,42,-1,42,77,78,-1,42,78,23,-1,23,78,79,-1,23,79,71,-1,80,81,82,-1,23,83,84,-1,85,25,86,-1,86,25,87,-1,86,87,84,-1,84,87,88,-1,84,88,23,-1,82,89,80,-1,80,89,90,-1,80,90,91,-1,92,93,25,-1,25,93,94,-1,25,94,23,-1,23,94,95,-1,96,97,83,-1,83,97,98,-1,95,99,23,-1,23,99,100,-1,23,100,83,-1,83,100,101,-1,83,101,96,-1,91,92,80,-1,80,92,25,-1,80,25,102,-1,102,25,85,-1,102,85,103,-1,103,85,104,-1,98,105,83,-1,83,105,106,-1,83,106,80,-1,80,106,107,-1,80,107,81,-1,16,0,25,-1,25,0,2,-1,25,2,108,-1,109,110,111,-1,111,110,112,-1,108,113,25,-1,25,113,111,-1,25,111,87,-1,87,111,112,-1,87,112,114,-1,115,116,114,-1,114,116,117,-1,114,117,87,-1,87,117,118,-1,87,118,119,-1,119,118,120,-1,119,120,121,-1,121,120,122,-1,2,1,123,-1,124,125,126,-1,126,125,127,-1,126,127,128,-1,128,127,129,-1,128,129,7,-1,7,129,9,-1,130,5,4,-1,131,125,132,-1,132,125,133,-1,132,133,109,-1,122,120,134,-1,134,120,135,-1,134,135,133,-1,133,135,136,-1,110,109,137,-1,137,109,133,-1,137,133,138,-1,138,133,136,-1,138,136,115,-1,115,136,116,-1,108,2,131,-1,131,2,123,-1,131,123,125,-1,125,123,139,-1,13,12,139,-1,139,12,140,-1,139,140,125,-1,125,140,130,-1,125,130,127,-1,127,130,4,-1,141,142,143,-1,143,142,144,-1,145,146,147,-1,146,145,148,-1,148,145,149,-1,148,149,150,-1,150,149,151,-1,150,151,147,-1,147,151,143,-1,147,143,145,-1,145,143,144,-1,145,144,152,-1,153,154,155,-1,155,154,156,-1,157,153,158,-1,158,153,155,-1,158,155,159,-1,159,155,160,-1,161,156,162,-1,162,156,154,-1,162,154,163,-1,163,154,164,-1,163,164,165,-1,165,164,166,-1,165,166,167,-1,167,166,168,-1,167,168,169,-1,169,168,170,-1,169,170,171,-1,171,170,145,-1,171,145,172,-1,172,145,152,-1,173,149,174,-1,174,149,145,-1,174,145,175,-1,175,145,170,-1,175,170,176,-1,176,170,177,-1,176,177,173,-1,173,177,149,-1,178,177,179,-1,179,177,170,-1,179,170,180,-1,180,170,168,-1,180,168,181,-1,181,168,182,-1,181,182,178,-1,178,182,177,-1,183,182,184,-1,184,182,168,-1,184,168,185,-1,185,168,166,-1,185,166,186,-1,186,166,187,-1,186,187,183,-1,183,187,182,-1,188,187,189,-1,189,187,166,-1,189,166,190,-1,190,166,164,-1,190,164,191,-1,191,164,192,-1,191,192,188,-1,188,192,187,-1,193,192,194,-1,194,192,164,-1,194,164,195,-1,195,164,154,-1,195,154,196,-1,196,154,153,-1,196,153,193,-1,193,153,192,-1,197,198,199,-1,199,198,200,-1,201,197,202,-1,202,197,199,-1,128,7,6,-1,201,203,204,-1,205,198,197,-1,206,207,208,-1,204,206,201,-1,201,206,208,-1,201,208,197,-1,197,208,128,-1,197,128,205,-1,205,128,6,-1,209,210,211,-1,212,211,213,-1,213,211,203,-1,213,203,202,-1,202,203,201,-1,212,44,214,-1,214,44,23,-1,214,23,88,-1,212,214,211,-1,211,214,215,-1,211,215,209,-1,216,217,218,-1,218,217,207,-1,218,207,219,-1,219,207,206,-1,220,126,221,-1,221,126,128,-1,221,128,222,-1,222,128,208,-1,223,224,225,-1,226,227,211,-1,211,227,203,-1,227,223,203,-1,203,223,225,-1,203,225,204,-1,204,225,228,-1,204,228,229,-1,229,228,230,-1,229,230,124,-1,124,230,231,-1,124,231,125,-1,125,231,232,-1,125,232,233,-1,233,232,234,-1,233,234,235,-1,235,234,236,-1,235,236,211,-1,211,236,237,-1,211,237,226,-1,238,210,239,-1,239,210,209,-1,214,240,215,-1,215,240,241,-1,242,238,243,-1,243,238,239,-1,240,244,241,-1,241,244,245,-1,245,244,246,-1,246,244,247,-1,246,247,248,-1,248,247,249,-1,248,249,243,-1,243,249,242,-1,249,121,122,-1,250,235,211,-1,251,252,250,-1,238,242,249,-1,211,210,250,-1,250,210,238,-1,250,238,251,-1,251,238,249,-1,251,249,134,-1,134,249,122,-1,253,141,254,-1,254,141,143,-1,254,143,255,-1,255,143,151,-1,151,149,255,-1,255,149,177,-1,255,177,256,-1,256,177,182,-1,256,182,187,-1,187,192,256,-1,256,192,153,-1,256,153,157,-1,256,157,257,-1,257,157,158,-1,257,158,258,-1,258,158,159,-1,258,159,259,-1,259,159,160,-1,259,160,260,-1,260,160,155,-1,161,261,156,-1,156,261,260,-1,156,260,155,-1,171,172,262,-1,161,162,261,-1,261,162,163,-1,163,165,261,-1,261,165,167,-1,261,167,262,-1,262,167,169,-1,262,169,171,-1,144,263,152,-1,152,263,262,-1,152,262,172,-1,263,144,264,-1,264,144,142,-1,264,142,253,-1,253,142,141,-1,224,257,225,-1,225,257,258,-1,223,256,224,-1,224,256,257,-1,259,228,258,-1,258,228,225,-1,227,255,223,-1,223,255,256,-1,260,230,259,-1,259,230,228,-1,226,254,227,-1,227,254,255,-1,261,231,260,-1,260,231,230,-1,237,253,226,-1,226,253,254,-1,262,232,261,-1,261,232,231,-1,236,264,237,-1,237,264,253,-1,263,234,262,-1,262,234,232,-1,234,263,236,-1,236,263,264,-1,265,251,266,-1,266,251,134,-1,266,134,267,-1,267,134,133,-1,268,269,265,-1,265,269,270,-1,265,270,251,-1,251,270,252,-1,271,250,272,-1,272,250,252,-1,272,252,273,-1,273,252,270,-1,274,275,271,-1,271,275,233,-1,271,233,250,-1,250,233,235,-1,269,276,270,-1,270,276,267,-1,267,133,270,-1,270,133,125,-1,270,125,273,-1,273,125,233,-1,273,233,277,-1,277,233,275,-1,277,278,273,-1,273,278,272,-1,278,274,272,-1,272,274,271,-1,274,278,275,-1,275,278,277,-1,268,265,279,-1,279,265,266,-1,279,266,276,-1,276,266,267,-1,268,279,269,-1,269,279,276,-1,247,119,249,-1,249,119,121,-1,244,240,214,-1,119,247,87,-1,87,247,244,-1,87,244,88,-1,88,244,214,-1,
        ]
    }
}
Shape{
    appearance Appearance {
        material  Material 	{
            diffuseColor 0.8509803921568627 0.8509803921568627 0.8509803921568627
            specularColor 0.4235294117647059 0.4235294117647059 0.4235294117647059
            ambientIntensity 0.851
            transparency 0.0
            shininess 0.5
        }
    }
    geometry IndexedFaceSet {
        ccw TRUE
        solid FALSE
        coord DEF co Coordinate {
            point [
                -1.378 0.6465 0.4764, -1.4567 0.6465 0.4764, -1.378 0.6425 0.4764, -1.4567 0.6425 0.4764, -1.4567 0.4063 0.2402, -1.4567 0.6292 0.0173, -1.4567 0.6169 0.0079, -1.4567 0.178 0.0, -1.4567 0.178 0.2402, -1.4567 0.5874 0.0, -1.4567 0.6027 0.002, -1.4567 0.4063 0.4764, -1.4567 0.6465 0.0591, -1.4567 0.6444 0.0438, -1.4567 0.6385 0.0295, -1.378 0.6465 0.0591, -1.378 0.6444 0.0438, -1.378 0.178 0.2402, -1.378 0.178 0.0, -1.378 0.4063 0.2402, -1.378 0.5874 0.0, -1.378 0.6027 0.002, -1.378 0.6169 0.0079, -1.378 0.6292 0.0173, -1.378 0.4063 0.4764, -1.378 0.6385 0.0295
            ]
        }
        coordIndex [
            0,1,2,-1,2,1,3,-1,4,5,6,-1,7,8,9,-1,9,8,4,-1,9,4,10,-1,10,4,6,-1,4,11,3,-1,1,12,3,-1,3,12,13,-1,3,13,4,-1,4,13,14,-1,4,14,5,-1,0,2,15,-1,15,2,16,-1,17,18,19,-1,19,18,20,-1,20,21,19,-1,19,21,22,-1,19,22,23,-1,2,24,16,-1,16,24,19,-1,16,19,25,-1,25,19,23,-1,8,7,17,-1,17,7,18,-1,12,1,15,-1,15,1,0,-1,20,18,9,-1,9,18,7,-1,
        ]
    }
}
Shape{
    appearance Appearance {
        material  Material 	{
            diffuseColor 0.8431372549019608 0.8156862745098039 0.7529411764705882
            specularColor 0.25098039215686274 0.24313725490196078 0.22745098039215686
            ambientIntensity 0.8167
            transparency 0.0
            shininess 0.5
        }
    }
    geometry IndexedFaceSet {
        ccw TRUE
        solid FALSE
        coord DEF co Coordinate {
            point [
                1.5748 -0.0268 1.4409, 1.5748 -0.0268 1.6772, 1.5157 -0.0268 1.4409, 1.4173 -0.0268 1.6772, 1.5157 -0.0268 0.2598, 1.4173 -0.0268 0.2598, 1.5748 -0.263 1.2047, 1.5748 -0.263 1.4409, 1.5157 -0.263 1.2047, 1.4173 -0.263 1.4409, 1.5157 -0.263 0.2598, 1.4173 -0.263 0.2598, 1.4173 -0.4402 0.2598, 1.4173 -0.4402 1.2047, 1.4173 -0.2039 0.2598, 1.4173 -0.2039 1.4409, 1.4173 -0.4992 1.6772, 1.4173 -0.4992 1.2047, 1.5157 -0.2039 0.2598, 1.5157 -0.2039 1.4409, 1.5157 -0.4402 0.2598, 1.5157 -0.4402 1.2047, 1.2598 0.1701 0.0039, 1.2598 0.1701 0.2402, 1.5748 0.1701 0.0039, 1.5748 0.1701 0.2402, 1.4567 0.4063 0.2402, 1.5748 0.4063 0.2402, 1.4567 0.178 0.2402, 1.3779 0.178 0.2402, 1.3779 0.4063 0.2402, 1.2598 0.4063 0.2402, 1.2598 0.4063 0.4764, 1.3779 0.4063 0.4764, 1.2598 0.6425 0.4764, 1.3779 0.6425 0.4764, 1.2598 0.6425 0.0039, 1.2598 0.389 0.0039
            ]
        }
        coordIndex [
            0,1,2,-1,2,1,3,-1,2,3,4,-1,4,3,5,-1,6,7,8,-1,8,7,9,-1,8,9,10,-1,10,9,11,-1,12,11,13,-1,13,11,9,-1,14,5,15,-1,15,5,3,-1,15,3,9,-1,9,3,16,-1,9,16,13,-1,13,16,17,-1,4,18,2,-1,2,18,19,-1,18,14,19,-1,19,14,15,-1,18,4,14,-1,14,4,5,-1,20,21,10,-1,10,21,8,-1,12,13,20,-1,20,13,21,-1,20,10,12,-1,12,10,11,-1,22,23,24,-1,24,23,25,-1,26,27,28,-1,28,27,25,-1,28,25,29,-1,29,25,23,-1,29,23,30,-1,30,23,31,-1,31,32,30,-1,30,32,33,-1,32,34,33,-1,33,34,35,-1,34,32,36,-1,36,32,31,-1,36,31,37,-1,37,31,23,-1,37,23,22,-1,
        ]
    }
}
Shape{
    appearance Appearance {
        material  Material 	{
            diffuseColor 0.8509803921568627 0.8509803921568627 0.8509803921568627
            specularColor 0.4235294117647059 0.4235294117647059 0.4235294117647059
            ambientIntensity 0.851
            transparency 0.0
            shininess 0.5
        }
    }
    geometry IndexedFaceSet {
        ccw TRUE
        solid FALSE
        coord DEF co Coordinate {
            point [
                1.4567 0.6465 0.4764, 1.3779 0.6465 0.4764, 1.4567 0.6425 0.4764, 1.3779 0.6425 0.4764, 1.4567 0.6465 0.0591, 1.4567 0.6444 0.0438, 1.4567 0.178 0.2402, 1.4567 0.178 0.0, 1.4567 0.4063 0.2402, 1.4567 0.5874 0.0, 1.4567 0.6027 0.002, 1.4567 0.6169 0.0079, 1.4567 0.6292 0.0173, 1.4567 0.4063 0.4764, 1.4567 0.6385 0.0295, 1.3779 0.178 0.2402, 1.3779 0.178 0.0, 1.3779 0.4063 0.2402, 1.3779 0.6292 0.0173, 1.3779 0.6169 0.0079, 1.3779 0.5874 0.0, 1.3779 0.6027 0.002, 1.3779 0.4063 0.4764, 1.3779 0.6465 0.0591, 1.3779 0.6444 0.0438, 1.3779 0.6385 0.0295, -1.0236 0.2106 1.2926, -1.0236 0.2083 1.2926, -0.9449 0.2106 1.2926, -0.9449 0.2083 1.2926, -0.9449 0.1346 0.4961, -0.9449 0.2843 0.4961, -0.9449 0.1493 1.2347, -0.9449 0.2697 1.2347, -0.9449 0.2674 1.2498, -0.9449 0.2614 1.2638, -0.9449 0.252 1.2757, -0.9449 0.2398 1.2849, -0.9449 0.2257 1.2906, -0.9449 0.167 1.2757, -0.9449 0.1575 1.2638, -0.9449 0.1791 1.2849, -0.9449 0.1932 1.2906, -0.9449 0.1515 1.2498, -1.0236 0.1932 1.2906, -1.0236 0.1493 1.2347, -1.0236 0.2257 1.2906, -1.0236 0.2398 1.2849, -1.0236 0.252 1.2757, -1.0236 0.2614 1.2638, -1.0236 0.1515 1.2498, -1.0236 0.1575 1.2638, -1.0236 0.1791 1.2849, -1.0236 0.167 1.2757, -1.0236 0.2843 0.4961, -1.0236 0.1346 0.4961, -1.0236 0.2697 1.2347, -1.0236 0.2674 1.2498, -0.9449 0.2882 0.0, -1.0236 0.2882 0.0, -0.9449 0.2882 0.0039, -1.0236 0.2882 0.0039, -1.0236 -0.5386 0.1378, -0.9449 -0.5386 0.1378, -1.0236 -0.4992 0.1378, -0.9449 -0.4992 0.1378, -1.0236 -0.4992 0.0039, -1.0236 -0.7748 0.0, -1.0236 -0.5892 0.0524, -1.0236 -0.7748 0.0197, -0.9449 -0.7748 0.0, -0.9449 -0.4992 0.0039, -0.9449 -0.7748 0.0197, -0.9449 -0.5892 0.0524, -0.6299 0.2106 1.2926, -0.6299 0.2083 1.2926, -0.5512 0.2106 1.2926, -0.5512 0.2083 1.2926, -0.5512 0.1346 0.4961, -0.5512 0.2843 0.4961, -0.5512 0.1493 1.2347, -0.5512 0.2697 1.2347, -0.5512 0.2674 1.2498, -0.5512 0.2614 1.2638, -0.5512 0.252 1.2757, -0.5512 0.2398 1.2849, -0.5512 0.2257 1.2906, -0.5512 0.167 1.2757, -0.5512 0.1575 1.2638, -0.5512 0.1791 1.2849, -0.5512 0.1932 1.2906, -0.5512 0.1515 1.2498, -0.6299 0.1932 1.2906, -0.6299 0.1493 1.2347, -0.6299 0.2257 1.2906, -0.6299 0.2398 1.2849, -0.6299 0.252 1.2757, -0.6299 0.2614 1.2638, -0.6299 0.1515 1.2498, -0.6299 0.1575 1.2638, -0.6299 0.1791 1.2849, -0.6299 0.167 1.2757, -0.6299 0.2843 0.4961, -0.6299 0.1346 0.4961, -0.6299 0.2697 1.2347, -0.6299 0.2674 1.2498, -0.5512 0.2882 0.0, -0.6299 0.2882 0.0, -0.5512 0.2882 0.0039, -0.6299 0.2882 0.0039, -0.6299 -0.5386 0.1378, -0.5512 -0.5386 0.1378, -0.6299 -0.4992 0.1378, -0.5512 -0.4992 0.1378, -0.6299 -0.4992 0.0039, -0.6299 -0.7748 0.0, -0.6299 -0.5892 0.0524, -0.6299 -0.7748 0.0197, -0.5512 -0.7748 0.0, -0.5512 -0.4992 0.0039, -0.5512 -0.7748 0.0197, -0.5512 -0.5892 0.0524, -0.2362 0.2106 1.2926, -0.2362 0.2083 1.2926, -0.1575 0.2106 1.2926, -0.1575 0.2083 1.2926, -0.1575 0.1346 0.4961, -0.1575 0.2843 0.4961, -0.1575 0.1493 1.2347, -0.1575 0.2697 1.2347, -0.1575 0.2674 1.2498, -0.1575 0.2614 1.2638, -0.1575 0.252 1.2757, -0.1575 0.2398 1.2849, -0.1575 0.2257 1.2906, -0.1575 0.167 1.2757, -0.1575 0.1575 1.2638, -0.1575 0.1791 1.2849, -0.1575 0.1932 1.2906, -0.1575 0.1515 1.2498, -0.2362 0.1932 1.2906, -0.2362 0.1493 1.2347, -0.2362 0.2257 1.2906, -0.2362 0.2398 1.2849, -0.2362 0.252 1.2757, -0.2362 0.2614 1.2638, -0.2362 0.1515 1.2498, -0.2362 0.1575 1.2638, -0.2362 0.1791 1.2849, -0.2362 0.167 1.2757, -0.2362 0.2843 0.4961, -0.2362 0.1346 0.4961, -0.2362 0.2697 1.2347, -0.2362 0.2674 1.2498, -0.1575 0.2882 0.0, -0.2362 0.2882 0.0, -0.1575 0.2882 0.0039, -0.2362 0.2882 0.0039, -0.2362 -0.5386 0.1378, -0.1575 -0.5386 0.1378, -0.2362 -0.4992 0.1378, -0.1575 -0.4992 0.1378, -0.2362 -0.4992 0.0039, -0.2362 -0.7748 0.0, -0.2362 -0.5892 0.0524, -0.2362 -0.7748 0.0197, -0.1575 -0.7748 0.0, -0.1575 -0.4992 0.0039, -0.1575 -0.7748 0.0197, -0.1575 -0.5892 0.0524, 0.1575 0.2106 1.2926, 0.1575 0.2083 1.2926, 0.2362 0.2106 1.2926, 0.2362 0.2083 1.2926, 0.2362 0.1346 0.4961, 0.2362 0.2843 0.4961, 0.2362 0.1493 1.2347, 0.2362 0.2697 1.2347, 0.2362 0.2674 1.2498, 0.2362 0.2614 1.2638, 0.2362 0.252 1.2757, 0.2362 0.2398 1.2849, 0.2362 0.2257 1.2906, 0.2362 0.167 1.2757, 0.2362 0.1575 1.2638, 0.2362 0.1791 1.2849, 0.2362 0.1932 1.2906, 0.2362 0.1515 1.2498, 0.1575 0.1932 1.2906, 0.1575 0.1493 1.2347, 0.1575 0.2257 1.2906, 0.1575 0.2398 1.2849, 0.1575 0.252 1.2757, 0.1575 0.2614 1.2638, 0.1575 0.1515 1.2498, 0.1575 0.1575 1.2638, 0.1575 0.1791 1.2849, 0.1575 0.167 1.2757, 0.1575 0.2843 0.4961, 0.1575 0.1346 0.4961, 0.1575 0.2697 1.2347, 0.1575 0.2674 1.2498, 0.2362 0.2882 0.0, 0.1575 0.2882 0.0, 0.2362 0.2882 0.0039, 0.1575 0.2882 0.0039, 0.1575 -0.5386 0.1378, 0.2362 -0.5386 0.1378, 0.1575 -0.4992 0.1378, 0.2362 -0.4992 0.1378, 0.1575 -0.4992 0.0039, 0.1575 -0.7748 0.0, 0.1575 -0.5892 0.0524, 0.1575 -0.7748 0.0197, 0.2362 -0.7748 0.0, 0.2362 -0.4992 0.0039, 0.2362 -0.7748 0.0197, 0.2362 -0.5892 0.0524, 0.5512 0.2106 1.2926, 0.5512 0.2083 1.2926, 0.6299 0.2106 1.2926, 0.6299 0.2083 1.2926, 0.6299 0.1346 0.4961, 0.6299 0.2843 0.4961, 0.6299 0.1493 1.2347, 0.6299 0.2697 1.2347, 0.6299 0.2674 1.2498, 0.6299 0.2614 1.2638, 0.6299 0.252 1.2757, 0.6299 0.2398 1.2849, 0.6299 0.2257 1.2906, 0.6299 0.167 1.2757, 0.6299 0.1575 1.2638, 0.6299 0.1791 1.2849, 0.6299 0.1932 1.2906, 0.6299 0.1515 1.2498, 0.5512 0.1932 1.2906, 0.5512 0.1493 1.2347, 0.5512 0.2257 1.2906, 0.5512 0.2398 1.2849, 0.5512 0.252 1.2757, 0.5512 0.2614 1.2638, 0.5512 0.1515 1.2498, 0.5512 0.1575 1.2638, 0.5512 0.1791 1.2849, 0.5512 0.167 1.2757, 0.5512 0.2843 0.4961, 0.5512 0.1346 0.4961, 0.5512 0.2697 1.2347, 0.5512 0.2674 1.2498, 0.6299 0.2882 0.0, 0.5512 0.2882 0.0, 0.6299 0.2882 0.0039, 0.5512 0.2882 0.0039, 0.5512 -0.5386 0.1378, 0.6299 -0.5386 0.1378, 0.5512 -0.4992 0.1378, 0.6299 -0.4992 0.1378, 0.5512 -0.4992 0.0039, 0.5512 -0.7748 0.0, 0.5512 -0.5892 0.0524, 0.5512 -0.7748 0.0197, 0.6299 -0.7748 0.0, 0.6299 -0.4992 0.0039, 0.6299 -0.7748 0.0197, 0.6299 -0.5892 0.0524, 0.9449 0.2106 1.2926, 0.9449 0.2083 1.2926, 1.0236 0.2106 1.2926, 1.0236 0.2083 1.2926, 1.0236 0.1346 0.4961, 1.0236 0.2843 0.4961, 1.0236 0.1493 1.2347, 1.0236 0.2697 1.2347, 1.0236 0.2674 1.2498, 1.0236 0.2614 1.2638, 1.0236 0.252 1.2757, 1.0236 0.2398 1.2849, 1.0236 0.2257 1.2906, 1.0236 0.167 1.2757, 1.0236 0.1575 1.2638, 1.0236 0.1791 1.2849, 1.0236 0.1932 1.2906, 1.0236 0.1515 1.2498, 0.9449 0.1932 1.2906, 0.9449 0.1493 1.2347, 0.9449 0.2257 1.2906, 0.9449 0.2398 1.2849, 0.9449 0.252 1.2757, 0.9449 0.2614 1.2638, 0.9449 0.1515 1.2498, 0.9449 0.1575 1.2638, 0.9449 0.1791 1.2849, 0.9449 0.167 1.2757, 0.9449 0.2843 0.4961, 0.9449 0.1346 0.4961, 0.9449 0.2697 1.2347, 0.9449 0.2674 1.2498, 1.0236 0.2882 0.0, 0.9449 0.2882 0.0, 1.0236 0.2882 0.0039, 0.9449 0.2882 0.0039, 0.9449 -0.5386 0.1378, 1.0236 -0.5386 0.1378, 0.9449 -0.4992 0.1378, 1.0236 -0.4992 0.1378, 0.9449 -0.4992 0.0039, 0.9449 -0.7748 0.0, 0.9449 -0.5892 0.0524, 0.9449 -0.7748 0.0197, 1.0236 -0.7748 0.0, 1.0236 -0.4992 0.0039, 1.0236 -0.7748 0.0197, 1.0236 -0.5892 0.0524
            ]
        }
        coordIndex [
            0,1,2,-1,2,1,3,-1,0,2,4,-1,4,2,5,-1,6,7,8,-1,8,7,9,-1,9,10,8,-1,8,10,11,-1,8,11,12,-1,2,13,5,-1,5,13,8,-1,5,8,14,-1,14,8,12,-1,15,16,6,-1,6,16,7,-1,17,18,19,-1,16,15,20,-1,20,15,17,-1,20,17,21,-1,21,17,19,-1,17,22,3,-1,1,23,3,-1,3,23,24,-1,3,24,17,-1,17,24,25,-1,17,25,18,-1,23,1,4,-1,4,1,0,-1,9,7,20,-1,20,7,16,-1,26,27,28,-1,28,27,29,-1,30,31,32,-1,32,31,33,-1,33,34,32,-1,32,34,35,-1,32,35,36,-1,36,37,32,-1,32,37,38,-1,32,38,28,-1,39,40,41,-1,41,40,42,-1,28,29,32,-1,32,29,42,-1,32,42,43,-1,43,42,40,-1,44,27,45,-1,45,27,26,-1,45,26,46,-1,46,47,45,-1,45,47,48,-1,45,48,49,-1,45,50,44,-1,44,50,51,-1,44,51,52,-1,52,51,53,-1,54,55,56,-1,56,55,45,-1,56,45,57,-1,57,45,49,-1,33,31,56,-1,56,31,54,-1,45,55,32,-1,32,55,30,-1,58,59,60,-1,60,59,61,-1,62,63,64,-1,64,63,65,-1,61,59,66,-1,66,59,67,-1,62,64,68,-1,68,64,66,-1,68,66,69,-1,69,66,67,-1,70,58,71,-1,71,58,60,-1,72,70,73,-1,73,70,71,-1,73,71,63,-1,63,71,65,-1,72,69,70,-1,70,69,67,-1,73,68,72,-1,72,68,69,-1,63,62,73,-1,73,62,68,-1,70,67,58,-1,58,67,59,-1,26,28,38,-1,26,38,46,-1,46,38,37,-1,46,37,47,-1,47,37,36,-1,47,36,48,-1,48,36,35,-1,48,35,49,-1,49,35,34,-1,49,34,57,-1,57,34,33,-1,57,33,56,-1,45,32,43,-1,45,43,50,-1,50,43,40,-1,50,40,51,-1,51,40,39,-1,51,39,53,-1,53,39,41,-1,53,41,52,-1,52,41,42,-1,52,42,44,-1,44,42,29,-1,44,29,27,-1,74,75,76,-1,76,75,77,-1,78,79,80,-1,80,79,81,-1,81,82,80,-1,80,82,83,-1,80,83,84,-1,84,85,80,-1,80,85,86,-1,80,86,76,-1,87,88,89,-1,89,88,90,-1,76,77,80,-1,80,77,90,-1,80,90,91,-1,91,90,88,-1,92,75,93,-1,93,75,74,-1,93,74,94,-1,94,95,93,-1,93,95,96,-1,93,96,97,-1,93,98,92,-1,92,98,99,-1,92,99,100,-1,100,99,101,-1,102,103,104,-1,104,103,93,-1,104,93,105,-1,105,93,97,-1,81,79,104,-1,104,79,102,-1,93,103,80,-1,80,103,78,-1,106,107,108,-1,108,107,109,-1,110,111,112,-1,112,111,113,-1,109,107,114,-1,114,107,115,-1,110,112,116,-1,116,112,114,-1,116,114,117,-1,117,114,115,-1,118,106,119,-1,119,106,108,-1,120,118,121,-1,121,118,119,-1,121,119,111,-1,111,119,113,-1,120,117,118,-1,118,117,115,-1,121,116,120,-1,120,116,117,-1,111,110,121,-1,121,110,116,-1,118,115,106,-1,106,115,107,-1,122,123,124,-1,124,123,125,-1,126,127,128,-1,128,127,129,-1,129,130,128,-1,128,130,131,-1,128,131,132,-1,132,133,128,-1,128,133,134,-1,128,134,124,-1,135,136,137,-1,137,136,138,-1,124,125,128,-1,128,125,138,-1,128,138,139,-1,139,138,136,-1,140,123,141,-1,141,123,122,-1,141,122,142,-1,142,143,141,-1,141,143,144,-1,141,144,145,-1,141,146,140,-1,140,146,147,-1,140,147,148,-1,148,147,149,-1,150,151,152,-1,152,151,141,-1,152,141,153,-1,153,141,145,-1,129,127,152,-1,152,127,150,-1,141,151,128,-1,128,151,126,-1,154,155,156,-1,156,155,157,-1,158,159,160,-1,160,159,161,-1,157,155,162,-1,162,155,163,-1,158,160,164,-1,164,160,162,-1,164,162,165,-1,165,162,163,-1,166,154,167,-1,167,154,156,-1,168,166,169,-1,169,166,167,-1,169,167,159,-1,159,167,161,-1,168,165,166,-1,166,165,163,-1,169,164,168,-1,168,164,165,-1,159,158,169,-1,169,158,164,-1,166,163,154,-1,154,163,155,-1,170,171,172,-1,172,171,173,-1,174,175,176,-1,176,175,177,-1,177,178,176,-1,176,178,179,-1,176,179,180,-1,180,181,176,-1,176,181,182,-1,176,182,172,-1,183,184,185,-1,185,184,186,-1,172,173,176,-1,176,173,186,-1,176,186,187,-1,187,186,184,-1,188,171,189,-1,189,171,170,-1,189,170,190,-1,190,191,189,-1,189,191,192,-1,189,192,193,-1,189,194,188,-1,188,194,195,-1,188,195,196,-1,196,195,197,-1,198,199,200,-1,200,199,189,-1,200,189,201,-1,201,189,193,-1,177,175,200,-1,200,175,198,-1,189,199,176,-1,176,199,174,-1,202,203,204,-1,204,203,205,-1,206,207,208,-1,208,207,209,-1,205,203,210,-1,210,203,211,-1,206,208,212,-1,212,208,210,-1,212,210,213,-1,213,210,211,-1,214,202,215,-1,215,202,204,-1,216,214,217,-1,217,214,215,-1,217,215,207,-1,207,215,209,-1,216,213,214,-1,214,213,211,-1,217,212,216,-1,216,212,213,-1,207,206,217,-1,217,206,212,-1,214,211,202,-1,202,211,203,-1,218,219,220,-1,220,219,221,-1,222,223,224,-1,224,223,225,-1,225,226,224,-1,224,226,227,-1,224,227,228,-1,228,229,224,-1,224,229,230,-1,224,230,220,-1,231,232,233,-1,233,232,234,-1,220,221,224,-1,224,221,234,-1,224,234,235,-1,235,234,232,-1,236,219,237,-1,237,219,218,-1,237,218,238,-1,238,239,237,-1,237,239,240,-1,237,240,241,-1,237,242,236,-1,236,242,243,-1,236,243,244,-1,244,243,245,-1,246,247,248,-1,248,247,237,-1,248,237,249,-1,249,237,241,-1,225,223,248,-1,248,223,246,-1,237,247,224,-1,224,247,222,-1,250,251,252,-1,252,251,253,-1,254,255,256,-1,256,255,257,-1,253,251,258,-1,258,251,259,-1,254,256,260,-1,260,256,258,-1,260,258,261,-1,261,258,259,-1,262,250,263,-1,263,250,252,-1,264,262,265,-1,265,262,263,-1,265,263,255,-1,255,263,257,-1,264,261,262,-1,262,261,259,-1,265,260,264,-1,264,260,261,-1,255,254,265,-1,265,254,260,-1,262,259,250,-1,250,259,251,-1,266,267,268,-1,268,267,269,-1,270,271,272,-1,272,271,273,-1,273,274,272,-1,272,274,275,-1,272,275,276,-1,276,277,272,-1,272,277,278,-1,272,278,268,-1,279,280,281,-1,281,280,282,-1,268,269,272,-1,272,269,282,-1,272,282,283,-1,283,282,280,-1,284,267,285,-1,285,267,266,-1,285,266,286,-1,286,287,285,-1,285,287,288,-1,285,288,289,-1,285,290,284,-1,284,290,291,-1,284,291,292,-1,292,291,293,-1,294,295,296,-1,296,295,285,-1,296,285,297,-1,297,285,289,-1,273,271,296,-1,296,271,294,-1,285,295,272,-1,272,295,270,-1,298,299,300,-1,300,299,301,-1,302,303,304,-1,304,303,305,-1,301,299,306,-1,306,299,307,-1,302,304,308,-1,308,304,306,-1,308,306,309,-1,309,306,307,-1,310,298,311,-1,311,298,300,-1,312,310,313,-1,313,310,311,-1,313,311,303,-1,303,311,305,-1,312,309,310,-1,310,309,307,-1,313,308,312,-1,312,308,309,-1,303,302,313,-1,313,302,308,-1,310,307,298,-1,298,307,299,-1,74,76,86,-1,74,86,94,-1,94,86,85,-1,94,85,95,-1,95,85,84,-1,95,84,96,-1,96,84,83,-1,96,83,97,-1,97,83,82,-1,97,82,105,-1,105,82,81,-1,105,81,104,-1,93,80,91,-1,93,91,98,-1,98,91,88,-1,98,88,99,-1,99,88,87,-1,99,87,101,-1,101,87,89,-1,101,89,100,-1,100,89,90,-1,100,90,92,-1,92,90,77,-1,92,77,75,-1,122,124,134,-1,122,134,142,-1,142,134,133,-1,142,133,143,-1,143,133,132,-1,143,132,144,-1,144,132,131,-1,144,131,145,-1,145,131,130,-1,145,130,153,-1,153,130,129,-1,153,129,152,-1,141,128,139,-1,141,139,146,-1,146,139,136,-1,146,136,147,-1,147,136,135,-1,147,135,149,-1,149,135,137,-1,149,137,148,-1,148,137,138,-1,148,138,140,-1,140,138,125,-1,140,125,123,-1,170,172,182,-1,170,182,190,-1,190,182,181,-1,190,181,191,-1,191,181,180,-1,191,180,192,-1,192,180,179,-1,192,179,193,-1,193,179,178,-1,193,178,201,-1,201,178,177,-1,201,177,200,-1,189,176,187,-1,189,187,194,-1,194,187,184,-1,194,184,195,-1,195,184,183,-1,195,183,197,-1,197,183,185,-1,197,185,196,-1,196,185,186,-1,196,186,188,-1,188,186,173,-1,188,173,171,-1,218,220,230,-1,218,230,238,-1,238,230,229,-1,238,229,239,-1,239,229,228,-1,239,228,240,-1,240,228,227,-1,240,227,241,-1,241,227,226,-1,241,226,249,-1,249,226,225,-1,249,225,248,-1,237,224,235,-1,237,235,242,-1,242,235,232,-1,242,232,243,-1,243,232,231,-1,243,231,245,-1,245,231,233,-1,245,233,244,-1,244,233,234,-1,244,234,236,-1,236,234,221,-1,236,221,219,-1,266,268,278,-1,266,278,286,-1,286,278,277,-1,286,277,287,-1,287,277,276,-1,287,276,288,-1,288,276,275,-1,288,275,289,-1,289,275,274,-1,289,274,297,-1,297,274,273,-1,297,273,296,-1,285,272,283,-1,285,283,290,-1,290,283,280,-1,290,280,291,-1,291,280,279,-1,291,279,293,-1,293,279,281,-1,293,281,292,-1,292,281,282,-1,292,282,284,-1,284,282,269,-1,284,269,267,-1,
        ]
    }
}
Shape{
    appearance Appearance {
        material  Material 	{
            diffuseColor 0.2235294117647059 0.2235294117647059 0.2235294117647059
            specularColor 0.11372549019607843 0.11372549019607843 0.11372549019607843
            ambientIntensity 0.2235
            transparency 0.0
            shininess 0.5
        }
    }
    geometry IndexedFaceSet {
        ccw TRUE
        solid FALSE
        coord DEF co Coordinate {
            point [
                -0.2002 0.5078 0.0079, -0.2463 0.3897 0.0079, -0.2002 0.5078 0.0039, -0.2463 0.3897 0.0039, -0.229 0.3897 0.0079, -0.229 0.3897 0.0039, -0.2171 0.4228 0.0079, -0.2171 0.4228 0.0039, -0.1683 0.4228 0.0079, -0.1683 0.4228 0.0039, -0.157 0.3897 0.0079, -0.157 0.3897 0.0039, -0.1397 0.3897 0.0079, -0.1397 0.3897 0.0039, -0.1844 0.5078 0.0079, -0.1844 0.5078 0.0039, -0.1723 0.4358 0.0079, -0.2118 0.4358 0.0079, -0.1899 0.4851 0.0079, -0.191 0.4892 0.0079, -0.1918 0.4934 0.0079, -0.1922 0.4934 0.0079, -0.1929 0.4892 0.0079, -0.194 0.4851 0.0079, -0.1723 0.4358 0.0039, -0.2118 0.4358 0.0039, -0.1899 0.4851 0.0039, -0.191 0.4892 0.0039, -0.1918 0.4934 0.0039, -0.1922 0.4934 0.0039, -0.1929 0.4892 0.0039, -0.194 0.4851 0.0039, -0.0681 0.3897 0.0079, -0.036 0.3897 0.0079, -0.0681 0.3897 0.0039, -0.036 0.3897 0.0039, -0.036 0.5078 0.0079, -0.036 0.5078 0.0039, -0.0694 0.5078 0.0079, -0.0694 0.5078 0.0039, -0.1311 0.4502 0.0079, -0.1311 0.4502 0.0039, -0.1302 0.4613 0.0039, -0.1302 0.4613 0.0079, -0.1271 0.473 0.0039, -0.1271 0.473 0.0079, -0.1216 0.4831 0.0039, -0.1216 0.4831 0.0079, -0.1132 0.4924 0.0039, -0.1132 0.4924 0.0079, -0.1131 0.4925 0.0039, -0.1131 0.4925 0.0079, -0.1002 0.5011 0.0039, -0.1002 0.5011 0.0079, -0.0864 0.506 0.0039, -0.0864 0.506 0.0079, -0.0827 0.391 0.0039, -0.0827 0.391 0.0079, -0.0964 0.395 0.0039, -0.0964 0.395 0.0079, -0.1087 0.4022 0.0039, -0.1087 0.4022 0.0079, -0.1184 0.4115 0.0039, -0.1184 0.4115 0.0079, -0.1252 0.422 0.0039, -0.1252 0.422 0.0079, -0.1294 0.4344 0.0039, -0.1294 0.4344 0.0079, -0.1074 0.4783 0.0079, -0.1016 0.4844 0.0079, -0.093 0.4899 0.0079, -0.0833 0.4933 0.0079, -0.0693 0.4948 0.0079, -0.0519 0.4948 0.0079, -0.0519 0.4026 0.0079, -0.0686 0.4026 0.0079, -0.0811 0.4038 0.0079, -0.091 0.4069 0.0079, -0.0991 0.4117 0.0079, -0.1057 0.4182 0.0079, -0.1107 0.4264 0.0079, -0.1142 0.4375 0.0079, -0.1152 0.4499 0.0079, -0.1142 0.4616 0.0079, -0.1115 0.471 0.0079, -0.0693 0.4948 0.0039, -0.0519 0.4948 0.0039, -0.0833 0.4933 0.0039, -0.093 0.4899 0.0039, -0.1016 0.4844 0.0039, -0.1074 0.4783 0.0039, -0.1115 0.471 0.0039, -0.1142 0.4616 0.0039, -0.1152 0.4499 0.0039, -0.1142 0.4375 0.0039, -0.1107 0.4264 0.0039, -0.1057 0.4182 0.0039, -0.0991 0.4117 0.0039, -0.091 0.4069 0.0039, -0.0811 0.4038 0.0039, -0.0686 0.4026 0.0039, -0.0519 0.4026 0.0039, -0.013 0.4026 0.0079, -0.013 0.3897 0.0079, -0.013 0.4026 0.0039, -0.013 0.3897 0.0039, 0.0504 0.3897 0.0079, 0.0504 0.3897 0.0039, 0.0504 0.5078 0.0079, 0.0504 0.5078 0.0039, -0.0101 0.5078 0.0079, -0.0101 0.5078 0.0039, -0.0101 0.4948 0.0079, -0.0101 0.4948 0.0039, 0.0346 0.4948 0.0079, 0.0346 0.4948 0.0039, 0.0346 0.4559 0.0079, 0.0346 0.4559 0.0039, -0.0072 0.4559 0.0079, -0.0072 0.4559 0.0039, -0.0072 0.443 0.0079, -0.0072 0.443 0.0039, 0.0346 0.443 0.0079, 0.0346 0.443 0.0039, 0.0346 0.4026 0.0079, 0.0346 0.4026 0.0039, 0.0734 0.4088 0.0079, 0.0734 0.3958 0.0079, 0.0734 0.4088 0.0039, 0.0734 0.3958 0.0039, 0.086 0.3906 0.0079, 0.1059 0.3882 0.0079, 0.1059 0.3882 0.0039, 0.1027 0.3883 0.0039, 0.1027 0.3883 0.0079, 0.098 0.389 0.0039, 0.086 0.3906 0.0039, 0.1613 0.4465 0.0079, 0.1613 0.4465 0.0039, 0.1602 0.4328 0.0039, 0.1602 0.4328 0.0079, 0.1566 0.4203 0.0039, 0.1566 0.4203 0.0079, 0.1503 0.4091 0.0039, 0.1503 0.4091 0.0079, 0.1415 0.3998 0.0039, 0.1415 0.3998 0.0079, 0.132 0.3937 0.0039, 0.132 0.3937 0.0079, 0.1205 0.3897 0.0039, 0.1205 0.3897 0.0079, 0.1129 0.389 0.0039, 0.1012 0.5092 0.0079, 0.1012 0.5092 0.0039, 0.1131 0.5083 0.0039, 0.1131 0.5083 0.0079, 0.1263 0.5044 0.0039, 0.1263 0.5044 0.0079, 0.1375 0.498 0.0039, 0.1375 0.498 0.0079, 0.1482 0.4877 0.0039, 0.1482 0.4877 0.0079, 0.1551 0.4767 0.0039, 0.1551 0.4767 0.0079, 0.1596 0.4633 0.0039, 0.1596 0.4633 0.0079, 0.0734 0.5045 0.0079, 0.0734 0.5045 0.0039, 0.0871 0.5082 0.0039, 0.0871 0.5082 0.0079, 0.0734 0.4887 0.0079, 0.0734 0.4887 0.0039, 0.1011 0.4963 0.0079, 0.1011 0.4963 0.0039, 0.0868 0.4944 0.0039, 0.0868 0.4944 0.0079, 0.1455 0.4475 0.0079, 0.1455 0.4475 0.0039, 0.1449 0.4567 0.0039, 0.1449 0.4567 0.0079, 0.1418 0.4693 0.0039, 0.1418 0.4693 0.0079, 0.1369 0.4784 0.0039, 0.1369 0.4784 0.0079, 0.1298 0.4863 0.0039, 0.1298 0.4863 0.0079, 0.1216 0.4918 0.0039, 0.1216 0.4918 0.0079, 0.1127 0.495 0.0039, 0.1127 0.495 0.0079, 0.1038 0.4012 0.0079, 0.1038 0.4012 0.0039, 0.1148 0.4024 0.0039, 0.1148 0.4024 0.0079, 0.1234 0.4056 0.0039, 0.1234 0.4056 0.0079, 0.1306 0.4105 0.0039, 0.1306 0.4105 0.0079, 0.1362 0.4163 0.0039, 0.1362 0.4163 0.0079, 0.1411 0.4245 0.0039, 0.1411 0.4245 0.0079, 0.1443 0.4347 0.0039, 0.1443 0.4347 0.0079, 0.0756 0.4076 0.0039, 0.0756 0.4076 0.0079, 0.0881 0.4029 0.0039, 0.0881 0.4029 0.0079, 0.1714 0.4026 0.0079, 0.1714 0.3897 0.0079, 0.1714 0.4026 0.0039, 0.1714 0.3897 0.0039, 0.2319 0.3897 0.0079, 0.2319 0.3897 0.0039, 0.2319 0.5078 0.0079, 0.2319 0.5078 0.0039, 0.216 0.5078 0.0079, 0.216 0.5078 0.0039, 0.216 0.4026 0.0079, 0.216 0.4026 0.0039
            ]
        }
        coordIndex [
            0,1,2,-1,2,1,3,-1,1,4,3,-1,3,4,5,-1,4,6,5,-1,5,6,7,-1,6,8,7,-1,7,8,9,-1,8,10,9,-1,9,10,11,-1,10,12,11,-1,11,12,13,-1,12,14,13,-1,13,14,15,-1,14,0,15,-1,15,0,2,-1,16,8,17,-1,17,8,6,-1,18,14,16,-1,16,14,12,-1,16,12,8,-1,8,12,10,-1,18,19,14,-1,14,19,20,-1,14,20,0,-1,0,20,21,-1,0,21,22,-1,22,23,0,-1,0,23,17,-1,0,17,1,-1,1,17,6,-1,1,6,4,-1,16,17,24,-1,24,17,25,-1,18,16,26,-1,26,16,24,-1,18,26,27,-1,18,27,19,-1,19,27,28,-1,19,28,20,-1,21,20,29,-1,29,20,28,-1,21,29,30,-1,21,30,22,-1,22,30,31,-1,22,31,23,-1,17,23,25,-1,25,23,31,-1,32,33,34,-1,34,33,35,-1,33,36,35,-1,35,36,37,-1,36,38,37,-1,37,38,39,-1,40,41,42,-1,40,42,43,-1,43,42,44,-1,43,44,45,-1,45,44,46,-1,45,46,47,-1,47,46,48,-1,47,48,49,-1,49,48,50,-1,49,50,51,-1,51,50,52,-1,51,52,53,-1,53,52,54,-1,53,54,55,-1,55,54,39,-1,55,39,38,-1,32,34,56,-1,32,56,57,-1,57,56,58,-1,57,58,59,-1,59,58,60,-1,59,60,61,-1,61,60,62,-1,61,62,63,-1,63,62,64,-1,63,64,65,-1,65,64,66,-1,65,66,67,-1,67,66,41,-1,67,41,40,-1,45,47,68,-1,68,47,49,-1,68,49,69,-1,69,49,51,-1,69,51,70,-1,70,51,53,-1,70,53,71,-1,71,53,55,-1,71,55,72,-1,72,55,38,-1,72,38,73,-1,73,38,36,-1,73,36,74,-1,74,36,33,-1,74,33,75,-1,75,33,32,-1,75,32,76,-1,76,32,57,-1,76,57,77,-1,77,57,59,-1,77,59,78,-1,78,59,61,-1,78,61,79,-1,79,61,63,-1,79,63,80,-1,80,63,65,-1,80,65,81,-1,81,65,67,-1,81,67,82,-1,82,67,40,-1,82,40,83,-1,83,40,43,-1,83,43,84,-1,84,43,45,-1,84,45,68,-1,72,73,85,-1,85,73,86,-1,72,85,87,-1,72,87,71,-1,71,87,88,-1,71,88,70,-1,70,88,89,-1,70,89,69,-1,69,89,90,-1,69,90,68,-1,68,90,91,-1,68,91,84,-1,84,91,92,-1,84,92,83,-1,83,92,93,-1,83,93,82,-1,82,93,94,-1,82,94,81,-1,81,94,95,-1,81,95,80,-1,80,95,96,-1,80,96,79,-1,79,96,97,-1,79,97,78,-1,78,97,98,-1,78,98,77,-1,77,98,99,-1,77,99,76,-1,76,99,100,-1,76,100,75,-1,74,75,101,-1,101,75,100,-1,73,74,86,-1,86,74,101,-1,102,103,104,-1,104,103,105,-1,103,106,105,-1,105,106,107,-1,106,108,107,-1,107,108,109,-1,108,110,109,-1,109,110,111,-1,110,112,111,-1,111,112,113,-1,112,114,113,-1,113,114,115,-1,114,116,115,-1,115,116,117,-1,116,118,117,-1,117,118,119,-1,118,120,119,-1,119,120,121,-1,120,122,121,-1,121,122,123,-1,122,124,123,-1,123,124,125,-1,124,102,125,-1,125,102,104,-1,106,103,102,-1,102,124,106,-1,106,124,122,-1,106,122,108,-1,112,110,114,-1,114,110,108,-1,114,108,116,-1,116,108,122,-1,116,122,118,-1,118,122,120,-1,126,127,128,-1,128,127,129,-1,129,127,130,-1,131,132,133,-1,131,133,134,-1,134,133,135,-1,134,135,130,-1,130,135,136,-1,130,136,129,-1,137,138,139,-1,137,139,140,-1,140,139,141,-1,140,141,142,-1,142,141,143,-1,142,143,144,-1,144,143,145,-1,144,145,146,-1,146,145,147,-1,146,147,148,-1,148,147,149,-1,148,149,150,-1,150,149,131,-1,131,149,151,-1,131,151,132,-1,152,153,154,-1,152,154,155,-1,155,154,156,-1,155,156,157,-1,157,156,158,-1,157,158,159,-1,159,158,160,-1,159,160,161,-1,161,160,162,-1,161,162,163,-1,163,162,164,-1,163,164,165,-1,165,164,138,-1,165,138,137,-1,166,167,168,-1,166,168,169,-1,169,168,153,-1,169,153,152,-1,166,170,167,-1,167,170,171,-1,172,173,174,-1,172,174,175,-1,175,174,171,-1,175,171,170,-1,176,177,178,-1,176,178,179,-1,179,178,180,-1,179,180,181,-1,181,180,182,-1,181,182,183,-1,183,182,184,-1,183,184,185,-1,185,184,186,-1,185,186,187,-1,187,186,188,-1,187,188,189,-1,189,188,173,-1,189,173,172,-1,190,191,192,-1,190,192,193,-1,193,192,194,-1,193,194,195,-1,195,194,196,-1,195,196,197,-1,197,196,198,-1,197,198,199,-1,199,198,200,-1,199,200,201,-1,201,200,202,-1,201,202,203,-1,203,202,177,-1,203,177,176,-1,126,128,204,-1,126,204,205,-1,205,204,206,-1,205,206,207,-1,207,206,191,-1,207,191,190,-1,193,131,190,-1,190,131,134,-1,190,134,207,-1,207,134,130,-1,207,130,205,-1,205,130,127,-1,205,127,126,-1,170,166,175,-1,175,166,169,-1,175,169,172,-1,172,169,152,-1,172,152,189,-1,189,152,155,-1,189,155,187,-1,187,155,157,-1,187,157,185,-1,185,157,159,-1,185,159,183,-1,183,159,161,-1,183,161,181,-1,181,161,163,-1,181,163,179,-1,179,163,165,-1,179,165,176,-1,176,165,137,-1,176,137,203,-1,203,137,140,-1,203,140,201,-1,201,140,142,-1,201,142,199,-1,199,142,144,-1,199,144,197,-1,197,144,146,-1,197,146,195,-1,195,146,148,-1,195,148,193,-1,193,148,150,-1,193,150,131,-1,208,209,210,-1,210,209,211,-1,209,212,211,-1,211,212,213,-1,212,214,213,-1,213,214,215,-1,214,216,215,-1,215,216,217,-1,216,218,217,-1,217,218,219,-1,218,208,219,-1,219,208,210,-1,216,214,218,-1,218,214,212,-1,218,212,208,-1,208,212,209,-1,
        ]
    }
}
Shape{
    appearance Appearance {
        material  Material 	{
            diffuseColor 0.8431372549019608 0.8156862745098039 0.7529411764705882
            specularColor 0.25098039215686274 0.24313725490196078 0.22745098039215686
            ambientIntensity 0.8167
            transparency 0.0
            shininess 0.5
        }
    }
    geometry IndexedFaceSet {
        ccw TRUE
        solid FALSE
        coord DEF co Coordinate {
            point [
                -0.1723 0.4358 0.0039, -0.2118 0.4358 0.0039, -0.1899 0.4851 0.0039, -0.194 0.4851 0.0039, -0.191 0.4892 0.0039, -0.1929 0.4892 0.0039, -0.1918 0.4934 0.0039, -0.1922 0.4934 0.0039, -0.0519 0.4948 0.0039, -0.0519 0.4026 0.0039, -0.0693 0.4948 0.0039, -0.0686 0.4026 0.0039, -0.0811 0.4038 0.0039, -0.1152 0.4499 0.0039, -0.1142 0.4616 0.0039, -0.1115 0.471 0.0039, -0.0833 0.4933 0.0039, -0.091 0.4069 0.0039, -0.0991 0.4117 0.0039, -0.1057 0.4182 0.0039, -0.1107 0.4264 0.0039, -0.1142 0.4375 0.0039, -0.1074 0.4783 0.0039, -0.1016 0.4844 0.0039, -0.093 0.4899 0.0039
            ]
        }
        coordIndex [
            0,1,2,-1,2,1,3,-1,2,3,4,-1,4,3,5,-1,4,5,6,-1,6,5,7,-1,8,9,10,-1,10,9,11,-1,10,11,12,-1,13,14,10,-1,10,14,15,-1,10,15,16,-1,12,17,10,-1,10,17,18,-1,10,18,19,-1,19,20,10,-1,10,20,21,-1,10,21,13,-1,22,23,15,-1,15,23,24,-1,15,24,16,-1,
        ]
    }
}
Shape{
    appearance Appearance {
        material  Material 	{
            diffuseColor 0.8509803921568627 0.8509803921568627 0.8509803921568627
            specularColor 0.4235294117647059 0.4235294117647059 0.4235294117647059
            ambientIntensity 0.851
            transparency 0.0
            shininess 0.5
        }
    }
    geometry IndexedFaceSet {
        ccw TRUE
        solid FALSE
        coord DEF co Coordinate {
            point [
                -1.378 0.5874 0.0, -1.4567 0.5874 0.0, -1.4567 0.6027 0.002, -1.378 0.6027 0.002, -1.4567 0.6169 0.0079, -1.378 0.6169 0.0079, -1.4567 0.6292 0.0173, -1.378 0.6292 0.0173, -1.4567 0.6385 0.0295, -1.378 0.6385 0.0295, -1.4567 0.6444 0.0438, -1.378 0.6444 0.0438, -1.4567 0.6465 0.0591, -1.378 0.6465 0.0591, 1.4567 0.5874 0.0, 1.3779 0.5874 0.0, 1.3779 0.6027 0.002, 1.4567 0.6027 0.002, 1.3779 0.6169 0.0079, 1.4567 0.6169 0.0079, 1.3779 0.6292 0.0173, 1.4567 0.6292 0.0173, 1.3779 0.6385 0.0295, 1.4567 0.6385 0.0295, 1.3779 0.6444 0.0438, 1.4567 0.6444 0.0438, 1.3779 0.6465 0.0591, 1.4567 0.6465 0.0591
            ]
        }
        coordIndex [
            0,1,2,-1,0,2,3,-1,3,2,4,-1,3,4,5,-1,5,4,6,-1,5,6,7,-1,7,6,8,-1,7,8,9,-1,9,8,10,-1,9,10,11,-1,11,10,12,-1,11,12,13,-1,14,15,16,-1,14,16,17,-1,17,16,18,-1,17,18,19,-1,19,18,20,-1,19,20,21,-1,21,20,22,-1,21,22,23,-1,23,22,24,-1,23,24,25,-1,25,24,26,-1,25,26,27,-1,
        ]
    }
}